<?xml version="1.0" encoding="UTF-8" standalone="no"?>
<svg id="svg2" xmlns:rdf="http://www.w3.org/1999/02/22-rdf-syntax-ns#" xmlns="http://www.w3.org/2000/svg" height="1346pt" width="1524pt" version="1.1" xmlns:cc="http://creativecommons.org/ns#" xmlns:dc="http://purl.org/dc/elements/1.1/" viewBox="0 0 1524 1346">
<path id="path4" d="m20.662 7.5508c-6.812 0.2125-13.262 6.1362-11.6 13.211 10.913 27.225 23.089 54 36.051 80.298 16.638 20.22 37.45 36.49 58.317 52.08-1.77 8.35-18.254-6.13-21.567-3.73 14.525 16.51 31.127 32.85 52.547 39.78 23.35 10.8-7.62 7.26-16.79 4.47 9.06 11.1 19.99 21.33 32.88 27.77 13.08 2.47 32.87-1.43 40.82 11.35-6.26 6.6-22.66-1.18-31.35 2.96 12.37 3.47 18.65 16.95 31.65 18.94 13.68 4.22 33.48 0.67 41.22 15.87-5.08 5.21-15.92-1.6-22.72 1.31 14.12 23.22 42.44 17.87 64.6 24.63 6.79 10.86-16 5.5-16.56 11.39 16.49 12.53 34.25 24.8 55.31 27.56 1.83 7.95-10.72 15.89-2.59 22.42 14.38 10.42 36.07 13.46 43.72 31.43 2.77 5.23-6.46 4.86-5.6 9.18 8.1 4.07 18.14 5.41 24.5 12.14 3.84 8.79-16.74 10.96-6.04 16.99 17.8 14.01 53.03 18.85 53.35 46.4-4.05 12.51-16.73 3.76-24.93 1.94-11.4-0.1-12.42 32.58-23.28 13.94-10.96-28.8-52.44-28.97-63.5-0.53 0.45 14.02 3.79 29.86-7.65 40.8 5.46 2.71 14.36 4.01 14.69-4.5-1.92-18 0.02-45.98 22.66-49.11 12.45 4.8 26.94 11.15 29.88 25.84 4.71-0.29 9.02-2.2 12.88-4.83-8.37 23.99-3.32 49.9-0.91 74.52 0.49 5.38-7.22 5.97-10.54 4.67-16.16-13.84-10.4-37.17-11.15-55.89-10.51 10.99-4.73 28.94-1.5 41.69 10.19 18.62-13.44 41.86-31.84 31.97-10.31-13.07 6.44-37.66-11.74-46.16-1.77-2.64-16.8-9.56-10.48-2.05 12.18 5.76 10.85 21.14 7.31 31.82-6.28 14.47 10.97 27.67 24.41 26.7 17.96-0.58 33.18-12.24 48.69-19.79 5.44 1.48 7 8.68 11.14 12.16 6.76-4.81 20.35-1.92 13.89 9.01-8.31 14.87-21.45 28.74-30.64 42.24 20.65 20.32-24.96 28.58-11 49.32-6.9 13.98-36.66 25.55-24.88 45.85-14.08 12.34-29.07 26.23-44.02 38.39-6.29 2.98 6.87 3.07 1.74 6.66-16.3 10.15-28.68 25.29-38.63 41.56 4.95-0.11 17.23-6.98 17.56 1.83-22.86 8.95-37.77 28.39-52.54 47.01 5.7-0.57 19.18-8.85 19.47-0.88-23.14 6.31-33.48 30.37-44.61 49.38-7.1 20.08-20.8 37.38-22.72 59.39 2.68 0.1 7.63-1.9 6.28 2.67-7.84 16.28-24.59 28.68-26.07 47.88-6.09 31.9-6.87 68.3-11.49 98.1 5.3 1 10.77 0.1 16.02-0.8 8-45.3 14.84-92.2 36.93-133.3 36.62-82.64 94.78-152.89 142.64-228.64 23.61-28.17 56.02-55.8 56.38-95.5 11.96-9.62 7.06-25.32 9.3-38.62 8.15-21.53 19.29-42.33 40.14-54-3.26 5.91-7.34 12.99-3.5 19.72 17.62 11.88 35.42 26.39 52.15 38.03-9.54 6.8-25.96 2.41-37.13 9.19 6.75-4.19 0.38-9.97-4.11-12.84-12.81-6.64-17.48-24.76-33.31-25.85 3.15 10.59 19.35 16.76 14.4 30.33-6.78 23.43 22.08 30.37 36.68 40.46 32.94 4.53 69.33 5.33 99.57-9.92 19.89 22.44 42.16 61.75 78.59 48.1 24.47 0.98 46.72-10.2 66.52-23.27 2.6 5.83 10.38 9.87 11.08 15.9-19.69 3.55-31.73 20.95-40.71 37.26-2.74 40.04 20.42 76.14 39.63 109.25-20.86 36.46-40.72 74.66-46.97 116.72-6.05 33.38-14.91 70.38 0.85 102.28 25.05 25.7 47.26 56.6 81.2 71 13.55 2.9 9.97 20.1 8.61 29.7-18.67 13.7-22.81 45.5 0 57.5-0.97 14.9-4.76 32.3-16.68 42.5-3.98 1.8-3.59-4.4-3.98-6.9-8.66 22.6-12.05 46.9-22.55 68.9-4.27 12.4-10.96 32 5.99 37.1 9.33-17.5 17.43-35.9 20.29-55.7 9.09 0.7 18.04 10.9 27.74 5.1 3.53-21.6-11.1-50.3 9.3-66.4 5.75-12.6-14.91-23.6-5.2-36.8 18.3-13.8 1.95-39.6 4.34-58.3 3.09-11.3 19.18-22.1 8.84-33.1-33.43-27.5-86.34-33.4-102.77-78.4 9.43-16.5 30.72-26.7 36.05-46.4 11.97-36.61 18.26-75.84 27.72-112.22 120.85 134.32 251.86 262.42 377.86 393.12 74.7 52.1 148.2 123 244.6 125.1 27.1 14.3 65.4 31.9 61.3 68.9-4.2 17.9 7.5 39 27.7 35.8 17.5 9.6-0.3 26.4 1.3 40.1 7.4 14.1 21.9 22.6 35.3 30.3 5.7 29-1.8 67.8 30.8 82.7-6.9-25.5-20-50-20.3-76.8 9.3-5.1 21-0.3 31.2-1.4-12.3-19.4-22.1-45.6-46-53-14.4-5.3-17-31.7-1.1-36.3-11.4-10.4-26.2-15.7-40.2-21.4-4.1-19.8-10.2-39.7-22.5-56.1-4.7-5.3-19.1-5.7-18.4-13.4 48.7-2.6 99.1-9.7 139.3-39.3 7.5-11.5 24.7-17.5 19.4-34.1 30.2 0.4 64.7-11.5 78.8-40.3 20 5.4 39.4-9.6 53.1-23.1 27.5-20.5 26.5-57.3 27-88 5.3-18.8-24.3-35.2-6.9-51.7 12.1-8.7 5.4-24.2 9-35.8 39.7-32.3 34.3-88.6 26.3-133.59 12.2-6.65 26 0.87 38.5-1.53 9.3-9.27 20.8-24.22 33.4-10.04 10.5-2.85 10.4-23.04 20.5-29.22 11-2.82 22.1-5.58 33.1-8.11 0.3-8.04 0.4-26.45-10-26.46-9.8 15.6-29.3 19.64-40 34.49-7.6-0.27-13.9-6.59-21.5-7.3-16.9 13.96-34.1 40.85-58.9 32.66-5-62.14-50.2-109-90.6-152.29-77.2-65.75-169.7-109.91-263.7-146.26-112.5-44.56-224.8-89.54-337.3-133.99-13.3-6.15-32-7.67-41-18.66 19.6-11.04 44.6-15.23 63.6-28.94 29.2-15.74 46.8-45.76 65.3-71.21 47.5 16.83 62.3 70.41 92 106.56 11.1 4.79 24 3.51 34.3-2.73 12.1-6.99 13.7 22.48 25.6 12.18 10.5-12.2 21.7 4.59 32.2 4.91 5.2-6.26 8-14.53 14.3-20.09 18-5.49 43.4 5.22 57.6-11.35-3.2-13.47-16.3-23.42-17.3-37.49 15.2-7.98 24-23.35 34.3-36.4 5.4-7.15-3.1-16.44-10.5-16.76-11.9 6.31-17.9 19.23-25.4 29.73-8.3 14.5-24.2 27.4-18.9 46-10.4 11.72-26.8 16.36-41.6 21.18-12.4 2.23-20.3-11.26-31.6-12.74-9.9 1.31-32.4 15.59-27.4-5.51-27.6-34.15-57.7-67-92.6-94.1-29-17.76-65.4-12.06-94.8 2-38 27.84-70.8 62.26-105.84 93.22-32.46-8.46-68.23-14.29-100.07-0.27-21.88 6.82-43.63 26.75-40.79 51.41 4.36 6.03-3.31 8.2-5.75 4.71-9.3-10.7-24.07-4.76-36.3-6-1.75-27.82-12.2-56.01-29.22-77.58 2.91-40.97 2.89-82.73-6.96-122.81-9.28-1.94-18.91-2.12-28.35-1.71-20.11 18.75-8.45 47.83-12.58 71.87-13.84 1.33-23.89-11.15-27.04-23.35-6.18-19.18-19.8-36.84-22.67-56.08-4.18 32.82 6.61 63.75 14.87 94.87 12.73-1.97 16.91 23.97 27.6 31.34-22.87 5.79-52.17 4.64-68.75 26.08 28.93-15.43 62.11-26.32 95.24-20.17 9.91 0.03 19.41 4.37 24.97 12.73 4.54 5.07 9.44 9.99 12.79 15.99 14.53 27.66 11.77 60.7 12.01 90.88 1.31 6.29-3.02 11.03-5.92 15.94-15.81 25.18-32.94 49.48-49.94 73.83-9.01 32.7-45.44 41.97-73.76 51.13-21.44 10.12-49.32 3.08-63-16.28-13.65-11.33-30.1-25.48-26.98-45.41 2.03-32.75-7.1-69.62 9.33-99.73 11.01-31.74 39.11-50.9 60.27-75.14-9.15 2.91-14.91 16.09-23.81 15.41-12.53-20.92-37.26-12.89-57.1-13.36 5.53-20.02 1.16-45.72-20.78-54.05-18.9-4.64-37.53 8.17-45.58 24.95-7.79 3.08-11.76-11.17-20.78-10.04-16.16-6.86-17.4 12.79-18.21 21.88-10.84-3.76-23.85-7.66-33.18-15.24-35.01-58.33-74.56-114.06-128.08-156.86-88.57-63.31-184.24-127.76-234.83-227.66-13.335-18.402-18.235-44.789-40.648-54.889zm719.77 346.75c29.23 17.98 24.92 62.54 24.38 93.02-10.23-0.23-20.49-0.63-30.67-1.44-1.03-29.69-15.01-67.09 6.29-91.58zm395.27 39.67c2.7-0.05 5.4 0.24 8.1 0.85-17.2 33.82-67.9 22.39-84.7 55.49-17.3 11.69-35.6 22.28-48.8 39.04-5.8 0.92-12.04-3.71-17.73-5.7 19.63-29.74 50.43-50.26 81.13-67.44 18.6-8.16 36-21.42 57-21.81 1.7-0.26 3.3-0.41 5-0.43zm-602.07 42.25c3.38-0.01 6.7 0.5 9.59 1.49 7.89 7.33 11.48 21.84 3.09 30.2-4.23 38.41-9.85 78.84-0.53 116.68-31.6-10.85-25.05-53.37-44.92-75.87-2.51 4.92-1.75 14.72-6.11 17.29-0.17 5.46-0.26 11.19-2.29 16.38 2 19.72-2.25 38.99-4.82 58.39-3.18 17.05-22.69 4.75-31.92 1.02-6.67-28.82 21.88-47.72 23.33-75.18 4.81-29.26-31.36-51.34-13.81-79.06 13.34-12.98 21.8 12.48 35.2 8.08 5.64-1.37 1.27 8.99 5.15 10.22 15.1 5.48 7.27-13.73 8.27-21.46 4.52-5.61 12.32-8.16 19.77-8.18zm-102.06 18.57c7.34 10.26 30 5.42 23.47 24.14-2.87 10.97 10.21 39.61-12.43 31.1 4.77 11.83 13.78 22.18 15.68 35.16 0.72 16.49-17.03 24.39-21.33 39.17-2.8 8.83-22.14 21.19-25.34 7.18 0.23-31.97 1.83-64.04 3.91-95.95-1.82-10.4 12.78-13.28 10.53-23.56-0.88-6.43 1.65-12.29 5.51-17.24zm499.69 25.03c26.93-0.13 53.97 6.27 78.24 18.15 8.4 6.02 15.5 14.38 26.4 16.1 42.2 12.15 82 31.13 122.7 47.29 112.1 45.78 224.2 91.56 336.3 137.53 41.4 20.77 82.9 41.81 123.7 63.77 26.3 26.21 57.8 48.43 78.5 79.65 21.4 23.55 48.4 47.4 53.5 80.83 14.7 44.48 14 92.16 11.3 138.36-6 13.1-11.1 27.9-22.9 37.1-17.4 0.7-34.8-0.3-52.1-1.6-27.6-10.5-53.9-24.6-79.5-38.8-168.3-82.78-332.5-173.9-497.5-263.16-70-35.44-141.32-68.31-212.6-101.05 4.75 10.16 14.2 16.59 21.89 24.32 112.01 103.84 224.11 207.55 336.11 311.39 65 56.3 129.9 112.6 195 168.7 24.3 26.3 47.5 53.5 71.1 80.3 14.5 16.3 29.7 32.3 42 50.3 11.1 14.6 4.1 37.2-12.7 44.2-25.6 24.3-60.4 31.6-94.5 31.9-55.1 1.7-116.2 10.4-165.4-20.9-52.2-25.1-96.6-62.9-143.2-96.8-63-63.3-125.5-127-188.56-190.2-59.99-65-120.19-129.83-180.22-194.79-22.76-28.22-44.47-57.32-66.17-86.34-9.95-22.47-21.23-48.22-11.86-72.76 20.22-27.3 59.12-28.18 80.21-54.76 5.52-8.12 15.69-13.52 25.54-10.44 9.41 1.24 18.88 2.05 28.37 0.9 35.84-27.4-26.76-61.53-0.46-92.13 15.36-12.92 23.52-33.83 16.84-53.56-4.95-16.7 3.76-33.56 18.75-40.85 19.41-8.5 40.28-12.55 61.22-12.65zm-366.27 2.12c0.43-0.01 0.87 0.01 1.31 0.05 11.79 15.99 32.46 2.64 44.89 19.29-19.34 24.2-41.19 49.78-44.39 81.82-13.84 3.16-21.63-14.85-21.83-25.85 1.95-21.53-1.97-44.2 7.88-64.28 1-6.28 5.72-10.97 12.14-11.03zm-162.95 4.18c3.27-0.06 6.03 0.76 5.75 4.89 3.65 32.63 0.96 65.82-1.97 98.45-11.48 2.58-18.1-9.81-21.2-19.16-6.26-25.51 2.78-51.53 0.31-77.35-0.88-5.38 6.02-5.36 9.72-6.17 1.98-0.01 4.84-0.6 7.39-0.66zm410.99 51.79c1.15-0.02 2.4 0.07 3.77 0.25 12.25-0.09 31.61 11.4 22.04 25.53-5.2 9.79-3.57 26.41-14.8 31.09-2.27-10.95-9.53-17.99-19.48-22.19-1.25-12.61-8.68-34.46 8.47-34.68zm-10.09 43.6c16.86 3.81 14.48 30.63 23.12 40.75 2.34-0.14 0.11-4.24 2.48-4.26 4.42 14.04 14.72 27.66 10.8 43.21-7.91 18.97-30.5 7.88-44.98 11.75-8.36-19.46 12.28-35.21 27.19-45.05 7.34-3.8-0.82-8.26-5.84-6.6-18.65 12.31-28.95 32.64-40.74 50.84-8.52-1.64-16.93-3.74-25.44-5.36-2.07-11.32 13.43-16.64 18.82-24.73 12.24-19.71 25.66-39.85 34.59-60.55zm-238.4 9.1c-1.38 20.03-0.05 40.09 0.06 60.05-12.91-16.41-15.18-43.75-0.06-60.05zm-54.11 8.54c16.92 3.98 18.31 25.55 27.97 37.94-22.67 3.9-44.11-11.39-63.28-19.56 16.24 5.3 24.21-10.67 35.31-18.38zm41.71 30.3c-1.15 12.25 6.36 26.89 13.91 38.99-17.8 13.04-42.92 7.55-63.52 9.11-19.15 1.58-42.04-4.5-53.6-19.66 31.37-10.58 65.66-7.02 98.21-9.94-1.29-6.75 0.76-13.18 5-18.5zm192.06 44.91c12.26 2.3 24.73 2.2 37.1 0.84-9.91 13.05-26.44 21.71-39.86 31.83-5.84-3.02-13.09-6.59-15.25-13.09 6.29-5.96 10.96-15.28 18.01-19.58zm280.6 88.55c16.8 3.59 24.4 19.62 34.1 31.83 15 11.9 36.3 1.37 51.5 12.58 9.4 5.65 30.7 10.49 13.2 22.64-19.8 8.09-43.9 5.93-65.4 6.23-9.7-6.51-17.9-15.19-26.7-22.95-3.4-16.49-4.6-33.57-6.7-50.33zm135.4 71.34c24.4 6.29-6.7 12.3-15.4 16.19 19.4 5.12 42.9-6.88 60.4 6.85 8.8 6.53 23.9 9.22 29.3 17.46-42.3 6.95-82.2-18.79-125.1-11.82 9.2 8.36 21.5 11.02 32.9 14.75 28.7 8.32 51.4 32.02 82.8 29.98-28 3.88-58.8 5.01-85.6-7.19-24.9-4.67-38.6-28.05-58.1-41.93-5.8-6.25 8.4-2.99 11-3.59 25 3.04 48.7-5.24 67.8-20.7zm-426.31 33.61c1.83 0.12 4.12 4.08 5.4 5.71-10.88 46-28.91 92.27-55.73 131.33 4.3-49.05 28.4-93.32 49.58-136.84 0.24-0.16 0.49-0.22 0.75-0.2zm600.91 58.61c58.7 28.49 115.6 60.64 173.9 90.13-32.7 7.5-76.5 18.4-108.4-2-59-13.4-118.8-22.93-178-35.56-18.1-10.69-35.9-23.99-49.6-40.22 12.4-1.96 26.4-6.98 38.1 0.39 7.8 4.54 14.3 14.69 24.6 12.61 11-3.16 21.8-12.13 33.6-9.89 15.1 16.1 29.6 33.06 44.9 49.08 1.9 2.85 8.6 4.25 4.4-2.77-5.8-25.95-29.9-39.82-47.2-56.95 11.8 2.1 23.7 3.21 35.6 4.37 15.1 2.83 15.8 20.65 26 29.1 10.7 10.2 21.4 20.56 33.4 29.19-8.2-12.15-19.2-22.13-27.9-33.89-1.5-11.14-2.1-22.41-3.4-33.59zm-53.1 80.63c12.9-0.4 22.5 11.9 29.6 21.6 12.8 16.8 23.2 35.8 37.7 51.2-7.7-20.8-19.1-40.4-24.3-62 29.6 18.9 38.4 56.1 63.1 79.3 19 10.1 41 12.6 61 20.2-25.4-16.7-66.5-28.4-74.4-62.2 24 3.6 62.2 0 70.1 30.3 7 19.3 23.7 47.1 48.5 35.2 25.3 1.4 42.2 28.1 67.7 29.3 12.8-3.8 4.6-22.1 2.5-30.7-5.3-11.7-10.2-28.6-24.3-31.6-12.6 5.2-28.1 2.5-38.4 12.9-4.8 5.6-13.9 11.1-20 4-17.2-16.9-35.6-34.8-45.4-57.1 31.7 10.1 66.4-2.2 99.3-2.5 12.7 24.5 36.8 40.8 48.3 66 13.1 23.7 25.8 47.7 33.6 73.7-6.7 6.6-17.3 3.5-25.6 3.6-72.5-13.2-140.4-42.8-208.9-68.9-9-3.2-18.3-6.5-25.1-13.6-32.8-30.2-66.8-59.3-99-89.8 3.5-4 12-6.5 18.3-7.9 1.9-0.6 3.9-0.9 5.7-1zm289.4 43.1c23.1 10 44.4 23.8 67.8 33.4 30.8 10.9 42.3 45.4 51.1 74 11.7-9.7 19.5-23.5 32-33.1-2.9-7.8-17.1-8.4-22-15.9 12.4 1.4 26.5 6.6 37.7-1 12.3 24.3-45.4 41.5-14.8 59.3 15.4 8.3 15.5 30.7 6.3 43.7-32.4 10.8-67.1 10.2-100.1 1.4 0.9-27.1-10.5-52.2-23-75.6 18.3 18 34.9 38 46.2 61.2 0.1 1.6 4.9 7.4 3.9 2.5-6.5-22.9-20.5-42.9-35.1-61.2 21.6 14.5 37 37.6 60.3 49.6 5.8-2.9-3.7-10.5-4.7-15.2 0.8-2.5 14.5 13.5 11.6 3.7-25.2-54.9-92-71.8-117.2-126.8zm-66.7 139c47.4 19.6 90.5 51.6 137.1 74.3-32.3-29.1-71.4-49.8-109-71.2 28.1 5.5 61.3 7.9 87.2 0.8 6.8 34.5 37.9 64.2 28.9 102.7-4.1 32.3-44.2 44.1-70.7 33.9-6.3-15.7-19.3-26.5-29.1-39.8 16.6 4.2 32 12.5 43.8 24.9 12.9 14.7 35.1 5.2 48.7-3.7-19.4-10.3-40.5-16-62-20.2-5.1-0.5-8.6-8.5-1.8-9.8 21.7-7.5 47.6 2.2 68.7 0.6-24.9-11.1-51.9-17.8-74.7-33.1-22.6-18-43.7-37.7-66.8-54.9-8.2-2.4-2.4-3.5-0.3-4.5z" transform="scale(.8)"/>
</svg>
