<?xml version="1.0" encoding="UTF-8" standalone="no"?>
<svg id="svg2" xmlns:rdf="http://www.w3.org/1999/02/22-rdf-syntax-ns#" xmlns="http://www.w3.org/2000/svg" height="2468pt" width="2406pt" version="1.1" xmlns:cc="http://creativecommons.org/ns#" xmlns:dc="http://purl.org/dc/elements/1.1/" viewBox="0 0 2406 2468">
<g id="g4884">
<path id="rect4318" d="m2012.9 12.033c-4.1253 0.03959-8.2445 0.20562-12.345 0.5375-22.39 0.67-45.48 5.46-63.52 19.5-12.6 10-25.571 21.04-41.841 24.1 3.84-8.86 10.67-20.12 4.8203-29.22-9.32 5.52-14.13 16.711-23.27 22.841-16.66 11.25-23.36 30.829-30.47 48.669-7.09 16.09 3.4212 32.071 3.5812 48.331-9.92 1.87-7.3812-20.571-15.331-15.011-3.85 26.75 8.8809 52.39 11.011 78.8 0.12 6.78-9.2803 5.0009-11.42 0.26093-10.1-15.28-1.7897-34.74-6.7297-51.37-4.06-1.96-7.1109 2.6091-7.9609 6.0391-5.3 16.19-10.2 33.281-8.45 50.481 1.46 27.29 20.211 49.289 25.981 75.189 1.56 15.93-14.861-7.1803-15.081 4.9297 2.31 55.44 52.841 90.061 76.931 135.96-9.77 0.24-17.63-16.151-25.65-10.961 8.75 25.14 20.119 51.251 43.019 66.691 21.93 14.17 44.591 27.461 64.631 44.291-11.83-2.53-25.4-10.57-36.95-2.8703 5.79 13.36 18.879 21.89 28.419 32.47 24.14 21.08 64.011 31.459 70.381 67.419-6.38-2.79-22.301-15.319-25.361-4.5188 33.52 41.4 25.261 100.81 0.7109 144.42-10.09 18.15-33.7 35.78-54.35 22.77 4.51-7.94 5.1291-23.54-5.5109-25.7-1.49 15.49-16.66 28.8-32.33 26.48-17.07-10.15-31.589-23.97-44.109-39.3-18.36-22.01-47.841-25.85-73.591-33.3 2.92-6.53 16.21-11.329 12.52-18.789-14.5 1.42-28.28 7.9897-43.05 8.4297-25.73 2.04-47.721-14.05-72.591-17.55 4.75-5.3 15.86-5.92 16.92-13.75-34.94-16.17-74.079-4.2006-110.81-6.2906 0.08-5.66 3.5188-11.579 0.7688-16.959-28.56 6.03-59.74 9.8897-87.1-3.0203 4.02-8.3 18.821-12.37 19.211-20.22-18.92-3.99-38.461 4.1603-57.441 6.8203-24.15 1.88-48.24-1.3694-72.32-2.6594 2.31-3.73 17.341 1.0091 16.281-6.4109-32.04-11.93-67.901-6.0994-100.64 0.49062 2.2-4.26 11.449-7.8903 6.7594-12.92-34.22 1.75-67.82 11.78-99.3 25.1-24.11 1.78-46.659 13.9-63.809 30.62-5.65-2.56 4.6603-16.79-3.6297-18.83-28.92 6.98-44.831 38.4-74.961 43 1.25-3 5.9518-9.3397-0.01-9.7797-37.79 5.55-75.4 17.6-106.77 39.9 0.59-3.85 6.17-8.9012 1.3-11.731-33.95 6.67-62.249 29.011-84.909 54.041-1.87-3.07 7.879-19.28-2.111-18.28-21.28 26.64-56.63 35.849-78.48 61.859 0.9-3.5 6.7406-12.98-1.3094-10.62-21.7 11.92-45.97 21.521-62.27 40.991-5 5.95-8.6994 13.44-16.159 16.8 0.21-4.61 8.19-11.5 1.75-14.08-22.77 12.4-41.591 31.27-56.681 52.15-5.92 4.41 3.0506-6.3503-2.7094-7.0203-21.74 5.19-38.059 23.281-49.409 41.891-5.56 5.92 0.75-8.8103-5.95-7.1703-21.17 9.1-25.37 35.769-43.7 48.259-2.57 1.67-1.8703-3.6894-4.5203-3.2094-20.42 7.8-32.651 26.939-47.341 41.959-2.24-2.24 3.59-15.98-3.7-12.05-26.45 24.18-48.04 54.541-80.07 71.991-4.36-2.34-3.6497-14.871-11.18-11.341-5.11 17.85-9.5094 37.421-23.159 51.011-12.48 9.71-24.97 19.76-38.9 27.3-8.68-0.56 5.7894-14.45-2.4906-15.87-19.11 13.27-24.999 38.37-41.989 53.28-7.69 7.04-7.2903-15.53-14.77-7.9297-3.53 19.17-15.391 36.259-33.061 44.959-10.79 12.43-21.939 25.88-37.509 32.43-4.51-2.61 3.6706-16.979-4.5094-16.719-11.55 12.64-8.81 32.07-19.75 44.68-3.74-1.11-4.84-15.561-11.15-10.191-5.75 29.12-25.071 53.94-47.781 71.97-2.84-2 3.4-11.621-2.6-13.791-8.89 9.58-10.899 22.68-14.639 34.65-2.54-1.82-3.2097-7.3888-7.1797-6.4188-7.27 11.82-6.391 28.969-20.211 36.109-36.19 24.9-84.78 36.7-108.02 77.13-8.91 31.12 21.22 48.92 42.97 62.83 43.65 38.77 48.71 100.89 75 150.01 10.3 17.29 30.29 25.709 41.45 41.709 1.91 6.63-0.17 30.64 10.65 21.35 2.5 11 5.5297 23.94 15.73 30.37 4.87 3.74 5.3503-9.0297 8.3703-1.5797 5.88 12.05 23.55 35.51 36.87 22.12 3.76 13.25 13.909 25.649 27.559 28.919 3.05-7.63 12.141-3.7091 17.461-0.9891 4.08 5.36 8.01 27.26 14.1 12.37 3.8 8.46 22.399 33.709 26.339 16.789 24.38 22.4 59.69 13.291 89.7 16.341 20.9-13.67 46.5-19.01 65.57-35.77 2.84-4.42 0.25096-9.5694-1.939-13.659 9.87-4.02 20.76-4.5309 31.25-5.4609 5.03-3.68 2.1893-10.26-0.0112-14.78 1.12-5.54 13.13 1.6394 14.27-5.6406 2.45-4.33-5.2406-12.35 2.9594-11.85 16.51 1.81 25.521-13.679 29.591-27.309-0.76-5.63-13.57 0.2603-11.65-6.4797 14.06-24.45 43.229-33.34 61.759-53.53 10.2 6.58 13.38 18.8 15.3 29.88 9.59-0.13 7.3403-17.23 10.32-22.32 13.51 7.62 24.39 19.62 31.65 33.32 8.4-1.62 11.94-11.891 12.25-19.641 22.95 17.64 49.981 35.11 58.711 64.57 4.26 12.31-0.25032 29.341 11.13 38.091 9.83-0.96-0.11-20.37 6.4-24.07 17.36 33.75 28.56 75.14 11.47 111.22 3.1 7.66 14.679 5.3194 21.039 2.0594 0.35 23.87 10.56 52.36-9.5 71.72-13.97 15.42-36.72 15.729-52.17 28.839-13.03 9.67-17.879 26.311-30.269 36.711-9.78 8.23-9.1903 21.969-16.07 31.939-8.03 9.73-3.611 24.72 5.389 32.12 14.9 8.38 23.77 27.261 43.3 26.161 27.62 18.53 68.141 15.01 91.261-9.3203 18.45-12.98 25.31-36.25 43.52-49.48 15.65-11.7 27.379-29.201 36.139-45.481 8.57 14.08 20.31-12.399 14.7-21.109 4.12 3.06 13.881 5.43 15.211-1.15-5.53-14.59-11.371-30.56-4.7313-46.02 5.97 0.6 3.291 16.36 11.161 10.33 13.05-11.01-7.2006-27.25 2.6094-39.48 9.31-13.99 9.2497-31.3 14.33-46.72 4.11 1.83 8.5003 14.261 13.22 9.0812-1.79-26.57 10.701-51.401 9.411-78.291 4.35-0.26 11.539 13.68 18.119 5.85-2.84-16.72-2.7311-33.96 0.0192-50.72 4.12 4.68 11.831 14.13 17.841 7.8703-3.44-13.07-2.9608-26.771 1.3392-39.591 6.67 3.34 2.4712 21.5 12.231 20.17 18.05-18.06 28.359-43.5 31.339-68.7 1.09-11.56 9.5697-20.499 16.68-28.939 2.37 6.38 2.68 14.83 8.8 19.05 9.13-5.03 10.991-18.87 18.731-24.8 7.42 1.81 3.3493 16.69 13.209 12.3 22.07-9.79 25.36-37.551 25.41-58.581 10.45 11.41 16.04 26.951 17.3 42.241-2.15 5.17 4.2503 7.2294 7.6703 5.5094 12.24-3.05 21.91-12.61 27.02-23.93 1.51 4.98-1.0805 10.881 1.7595 15.311 16.95 1.22 30.311-13.291 37.431-26.631 5.62 6.79 15.409 2.99 20.539-2.45 0.09 19.77 4.0002 42.361 20.87 55.031 6.78-2.14 3.8095-12.921 6.9095-18.061 5.24 13.51 14.84 24.571 27.14 32.161 5.65 3.84-4.1293 10.059 0.5407 14.269 6.44 6.26 16.189 2.7707 23.619 0.011-2.56 9.22-14.68 11.54-18.23 18.5 16.03 21.2 47.3 14.93 67.18 2.55 2.84 13.31-16.519 29.61-6.1188 43.8 8.19-4.32 12.639-14.33 20.709-18 6 7.48 2.8407 18.639 2.1907 27.539 11.63 4.66 25.189-2.3794 31.209-12.659 8.95 23.77 6.6807 52.37-5.2093 75.05-19.42 22.49-51.331 26.151-75.931 40.841-10.81-12.77-26.11-20.281-41.8-25.191-18.06-7.06-40.779-15.121-58.369-2.7406-19.09 11.48-23.791 34.471-34.811 52.181-6.01 12.12-0.8298 26.139 5.9702 36.769 40.51 62.97 131.37 88.621 196.92 50.111 31.46-22.69 69.49-33.87 99.98-58.02 52.48-34.6 113.23-73.051 129.77-138.09 12.24 16.84 12.98 38.851 11.82 58.611 10.26 3.96 19.079-10.931 23.289-19.541 8.96 26.05 3.8597 55.2 16.98 80.17 6.5 22.96 25.22 39.83 31.32 62.7 6.6 3.81 8.9205-11.939 12.39-13.309 16.54 23.86 12.68 56.259 30.13 79.759 6.68 8.55 13.79 17.42 23.5 22.67 5.32 0.13 1.2998-8.8004 4.4798-10.77 27.47 49.58 71.4 93.48 73.84 153.32 6.01 21.36-7.3708 41.259-23.361 53.939 0.34 10.51 15.52-1.1487 19.69 1.4313-5.76 21.02-6.2905 44.75-20.69 62.28-19.43 17.76-48.63 19.699-67.31 38.689-10.74 11.66-18.969 25.62-24.709 40.37-5.83 14.24-0.1804 31.81 13.93 38.7 26.95 15.65 61.78 19.371 90.62 6.7407 39.59-17.37 78.629-39.721 105.04-74.941 15.8-18.98 33.18-41.89 58.64-47.23 13.65-1.89 12.82-18.661 8.8-28.641 5.69-0.28 8.0197 8.4706 13.98 5.4906 4.87-5.21 5.95-12.98 7.55-19.68 1.17-12.69-10.51-21.89-10.03-34.43-1.33-31.75 4.1697-63.43 3.2797-95.2-0.33-29.23 10.52-58.191 4.1298-87.361-0.51-9.83 1.5109-19.739 4.5609-29.009 3.93-1.99 9.9891 7.0093 13.789 1.5593 5.18-24.61-17.13-42.06-22.15-64.17 8.04-2.18 23.92-7.49 21.84-19.1-21.04-8.67-24.1-32.329-25.88-52.109 5.71 0.1 9.56 8.5797 15.15 6.5297 2.96-16.76-5.5207-33.109-5.0907-49.859 4.57-1.31 15.03-2.0897 13.52-9.0797-14.23-6.6-21.8-21.831-27.52-35.381 12.23-1.01 29.06-5.369 32.61-18.689-6.48-5.19-20.819-2.08-23.169-13 24.37 6.99 37.549-19.05 37.959-39.43 1.13-9.38-13.799 1.19-15.259-4.45 6.15-9.73 7.5391-21.831 0.7391-31.711 8.38-0.78 11.14 18.251 18.25 9.761 11.45-20.22-8.8495-39.76-14.11-58.62 7.33-2.38 14.289 9.2703 19.989 4.3703 5.62-19.86-3.1988-40.65-15.519-56.12 4.27 3.91 12.12 3.25 13.23-3.15-3.86-9.38-11.47-18.41-9.6296-29.27 4.94-1.34 11.269-2.4393 13.359-7.9093-2.66-7.14-10.37-11.25-12.94-18.5 17.36 3.74 36.931-9.9907 38.131-27.941-4.99-6.12-15.16 2.12-21-4.3 1.45-3.04 8.81-5.04 4.9-8.85-12.19-4.71-14.391-19.699-16.091-31.059 4.58 1.15 10.3 3.7197 14.3-0.2203-5.73-12.91-4.4402-27.551 1.7798-40.061 3.43 3.29 4.81 11.261 10.65 9.861 12.88-20.66-4.0798-43.52-6.1298-64.55 9.32 1.06 25.95-10.41 16.03-19.63-4.26-7.56-4.63-16.771-8.2-24.731 11.72 2.56 5.4805-11.73 4.8405-17.85-2.15-15.46-12.681-28.259-14.111-43.839 4.94 3 14.02 8.3396 16.92-0.1204-10.17-19.82-0.41-41.85 4.7-61.78 2.61-13.5-4.7691-26.12-3.6891-39.58 4.22-1.25 10.679 6.28 15.019 1.95-1.74-15.01-8.7992-29.591-7.1392-45.061 4.95-23.7 5.13-49 17.25-70.62 8.22-17.63 26.12-27.259 38-41.989 25.87-31.46 40.95-70.21 50.61-109.37 6.46-23.66 24.81-41.66 32.03-64.97 0.99-2.13-0.6897-3.179-2.5297-3.639-12.95 10.73-26.419 22.989-39.039 32.639 0.95-50.73 42.399-88.159 49.709-137.04 0.22-7.49 0.6395-16.27-4.0905-22.6-9.26 2.48-10.5 16.129-19.71 20.009 17.85-27.72 24.721-67.02 5.4907-95.72-7.59-1.29-7.1507 11.681-13.741 13.561-4.09 3.09-11.909-0.85062-9.1593-6.1906 9.82-24.58 13.429-53.27 1.6188-77.75-0.87-3.3-6.6692-8.1597-9.2392-3.8797-3.72 8.32-4.0803 21.7-13.37 25.57 0.59-48.78-6.7102-102.55-41.72-139.41-3.76-2.49-9.5-11.8-13.7-5.9 1.94 10.17 4.5497 20.52 1.9297 30.93-13-37.05-33.44-73.21-65.28-97.15-10.36 1.82 2.2902 21.781-4.2798 25.711-25.28-17.64-43.33-45.19-48.43-75.7 0.97-3.04-3.3405-8.9397-5.7905-4.8297-3.94 10.74-2.82 25.499-9.2 34.519-32.28-42.82-5.2003-117.04 48.28-127.63 34.99-2.06 56.141 30.62 80.261 50.23 1.6 2.36 8.4197 6.1312 8.2797 0.68124-4.45-19.21-16.27-35.511-25.05-52.891 8.03 4.4 15.48 9.7494 23.03 14.959 19.03 13.32 22.22 40.701 43.63 51.631 12.27 2.52 6.3108-15.831 10.511-21.931 10.63 29.1 27.58 59.96 57.13 73.15 14.94 6.34 22.15-5.8194 18.43-19.259 9.7 19.19 20.801 48.27 45.561 48.93 10.84 1.86 2.1693-24.06 8.9093-12.7 4.01 7.09 18.88 30.93 24.01 12.1 25.21-42.74 16.98-93.489 4.8405-138.96 3.96 1.59 7.3903 10.579 11.52 5.1594 7.14-35.07-9.1-68.82-34.2-92.45 6.21-0.75 16.259 14.471 23.489 8.1609-11.11-43.24-53.709-73.451-96.089-81.591-23.64-2.22-47.91-1.8-70.67-9.6 8.94-3.92 23.96 5.96 31.22-1.65-42.06-27.98-94.2-34.939-143.64-28.959 3.85-6.16 20.32-6.9312 22.42-15.831-32.99-13.24-69.86-1.5791-102.65 6.8609 3.19-7.73 22.91-3.2703 21.2-12.67-9.0745-0.73746-18.262-1.3775-27.436-1.4656-1.3757-0.0132-2.7502-0.01471-4.125-0.0016zm-152.6 730.53c13.63 6.33 24.651 21.95 35.541 33.6-13.76-8.26-32.861-16.18-35.541-33.6zm245.57 686.48c0.1863 0 0.3663 0.017 0.5407 0.041-0.3485-0.047-0.7207-0.053-1.1188-0.014 0.1992-0.02 0.392-0.029 0.5781-0.026zm-869.24 174.16c0.1373 0.9994 0.1852 2.1229 0.1921 3.2922-0.01-1.1693-0.055-2.2928-0.1921-3.2922zm-135.61 43.905c-0.2317 0-0.4687 0.01-0.7125 0.03 0.2438-0.021 0.4825-0.033 0.7141-0.033zm-476.26 93.138c-7.0471 0.086-15.527 2.0765-21.264 1.1765-4.39-0.34-35.761 4.6303-20.281 5.9203 16.81-4.32 36.391-2.3109 51.781-4.1609-2.295-2.355-6.0078-2.9879-10.236-2.9359zm-43.192 33.803c-5.6239 0.025-11.286 0.4262-16.972 1.2437-4.14-0.66-4.1106 8.0391 1.8094 3.1391 42.68-5.83 83.649 12.341 117.56 36.591 0.39 1.08 7.7103 4.7294 5.3203 0.6594-30.852-23.502-68.35-41.806-107.72-41.633zm1062.2 12.445c0.043 0 0.088 0.015 0.1312 0.018-0.09-0.01-0.1794-0.016-0.2688-0.016 0.046-0.0001 0.091-0.01 0.1376 0zm-1111.3 4.8c-4.73 1.72 2.441 4.0197 4.161 3.3797 43.16 1.25 76.279 34.551 101.52 66.261 1.62 2.88 3.9806-1.3206 1.5906-2.5406-26.23-33.26-62.03-67.54-107.27-67.1zm-328.53 1.2969c-3.7789-0.014-8.4406 1.6187-11.466 0.9625-26.38 2.05-52.889 9.2403-74.809 24.42-2.28 4.56 5.469-0.1203 7.039-1.0203 25.16-15.92 55.461-20.089 84.541-21.709-1.0875-2.0438-3.0373-2.645-5.3047-2.6531zm40.633 16.264c-1.3578 0.01-2.6063 0.2593-3.0188 0.8093-45.08 7.3-78.62 41.74-109.98 72.17-3.5 0.84 0.0304 4.8994 1.5297 2.5094 32.21-31.65 67.271-66.55 114.28-72.75 3.6919-1.6294 0.17456-2.7621-2.8125-2.739zm1433.2 14.484c-0.1747 0.01-0.3544 0.025-0.5407 0.05 0.1863-0.027 0.3659-0.043 0.5407-0.051zm-1421.4 11.6c-0.41032-0.013-0.8072 0.086-1.1297 0.3407-43.89 14.5-70.74 56.031-93.53 93.591-1.67 1.55-4.5894 9.6394-0.08 5.9594 23.06-39.27 50.3-82.3 95.98-97.17 2.5756-0.52 0.53704-2.664-1.2406-2.7204z" fill="#331d07"/>
<path id="path6" fill="#fdbd4f" d="m2012.4 16.888c-4.9625 0.025-9.9181 0.24188-14.853 0.62188-22.39 0.74-44.91 7.1103-62.22 21.82-13.54 10.87-29.939 24.261-48.259 20.641 2.23-7.96 11.629-14.85 9.3891-23.82-4.4 6.01-9.9497 11.009-16.03 15.259-18.43 14.54-26.69 37.65-32.4 59.52 7.21-6.45 12.241-22.34 23.161-23.33-0.02 7.7-5.6112 16.7-5.4312 25.23 8.41-2.45 16.051-12.39 25.141-9.9-9.75 21.79-23.159 43.73-14.909 68.77 11-8.78 23.74-19.96 38.38-21.08-2.35 10.34-18.55 15.7-23.55 26.12 7.9-0.53 15.86-8.6203 22.87-6.4703-4.79 10.84-17.67 18.749-20.07 31.559-1.8 12.06 0.4994 25.66 8.7094 35.1 9.77 5.4 19.67-5.66 28.67-3.95-3.69 5.44-10.109 8.33-14.159 13.5 12.4 2.98 23.84-7.37 34.5-9.8-1.39 8.35-14.01 19.2-8.95 29.15 13.86 1.78 24.3-11.469 33.38-18.509 6.43 10.13-3.97 23.059-6.6 33.789 4.38-1.35 8.3603-3.7394 12.72-5.2094 5.71 9.91-2.8612 21.58 1.4188 31.93 15.61-0.78 16.421-21.22 25.661-29.93 2.58 4.3 1.8597 10.571 4.9297 14.141 8.49-15.79 16.941-32.101 29.191-45.561-13.23-2.41-27.361 5.8403-40.661 1.3703-11.5-13.13-0.9294-32.571 9.3906-42.991-7.46 0.29-13.93 10.141-20.73 7.9906 2.7-9.28 7.9091-17.609 12.739-25.909-5.31-1.76-17.09 1.3094-13.25-8.2906 6.8-16.95 25.771-24.501 39.591-34.741-16.26-14.98-42.581-9.2388-61.091-11.769 4.85-15.56 23.45-21.65 35.77-29.2-4.6-5.34-15.231-4.4109-20.991-7.8609-4.24-15.41 13.28-25.56 25.9-29.22-6.49-5.08-18.769-3.68-26.719-7.1 3.47-13.69 19.779-18.12 30.689-24.73-7.86-7.28 8.8303-12.799 13.57-16.609-4.965-0.39-9.9344-0.55781-14.897-0.53281zm182.91 50.28c-2.2574-0.03121-4.5309 0.06125-6.825 0.30313-9.01-0.82 1.1797 6.1397 0.2297 10.38-10.78-1.63-20.53-8.2097-31.67-8.9797 12.62 8.24 27.31 22.679 20.03 39.139-2.81 6.69-8.8597-0.71938-12.53-2.5594-10.99-4.72-24.789-4.0203-35.459-2.8703 8.34 5.2 20.06 10.891 20.88 21.991-5.16 2.81-11.501-1.5206-17.111-0.24062 12.41 11.11 25.401 25.351 27.061 42.691 1.73 7.49-8.9897 21.719-13.78 9.8391-8.79-14.24-28.201-25.089-44.041-17.939 7.05 4.94 17.89 16.68 0.6703 15.22 4.11 7.23 14.44 15.62 16.33 25.78-12.69 2.94-27.75 1.2403-39.18 8.9203 8.84 7.57 16.32 17.849 27.92 21.269 23.08 8.9 37.329 30.111 56.189 44.791-6.63-19.44-18.5-36.61-28.18-54.6-2.72-1.7-8.16-9.2003-1.45-7.9703 13.28 12.93 30.629 20.52 44.209 33.05 13.8 13.18 17.401 35.61 35.431 44.5 3.72-5.3 2.0394-14.569 6.0594-20.659 8.73-8.02-4.2406-23.031 5.0094-30.261 11.28 5.73 15.42 21.061 23 29.981 21.33-9.93 23.29-40.97 9.2703-58.25 5.09-7.39 13.101 17.769 18.111 7.6094 2.43-8.12-4.0606-14.811-7.4406-21.391 11.29-2.04 21.1 10.041 28.82 15.761 7.2-16.77-8.5597-31.66-19.98-41.58 18.96-6.62 36.52 13.519 48.9 24.589 9.87-17.14-7.8803-32.04-16.82-44.72 8.49-2.21 15.94 6.7106 23.17 9.8906-2.71-11.4-12.381-18.67-19.231-26.67 22.02-6.65 44.231 7.4906 63.091 17.591-16.33-46.58-67.949-75.3-116.21-73.57-22.357 1.0694-42.653-10.731-64.475-11.033zm-357.1 202.42c-3.33 9.69 8.7506 19.97 1.6406 29.2-3.33 4.78-9.1 2.88-13.2 0.45 5.4 51.28 50.19 84.719 74.67 127.01 4.57-2.95-2.82-12.91 3.55-13.22 11.25 6.49 18.36 18.381 22.95 30.241 6.55-10.49 4.73-23.94-0.75-34.47 24.57-0.84 15.359 37.07 36.219 44.93-2.05-9.98-3.0691-26.59 6.5609-31.65 0.76 10.22 6.6497 18.68 14.58 25.15 1.99-7.22-0.68-15.8 3.85-22.3 7.94 1.59 11.1 12.63 18.55 14.9 15-4.04 13.48-25.52 3.8297-34.5-1.58-1.74-7.4391-5.5294-2.3391-6.3094 17.91 0.75 29.799 18.509 34.419 34.289 7.96-7.97 2.7709-18.799 1.2609-28.089 8.03 1.07 11.83 11.46 18.77 13.47 2.79-8.11-0.54-16.701 0.75-24.931 4.06-1.83 21.8 12.111 15.7 1.0812-16.09-16.42-28.491-36.37-33.531-59-2.85 9.76-3.3391 20.919-9.9891 28.989-4.49 0.06-5.83-5.49-8.8-8-3.19 5.39-3.6809 12.57-9.6109 16.08-12.08-0.1-17.819-12.87-24.219-21.05-6.5 7.64 0.7791 18.85-4.2609 26.12-14.33-1.92-19.019-16.43-20.959-28.9-1.54 12.77-12.681 24.46-26.261 21.92-4.05-6.43-0.28-16.14-3.3-21.75-5.65 5.46-15.169 16.771-23.619 9.0406-5.66-16.02-12.47-32.151-16.67-48.481-6.03 10.47 3.89 23.991-2.25 33.181-21.17-6.11-31.691-29.05-29.511-49.9-4.69 3.06-4.62 14.35-11.8 13.68-6.08-11.89-9.9797-27.33-16.23-37.18zm332.8 180.37c2.85 11.04 4.6106 26.031-3.5594 34.841-11.49-1.32-16.16-15.7-25.37-21.87 3.05 11.32 3.82 27.561-8 33.991-6.5-3.51-11.72-8.99-18.08-12.65-0.92 6.62-0.8409 15.02-6.4609 19.58-9.62 0.09-12.769-11.6-17.539-18.13-4.26 10.19 4.8988 23.659-2.7312 32.739-13.51 3.87-27.94-2.6397-38.25-11.28 0.66 5.65 2.1412 13.97-4.8188 16.32-11.41 2.73-13.781-13.319-19.561-19.559-1.12 8.08-0.7294 22.4-8.2594 25.73-4.86-11.97-9.4597-28.5-23.28-33.52 3.81 13.25 10.869 29.08 1.7891 41.67-15.65 3.81-31.189-9.2603-46.559-6.3703 21.33 35.08 65.24 44.621 89.25 76.741 2.91-5-5.6309-16.371 1.1891-18.091 10.29 18.47 17.46 42.68 41.4 47.8-1.57-12.8-5.4588-26.55-5.1188-38.98 14.89 7.55 22.12 24.25 23.88 40.05 12.58-4.08 8.6797-22.991 14.98-29.841 8.01 9.46 11.919 23.551 14.059 35.941 15.65-11.38 12.711-33.251 10.441-50.161-1.19-2.57 3.2806-5.8488 3.7906-1.9688 10.29 16.69 4.0591 40.47 18.889 54.25 8.2-7.39 12.88-17.91 20.08-26.2 8.66 11.3 3.5906 27.869-1.9594 40.039 18.9-3.88 34.379-19.72 40.159-37.83 9.89 3.65 2.0912 21.13 1.8312 29.77 4.74-0.49 8.9797-3.36 12.63-6.3 10.79-24.11 14.209-52.93 3.0391-77.57-6.36 7.22-6.6694 24.769-19.559 26.959-6.41-3.07-1.7594-13.169-3.5594-18.659-0.86-45.14-9.4006-95.871-44.741-127.44zm-636.4 185.09c-18.99 1.07-38.15 7.8297-56.42 9.7297 4.23 7.79 12.33 14.691 8.9203 25.041 3.21 13.1-9.9203 21.21-12.97 31.9 19.96 4.43 43.25-4.7209 61.53 7.6391 14.64 10.73 30.9 19.341 44.5 31.431 5.87 5.8 5.5203 14.439 0.4203 20.659 24.56 1.39 56.941 20.84 61.241 48.82 1.66 12.33-13.38 15.399-17.6 24.539 15.79 14.22 29.43 30.481 40.03 48.911 13.85 13.68 30.309 35.499 12.789 53.609 15.16 3.74 30.881 13.44 33.991 29.82 2.55 17.85-29.89 17.7-24.92 35.62 13.97 5.83 31.22 8.64 45.75 9.15-6.94 16.85-30.499 21.109-37.889 37.859 17.09 10.47 39.35 4.5306 56.98-1.7594 1.05 0.36 2.9503 1.05 1.3203 2.25-14.97 11.22-34.391 15.869-49.141 26.759 21.23 21.04 52.66 1.69 77.95 3.75-18.62 30.83-58.411 39.2-81.041 66.25-7.68 8.21-3.6791 22.09 5.1609 27.77 9.24 5.89 21.69 4.7506 29.8 12.741 3.99 24.97-9.1109 46.369-23.211 65.309-7.56 10.69 5.7109 19.77 7.1109 30.08-5.9 18.34-27.88 33.431-46.88 24.911-3-8.16 6.3197-20.131-1.4203-27.791-18.5 3.57-40.021 3.7203-55.911-7.7797-9.16-10.37-25.579-25.581-15.339-40.211 2.31-20.61-16.05-33.799-27.12-48.319-7.53-10.07 0.28-20.29 1.45-30.37-5.9-7.96-17.98-14.441-14.48-26.611 9.68-5.83 22.59-10.089 26.63-21.889-21.72-0.29-43.899-9.22-57.309-26.7-5.33-13.55 18.66-8.14 20.18-18.05-13.64-2.13-35.62 2.1503-41.52-14.28 2.39-16.09 23.53-17.93 29.72-31.77-2.89-5.5-10.371-10.801-8.1906-17.291 13.15-1 21.461-12.81 24.041-24.82-16.31-15.92-39.66-25.65-55.5-43.2-3.63-4.25-8.2806-10.639-5.2906-16.439 10.76-7.7 25.97 0.4 36.9-3.15-3.43-10.51-16.3-14.6-23.15-22.9-17.11-18.22-35.67-35.741-49.7-56.441-6.36-8.4 7.1109-12.59 9.9109-19.02-11.63-26.19-59.341-32.54-51.831-66.65-19.99 2.22-42.159 1.9406-59.259-10.009-12.69-7.04-19.209-23.1-12.059-36.28-5.71-4.88-17.061-5.0903-21.741-11.97 2.31-5.78 10.39-7.34 15.03-11.05-47.2-33.93-120.86-41.711-162.88 4.4094-11.18 7.61-3.6594-15.889-6.1594-19.189-23.83 8.52-41.011 29.09-57.261 47.55 20.96 2.26 46.06 1.9997 60.97 19.43-2.93 5.35-9.1106 9.09-9.7906 15.7 17.36 9.31 38.551 2.3106 56.481-0.0594 3.07 6.81-14.99 10.349-16.97 14.859 15.69 6.02 33.64 3.2103 48.82 11.17 17.72 5.28 37.519 16.57 39.359 36.63 0.72 5.43-13.86 7.2006-5.0203 9.0406 27.24 1.03 40.671 29.569 34.361 54.209 12.13 2.56 29.369 2.6703 36.739 13.12-10.86 10.39-26.95 22.359-20.92 39.939 4.79 14.93 19.671 2.731 26.241-3.589 13.61 6.12 15.72 25.129 11.97 37.909-5.31 16.36-4.4497 33.761 0.6703 50.011-4.95 10.83-17.16 17.73-21.62 28.9 7.6 9.14 26.709-5.0113 31.939 6.3687-9.73 30.61-32.969 53.591-54.089 76.761 7.99 5.15 18.869 3.1797 27.039 7.0297-6.6 21.5-17.129 42.58-34.209 57.67-4.7 4.8-11.25 9.8-11.65 17.05 4.54 9.94 15.4 17.519 14.87 29.489-2.97 23.15 5.7391 45.231 8.9891 67.841-0.95 16.66-12.49 31.33-11.35 48.17 8.46 28.11 49.991 30.71 53.081 62.45-9.96-0.09-16.44-11-26.37-12.3-22.57-0.84-47.76-0.5409-66.58-15.161-15-9.37-29.4-25.279-25.12-44.469 15.75-46.21-6.6503-94.21-2.2203-141.32 0.39-26.75 10.14-53.53 5.3-80.02-21.52-17.52 1.7897-42.499 6.2297-62.209-19.73-6.55-30.92-25.581-40.78-42.361 2.93-10.19 15.491-15.85 17.641-26.63-8.84-4.66-21.47-8.65-24.52-18.95 9.81-11.7 34.68-16.71 30.05-36.4-20.37-1.88-42.261-6.7706-60.041-18.141-5.91-3.79-6.0797-10.699-2.3297-15.819-11.34-3.44-25.2-7.9403-29.85-19.82 3.17-5.35 26.96-17.52 9.7703-17.92-16.26-1.41-31.841-8.4103-43.811-19.47 1.69-7.15 14.371-6.8894 15.681-13.709-15.73-1.14-35.571-1.5406-46.791-13.991 14.1-5.46 29.19-12.399 36.83-26.209-27.57 5.61-60.279 13.969-84.789-4.8109-8.68-7.3-19.28-11.76-28.75-17.3 5.41-11.77 19.089-19.05 28.809-27.7-18.27-8.7-42.5-11.249-59.22 1.8906-5.83-1.34-0.25968-9.6006 0.0704-13.891-14.99 4.87-29.491 11.701-42.891 19.991-17.09 9.97-25.88 31.01-44.88 37.87-2.96-6.05 4.2403-12.19 3.9703-18.7-10.59 11.2-25.45 17.66-34.97 29.92-7.65 9.36-5.9903 22.279-5.9703 33.459 9.39 0.95 38.82 1.8006 21.65 15.991 14.68 3.98 28.911-3.2503 43.541-2.5203 5.89 5.8 2.85 14.87-1.25 21 11.59 4.04 23.24 12.619 23.65 26.039 14.77 4.45 31.69 12.05 35.62 28.62-1.19 21.81 30.55 14.541 38.5 29.011-12.32 9.03 1.27 19.63 3.15 30.2 2.99 12.39 17.88 10.19 25.7 17.4 7.57 5.31 6.1594 16.879 13.959 22.039 11.78 6.74 9.9103 23.58 25.22 26.92 2.84 11.96-22.451 18.96-10.941 32.5 3.93 15.07 18.13 6.1994 27.85 4.3594-1.6 15.97-15.58 27.261-18.75 42.581 7.75 10.2 23.431 7.1396 32.731 13.63-14.04 34.1-50.51 58.129-53.45 97.139-5.56 19.29 14.56 34.551 10.13 53.961 0.29 14.1-4.5697 27.459-11.43 39.559-10.63 18.57-6.2609 40.63-11.411 60.62-1.3 3.55-4.1497-0.5806-4.9297-2.3906-6.49-15.19-16.13-28.849-21.33-44.619-6.96-14.45 0.1694-30.09 4.0594-44.27-4.8-26.02 3.4306-55.38-12.459-79.32-5.93-14.66-21.521-26.059-18.841-43.309 6.02-3.09 12.65-5.4 16.98-10.95-11.79-4.12-27.41-10.381-30.93-23.511 11.4-5.04 29.791-6.4194 35.561-20.309-18.78 1.9-37.231-7.68-46.761-23.9-12.12-18.75-28.33-40.43-22.17-63.8-9.2-3.64-18.949-8.5006-24.709-16.591 0.12-6.62 7.5003-10.729 9.8703-16.639-11.67-11.99-38.74-15.141-39.18-33.911-13.37 1.47-34.23-7.989-21.92-22.189-23.82 6.04-55.7 5.6697-70.85-16.82 11.85-5.46 26.159-10.041 33.059-21.861-23.22 0.74-46.68-5.3997-69.22-10.23 8.65-9.74 18.121-19.06 29.581-25.47 2.63-0.74 1.8794-6.5587-2.8406-3.1687-17.93-1.69-35.771 1.95-53.091 6.2-8.48 3.16-4.7788-6.5213-3.7688-10.731-20.6 12.27-35.68 31.31-50.77 49.25-5.2 6.76-10.941-0.01-8.1109-5.9297-21.51 5.99-31.32 27.321-45.78 41.891-5.96 4-5.16-11.09-10.4-5.35-10.53 11.03-24.189 26.44-19.809 42.03 17.5-4.85 35.98-16.119 54.7-9.6094 8.58 5.72-4.0097 14.53-4.3297 21.9 10.51 1.65 22.269 1.8287 30.569 9.4687 1.43 4.15-3.4194 5.95-6.0094 7.95 7.69 2.67 18.22-1.8787 25.22 3.8813-0.2 4.18-5.2297 6.499-6.0797 10.689 11.13-2.15 22.66-0.7597 33.75-2.8297 12.29-5.5 20.77-22.18 36-18.25 12.1 18.56-4.8 38.681-8.55 57.191 14.42 3.48 27.099-10.84 41.189-8.35 2.38 9.56-3.96 19.689-0.8 29.419 5.15 2.23 11.851 2.3806 15.361 7.3406-0.11 6.38-3.5613 13.16-0.63128 19.32 5.65 2.06 13.391-0.2296 17.711 4.5704-0.4 6.36-2.8006 12.389-3.8906 18.659 7.18 4.49 22.491-22.85 22.891-6.1203 2.57 26.24-17.17 47.31-17.73 72.5 11.81 2.07 17.99-11.719 27.7-15.389 2.06 17.34-11.171 32.65-18.661 47.3 7.4 0.84 17.55-2.8813 23.67 2.1187-0.83 20.72-24.49 28.82-32.73 45.5 11.53 23.64 19.189 51.051 10.809 77.031-6.35 19.94-12.47 44.129-32.85 54.019-4.48-5.75-3.6203-13.619 0.87968-18.989 14.17-20.22 10.581-48.06-2.1187-68.1-5.77-7.7 3.209-14.79 2.939-22.5-7.63-5.6-17.95-7.8503-23.85-16.02 0.31-19.64 12.041-37.101 11.761-56.591-5.43-3.74-12.191-6.0497-15.941-11.78-11.52-10.08 11.78-20.09 6.0797-30.92-15.04 0.38-39.439-11.32-22.889-28.4-11.02-2.87-25.46-5.57-30-17.55 10.55-5 21.799-9.2091 30.319-17.589-29.39-2.42-63.91-4.75-85.1-27.95-8.03-9.02 13.74-9.5996 11.42-19.28-8.14-1.82-16.789-4.131-22.659-10.511 1.31-4.35 4.5603-7.9703 5.1203-12.57-21.94 6.7-48.331 8.8813-68.031-3.2687 9.35-6.87 20.421-15.551 20.911-28.861-19.75 1.16-38.05 12.37-57.27 13.2-0.99-8.51 11.45-15.21 15.97-21.4-20.05 4.24-38.811 14.961-59.661 14.861-4.22-2.2 0.39031-8.591-1.8297-10.461-17.44 16.91-33.39 35.331-51.38 51.641 9.48 7.11 10.69 18.63 12.67 29.33 7.92 15.9 30.67 8.2307 39.28 22.841 4.77 11.24 18.26 2.4196 26.88 4.7296 17.81-2.36 17.58 23.49 34.75 22.77 18.23 0.56 37.34 7.4 46.97 23.95 35.41 54.59 49.99 121.45 49.18 185.92-6.55 36.19-11.46 73.901 0.3 109.73 0.82 2.5 1.9697 9.4687-1.5703 5.4687-14.22-29.48-20.959-61.81-29.969-93.08-5.95-35.8 4.12-73.91-10.7-108.28-13.01-35.59-34.891-73.54-74.011-83.97-16.21-1.62-19.29-24.139-36.9-20.909-7.03 0.48-5.7597-8.5496-10.28-11.43-14.78-1.15-31.72 8.409-45.1-1.411-18.3-9.82-2.4097-35.16-16.63-47.9-11.18-2.9-22.461 1.991-32.611 6.311-13.84 15.57-31.49 27.45-49.3 38.03-6.72 4.47-9.88-3.3009-9.8-8.4609-15.33 13-19.669 40.301-40.439 48.231-7.22 3.65-3.9606-8.01-8.3406-7.4-4.45 17.72-16.26 33.839-32.93 41.819-11.5 12.83-23.18 26.841-39.68 33.431-5.29 2.08-6.6709-5.4613-7.5109-8.8313-4.04 9.29-5.1697 19.581-9.0297 28.981 16.29-3.14 20.171 19.719 21.841 31.219-0.18 18.89 21.619 21.071 33.059 30.881 11.63 7.86 6.4903 24.369 14.72 34.459 15.1 34.2 14.41 79.349-7.4203 109.26-6.55-1.43 0.14093-8.7991-0.48907-12.839 4.54-28.16 7.7088-67.12-21.631-82.98-27.31-16.18-27.94-54.011-51.4-72.861-8.86 2.63-13.899-1.19-15.889-9.05-12.32 14.57-23.91 31.8-40.33 42.7-4.59 2.25-3.1206-5.479-6.3406-5.389-3.53 8.13-3.83 17.399-7.55 25.369-3.31 3.97-6.2694-4.0691-9.3094-3.1891-3.9 11.17-6.3903 24.95-17.92 31.02-34.07 23.8-79.291 34.77-103.61 70.8 21.22-5.86 42.901-7.3307 64.631-2.2407 44.38 4.9 93.389 0.07 132.46 26.059 13.29 7.24 13.25 26.981 27.98 32.091 3.56 0.05 1.1309 2.4807 0.81093 3.9407 6.98 5.9 1.1388 14.659-5.3812 17.989-17.38 13.57-36.399-9.21-48.159-20.25-31.56-17.51-69.19-16.59-103.68-24.27-15.38-3.89-35.62-15.829-48.98-1.1687-3.14 15.49 16.539 21.369 22.569 33.559 39.85 39.22 47.031 97.76 70.891 146.07 11.03 18.88 32.69 27.81 45.25 44.95 13.45-1.77 20.41 18.679 32.3 8.2094 12.87-1.19 24.23 9.7406 33.48 16.891-5.25 4.8-16.99 3.5104-22.83-1.3796-8.6-6.75-12.921 13.489-21.341 6.6093-7.41-8-10.499-20.681-22.919-23.041 0.24 4.06 0.95876 13.801 5.3188 6.7609 9.31 7.82 4.77 25.269 16 33.209 1.01-3.32 3.1609-10.22 7.4609-6.05 7.54 12.66 15.059 28.35 30.989 31.73 2.75-2.11 3.9206-7.45 8.0406-6.95 5.53 11.75 10.09 25.431 23.42 30.581 9.27-10.4 28.38 0.6196 29.92 14.33 15.16-23.96 48.44-14.13 68.03-0.9796-5.35-16.53-12.59-32.53-21.68-47.32-12.94-5.41-21.9-17.14-27.6-29.57-0.67-3.62-4.43-1.45-6.55-0.9-16.69 7.34-35.88 6.8597-53.22 2.9297-12.44-2.05-18.45-20.52-7.7203-28.03 13.18-6.51 26.75 6.0203 40.28 1.7703 10.58-1.56 22.501-8.3809 32.741-2.0609 11.85 13.21 8.6797 33.901 20.98 47.011 10.96 12.16 16.14 28.229 23.58 42.209 15.07-24.73 50.96-28.88 73.42-12.02 1.91-26.56-7.4806-54.069 0.60938-79.939 11.7-25.44 48.251-12.731 62.031-35.991 5.65-10.48 21.369-11.95 26.309-0.2297 12.37-8.36 20.41-27.89 38.37-25.3 20.79 4.06 38.059-11.06 57.989-12.6 3.95-9.06 13.661-3.3793 20.881-6.1593 7.05-11.98 17.56-22.941 21.4-36.431-17.96-2.63-4.88-28.639 3.15-38.319-14.39-4.36 5.3488-13.551 5.9188-21.741-16.22-10.67-25.08-29.48-32-47.17-9.95-23.52-26.09-43.57-40.93-64.1-1.75-2.8-6.6591-9.1894-1.1391-10.859 14.45 23.66 34.08 44.22 44.98 70.05 8.84 17.64 15.919 37.749 33.309 48.959 2.9 7.63-5.4403 13.381-9.2703 19.011 12.77 2.27-0.63876 14.58-3.5688 20.15-3.3 5.14-8.3512 21.519 2.4688 17.769 4 4.11 1.5812 10.601-0.81876 14.931-13.88 23.27-29.11 46.429-50.2 63.859-16.44 10.05 9.4397 17.29 8.0297 30.47 6.45-1-4.36-19.77 5.65-17.87 14.16 8.66 28.07 19.45 35.57 34.67 10.72-6.02-1.4403-20.831 3.8297-26.961 20.32 20.92 48.81 34.25 63.35 60.9 1.44-4.04 2.5091-10.27 7.6391-10.63 8.88 4.96 19.051 13.58 29.141 6.8703 13.77 7.17 18.889-8.0893 23.659-17.609 17.22 1.12 33.031 12.43 48.881 19.18 12.3 2.75 18.509-9.66 22.789-18.75 9.12 2.93 11.65 17.23 22.42 18.88 4.52-5.71 6.4597-14.45 13.23-17.95 6.72 5.08 10.651 13.9 18.761 17.42 5.64 2.44 9.039-6.4606 13.989-6.2406 10.22 24.92 10.27 70.681-25.55 73.891-3.36-10.05 1.1603-22.48-5.2797-32.18-5.93 6.4-7.84 18.019-16.75 21.039-3.03-5.64-1.9394-13.12-6.1594-18.07-1.09 8.88-6.451 18.861-15.761 21.091-6.53-9.49-7.7194-23.551-19.209-28.941-6.86 6.65-10.15 17.501-19.77 21.411-7.12 3.04-8.0506-10.85-13.941-9.95-2.09 11.72-5.57 27.09-18 31.37-8.34-13.51-8.2897-37.78-27.03-41.8 1.87 7.8-1.7497 16.069 1.1203 23.619 11.92 27.67 14.17 60.191 2.75 88.311 4.89 6.81 13.13-6.2909 18.57-1.8109 3.52 8.19 1.5394 17.61 2.8094 26.25 1.57-5.52 2.9197-11.03 4.5297-16.5 10.19 4.77 9.26 19.69 12.1 29 14.19-3.52 23.3-18.189 28.87-30.939 6.55 3.62 4.8803 13.539 7.8203 18.839 12.06-5.75 16.87-20.039 18.45-32.489 12.76 1.02 15.811 17.27 18.041 27.55 7.82 1.26 10.13-9.0203 14.65-12.77 7.62 3.6 7.409 14.18 10.139 20.65 10.55-1.87 14.69-13.59 18.22-22.47 5.67 2.04 5.7303 13.151 8.6203 18.891 9.71-14.4 6.3303-34.121 15.72-48.591 5.73-5.33 7.4094 6.5103 9.7094 9.5703 1.81-8.01-0.72-16.969 2.85-24.809 9.09-17.94 0.96-39.53 10.05-57.3 6.96 0.71 7.2103 11.869 14.62 13.159-2.36-18.34-5.17-39.539 4.5-56.309 6.77 0.28 5.0503 12.129 12.97 12.739-3.74-13.01-1.4413-26.679 2.9687-39.209 2.3-4.46-7.2087-7.0809-3.2187-11.261 11.29 4.14 13.609 19.901 19.639 27.741 12.74-16.15 21.92-35.56 25.23-55.93 0.54-17.03 10.99-32.18 24.25-41.95 7.57 1.45 1.94 14.47 7.55 19.37 5.59-7.8 9.5807-16.85 15.741-24.15 8.21-1.39 9.74 8.78 13.55 13.55 22.97-8.92 22.299-40.121 21.809-60.331 20.16 3.55 24.93 32.301 28.22 49.511 15.19-1.7 23.141-17.13 28.361-29.45 7.9 0.82 4.3787 16.179 7.6187 20.309 19.32-2.77 30.54-23.129 32.52-41.139 8.97-3.64 2.7096 15.789 6.4796 17.989 8.45 2.34 11.01-7.62 15.12-12.55 4.74-0.49 3.56 7.931 4.05 10.661-0.19 17.36 2.3909 36.389 15.061 49.409 2.96-6.29 1.0891-19.25 9.3891-20.13 5.8 13.73 12.341 28.749 26.461 35.659 2.96-3.13-5.8103-15.899 2.5297-15.789 5.23 9.92 3.26 22.279 1.35 33.059 9.55 4.79 16.869-4.2497 24.589-5.7797 4.04 11-9.1893 21.379-17.759 26.759 16.52 14.92 41.921 9.1597 58.791-2.2703 2.46-1.62 8.0691-5.01 9.0391-0.4 0.57 14.97-9.7304 27.121-11.72 41.511 7.92-3.78 12.39-16.481 22.5-16.741 7.54 8.35 4.2007 20.68 5.1907 30.33 12.24 2.25 20.041-9.2797 25.391-18.33 7.8 3.88 4.2197 16.42 9.8797 22 5.08-2.16 6.4797-10.92 12.63-9.7703 1.91 9.69-13.49 10.55-12.45 19.97 0.69 25.54-2.9307 57.341-29.141 69.741-30.37 14.64-62.449 27.32-92.659 40.77 2.19-10.13 17.54-12.34 25.58-16.62-18.73-18.65-46-25.72-71.08-31.1-33.46-0.75-43.8 36.5-56.07 60.83-2.14 25.44 19.971 44.531 36.841 60.491 32.14 21.83 71.8 39.549 111.53 31.709 24.34-2.57 46.97-13.24 66.9-27.05 26.18-16.87 56.709-26.07 80.959-46.05 50.41-33.47 109-69.11 127.25-130.73-5.51 3.72-18.419 3.9594-15.039-6.1906 5.09-21.93-7.8703-41.3-21.52-56.93-4.76 0.36 0.44 13.249-7.3 10.709-21.36-23.99-17.6-57.239-26.47-85.919-3.06 2.67-0.7491 11.01-5.5891 10.85-21.29-30.69-9.1713-68.711-8.3313-103.09-4.79 1.71-10.56 15.18-18.38 12.63-1.42-14.09 3.4109-29.759-2.7891-43.439-4.3 15.97-14.31 33.94-31.57 37.95-2.79-8.9-2.1006-20.121-9.3906-27.741-12.16 8.17-16.2 25.02-27.72 32.77-6.31-8.61-7.4993-21.6-15.459-29.8-3.87 0.81-9.43 1.5991-10.6 6.0891-7.37 20.84-20.88 42.591-43.57 48.661-2.96 0.59-8.7597 0.8591-7.2297-3.4109 4-14.86 5.67-33.149-5.4-45.359-8.8 8.69-29.511 26.25-38.691 12.48-10.9 9.17-25.71 17.56-40.23 14.45 1.74-7.77 4.89-16.799 0.2-23.989-7.02 10.57-18.56 22.919-32.27 19.359-2.77-10.69-1.849-27.031-12.839-32.291 3.76-5.73 12.58 5.0913 18.1 2.3313 5.19-6.73 4.479-15.75 6.889-23.4 9.41-3.68 19.441-1.91 28.761 1 9.05-9.71 3.509-23.741 1.139-34.791 22.76-4.96 45.99 8.9807 59.57 26.591 10.52 0.17 13.321-13.221 17.641-20.561 8.48-6.28 19.81-0.8597 28.6 1.3703 11.21-4.42 14.719-17.591 22.089-25.941 5.09-0.44 11.65 1.2409 14.67-4.1891 14.08-20.66 17.521-50.08 39.341-64.43 1.23 19.08-1.701 40.519 6.989 59.089 14.44-17.19 11.741-39.949 21.491-59.059 6.12-0.69 2.3397 6.3894 1.0797 9.3594-12.42 36.22-7.0104 76.67 7.7296 111.42 8.85 14.92 10.771 32.071 7.8313 49.091 8.92-1.5 8.5787-16.531 16.719-17.911 8.08 33.8-13.49 70.64 5.4204 103.05 1.47-2.8 1.6403-8.2894 5.9703-7.7094 8.08-13.91 4.5906-33.33 10.091-48.3 8.9-3.11 12.229 29.839 20.689 12.859 11.62-13.62 15.651-34.2 4.1406-49.08-10.24-16.84 28.09-12.059 20.08-27.609 16.92-6.82 35.861-0.441 52.941-6.161 7.87-3.87-5.5013-10.249-4.4313-14.439 20.23-8.05 42.671-3.6804 63.681-7.1204-2.64-5.56-10.85-10.991-8.75-17.811 7.89-4.1 17.899-2.0891 26.489-4.7391-5.71-12.39-19.84-18.67-27.93-28.83 15.47-11 37.22-6.1313 53.15 1.6187 6.71 2.94 15.821 13.67 21.691 8.1703-4.78-24.46 20.91-6.059 31.8-4.039-0.49-11.26-10.711-20.19-9.5313-31.62 17.31-0.85 33.761 5.7904 48.661 14.02 11.13 3.23-2.0006-13.921 6.2594-16.281 3.62 0.25 7.01 2.1309 10.7 1.7609 1.05-9.04-10.079-15.041-12.089-21.191 25.63 4.61 45.769 28.32 52.509 53.22 5.2 10.17-0.3803 36.55-13.97 21.87 2.15 11.45 1.1709 30.1-13.039 33.27-4.78-5.59-2.43-19.01-13.75-15.67-2.97 6.8-1.8906 16.319-9.7906 19.789-8.23-1.87-15.309-9.3191-24.359-6.7891-0.84 10.94 0.9591 26.45-11.361 31.65-5.99-2.05-8.5397-9.8696-14.98-10.88 7.81 27.62-5.95 62.629-34.75 70.859-1.43-16.66-14.58-38.58-34.23-32.87-3.47 4.15 1.7303 13.51-4.5297 17.03-6.07-0.36-20.381-4.4897-17.631 6.8703 1.86 14.22-18.03-3.4097-21.43 5.5703 8.94 9.66 17.38 32.22 0.7 38.32-7.26-9.96-17.149-18.37-29.789-20.15 3.59 8.09 8.2094 21.71-1.6406 27.07-4.89-0.94-6.5297-10.061-11.68-10.231 0.18 10.49-2.2 26.11-13.8 29.42-5.64-4.67-7.8797-13.889-15.98-16.109 11.46 22.91 13.96 53.419-3.4 73.989-1.96 2.08-7.0113 8.4106-8.5813 2.9406-2.47-13.44-11.419-23.671-18.419-34.841-5.58 9.23-9.9306 19.811-10.491 30.661 16.94 18.38 33.05 41.73 26.75 68.27 8.32 3.37 12.74-14.52 19.08-6.05 12.86 15.96 15.89 37.829 14.45 57.709 8.92-2.55 13.121-14.79 15.691-23.25 5.96-0.86 5.85 8.0594 8.75 11.809 5.9-13.92 18.93-23.3 22.98-38.18 7.14 9.92 4.3603 25.25 6.4703 37.18 8.76-12.47 13.81-28.01 8.5203-42.98 2.84-3.14 5.0891 2.71 8.2391 2.55 1.19-8.31-5.5504-18.68-2.8204-25.43 23.56 3.93 35.11 29.93 40.5 50.85 0.45 5.14 6.9713 2.3007 8.9813-0.01 20.73-16.42 28.13-44.391 21.43-69.461-2.64-13.6 8.8203 0.1706 12.82 2.3406-1.32-8.73-7.7206-17.7-6.4906-26.23 10.13-1.26 19.81 7.3194 27.65 13.109 2.79-7.75-3.7994-17.291-0.9594-23.641 12.82 1.6 24.349 10.791 32.119 20.841 1.85-6.93 0.691-14.039 1.211-21.059 12.43 5.87 24.929 18.37 39.559 13.48-11.69-7.9-21.369-24.571-15.109-38.461 10.95 11.81 23.88 26.89 41.75 28.85 0.54-5.58-4.2506-10.12-3.6406-15.6 10.19 0.37 17.501 10.611 27.741 11.511 1.69-6.85-3.7797-12.191-3.9797-18.511 8.37-3.86 18.81 0.7513 27.88 0.6313 0.71-6.36-4.21-10.98-6.95-16.07 21.32-4.26 36.149 18.56 37.959 37.3 17.3-14.36 6.9606-39.141-3.9094-54.161 10.28-2.89 17.269 9.6913 26.989 10.781-0.02-9.26-8.8893-15.761-9.7593-24.561 6.49-0.38 11.571 4.6409 17.741 5.6609 1.53-3.24-1.4506-13.01 4.8094-11.7 10.04 3.91 17.25 12.81 22.32 22.03-1.69-16.01 15.57-10.69 24.3-6.3203 3.16-23.2-11.131-41.421-23.261-59.091 2.63-10.11 13.901 7.061 18.411 4.611-4.21-10.75-12.801-21.921-8.4406-34.091 3.72-1.95 8.4406-0.8191 11.941-3.3391-3.49-7.58-16.121-14.761-11.811-23.791 15.15 4.08 34.531-3.5194 37.431-20.209-7.04 4.59-30.001-6.05-16.611-12.9-11.25-6.83-13.39-22.151-15.13-33.991-1.78-10.83 7.8906-3.2594 12.741-2.7094-5.92-15 0.29-31.13 5.6-45.22 6.37-0.63 5.9894 10.509 11.559 10.789 6.29-20.77-8.73-39.289-9.7-59.419 3.97-6.74 16.6-1.2709 19.45-10.761-5.98-9.39-7.2803-21.43-11.37-32-2.78-6.69 3.3103-5.6591 6.9203-4.9891 0.57-22.26-18.6-40.35-14.28-62.6 3.86-9.34 7.3403 7.09 14.12 5.8-7.4-19.29-1.2-40.12 5.1-58.92 4.45-16.36-6.8003-32.541-1.9203-48.711 4.01-3.91 8.9703 4.311 13.87 4.711-4.87-16.79-10.7-34.821-5.2203-52.161 3.91-30.33 9.0397-64.179 34.03-84.969 38.16-31.21 57.809-78.791 69.559-125.41 5.29-21.11 19.98-37.81 28.72-57.3-19.89 13.02-35.11 31.62-52.98 46.92-3.27-2.71-0.8394-7.55-1.5094-11-7.04 6.97-12.721 15.19-20.031 21.88-5.88 1.27-2.8387-7.3597-3.0687-10.33 0.55-19.38 5.9291-38.149 7.4891-57.409-8.93 4.18-17.64 16.179-28.72 12.659 3.03-7.76 10.201-15.01 12.811-23.7-10.16 8.72-25.36 15.22-38.28 8.7203 1.59-5.43 4.2794-10.46 6.3094-15.73-2.66 0.51-8.1407 8.95-9.9907 3.9 8.06-18.95 20.86-35.261 33.77-51.111-21.97 9.73-38.88 27.571-59.3 39.791-3 2.28-8.47 1.539-7.6-3.761-5.72-15.25-1.7797-31.42 1.0203-46.8-12.35 2.89-23.42 10.56-35.85 12.72 2.37-18.81 11.949-35.989 21.759-51.859-13.69 7.28-22.789 23.09-35.769 29.78-2.86-20 3.1297-40.08 6.9797-59.57-10.54 4.49-24.261 10.23-22.661 24.25-2.44 28.72-27.859 50.22-23.819 79.58 10.74 9.85 32.269 0.21 38.209 18.1-4.94 12.96-20.29 23.541-16.7 39.461 17.4 1.17 41.55 1.9603 49.78 20.37-4.17 8.64-15.849 11.709-21.159 20.009 13.54 9.12 30.179 15.529 39.209 30.009-1.42 3.12-5.4804 3.3606-8.1204 5.0406 11.16 6.51 26.501 8.3297 32.981 21.03 5.38 9.13 4.63 23.01-7.05 26.83-20.45 10.91-37.901 26.291-57.011 39.041-8.65-4.15 4.4609-19.019 4.3109-23.809-8.16 2.8-14.491 10.309-22.991 11.519 1.43-16.62 14.26-29.099 25.17-40.319-13.46 0.02-28.38 6.06-41.2 0.6-5.54-10.96 1.0894-26.421-9.8906-35.581 10.37-24.32-21.789-25.259-33.439-38.359 7.47-8.57 21.69-7.2297 30.13-13.88-18.68-14.47-46.361-18.22-56.961-42.15-5.64-6.73 5.5113-9.4297 8.2313-14.18-8.74-2.39-21.47 1.0697-27.92-5.9703 2.25-5.86 13.1-6.32 16.45-10.75-14.51-6.25-31.61-10.94-45.83-19.07 13.26 17.05-11.04 29.45-13.57 44.97 2.87 11.35 15 18.45 15.47 30.93 8.71 9.33 31.409 18.679 20.419 34.309 11.72-1.24 32.331-9.2694 36.611 6.9406-3.28 12.76-16.95 18.999-26.82 25.959 12.77 5.72 31.34-2.6187 42.93 8.0313-8.54 17.29-24.709 34.319-18.339 54.989 1.04 12.75-10.081 21.21-17.441 29.97-12.62 12.58-2.9794 31.47 5.1906 43.58 7.3 18.29 21.749 38.441 9.6094 58.311-3.66 15.2-25.731 19.78-35.891 8.6797 5.25-19.98-4.7887-39.331-6.4687-59.161-0.37-7.21-8.9903-7.7596-13.47-11.43-8.8-5.71-10.391-18.24-5.2906-27-14.57-8.33-31.16-19.219-33.62-37.259-2.64-10.26 9.8313-7.58 14.831-11.8-2.26-4.3-5.2203-8.2997-6.8703-12.88 9.34-7.91 20.089-15.141 25.859-26.281-22.52 5-44.98-2.6397-63.25-15.63-10.14-7.34-22.28-27.669-3.7797-33.409-7.96-4.5-18.74-6.99-22.35-16.6-2.05-10.45 12-14.461 15.02-23.091-11.81-2.07-25.671-7.6197-28.061-20.68-22.7-8.11-42.71-29.26-47.05-52.8 11.78-1.89 36.11 2.3894 38.15-16.441-25.37 0.34-48.229-14.239-64.789-32.359-5.96-6.75 4.369-11.721 6.839-16.791-12.9-10.32-27.43-18.56-40.5-28.5 1.62-7.39 13.2-8.5397 18-14.58-29.38-9.16-60.389-5.0103-90.389-2.1703-6.16-1.14-13.98 0.70094-18.9-3.9891 1.06-4.23 2.6694-8.3603 3.0094-12.72-29.28 5.48-60.879 7.8303-88.289-6.0297-2.63-9.45 12.2-13.3 14.93-20.02zm341.63 506.7c7.34 11.73-0.6106 32.581 10.059 45.041 6.15 3 13.391-2.66 19.711 0-4.65 8.76-12.02 27.649 2.1297 31.219 13.46 5.21 21.49-12.619 34-10.359 6.99 16.7-16.73 26.93-17.92 42.08 5.81 23.88 37.81 19.71 50.72 36.38-8.05 14.04-32.149 19.571-32.559 38.331 5.14 11.15 24.439 9.2491 28.089 21.689-3.15 16.75 15.37 23.63 25.52 30.92-28.85 9.7-69.501 0.5806-85.841-28.209-9.17-12.04-19.8-23.551-25.33-37.841-4.1-10.09 9.9409-15.36 7.9609-25.5-12.9-5.21-27.461-11.211-33.691-24.591-7.07-17.62 0.5994-36.24 3.8594-53.8 8.09-21.05-4.2694-47.699 13.291-65.359zm-1442.9 37.225c0.88313-0.1032 1.8681 0.61 2.5656 1.075-7.61 30.58-32.44 51.83-54.32 72.53-13.45 11.12-14.66 30.301-11.47 46.291 10.72 46.47 6.1803 98.1-21.08 138.27-3.33 3.45 0.95 12.03-4.95 11.98-6.87-30.2 17.389-57.5 10.809-87.9-7.1-18.83-17.8-37.601-13.35-58.511 7.87-26.53 8.8506-58.119 32.141-77.009 19.79-15.37 40.89-28.489 58.82-46.309 0.25751-0.255 0.54-0.3812 0.83438-0.4156zm71.414 77.986c2.2703-0.01 5.1044 1.8521 1.7406 3.339-21.12 12.51-42.969 23.73-66.209 32-6.09 20.38-9.1694 41.89-17.109 61.88-4.84 33.24-3.97 69.99-24.55 98.47-16.32 19.6-15.79 46.601-26.92 68.241-11.83-11.19-10.36-34.33-4.3203-49.5 13.48-29.13 30.38-57.661 35.05-89.981 1.8-23.26 8.2897-45.759 11.08-68.869 2.38-12.76 2.4609-29.591 16.911-35.241 24.88-4.64 47.94-15.749 72.93-20.009 0.38063-0.2268 0.87453-0.3285 1.3984-0.3296zm6.1312 49.517c11.018 0.1192 21.888 3.3984 31.08 10.552 14.4 7.98 27.66 18.04 37.82 31.13 8.29 12.53 27.2 7.4906 35.35 19.991 3.96 14.38-9.7097 25.3-18.38 34.62-24.43 26.86-57.18 43.8-83.62 68.38-24.84 19.01-45.709 42.479-68.659 63.559-1.98 1.1-3.4603-1.0188-3.6703-2.7688 0.74-10.39 8.3197-18.671 9.9797-28.861 12.52-35.25 45.14-57.96 76.18-76.1 17.05-10.57 30.37-26.069 46.28-37.939 12.88-5.06 21.761-17.221 34.791-21.991-10.43-5.62-24.209-4.7697-31.759-15.38-12.51-17.72-31.911-28.57-50.941-37.97-18.49-7.28-38.29 1.18-53.9 11.15-3.52 1.67-5.5403-4.3197-0.52031-4.6797 11.396-8.775 25.805-13.846 39.97-13.692zm600.19 49.492c8.03 17.62 20.499 34.69 31.159 51.67 5.43 8.86 19.41 5.1197 24.72 13.58-3.81 12.11-16.81 22.14-14.48 36.05 3.66 5.47 11.969 7.0997 14.919 13.43 4.9 23.43 20.98 42.3 34.97 60.98 0.88 1.02 0.6809 2.5603-0.6391 3.1203-26.07-5.72-46.241-24.669-66.331-41.209-12.25-10.27-22.66-24.13-25.03-40.27-2.53-21.5 10.71-41.371 7.3797-62.941-0.65-11.72-7.1688-23.269-6.6688-34.409zm-182.05 21.659c8.64 14.1 23.279 24.69 28.119 41.08 7.8 5.61 17.741 6.64 25.891 11.6-2.35 8.93-17.76 10.031-19.82 19.461 7.86 3.45 17.39 4.0097 23.62 10.48 4.74 6.61 3.2206 15.6 7.2406 22.62 8 15.58 25.66 22.81 34.93 37.37-0.02 5.27-7.7506 1.1891-10.491 1.3391-23.31-6.26-50.369-10.6-65.259-31.87-9.21-14.96-20.751-28.59-29.011-44.03-3.09-22.65 6.4013-45.46 4.7813-68.05zm-486.85 6c4.15 1.2 2.85 5.5897 2.65 8.9797-3.46 27.4-4.13 55.27-0.15 82.67 4.17 3.6-3.2597 8.4594-4.2297 4.2094-3.61-31.57-6.7003-65.279 1.7297-95.859zm-221.91 11.62c15.5 20.47 17.259 50.71 19.739 76.43-1.96 4.5-7.3594 1.5094-5.4094-3.4906-0.62-22.64-4.4703-45.609-14.92-65.909-1.07-2.22-3.0494-6.1997 0.59062-7.0297zm708.02 156.8c22.52 3.32 32.471 29.32 52.081 37.57 2.53-6.12-2.5506-15.64 0.60936-22.88 14.66 10.87 20.22 30.029 31.47 43.909 8.19-3.53 10.469-19.039 19.359-21.559 7.3 34.46 10.47 76.389-15.23 104.34-5.29 6.16-14.17 11.861-22.5 8.6109 2.65-8.29 8.48-15.41 10-24.05-4.03-2.67-15.681 9.2591-17.991 1.9391 5.28-13.32 8.6206-29.85-1.1594-41.92-10.22 18.72-28.71 33.59-48.63 41.3-8.6 4.74-8.36-8.4-15-9.25-5.1 8.53-10.91 17.671-20.07 22.241-10.16 3.36-9.2806-15.74-18.741-14.98-2.75 13.24-13.829 24.02-27.359 25.67-1.06-8.44-0.50968-19.211-8.0797-25.191-7.93 5.59-7.18 21.23-16.65 24.08-5.75-10.37-7.4303-23.83-18.22-30.82-5.19 9.98-12.311 19.211-22.141 24.981-3.4-5.05-0.90969-12.951-5.8297-17.181-3.47 7.42-10.43 14.14-18.83 14.95-3.34-4.28 4.0503-13.319 0.12031-17.669-8.43 11.93-19.06 24.259-33.28 28.839-4.3-4.31-4.9112-12.23-9.5312-17.05-0.93 5.41-0.90907 15.47-7.4391 16.98-4.09-6.71-5.0097-15.78-11.63-20.68-11.91-3.41-25.451-1.4897-36.561-7.4797 2.24-7.67 10.94-11.031 15.85-16.841-0.94-2.6-5.58-5.18-2.85-7.9 16.37-10.5 33.361 7.7909 50.161 4.0109 3.43-4.83-5.8712-9.6009-3.7312-14.961 10.96-1.62 21.311 3.5506 32.231 2.8406 2.06-16.34-14.54-24.98-23.57-33.8 18.22-3.63 33.12 12.74 50.77 14.8 0.14-4.93-3.2809-10.349-0.91093-14.909 13.22 2.66 21.621 15.939 34.941 17.769 1.48-7.78-8.031-17.54-2.611-23.63 18.02 3.69 31.511 17.63 47.791 24.8 5.31-12.27-5.2-23.86-4.4-35.25 7.49-0.58 15.27 6.3797 23.37 6.9797 0.6-6.23-7.2206-11.419-5.2906-17.039 21.34-1.39 40.16 12.58 55.28 26.38 11.01-19.05-5.17-40.08-5.8-57.95zm-588.21 3.9c3.47 4.92 7.9006 8.83 12.841 12.25 12.29 11.12-7.3612 24.859 1.4188 37.359 6.15 10.65 16.82 18.47 21.12 30.3 2.46 13.72-1.3303 27.641-6.1203 40.411-3.79 2.82-4.35-5.4012-6.25-7.3312-8.55-22.43-17.869-44.71-32.409-64-2.79-17.08 9.37-31.829 9.4-48.989zm55.059 3.2594c2.54 5.78 10.86 8.0506 16.95 11.041 3.15 7.64-2.0594 15.01-2.0594 22.7 1.09 13.76 21.029 17.29 20.009 31.88-2.72 13.17-14.959 21.889-18.039 35.009-0.61 1.59-1.9906 7.6906-3.5906 3.8406-5.96-20.14 2.2797-47-18.07-60.97-6.73-13.89 6.14-28.78 4.8-43.5zm-109.71 1.1c6.3 11.27 12.689 28.791 4.2094 42.311-0.44 26.48 31.711 39.8 32.441 66.55 0.64 4.39-0.71031 15.659-7.7703 10.759-13.32-21.59-27.75-42.74-45.57-60.68-4.79-20.45 7.8506-41.481 16.691-58.941zm186.92 81.7c8.24 4.57 3.2291 18.389 10.739 24.859 6.13 8.08-0.2 18.531-4.2 25.991-8.17-3.3-3.5094-17.22-9.2094-23.45-8.69-7.72-1.0897-19.24 2.6703-27.4zm160.3 17.37c-10.54 4.54-23.28 3.4391-31.72 12.389-10.27 9.9-24.719 3.11-36.559 6.2-5.38 12.46-19.8 15.42-32 13.32-2.66 26.55-39.381 37.26-61.681 34.98-16.41-3.99-25.28 17.7-22.83 30.7-3.34 19.13-2.1591 39.13-1.0891 58.12 13.25-31.13 49.599-22.62 75.709-27.68 5.02-2.63-5.5406-10.23 1.4094-12.9 11.25-3.12 26.131-2.8103 29.241-17.47 8.01-10.38-16-0.18-9.0703-12.1 11.4-28.59 45.41-36.5 63.63-59.42 7.01-9.07 20.801-17.759 24.961-26.139zm-374.2 10.43c4.84 4.16 8.2594 11.739 13.359 16.559-4.64 16.35 25.35 22.161 16.07 38.481-13.46-3.09-18.11-17.541-28.7-24.681 1.69-9.75-2.5697-21.659-0.72969-30.359zm319.65 27.952c1.6576 0 3.1872 0.4031 4.2547 1.8687-12.81 9.82-26.521 20.25-42.561 23.58-7.79 8.33-26.159 10.14-31.609-0.2297 15.02-1.11 25.34-15.13 40.55-15.35 8.42-1.14 14.661-8.0197 23.041-9.2297 1.8506 0.039 4.1938-0.6365 6.325-0.639zm-314.48 63.541c12.263 0.136 23.788 6.7875 36.402 4.6078 9.07-3.96 9.22 9.1694 1.7 9.8094-23.48 6.26-48.691-7.8097-70.591 7.0203-0.53-13.25 19.2-19.99 31.3-21.43 0.39718-0.01 0.79347-0.012 1.1891-0.01zm1706.4 44.688c5.8 16.8 18.1 34.46 10.82 52.68-2.15 10.23-12.839 7.0703-19.109 3.6203-0.7 7.67-1.16 16.521-7.25 22.141-7.36 7.6-14.391-9.9603-22.311-5.7203-4.63 4.25-6.9097 15.82-14.63 14.97-9.41-13.73-20.51-32.121-39.13-32.911 10.49 25.58 0.46 59.181-24.4 72.131-11.47-10.12-14.28-32.611-32.02-36.961-2.95 8.97-2.6506 20.41-10.241 26.87-8.55-2.48-13.41-12.93-21.68-16.85 4.07 18.35 9.6609 37.749 4.3609 56.409-4.96 2.25-6.8103-5.7294-9.8203-8.0594-11.46-13.64-27.921-30.659-47.511-25.209 4.25 20.56 16.15 38.95 20 59.8 4.86 25.19 12.951 52.77 35.141 67.8 4.17-4.1-8.2306-22.271 3.5094-17.711 8.44 12.14 14.211 26.19 23.311 37.98-2.73-14.1-3.26-29.319-0.9-43.109 15.57 5.38 22.8 24.501 26.72 38.991 9.34-8.84 13.869-21.331 15.059-33.891 12.35 3.68 20.441 14.491 27.991 24.141 11.51-6.73 9.2794-20.87 8.2094-31.97 6.25-3.67 13.25 5.5603 19.12 7.4703 1.17-13.14-3.5497-25.55-10.43-36.42-1.79-1.75 1.2797-2.89 2.5297-1.6 26.17 18.78 48.98 45.63 53.33 78.57 14.13-17.32 15.08-41.94 7.6797-61.87 6.74-1.27 15.55 10.109 22.82 13.389 0.43-12.96-6.1703-24.669-7.0203-37.309 9.64 1.53 17.411 10.081 26.911 13.291 3.25-12.53-5.4112-25.37-7.2812-36.1 28.47 2.98 38.691 39.649 40.211 64.259-2.91 9.67 10.999 7.1003 8.7891-1.0797 1.89-8.32 8.2 1.9303 13.15 0.9203 2.7-24.83-23.83-41.061-22.25-64.981 8.34-1.23 18.89-2.1994 22.25-11.659-22.59-9.17-25.259-36.77-26.639-57.78 3.6-5.91 11.34 2.1594 15.95 3.4094-0.65-12.2-3.44-24.109-5.95-36.009-7.7-0.94-14.25-5.0609-21.42-7.5109 0.98 4.38 3.3503 8.3312 4.1203 12.781-7.34 3.44-15.461-2.7103-19.461-8.5703-16.05-18.12-19.57-46.431-42.53-58.341zm-1530.6 28.38c-9.97 0.27-21.12 2.9209-25.5 12.461-10.12-4.27-21.331-7.4003-32.091-3.0203 9.5 10.94 26.669 20.15 41.159 14.1 7.64-4.19 20.971-17.041 16.431-23.541zm806.71 48.597c21.162-0.1046 44.432 7.7888 53.758 28.034-2.24 5.24-6.9388-2.0809-8.4688-4.4609-11.6-17.23-34.161-18.13-52.811-18.92-3.04-0.52-1.9794-4.9988 1.0406-4.3688 2.1263-0.1772 4.2921-0.2736 6.4813-0.2844zm-399.55 79.181c-1.6038-0.022-3.2122 0.013-4.8266 0.1125-9.89 3.88-16.02 14.659-26.97 16.659-10.09 4.01-17.68-4.7694-24.8-10.059-15.43 28.06-55.089 23.71-70.869 51.15-8.75 16.53-27.681 27.339-29.541 47.309-10.93 10.25-9.7294 29.77 4.3406 36.75 11.74 6.41 18.52 21.721 33.7 21.241-6.43-14.53-0.14-32.22 13.05-40.73 2.26-4.54 13.359-11.571 9.0688-2.0906-13.44 9-27.339 27.18-15.519 43.27 16.53 15.33 41.599 13.069 61.659 7.0594 32.51-13.5 44.369-49.529 71.559-69.489 14.62-11.61 22.78-28.661 32.07-44.341 4.09-1.19 5.2303 3.84 7.5203 6.15 8.28-7.76 2.5097-19.099 2.1797-28.639 6.02-4.71 10.041 10.49 16.691 6.4297-4.37-9.99-8.1506-20.591-7.8406-31.641-24.45 4.1906-47.415-8.818-71.473-9.1422zm1091.6 162.55c3.56 13.39 5.7791 31.059-5.2109 41.319-4.86-4.73-6.0494-12.479-11.109-17.219-6.47 15.54-11.151 35.809-25.841 45.019-0.08-12.06-1.1191-28.02-9.3391-39.2-2.4 13-9.8997 24.87-11.33 37.87 6.77 23.46 3.0391 49.75-16.761 65.88 2.89 2.07 14.521-9.2194 16.341-1.5094-6.03 22.13-7.2397 46.27-19.88 66.08-19.73 25.01-58.411 23.4-76.791 50.23-11.39 16.11-27.77 39.261-13.82 58.391 34.42 28.89 85.87 22.91 121.73-0.4797 35.03-16.49 64.39-42.781 86.82-74.191 14.8-15.11 30.82-32.539 52.83-35.859 10.09-5.43 3.4309-19.2 0.2109-27.03 6-5.23 13.829 1.8088 18.989 4.8188 2.2-5.63 5.1012-11.48 4.8812-17.65-22.72-45.29-0.18-98.15-7.75-145.53-3.59 8.11-2.3106 21.571-9.9406 26.211-3.87-11.23-5.8894-23.39-13.409-33.1-2.49 16.54-1.7712 37.509-14.831 50.319-6.21-4.62-3.2397-19.03-9.8797-21.83-0.83 22.74-10.15 43.98-21.23 63.47-3.31 4.41-3.25-5.2906-2.3-6.2406 2.31-31.81-1.2797-72.289-32.38-89.769z"/>
<path id="path8" fill="#e88100" d="m2097.4 18.714c-6.9712 0.05875-13.976 0.64625-20.841 0.85625-31.98 3.71-66.989 12.55-89.559 36.5 8.23 4.65 23.089 2.2391 29.969 9.9891-11.14 4.8-31.999 9.92-30.789 26.4 6.12 4.49 20.039 2.0403 22.659 11.37-11.55 8.37-29.04 11.94-35.68 26.33 19.82-0.94 46.24-2.71 59.67 13.95-10.94 13.22-35.751 18.051-39.641 37.831 2.87 2.73 9.7709 0.45969 13.761 3.3297-1.64 8.58-9.0909 14.959-11.111 23.539 9.3-3.86 18.02-9.5094 27.95-11.709 3.69 3.41-4.3097 5.0606-5.6297 7.0906-12.33 8.15-22.93 27.15-14.2 41.15 13.96 1.92 27.969-3.36 42.059-3.65 13.96-9.47 29.521-17.801 46.981-17.141-5.94-5.58-13.101-10.249-17.181-17.459 11.97-6.42 26.301-8.64 38.991-9.9-3.3-9.15-10.079-16.611-17.559-22.591 0.09-4.79 8.9891-2.3006 11.639-5.4406-3.13-4.17-10.61-6.2388-10.88-11.819 18.12-10.71 40.471 2.1994 50.491 18.159 3.81 6.53 9.2194-3.2806 8.4594-7.4906-2.71-20.43-18.09-37.72-35.85-47.23 3.49-6.91 19.089 4.9403 25.309 0.67031-4.51-10.27-16.799-13.47-24.819-20.37 16.47-4.2 37.86-4.5403 52.43 6.7797 6.71-16.06-6.7497-31.42-21.08-36.75-2.26-1.85-8.6809-2.0088-7.7109-6.1188 12.99-0.13 25.43 4.0397 37.62 8.0797-8.2-10.27 13.049-9.8809 18.659-8.2609 6.16-9.9 20.731-2.0897 29.561-4.5797-37.93-21.19-82.38-25.12-124.92-19.92-4.91-0.73-14.8 3.9903-16.43-3.1797 8.61-6.71 19.329-10.37 28.309-16.1-6.73-1.905-13.668-2.3744-20.639-2.3156zm-231.05 74.666c-19.45 11.94-15.511 33.73-11.891 52.38 0.24 11.02-11.731 6.27-15.091-0.6-0.77 23.09 11.611 45.601 10.331 68.991-1.98 8.5-15.86 7.3597-18.8-0.22031-10.6-12.88-5.3803-30.739-7.6703-45.159-14.66 33.29-5.9697 69.779 10.97 100.26 2.12-2.24-0.5212-8.0891 3.4688-8.0391 7.59 13.01 11.76 27.729 18 41.409 5.07 1.45 8.1306-23.509 12.591-11.659 0.95 18.6 4.73 41.149 25.05 48.259 1.04-11.19-3.4894-27.29 6.6406-36.2 3.6 18.64 11.089 36.31 17.219 54.15 9.77 3.68 16.87-6.8697 20.05-14.83 8.49 3 3.2203 19.88 6.8703 25.7 18.05 1.8 22.81-19.38 19.75-33.03 12.16 10.24 3.67 36.519 23.9 39.239-0.6-8.63-2.8091-20.33 5.2609-26.2 7.34 5.46 9.0497 16.48 17.98 20.27 9.1 6.77 10.839-9.8497 13.689-15.03-9.4-18.51-10.58-40.04-7.4-60.3-5.94 7.7-7.73-2.1703-9.3-7.8203-6.53 9.41-11.519 27.78-26.119 25.53-6.88-8.38 1.0691-20.789-1.7109-30.459-4.84 0.82-10.91 7.5094-15.03 2.8594 3.29-9.94 8.9097-19.199 9.8297-29.839-10.54 5.96-21.56 20.859-35.25 14.339-4.56-7.9 1.4597-17.26 5.1797-24.48-9.63 3.47-19.439 9.1103-29.989 6.5203-7.54-3.23 12.5-12.6 1.1297-9.5797-10.27 4.55-20.94-2.4309-22.9-12.911-9.96-19.56 1.3794-39.119 14.859-52.939-6.53 1.32-14.339 7.9894-20.789 4.7594 2.66-10.27 14.449-15.36 20.709-23.75-13.43 3.19-22.74 14.22-33.87 21.1-9.16-24.29 0.2609-49.21 12.661-70.27-8.51 1.52-14.75 10.151-23.53 9.9109-1.73-6.78 3.76-18.201 3.2-22.361zm454.9 40.883c-0.8548 0.0111-1.7222 0.05-2.6032 0.11719 6.2 9.23 16.12 18.071 17.2 30.311-6.05 3.25-11.63-8.9209-18.65-8.8109 8.94 12.22 22.129 30.34 8.6391 44.13-12.04-10.42-24.34-27.39-41.7-26.48 10.77 9.62 26.631 31.35 11.761 43.65-6.22-7.05-13.051-13.679-22.031-17.089 8.27 7.04 5.58 32.46-7.05 20.98 7.25 18.46 0.011 44.889-19.739 51.809-8.44-7.22-11.45-26.05-21.57-29.07-1.2 33.56 16.14 66.451 40.98 88.641 7.43 6.22 17.3 12.459 27.37 8.6594-0.91-7.24-2.8397-21.09 4.7703-23.93 10.9 18.8 17.96 44.021 39.72 53.791 12.7 1.61 3.0097-16.561 9.6797-23.211 9.25 7.96 11.399 23.26 22.859 29.2 4.93-10.32 9.3297-20.92 13.48-31.58 12.04-39.56-1.8397-80.08-9.2297-118.98 5.44-4.01 9.3603 7.6194 13.32 10.009 1.83-19.67 0.66-41.809-11.5-58.419-15.064-18.019-29.208-44.072-55.706-43.728zm-218.5 251.04c-0.92 8.25 5.5606 18.711-0.2094 25.691-6.88-0.41-11.549-6.9609-16.709-10.761-4.04 8.64-13.28-2.66-19.97-3.15 1.82 8.88 2.82 19.61-3 27.1-4.99-3.54-8.0897-10.039-13.78-12.109 1.98 8.78 2.0391 22.969-8.8109 24.709-2.92-15.28-13.06-29.59-27.98-35 10.13 10.71 13.359 31.161-1.0406 39.661-9.59 5.13-14.21-8.7009-21.33-12.611-4.12 6.6 1.0306 17.64-3.7094 22.22-8.7-4.39-15.011-13.08-18.241-22.15-5.92 8.57-1.3491 19.43-1.1891 28.93-23.46-3.66-18.281-36.269-34.591-45.939 3.34 10.73 5.8797 28.56-5.1203 35.05-5.81-9.08-9.83-23.03-20.1-28.77-4.1 5.18 0.5603 14.1-2.4297 19.92-8.7-0.16-15.791-5.7912-23.391-9.2312 8.26 25.48 24.061 48.851 47.941 62.041 23.01 11.7 42.27 29.08 63.35 43.72 3.09 1.62 4.8406-2.7303 5.2906-5.1203 1.36-13.09-2.9809-25.99-8.6609-37.6 16.4-0.51 25.35 19.28 30.83 32.37 4.91-8.51 1.1406-18.621 3.0406-27.541 8.73 5.98 11.1 17.3 18.57 24.28 14.58 1.69-0.2903-18.639 6.3797-21.009 10.29 10.47 25.06 19.571 40.03 15.241 3.14-11.55-4.3991-28.841 4.1109-38.331 4.63 7.35 5.8594 20.521 15.809 24.011 5.21-4.99 4.33-14.161 6.15-20.911 7.9 1.83 12.54 11.791 20.55 12.761 10.58-9.13 5.6797-25.051 2.0797-36.461-0.92-1.31-0.4097-5.8288 1.5203-3.4688 7.72 9.48 15.409 19.219 24.859 27.069-10.9-36.06-30.29-71.089-60.25-94.609zm-59.93 215.88c-0.59 12.14 6.9797 24.021 2.9297 35.691-8.32-0.8-13.439-11.231-22.619-11.941 15.66 23.36 26.34 51.34 20.48 79.9 7.61-1.26 15.36-13.32 22.77-9.1203-2.62 18.6-10.06 38.37-6.9 57.35 12.22-12.34 24.839-24.619 39.439-34.109 2.7-2.57 4.72 2.6794 0.95 3.9594-12.58 15.66-21.389 33.901-26.639 53.241 11.5-3.76 22.409-9.2703 33.939-12.97 2.64-0.94 3.2997 2.4897 2.4297 4.3297-4.99 15.62-6.5288 32.991-0.6188 48.581 24.22-13.5 43.74-34.851 70.05-44.941 1.92 0.17 2.28 1.4803 0.95 2.8203-13.32 14.95-27.06 30.33-35.1 48.9 3.12-2.19 6.0188-4.64 9.1688-6.85 1.73 8.2-8.6491 15.21-7.7391 23.93 16.57 3.18 32.01-6.22 38.87-21.1 3.36 11.5-7.9406 23.62-12.841 34.35 10.56-0.71 17.901-11.811 25.091-15.541 3.3 22.51-7.35 46.17-6.6 69.5 9.52-7.8 15.679-19.53 25.159-27.15 4.53 2.78-2.5806 10.16-1.2906 14.75 5.67-2.66 9.2503-8.7697 13.02-13.48-0.34-37.61 18.631-71.36 36.291-103.27 8.25-17.54 16.88-36.89 12.95-56.73-5.67 6.61-18.49 26.91-27.95 18.72 20.25-26.17 30.439-64.53 13.939-95.1-3.89 8.6-15.869 18.009-24.159 9.2594-5.03-8.51-12.95 6.7703-19.72 1.7703 1.45-8.83 5.22-18.12 3.4-26.88-8.01 17.1-25.439 35.739-45.409 34.059 4.75-11.5 10.009-23.379 6.1094-36.219-8.29 6.66-11.069 19.079-20.989 23.909-14.78-10.26-10.901-32.82-17.211-45.52 1.58 15.96-0.8891 36.78-16.989 44.82-3.48-11.78-4.49-24.5-11.35-35.17-2.25 9.36-5.7712 28.721-18.931 26.411-1.84-13.24-4.57-28.55-16.95-36.15 1.18 12.32 3.2406 24.509 5.0406 36.739-22.1-2.51-34.88-23.4-42.97-40.75zm-714.6 20.886c-0.7347-0.0375-1.9007 0.0938-3.6219 0.425-26.51 4.27-52.799 10.49-77.669 20.73 32.06 2.45 67.239 9.2703 93.059 31.02-2.04 6.12-11.17 6.4197-15.3 10.88 5.65 5.91 15.88 5.86 21.27 11-4.42 11.52-4.0497 26.009 7.5703 33.359 17.88 14.87 42.369 12.85 63.739 12.03 1.19 6.49-4.6294 16.911 2.3406 22.861 15.49 15.59 36.25 25.879 49.02 44.189 1.57 7.82-10.331 10.67-11.261 17.15 19.1 32.72 51.5 55.291 75.5 83.441-6.59 11.31-30.239-4.0103-39.009 5.9297 2.2 14.54 17.63 21.671 27.8 30.261 13.43 5.96 22.57 17.83 35.27 24.83-3.03 13.17-11.151 26.65-25.481 29 1.31 5.76 5.7812 9.6891 9.1312 14.289-3.56 15.23-33.231 17.871-28.431 36.111 11.32 9.98 28.801 4.2994 41.991 9.5594-2.32 11.09-20.63 7.8497-23.07 16.63 11.81 20.28 37.591 24.231 58.391 27.841-2.9 11.72-16.33 19.66-27.33 24.97-1.88 10.47 8.22 15.899 13.95 22.589 2.94 8.49-6.5703 15.52-3.5203 24.15 2.8 15.47 19.68 21.841 25.37 35.761 3.78 8.53 8.01 19.44 1.3 27.58-1.13 12.97 9.7794 23.33 18.059 32.05 16.11 10.68 35.92 8.5203 54.03 6.4203 9.77 6.48 3.5997 19.749 2.7297 28.909 17.47 5.34 35.891-6.7794 41.911-23.009-3.27-10.72-15.171-21.851-5.9906-33.011 11.23-15.46 23.24-31.839 22.08-52.139 4.92-14-12.51-13.49-20.88-16.98-12-3.5-23.37-18.08-16.82-30.45 19.61-30.65 61.431-37.85 81.511-67.6-25 3.88-57.221 16.629-76.811-5.9312 8.46-9.75 24.851-12.299 34.841-20.019-14.59 2.1-31.581 3.8997-43.841-6.1203 5.88-17.82 28.75-22.02 37.45-37.3-15.42 2.4-29.889-3.8603-44.219-7.9203-6.76-18.37 18.55-21.04 24.45-34.08 1.2-16.5-16.01-27.81-30.57-30.57-10.19-2.83 4.2194-12.37 4.3094-18.58 2.29-19.89-18.23-31.5-26.43-47.38-7.99-15.67-22.2-26.761-33.8-39.331 0.74-11.09 19.37-12.84 17.38-25.33-4.47-27.32-35.81-46.88-62.02-44.92-1.72-5.68 8.5812-11.339 4.4812-18.139-10.44-14.54-28.191-21.491-42.231-32.041-18.92-16.98-45.859-4.4494-67.869-11.159-3.25-4.51 3.6-8.8597 5.35-12.63 12.36-13.13 10.059-34.83-2.1812-47.27-27.94 0.51-55.549-4.7506-83.469-4.3906-1.88-0.38-5.4906-1.9103-3.1406-4.0703 7.19-4.74 16.53-3.8197 24.65-5.6297-28.71-6.07-59.94 0.77093-89.03 5.8609-5.7662-5.0925 10.203-13.563 5.061-13.825zm-238.53 70.48c-0.6087 0.002-1.5938 0.25625-3.1016 0.84531-28.68 5.37-57.231 13.94-82.441 28.9 13.09 1.88 32.721 0.0194 43.961 10.709-8.97 9.54-22.45 14.98-28.93 26.87 16.69 5.31 27.839 21.039 45.239 24.809 23.22 6.09 47.04-4.2497 69.6-4.7297-7.2 14.67-21.54 24.86-36.68 30.2 12.81 10.22 32.869 7.69 47.909 11.9-4.72 6.3-12.339 9.2406-18.389 13.941 13.85 13.61 33.68 17.089 52.17 18.939-3.06 8.57-11.95 13.74-18.77 19.22 5.66 11.57 19.98 13.829 30.68 18.059-0.66 4.7-7.25 9.67-1.05 13.85 17.72 12.66 40.771 17.2 61.991 19.15 6.49 20.04-15.891 30.42-29.741 38.92 4.2 10.14 17.22 11.65 24.7 18.23-1.61 11.03-12.089 17.98-17.859 26.82 9.71 16.93 21.47 34.64 41 41.15-1.71 17.39-16.4 31.2-15.47 49.13-0.47 8.1 9.4391 10.58 10.389 18.12 2.03 23.69-5.1288 46.75-5.9688 70.28-4.23 39.95 9.4391 79.101 7.0891 119.06 1.54 16.58-11.46 32.859-2.9703 48.989 15.1 26.45 47.661 37.681 76.931 36.061 12.45-2.37 21.63 7.1391 31.95 12.039-7.18-28.71-45.57-30.12-52.62-58.53-1.55-17.84 12.38-33.1 11.25-50.92-3.35-15.18-6.4906-30.419-9.4906-45.639 1.82-13.98 2.62-29.8-8.8-40.15-9.83-7.4-2.91-19.31 4.45-25.07 16.68-15.14 30.261-35.43 34.961-57.53-8.67-1.09-21.18-1.1309-26.4-7.9109 20.03-24.39 45.22-45.839 54.78-77.159-9.71-3.42-24.011 4.6194-31.961-4.5906 1.57-12.65 15.561-19.059 20.731-29.889-1.16-11.3-6.1106-22.24-3.1406-33.8 2.84-16.91 10.9-38.62-4.8-51.8-6.43 6.28-19.01 16.55-26.7 6.6797-12.83-16.6 2.7297-36.329 16.88-45.809-9.37-8.65-23.609-7.7703-35.009-11.02-3.56-12.48 2.6803-28.281-6.3297-39.691-8.72-12.21-25.221-13.65-38.691-16.3 2.11-6.52 19.96-4.409 13.93-15.689-17.33-32.91-59.55-30.79-90.08-40.45 1.73-6.58 11.441-6.3403 15.291-11.72-16.6 3.88-35.07 6.3594-50.97-1.4406-6.71-8.06 14.72-16.27 3.45-22.42-17.08-11.11-38.201-11.099-57.761-12.809 3.87-6.14 9.34-11.021 13.3-17.091-9.1 3.74-18.15 9.7109-28.45 8.5609-4.455-1.9153 3.2289-9.2836-0.058-9.275zm617.75 5.3641c8.09 9.19 23.09 15.05 32.48 24.35-0.4 6.3-12 9.7012-7.45 16.181 16.5 19.01 40.43 30.93 65.52 31.75 0.14 18.22-23.42 23.889-37.8 20.559 5.24 24.1 25.991 41.771 48.491 49.641-2.59 13.75 15.75 16.949 25.63 19.339 1.7 9.5-13.581 14.46-15.141 23.15 3 11.26 15.971 12.461 24.591 17.391 0.01 6.26-15.58 6.5694-11.32 15.109 5.02 17.85 24.13 24.96 39.68 31.48 12.19 5.13 25.66-0.65936 37.93 2.1406-4.53 12.14-16.26 20.24-25.75 28.47-0.23 5.1 4.8009 8.87 6.6609 13.45-4.53 3.88-10.811 4.639-15.911 7.439 0.02 19.43 19 30.27 33.57 39.15 0.63 5.52-5.2191 10.751-2.2391 16.861 1.5 9.75 13.11 11.53 19.43 17 4.31 21.16 11.93 44.09 8.8 64.98 24.58 15.27 41.7-21.68 30.67-40.65-5.54-17.25-16.941-32-21.761-49.4-6.35-22.75 27.59-31.19 22.47-53.35-5.16-19.77 11.171-34.97 17.891-51.77-13.79-5.86-29.23-0.76032-43.22-5.2703 4.98-12.65 26.389-14.05 27.909-29.35-7.4-14.71-26.559 0.61128-37.359-4.3687-0.13-4.75 6.33-8.0306 3.45-13.491-5.11-12.17-23.76-14.44-24.5-28.85-1.97-9.61-13.061-14.929-14.011-24.859 0.97-10.99 10.36-18.42 16-27.1 5.34-8.91-2.5888-18.461-9.7688-23.311-17.03-13.23-42.991-20.71-46.741-45.1-16.95-8.83-36.82-9.3403-53.92-17.42-2.85-7.13 10.191-8.7791 12.261-14.989-14.92 3.44-29.811 8.71-45.381 7.2-21.68-0.05-39.829-14.361-61.159-16.361zm253 78.261c-4.02 11-14.001 16.86-24.391 20.68 9.14 4.24 18.471 8.3406 28.611 9.4906 0.01 8.27-15.021 8.1697-18.291 13.48 9.22 3.51 19.92 0.0496 28.77 4.3297-1.38 6.71-16.95 9.4694-9.1797 16.859 11.21 23.46 41.45 23.9 56.83 42.22-7.17 7.01-21.72 6.3906-29.63 12.791 9.06 9.24 27.009 9.7903 33.809 22.47-3.83 17.35 10.311 30.979 7.1109 49.309 14.33 4.13 29.669-4.22 43.909-0.75-6.75 13.35-23.541 21.48-25.941 37.9 8.9-2.7 16.451-11.651 25.281-12.291-0.92 8.18-9.9512 15.871-10.381 25.211 20.67-14.53 41.83-29.08 62.82-43.23 6.94-23.33-19.28-31.191-36.07-37.441-3.26-5.11 11.81-4.9397 7.0703-9.9797-10.62-11.12-24.499-18.121-37.709-25.561 2.97-10.14 17.239-13.659 21.859-22.469-10.72-15.57-32.04-15.481-48.75-17.131-6.9-15.59 8.81-28.769 15.7-41.159-3.84-11.01-18.699-12.051-28.589-10.141-11.08-4.2-11.221-15.989-8.0406-26.219-13.81 11.05-33.97 22.679-51.63 10.709-12.92-2.4 4.5097-13.75-3.1703-19.08zm-1097.9 12.32c-17.38 7.73-28.74 23.709-42.82 35.489-7.19-0.79-1.3697-9.7403-0.77968-14.02-25.24 11.84-50.66 25.811-65.85 50.111 17.54-3.37 36.861-7.5503 54.041-0.92032-7.7 11.13-24.251 15.1-30.841 28.07 20.12 2.06 39.83 8.2694 60.12 8.2094 2.58 0.92 9.8297-5.2797 9.5297 0.47032-7.57 13.14-22.22 19.621-34.83 25.991 16.43 17.24 42.789 17.089 64.439 12.519 10.36-2.4 2.3203 9.211 0.57032 13.511 7.41 7.91 19.121 7.3194 28.911 9.0094-0.79 3.77-4.0906 8.7506 0.60936 11.391 11.46 9.33 26.08 14.03 37.32 23.77-2.4 6.57-10.14 10.389-10.95 17.489 7.41 7.22 17.19 11.01 25.88 16.35-7.67 13.61 1.4203 28.601 7.1703 40.991 10.22 19.04 23.69 41.69 47.45 43.85 3.78 2.16 14.399-3.4497 14.559 2.9703-7.21 13.43-22.4 18.739-35.82 22.559 4.53 11.56 20.07 15.18 30.77 19.73-3.79 7.01-10.619 11.54-17.839 14.48-1.95 14.11 10.789 23.49 15.869 35.4 14.25 21.44 15.26 47.631 13.4 72.411 6.52 12.88-4.1397 25.66-4.5297 38.77-1.15 23.07 14.84 41.239 23.48 61.319 4.13-16.81 0.9709-34.929 7.9109-51.119 7.38-14.28 14.83-29.141 14.4-45.691 3.14-19.63-16.851-35.24-10.211-54.98 3.8-37.84 37.861-61.4 52.411-94.52-11.12-2.66-23.28-4.1494-31.8-12.609 0.2-15 14.799-24.851 16.859-39.361-11.59 5.07-22.999 3.03-27.109-10.25-9.01-13.04 13.12-20.67 11.95-30.68-14.76-2.89-12.3-20.43-24.7-26.33-8.29-4.54-5.6397-16.621-13.38-21.741-8.89-6.09-23.611-5.7297-26.561-18.38-2.92-11.57-14.179-21.94-3.2594-31.7-11.51-7.54-27.801-8.0097-37.091-18.03 0.92-21.68-20.189-33.06-38.609-37.03 4.26-14.55-11.54-21.58-22.07-26.37 0.41-6.38 8.1797-13.171 2.4797-19.511-15.74 1.3-32.149 6.8703-47.709 0.82032 0.6-4.39 8.299-5.15 7.839-9.65-8.09-3.95-17.499-3.7297-26.019-5.0297-4.46-10.44 2.0394-31.829 4.8094-37.759zm-261.36 180.06c-5.98 4.42-12.321 15.551-20.461 8.7906-17.58 8.38-29.76 25.509-41.48 39.809 20.11-2.47 39.15-14.021 58.93-15.491-1.08 8.74-17.4 12.04-19.18 22.37 18.39-3.23 36.53-13.219 55.17-12.309 2.55 13-9.1103 24.06-18.12 31.22 20.71 9.39 44.059 5.9897 64.909-0.8703 3.02 5.66-1.5691 11.389-3.0391 16.739 6.49 5.11 14.92 6.46 22.72 8.5 0.23 8.45-8.38 13.831-14.7 17.841 22.66 25.08 60.43 27.66 92.05 27.7-8.83 10.45-21.281 17.259-33.761 22.509 4.43 10.07 19.48 11.5 29.52 13.82-0.25 6.32-6.2897 11.15-6.8297 17.45 7 9.3 20.03 8.0097 29.35 12.13 1.92 8.96-4.0197 18.301-9.9797 24.711 0.54 13.49 25.919 11.869 18.959 27.789-3.43 15.88-9.8897 31.081-11.28 47.411 6.39 7.55 16.4 9.7197 24.27 15.08 2.01 7.81-9.4803 15.43-3.4203 23.15 13.06 21.22 16.239 50.149 1.1594 71.209-3.92 2.54-4.519 16.701 2.111 11.141 30.29-33.13 36.11-85.12 14.13-124.55 5.51-17.88 29.84-24.55 32.57-44.52-7.42-3.34-19.05 3.0309-24.97-3.0891 8.29-13.3 17.749-26.7 20.259-42.57-8.13 3.93-15.259 16.33-26.239 12.93-5.67-4.44-1.4506-12.631 0.10936-18.341 7.88-18.86 16.22-38.079 15.97-58.989-6.43 5.15-13.28 11.129-21.87 11.809-3.12-6.4 2.7097-13.989 2.8297-20.809-4.86-3.12-11-1.77-16.25-3.65-8.82-6.54 6.8806-22.751-7.1594-24.061-16.65-1.38-7.1097-20.81-7.8797-31.3-14.03-1.7-28.34 14.61-41.7 6.6703 1.63-18.76 20.019-36.78 9.6688-55.75-15.5-3.63-23.629 18.34-38.709 19.05-11.25-0.87-23.71 4.7206-34.13-0.1094 1.95-3.95 6.1697-6.66 7.1297-11.05-8.53-0.96-17.13-0.8-25.68-1-1.47-4.93 5.6497-6.3006 7.8797-9.9406-8.38-7.38-20.561-5.959-30.691-8.589-1.56-7.37 5.3309-13.711 7.5109-20.431-17.95-6.92-36.431 2.921-53.561 8.561-8.97 4.05-4.2988-9.8403-6.1188-10.97zm-128.01 95.78c-8.6 4.3-15.41 14.201-25.8 13.541-3.28-1.78-0.43938-8.8209-4.3594-8.5609-1.9 11.4-6.9206 21.96-11.341 32.55 10.48-3.2 24.93-11.569 34.53-2.1891 12.58 12.24-1.29 35.16 13.95 45.02 15.83 13.7 44.301-12.131 52.941 12.339 19.69-4.01 23.16 20.35 40.78 21.95 39.84 11.65 62.13 50.971 75.32 87.661 16.99 40.42 0.35062 85.869 15.341 126.69 6.02 16.31 8.1488 33.91 15.419 49.77-3.1-21.7-4.2397-43.82 0.62031-65.35 9.03-38.86 1.7506-78.859-6.2594-117.21-8.62-35.94-21.261-72.23-44.711-101.27-14.75-20-47.739-5.84-58.819-29.15-7.44-15.92-28.141-2.1809-39.691-9.4109-6.68-17.42-27.941-10.859-39.041-22.809-11.37-8.32-2.8397-30.33-18.88-33.57zm1402.1 83.391c-11.94 17.16-1.4788 39.96-9.1688 58.6-2.91 16.88-10.17 34.23-5.1203 51.42 5.25 14.7 21.109 20.82 34.759 25.43 4.17 9.95-11.889 18.159-7.7891 28.559 6.51 14.64 18.02 26.1 27.05 39.12 14.89 23.2 47.839 30.031 72.539 25.341-6.72-5.84-18.86-11.651-20.12-22.891 3.39-19.2-25.399-13.68-28.509-29.48 1.82-17.92 21.4-25.721 33.03-36.911-14.27-13.52-39.049-12.329-49.109-31.009-9.21-18.1 21.959-28.05 16.109-45.65-10.94 3.19-21.3 16.85-34.08 9.8703-13.01-5.59-7.17-20.901-3.9-31.091-25.62 10.21-25.041-25.179-25.691-41.309zm-1444.9 37.77c-22.36 25.4-60.88 34.729-73.12 68.859-8.84 30.16-21.63 64.11-4.3703 93.67 16.07 28.07-4.7091 58.589-6.5391 86.989 20.66-30.11 28.619-68.209 24.859-104.27-0.49-25.1-15.06-55.391 4.9797-76.491 19.55-20.29 47.851-42.079 54.191-68.759zm67.3 76.3c-1.11 0.13-2.2003 0.3109-3.2703 0.5609-21.22 4.27-40.92 13.759-62.22 17.719-13.01 3.59-13.009 19.31-15.139 30.05-8.82 47.42-11.42 97.211-36.18 139.84-11.06 18.86-21.911 44.08-9.6812 64.78 8.41-20.23 8.5906-44.2 23.741-61.73 26.28-34.88 16.17-81.589 31.93-120.11 5.21-14.01 3.9697-30.491 11.73-43.291 20.27-8.05 40.821-16.21 59.091-27.82zm-281.65 10.35c-1.7 8.38-5.52 16.031-8.95 23.791 1.9 7.54 7.3003 13.2 15.97 10.47 25.11 19.43 25.01 59.8 55 75.38 28.31 17.44 22.25 55.729 20.38 83.739 14.48-20.5 10.87-47.479 8.95-71.069-1.22-18.19-14.45-32.251-15.38-50.431-6.55-14.35-25.44-14.809-34.93-26.259-8.8-11.42-3.4106-27.7-13.141-38.8-4.96-9.94-16.249-1.3497-22.059 3.1203-4.83-1.23-1.7206-9.1906-5.8406-9.9406zm391.9 94.87c-13.03 4.77-21.911 16.931-34.791 21.991 5.1 5.36-6.2197 9.48-8.7797 13.45-32.67 33.76-83.749 48.429-105.34 92.659-1.43 3.85-5.7706 17.71-8.3406 7.9297-1.66 10.19-9.2397 18.471-9.9797 28.861 22.19-19.83 41.18-43.131 65.13-60.991 33.36-30.43 75.299-51.66 102.41-88.67 2.35-4.4 4.8906-12.14-0.30938-15.23zm510.96 11.25c6.21 22.32-2.62 44.11-5.8 66.03-1.64 22.99 15.29 41.241 32.47 53.991 15.53 12.79 31.221 26.74 51.241 31.75-12.5-18.3-27.911-36.091-32.511-58.391-3.17-6.88-14.639-7.55-15.419-15.85-0.54-13.09 9.6591-22.78 14.939-33.82-6.36-5.78-17.969-3.6988-23.539-11.469-7.06-10.49-13.751-23.671-21.381-32.241zm-187 10.209c1.41 22.26-14.619 48.311 1.811 67.731 12.2 15.89 20.45 35.94 38.27 46.7 15.97 8.76 34.119 12.279 51.689 16.359-8.39-13.73-25.63-20.42-32.53-35.53-4.24-6.94-2.7697-15.911-7.3297-22.641-7.14-5.99-18.59-4.2194-24.85-11.259 4.07-8.3 12.99-12.92 20.2-18.15-8.9-5.29-24.011-4.9109-27.111-16.911-3.49-10.1-13.84-19.85-20.15-26.3zm560.3 19.761c-17.89 16.76-21.14 42.52-35.2 61.77-3.31 5.72-9.2797 4.8297-14.63 4.1297-6.78 9.61-11.75 22.22-23.53 26.7-8.62-1.99-17.82-6.7697-26.52-2.5797-4.15 9.08-9.9894 23.899-22.309 20.819-11.43-17.13-32.14-27.78-52.68-27.03 0.45 9.29 5.3494 19.01 0.7594 28.52-4.88 16.8-23.76-3.0306-32.9 6.8594-0.45 8.79-5.45 31.211-18.1 21.361 3.33 8.21 5.7997 16.85 6.0797 25.77 14.41 2.14 22.16-12.551 30.72-20.511 6.94 5.81 4.18 17.671 3.15 25.891 14.11-0.12 26.81-7.7903 36.88-17.12 8.08 16.9 28.35-3.5894 36.95-10.859 15.96 9.93 14.121 33.36 9.3609 49.3 25.65-3.41 38.91-29.501 46.63-51.361 3.92-1.1 7.5603-2.9003 11.07-4.9203 9.46 7.25 12.109 19.741 16.989 30.081 9.68-9.84 14.451-25.291 26.861-32.041 8.81 5.63 9.51 18.06 12.05 26.9 15.45-6.26 24.129-22.799 25.819-38.759-10.53-26.19-19.26-54-16.65-82.65-5.49 2.39-5.81 16.26-12.95 18.45-7.51-18.42-10.04-41.35-7.85-58.72zm392.93 9.5391c2.4 5.88 6.53 11.341 6.65 17.931-3.41 4.89-15.481-6.6009-13.861 2.0391 0.8 6.18 5.0109 17.21-6.3891 12.8-14.63-6.8-29.661-14.66-46.381-14.53-0.01 11.3 13.791 21.999 7.5812 32.909-10.32-2.01-18.78-10.43-29.72-9.65 0.4 6.88 1.3594 20.341-9.3906 13.981-18.43-12.14-41.489-23.241-63.659-14.081 7.09 10.21 22.489 16.611 26.859 29.491-7.32 6.74-18.709 2.5694-27.309 5.9594-2.45 6.26 16.259 14.87 5.9391 19.07-19.79 2.82-40.619-0.3597-59.889 5.9703 2.3 3.45 9.7303 8.9503 4.2203 13.07-15.45 9.83-34.96 2.4191-51.9 6.9891 2.88 10.27-18.111 13.641-23.991 20.461 1.25 7.29 7.7303 12.779 8.8203 20.259 3.23 16.86-8.0803 31.38-17.32 43.88-8.25-0.81-10.24-15.569-16.38-18.159 0.91 22.37-11.24 44.37-2.5797 66.3 3.9 22.01 4.0091 45.28 17.639 64.33 5.64-14.56 6.3497-33.449 17.73-44.789 8.49 10.94 17.55 22.899 21.17 36.759 18.78-15.99 18.52-46.6 8.6797-67.6-0.63-3.41-5.7088-7.95-2.4688-11.05 9.76 0.09 14.499 10.231 19.719 16.941 11.13-7.23 8.9109-21.201 9.8609-32.211 7.15 1.43 9.9094 9.97 16.009 12.05 3.56-8.51-0.4491-17.359-3.7891-25.159 14.45-2.78 26.22 8.5491 35.05 18.139 12.93-7.69 1.2491-26.839-6.0609-35.089 3.45-7.79 16.51-3.8303 23.18-2.2703-5.05-14.12 8.9606-15.43 18.641-12.6 5.31-3.22-1.78-15.4 6.3-17.17 19.18-4.53 34.28 14.48 36.12 31.92 27.86-9.42 36.06-44.279 28.97-70.659 8.37-0.92 12.51 9.16 19.45 10.95 10.12-6.22 5.0494-21.69 8.5594-30.95 9.78-2 17.99 3.5888 26.5 6.9688 6.15-5.02 2.8697-15.119 8.7297-19.889 10.72-2.81 13.531 7.5303 16.591 14.77 11.94-4.85 8.3791-22.09 8.0391-32.72 4.39-1.03 7.4003 3.0491 10.87 4.9391 5.37-2.65 4.8103-10.54 4.3703-15.48-3.44-23.35-18.489-46.47-41.159-54.82zm-1828.2 38c-12.154 0.1319-24.237 2.0397-36.173 5.3359-6.2 5.44-5.47 17.049-2.7 24.559 7.59 20.53 30.01 27.42 44.95 41.15-6.03-12.19-25.709-18.069-22.569-33.559-6.17-2.48 0.58969-7.7806 4.0797-9.2906 16.08-6.87 32.579 2.3403 48.039 6.3203 31.39 6.66 64.461 6.9397 94.381 19.58 14.13 4.9 20.499 20.32 34.089 26.08 6.22 3.9 14.11-1 20.23 3 6.52-3.33 12.361-12.089 5.3812-17.989-19.09-0.78-18.15-26.211-33.3-33.531-30.88-17.75-67.571-21.659-102.56-21.389-7.64-2.3-22.219 2.3897-25.389-7.1703-9.5069-2.2269-19.004-3.198-28.458-3.0953zm874.14 100.22c6.37 18.15 15.409 40.83 3.7594 57.85-15.3-11.71-31.17-27.26-52.32-27.35 0.3 5.67 6.5913 11.19 4.7313 16.72-8.23 1.91-15.431-4.7494-23.441-6.1094 2.85 11.13 9.9 23.63 2.7 34.63-17.08-4.21-29.69-20.35-47.52-23.88-0.25 6.21 11 26.69-3.15 22.38-10.34-4.15-18.299-12.681-28.789-16.441 0.57 4.84 3.4094 10.3 0.85938 15-16.03-2.05-28.859-13.75-44.859-16.07 8.83 7 18.169 15.131 18.819 27.381 0.47 16.78-23.919-0.091-31.569 4.3391 1.53 4.2 7.0394 11.861 0.50938 14.441-16.11 4.07-32.101-12.58-47.991-4.95 9.04 9.55-9.9088 14.16-11.469 21.62 9.23 0.88 26.229 8.1091 29.269 0.5391 7.61 6.08 11.501 15.12 15.511 23.7 5.21-3.3 0.39031-12.309 3.0203-17.039 8.4 2.24 10.66 11.959 13.88 18.969 13.83-6.1 23.78-18.64 32.3-30.68 8.93-0.65 0.19 16.13 3.5 18.68 7.2-2.31 11.259-9.2597 14.609-15.53 6.84-0.34 5.6709 12.51 8.4109 16.35 9.73-4.42 13.359-16.33 20.089-23.77 10.69 7.25 15.111 19.931 19.891 31.181 4.66-7.88 7.369-16.941 13.389-23.961 10.42 2.54 11.231 16.76 13.811 24.62 13.07-1.93 19.129-15.22 21.909-26.78 8.19 3.09 12.401 11.63 17.211 17.88 10.89-3.05 16.339-14.889 22.089-23.659 5.86 0.43 7.96 7.38 12 10.8 22.02-5.95 41.16-23.631 51.67-42.911 13.68 10.1 11.95 30.54 5.85 44.73 6.1-0.54 12.66-7.8488 18.05-4.4688-0.09 9.41-7.6094 16.799-9.4594 25.809 10.55-0.53 17.329-10.039 23.039-17.709 16.11-26 13.68-59.31 8.15-88.05-6.21 2.92-8.5603 18.569-17.17 20.409-11.88-12.22-16.809-29.58-28.689-41.88-1.4 5.98 2.4003 14.66-0.67968 21.17-21.39-6.12-30.33-32.351-51.92-37.961zm-590.14 7.4c3 15.78-15.15 30.261-4.7297 45.291 14.57 18.4 22.03 40.829 30.82 62.269 4.65-6.42 4.73-16.46 5.9-24.3 4.11-23.17-30.081-32.92-22.841-56.35 7.36-9.88 3.32-23.959-9.15-26.909zm-56.609 3.1c-5.66 17.92-20.76 38.19-9.5703 56.7 18.25 14.37 28.519 37.351 42.259 54.591 10.95-31.01-37.029-48.64-29.439-79.1 6.84-9.92 1.57-24.721-3.25-32.191zm112.62 0.7703c0.64 11.95-13.19 28.6-0.2 37.93 14.74 11.7 9.95 33.53 13 48.48 5.46-7.07 12.269-16.82 16.309-25.9 5.02-17.82-26.52-22.569-18.17-41.859 6.84-10.6-1.1791-17.6-10.939-18.65zm236.51 77.9c-3.55 2.65-6.16 7.0503-11 7.3203-18.57 1.07-34.509 15.46-53.809 10.85-16.52-2.31-24.66 14.6-34.85 24 8.87 2.98 21.01 1.1703 25.48-7.9797 4.93-9.42 16.179-4.1597 24.559-4.7297 10.26 1.02 17.441-7.9 25.591-12.35 12.25-2.71 26.71-4.3403 34.42-15.62-2.86-1.87-6.9706-1.3906-10.391-1.4906zm1413.9 2.2109c0.33 14.04-8.06 13.149-17.35 6.5688 2.61 8.07 11.829 16.291 5.9891 24.911-8.13-3.07-14.81-8.9309-22.85-12.111 10.16 13.89 16.39 34.13 4.85 49.17-1.45 4.64-10.83 7.9497-9.9297-0.2203-1.23-15.77-12.42-31.229-28.77-33.089 1.9 5.02 7.9706 12.44 2.3906 17.23-8.43-0.66-16.781-2.1997-25.211-2.7797 2.06 6.47 5.7909 14.05 2.3109 20.7-9.93 0.49-16.861-8.05-25.741-11 0.97 4.94 3.4709 9.68 2.6109 14.9-18.22-0.2-32.46-14.17-43.85-26.57 0.28 10.91 4.4888 21.83 13.219 28.73 1.85 1.71 7.68 5.3706 3.55 7.6406-13.98 5.15-27.129-5.4006-38.839-11.341-1.94 7.05 2.2194 20.38-3.5906 24.68-4.45-13.25-16.789-22.64-29.989-26 2.14 8.2 2.7 17.631-1.2 25.341-6.43-7.19-14.87-14.26-24.75-15-0.26 9.43 7.9994 18.53 6.1094 28.05-4.4 2.24-14.55-16.17-11.85-3 6.02 25.1-4.8297 51.8-24.58 67.72-3.49 3.04-13.351 5.7291-12.761-2.1609-5.43-19.04-14.2-41.369-34.5-48.419-1.63 4.97 9.5812 32.13-4.0188 25.68 3.39 15.09-4.4803 29.7-12.97 41.57-0.69 1.69-3.4106 2.0097-3.2906-0.2703-0.93-11.2-1.1997-22.441-3.0797-33.511-5.67 12.96-19.611 21.561-20.991 36.411 2.61 26.17 3.9603 53.219 16.27 77.109 5.72 17.92 20.69 31.13 25.68 49.2 5.95-0.57 3.5103-16.089 11.82-12.959-2.62-8.98-6.97-17.37-9.35-26.4 24.25-12.47 45.101 14.24 59.361 29.58 4.64-16.97-3.6906-38.219-5.2906-55.309 9.35 1.35 16.461 11.69 24.141 17.5 6.35-7.71 4.42-19.29 9.5-26.9 18.32 2.31 24.66 23.269 33.65 36.789 19.35-11.79 30.219-38.22 23.219-60.18-0.26-3.64-5.0088-10.12-0.018-11.73 19.77-0.72 31.719 18.87 41.839 32.95 5.29-4.07 7.58-11.131 12.5-15.711 7.43-1.25 12.931 4.9603 18.411 8.8203 8.72-5.54 7.8093-17.31 9.9093-26.15 5.75 1.75 15.11 9.9297 18.07-0.02 6.39-19.6-6.8303-37.93-12.92-55.75 3.4-2.84 7.5507 2.5613 10.791 3.9313 23.21 15.44 24.499 48.51 47.259 63.9 10.24 3.66-1.0006-9.62 0.6094-13.4 8.62-1.79 17.67 11.349 25.35 5.789-1.42-9.52 8.8303-6.3097 12.87-9.1297-14.86-8.42-21.8-25.52-29.07-40.12 10.77-4.96 26.311-0.6597 32.911-13.23-9.52-2.19-22.19-7.8303-21.72-19.47 5.76-3.33 12.921 2.001 19.191-0.839 14.84-2.76 17.73-20.811 18.7-33.411-5.65 0.85-13.3 2.0603-16.12-4.2797 3.99-7.69 10.659-16.849 5.1891-25.709-0.64-3.93-7.0897-8.5107-3.5297-12.091 9.01-2 15.38 6.0803 21.37 9.7203 5.08-17.72-8.8097-32.571-14.93-47.961-1.74 1.74-2.3609 6.1609-5.5609 4.8109-3.68-9.45-11.239-20.93-21.019-23.18zm-1574.9 1.05c-10.8 13.61 5.6709 24.219 5.3609 38.619 5.94-6.31 5.47-18.019-0.8-24.309-3.53-3.92 0.63907-13.169-4.5609-14.309zm-210.7 32.8c0.03 5.92 0.0806 11.81 0.34062 17.78 9.81 5.35 12.639 19.871 24.669 21.791 0.18-12.91-16.309-15.491-18.109-27.461 1.43-5.37-1.92-10.279-6.9-12.109zm309.92 20.075c-0.9808 0-2.1462 0.3322-2.9188 1.1047-17.11 8.62-39.39 11.631-53.55 23.241 8.8 3.71 18.249 0.37 24.659-6.15 12.71-0.55 21.941-10.291 32.511-16.041 2.0562-1.2625 0.93311-2.1607-0.70156-2.1547zm-389.01 20.344c-0.73325-0.011-1.4856 0.047-2.2594 0.1907 6.05 5.53 16.819 10.871 19.609 20.961 6.61 12.1 13.281-11.93 22.341-4.5203 3.93 3.97 12.601 6.19 16.191 3-8.82-4.59-17.33-15.9-28.27-11.4-9.9188 8.1187-16.612-8.0636-27.611-8.2313zm615.67 19.391c-3.31 10.61-11.269 24.181-24.259 17.091-10.7 8.98-21.43-5.8297-31.37-5.6297-6.79 17.36 7.3706 35.01 6.6406 52.95 2.7-7.95-2.0712-20.361 5.7688-25.561 5.82 4.78 8.1203 14.01 12.02 20.95 2.73-2.97-4.9091-17.629 3.6109-16.869 17.36 6.08 22.31 26.049 27.43 41.669 11.91-4.64 12.06-21.08 14.97-31.65 6.99-0.26 9.6797 9.0106 14.83 11.741 9.73-3.7 12.659-16.04 20.239-21.78 12.58 2.56 15.72 17.839 21.02 27.789 9.71-1.86 10.84-14.75 12.88-22.78 7.89 1.04 6.6206 13.91 10.591 19.18 6.32-5.33 7.7894-16.279 14.059-20.119 7.87 8.24 9.09 21.709 7.2 32.769 32.35-4.5 28.441-46.589 21.461-66.619-11 13.42-22.981-3.0809-30.491-11.311-5.84 4.02-7.4297 12.081-12.38 17.061-10.48-0.81-15.219-13.321-22.309-17.661-4.43 9.95-12.481 21.29-25.441 17.03-15.5-5.94-29.19-17.53-46.47-18.25zm-536.58 23.8c-2.0061 0.0004-4.0244 0.1356-6.0594 0.4532-8.19 2.04-15.061 7.5212-22.061 11.981 3.98 1.47 7.5797-3.0606 11.53-3.2406 15.57-7.09 31.771 3.4097 47.791-0.07 2.85-0.83 12.3 0.05 10.68-5.1297-14.394 2.6338-27.837-3.9966-41.88-3.9937zm608.24 131.18c-2.55 13.56-9.481 27.419-22.961 32.909-3.98-4.79-2.17-11.871-5.05-17.241-7 12.73-17.689 26.9-32.789 29.12-2.69-8.64-0.91096-19.05-6.511-27.12-10.26 15.17-1.2303 34.96-10.47 51.4 3.61 7.15 14.48 14.25 23.35 10.52 11.76-2.96 17.63-16.99 30.4-17.17 24.07 1.1 47.28 14.431 71.65 9.2406 4.24-3.94 2.0606-11.74 6.5906-15.77 6.51 0.04 8.4097 7.0109 11.83 10.911 4.07-10.42-7.459-19.631-3.189-29.981 2.41-7.43-0.52128-14.98-3.0313-21.98-3.97 9.4-11.109 18.79-21.609 21.05-4.87-5.93-1.4203-15.41-7.3703-21.32-4.19 6.22-9.4097 12.991-17.58 13.241-4.82-8.63-1.9394-23.609-13.259-27.809zm1137 76.9c4.69 11.31 10.56 23.96 6.4203 36.3-9.25 0.81-16.34-9.4397-25.38-11.28 1.82 12.21 8.8391 24.489 4.8391 36.789-7.62-1.23-12.329-10.409-19.859-12.889 7.57 20.97 1.9106 45.19-12.209 62.15-4.16-0.33-2.8803-6.3309-4.2203-8.7609-4.13-27.78-23-50.709-44.6-67.339 4.12 10.81 10.15 24.26 3.8203 34.82-5.23-1.59-9.4306-8.5209-15.841-8.6609 1.2 11.34 0.5094 27.85-12.791 31.7-7.74-7.44-14.04-18.88-25.1-22.63-1.27 12.95-7.3197 25.321-17.48 33.591-3.67 1.43-3.9303-4.3103-4.1703-6.2703-1.99-12.59-9.15-27-20.4-32.35 0.39 19.99-1.95 43.3 12 59.73 17.92 25.43 35.75 52.381 41.1 83.641 7.17-6.85 7.4206-23.051 11.891-32.811 10.67 9.82 13.369 25.351 14.659 39.191 10.31-12.88 14.971-28.79 20.541-43.97 7 2.39 8.0797 12.53 13.73 17.07 7.83-12.65 0.9106-28.4 1.7906-41.02 34.16 15.8 40.24 59.169 38.88 92.009 10.63-20.58 17.14-43.299 17.82-66.519 0.18-3.46 2.6-0.6809 2.95 1.1391 3.11 9.3 6.7203 18.45 8.5703 28.15 10.85-14.55 10.65-34.659 11.83-52.109 10.37 6.94 14 20.529 17.32 31.959 6.27-4.76 1.79-31.03 11.9-23.03 1-20.25 6.97-40.361 2.95-60.691-2.31-9.08-0.4906-18.329 1.9094-27.139-10.36 5.73-9.3394-8.1306-9.6094-14.091-2.19-21.7-10.321-49.03-33.261-56.68z"/>
<path id="path110" fill="#fef19d" d="m518.3 1680.3c-0.32955-0.014-0.66375-0.01-1.0047 0.011-13.47 4.77-18.92 21.419-34.35 23.589-16.09 2.11-37.94 7.2897-40.12 26.88 13.08-25.28 47.93-13.43 66.17-31.53-8.16 16.04-31.031 14.18-46.131 18.57-16.23 3.44-23.369 24.34-19.039 37.92-0.8-14.74 9.7797-37.181 27.43-31.991 19.51 1.26 40.86-5.439 54.03-20.489 7.8662-6.4228 3.2318-22.55-6.9844-22.961zm-203.24 44.769c-1.102-0.027-2.2866 0.099-3.5625 0.4016-8.21 0.62-15.881 3.8597-23.981 5.0797-11.48 1.37-22.089-6.3991-33.509-4.0891-9.65 3.62-7.5506 20.049 2.0594 22.589 20.01 7.55 41.721 2.01 61.431-2.9 8.23 8.88 11.029 24.33 23.619 28.67-5.68-11.5-12.61-22.56-20.28-32.78-18.91-7.02-41.709 7.2994-59.759-4.2906-1.38-0.72-3.5709-5.4603-0.71093-4.3203 19.83 17.08 55.23-11.279 69.72 15.391-1.5134-8.8269-4.3737-23.485-15.027-23.752zm180.58 67.488c-3.8357-0.075-7.5438 0.3313-10.047 0.7844-17.27 0.36-34.47 11.809-38.45 29.089 0.1 8.1-2.4012 15.781-3.9812 23.641 13.71-2.54 24.791-11.649 36.441-18.609 5.99-5.35-7.1894-12.091-0.25938-16.141 9.96-4.57 21.189-5.62 31.989-6.65 1.8012-9.4531-7.2536-11.949-15.692-12.114zm-86.473 2.2454c-2.5128 0.019-5.0081 0.2034-7.4438 0.539-10.7 1.61-21.21 6.75-27.8 15.55-10.35 8.53 0.96938 21.37 5.4594 30 10.97-2.57 22.07-3.8406 32.47 2.1094 7.5-8.66 18.75-11.909 30-12.409-0.1-8.51 0.52062-17.78-2.4094-25.7-8.1656-7.1662-19.388-10.173-30.277-10.089zm-80.54 22.4c-1.3395 0.01-2.6841 0.077-4.0312 0.2203-6.26 0.68-12.401 2.4591-17.741 5.8891 1.51 10.24 8.0409 18.82 16.211 24.8 2.65-1.93 3.9094-9.2188 8.6094-4.8688 14.85 15.56 37.731 16.939 57.341 14.239-11.27-6-15.431-18.8-24.411-27.12-10.522-7.096-23.03-13.213-35.978-13.159z"/>
</g>
</svg>
