<?xml version="1.0" encoding="UTF-8" standalone="no"?>
<!-- Created with Inkscape (http://www.inkscape.org/) -->

<svg
   xmlns:dc="http://purl.org/dc/elements/1.1/"
   xmlns:cc="http://creativecommons.org/ns#"
   xmlns:rdf="http://www.w3.org/1999/02/22-rdf-syntax-ns#"
   xmlns:svg="http://www.w3.org/2000/svg"
   xmlns="http://www.w3.org/2000/svg"
   xmlns:sodipodi="http://sodipodi.sourceforge.net/DTD/sodipodi-0.dtd"
   xmlns:inkscape="http://www.inkscape.org/namespaces/inkscape"
   version="1.1"
   id="svg24206"
   xml:space="preserve"
   width="800"
   height="800"
   viewBox="0 0 800 800"
   sodipodi:docname="russian-flag-eagle-symbol.svg"
   inkscape:version="0.92.4 (5da689c313, 2019-01-14)"><metadata
     id="metadata24212"><rdf:RDF><cc:Work
         rdf:about=""><dc:format>image/svg+xml</dc:format><dc:type
           rdf:resource="http://purl.org/dc/dcmitype/StillImage" /><dc:title></dc:title></cc:Work></rdf:RDF></metadata><defs
     id="defs24210"><clipPath
       clipPathUnits="userSpaceOnUse"
       id="clipPath24222"><path
         d="M 0,600 H 600 V 0 H 0 Z"
         id="path24220"
         inkscape:connector-curvature="0" /></clipPath></defs><sodipodi:namedview
     pagecolor="#ffffff"
     bordercolor="#666666"
     borderopacity="1"
     objecttolerance="10"
     gridtolerance="10"
     guidetolerance="10"
     inkscape:pageopacity="0"
     inkscape:pageshadow="2"
     inkscape:window-width="724"
     inkscape:window-height="480"
     id="namedview24208"
     showgrid="false"
     inkscape:zoom="0.295"
     inkscape:cx="400"
     inkscape:cy="400"
     inkscape:window-x="0"
     inkscape:window-y="0"
     inkscape:window-maximized="0"
     inkscape:current-layer="g24214" /><g
     id="g24214"
     inkscape:groupmode="layer"
     inkscape:label="russian-eagle-publicdomainvectors.org"
     transform="matrix(1.3333333,0,0,-1.3333333,0,800)"><g
       id="g24216"><g
         id="g24218"
         clip-path="url(#clipPath24222)"><path
           d="M 600,0 H 0 v 600 h 600 z"
           style="fill:#231f20;fill-opacity:1;fill-rule:nonzero;stroke:none"
           id="path24224"
           inkscape:connector-curvature="0" /><path
           d="m 405.131,497.781 c -17.313,15.683 -46.111,4.05 -35.388,-22.162 27.87,-68.125 -37.058,-70.426 -45.638,-63.993 -5.24,3.814 0.954,4.291 11.44,0.477 0,0 -14.775,20.493 -19.065,27.643 0,0 6.198,0 8.579,-2.859 -3.338,10.008 -20.972,41.463 -24.784,45.989 l 7.625,-1.309 c -18.586,23.985 -67.555,32.526 -67.913,18.467 -17.633,2.622 -30.263,0.714 -28.835,-11.438 1.259,-10.695 10.071,-13.084 11.198,-13.341 -3.564,7.865 17.627,20.789 30.491,-4.464 0,0 -14.999,-1.019 -25.008,0 -0.357,-3.627 15.608,-4.357 22.876,-7.105 2.504,-5.353 -0.715,-30.731 -23.352,-44.435 16.443,4.291 18.348,-3.097 18.348,-3.097 -8.58,-6.435 -73.622,-4.499 -45.752,63.626 10.722,26.212 -18.077,37.845 -35.388,22.161 -27.779,-25.166 -61.122,-87.335 -92.577,-104.016 25.259,-1.073 59.335,29.668 59.335,29.668 0.518,-7.002 -6.444,-18.989 -16.241,-31.901 h 336.452 c -8.138,11.292 -13.624,21.499 -13.161,27.741 0,0 23.423,-21.129 45.824,-27.741 h 10.191 c -30.469,19.078 -62.454,77.805 -89.257,102.089"
           style="fill:#ffffff;fill-opacity:1;fill-rule:nonzero;stroke:none"
           id="path24226"
           inkscape:connector-curvature="0" /><path
           d="m 182.555,260.545 c -4.584,-1.129 -22.1,0.389 -22.993,-2.828 -0.894,-3.217 0,-9.026 0,-9.026 -4.111,-1.609 -4.111,-14.654 3.038,-16.084 -1.608,3.395 -1.608,8.934 -0.179,11.975 4.289,-3.219 8.577,-1.611 9.652,0.356 -1.432,3.396 4.949,16.167 14.833,0.357 2.085,-3.336 1.969,-8.459 -4.705,-13.106 -3.527,-2.453 1.549,-7.626 1.549,-7.626 1.19,-2.858 -7.388,-7.145 -9.771,-5.956 8.578,-4.767 13.344,2.86 13.344,2.86 4.765,0 11.2,2.377 11.677,6.91 -2.144,5.719 -4.144,16.381 0.953,25.498 1.477,2.645 3.516,5.053 5.926,7.305 h -23.298 c -0.006,-0.207 -0.014,-0.418 -0.026,-0.635"
           style="fill:#d13d3a;fill-opacity:1;fill-rule:nonzero;stroke:none"
           id="path24228"
           inkscape:connector-curvature="0" /><path
           d="m 159.679,260.545 c -0.18,0.195 -0.328,0.408 -0.447,0.635 h -0.097 c 0.172,-0.211 0.35,-0.422 0.544,-0.635"
           style="fill:#d13d3a;fill-opacity:1;fill-rule:nonzero;stroke:none"
           id="path24230"
           inkscape:connector-curvature="0" /><path
           d="m 410.015,256.381 c 1.56,1.717 2.381,3.318 2.69,4.799 h -2.371 c 0.68,-1.791 0.777,-3.61 -0.319,-4.799"
           style="fill:#d13d3a;fill-opacity:1;fill-rule:nonzero;stroke:none"
           id="path24232"
           inkscape:connector-curvature="0" /><path
           d="m 193.518,187.148 c 11.916,8.581 48.851,42.897 48.851,42.897 2.86,-17.397 -14.466,-48.922 -15.489,-64.34 12.78,6.859 32.528,41.225 45.755,46.229 0,0 7.447,-73.157 12.212,-78.877 10.486,20.017 16.382,76.97 16.382,76.97 0,0 29.073,-30.978 43.493,-40.381 -1.027,15.415 -20.256,38.838 -17.396,56.235 0,0 36.936,-34.315 48.85,-42.891 -3.901,16.09 -28.748,51.576 -43.402,78.19 H 234.59 c -14.817,-26.041 -37.371,-58.764 -41.072,-74.032"
           style="fill:#d13d3a;fill-opacity:1;fill-rule:nonzero;stroke:none"
           id="path24234"
           inkscape:connector-curvature="0" /><path
           d="m 369.743,249.713 c 5.094,-9.119 3.098,-19.781 0.952,-25.502 0.476,-4.529 6.91,-6.908 11.678,-6.908 0,0 4.765,-7.623 13.342,-2.86 -2.381,-1.189 -10.959,3.1 -9.77,5.959 0,0 5.075,5.172 1.55,7.623 -6.673,4.649 -6.792,9.77 -4.706,13.11 9.884,15.806 16.264,3.039 14.834,-0.358 1.072,-1.964 5.362,-3.574 9.651,-0.357 1.431,-3.039 1.431,-8.578 -0.179,-11.975 7.149,1.43 7.149,14.477 3.038,16.084 0,0 0.896,5.809 0,9.028 -0.892,3.216 -18.407,1.697 -22.994,2.824 -0.111,2.053 0.04,3.619 0.377,4.799 h -28.748 c 4.619,-3.418 8.55,-7.127 10.975,-11.467"
           style="fill:#d13d3a;fill-opacity:1;fill-rule:nonzero;stroke:none"
           id="path24236"
           inkscape:connector-curvature="0" /><path
           d="m 62.336,341.09 c 27.166,2.146 58.979,27.168 58.979,27.168 -8.579,-22.164 -32.528,-61.838 -64.339,-87.217 34.313,7.861 78.995,55.045 78.995,55.045 -9.652,-30.74 -31.1,-55.045 -31.1,-55.045 16.444,-5.006 64.341,60.765 64.341,60.765 1.429,-15.012 -13.821,-45.753 -23.352,-57.906 34.314,15.998 60.527,68.629 60.527,68.629 0,0 2.62,-20.017 -14.775,-44.323 14.297,-1.429 35.864,26.808 40.154,52.902 7.268,-14.298 9.87,-31.981 0.595,-38.844 -23.83,-17.633 -24.108,-58.746 -33.661,-56.723 -5.479,0.24 -0.417,24.078 -4.706,31.012 -1.715,2.773 -7.148,2.359 -12.152,-0.022 -3.575,0.477 -11.83,-4.16 -7.778,-8.926 -1.669,1.907 3.995,5.411 7.301,4.157 0,0 -0.865,-2.948 0.805,-5.809 1.668,-2.857 6.583,-2.291 8.251,-3.246 1.664,-0.955 0.239,-13.105 -1.906,-16.443 -4.053,1.431 -14.298,16.443 -16.683,18.828 -2.615,2.617 -9.769,-0.713 -8.577,-9.057 -2.32,-2.086 -10.27,-7.332 -4.12,-14.855 h 0.097 c -1.76,3.365 2.997,9.851 5.452,9.851 1.907,-3.095 5.956,-6.193 7.148,-5.242 1.174,0.938 11.107,7.869 10.749,-4.609 h 23.298 c 12.359,11.549 34.555,18.968 41.733,32.728 0.841,-6.308 -4.941,-18.525 -13.022,-32.728 h 98.184 c -6.83,12.406 -11.448,22.884 -10.69,28.568 6.281,-12.039 24.058,-19.225 36.684,-28.568 h 28.748 c 1.846,6.492 9.338,1.254 10.345,0.445 1.194,-0.947 5.243,2.146 7.151,5.246 1.615,0 4.226,-2.81 5.322,-5.691 h 2.371 c 1.103,5.3 -4.401,9.019 -6.266,10.695 1.194,8.338 -5.962,11.674 -8.578,9.053 -2.383,-2.385 -12.629,-17.397 -16.679,-18.826 -2.147,3.337 -3.575,15.486 -1.907,16.441 1.666,0.955 6.583,0.393 8.248,3.25 1.673,2.861 0.807,5.811 0.807,5.811 3.305,1.248 8.97,-2.252 7.305,-4.163 4.05,4.77 -4.207,9.407 -7.78,8.924 -5.005,2.385 -10.437,2.799 -12.154,0.024 -4.289,-6.93 0.774,-30.768 -4.708,-31.008 -9.55,-2.027 -9.829,39.091 -33.659,56.723 -9.274,6.864 -6.672,24.546 0.596,38.845 4.29,-26.095 25.855,-54.333 40.152,-52.904 -17.394,24.308 -14.774,44.325 -14.774,44.325 0,0 26.213,-52.636 60.528,-68.63 -9.531,12.153 -24.783,42.893 -23.354,57.907 0,0 47.897,-65.772 64.341,-60.768 0,0 -21.447,24.308 -31.098,55.048 0,0 44.681,-47.185 78.995,-55.048 -31.811,25.381 -55.761,65.058 -64.341,87.218 0,0 31.814,-25.019 58.98,-27.166 -10.158,6.771 -38.8,35.141 -55.825,58.761 H 115.082 C 97.871,373.008 71.903,347.47 62.336,341.09"
           style="fill:#295bb0;fill-opacity:1;fill-rule:nonzero;stroke:none"
           id="path24238"
           inkscape:connector-curvature="0" /><path
           d="m 497.707,393.765 c -1.104,0.586 -2.211,1.234 -3.319,1.927 h -10.191 c 4.617,-1.363 9.194,-2.11 13.51,-1.927"
           style="fill:#295bb0;fill-opacity:1;fill-rule:nonzero;stroke:none"
           id="path24240"
           inkscape:connector-curvature="0" /></g></g></g></svg>