<?xml version="1.0" encoding="UTF-8" standalone="no"?>
<!-- Created with Inkscape (http://www.inkscape.org/) -->

<svg
   xmlns:dc="http://purl.org/dc/elements/1.1/"
   xmlns:cc="http://creativecommons.org/ns#"
   xmlns:rdf="http://www.w3.org/1999/02/22-rdf-syntax-ns#"
   xmlns:svg="http://www.w3.org/2000/svg"
   xmlns="http://www.w3.org/2000/svg"
   xmlns:sodipodi="http://sodipodi.sourceforge.net/DTD/sodipodi-0.dtd"
   xmlns:inkscape="http://www.inkscape.org/namespaces/inkscape"
   width="98.905663mm"
   height="213.12076mm"
   viewBox="0 0 350.45313 755.15229"
   id="svg2"
   version="1.1"
   inkscape:version="0.91 r13725"
   sodipodi:docname="Bauer.svg">
  <defs
     id="defs4">
    <inkscape:path-effect
       effect="spiro"
       id="path-effect4287"
       is_visible="true" />
    <inkscape:path-effect
       effect="spiro"
       id="path-effect4273"
       is_visible="true" />
    <inkscape:path-effect
       effect="spiro"
       id="path-effect4269"
       is_visible="true" />
    <inkscape:path-effect
       effect="spiro"
       id="path-effect4192"
       is_visible="true" />
    <inkscape:path-effect
       is_visible="true"
       id="path-effect4188"
       effect="spiro" />
    <inkscape:path-effect
       effect="spiro"
       id="path-effect4184"
       is_visible="true" />
    <inkscape:path-effect
       effect="spiro"
       id="path-effect4180"
       is_visible="true" />
    <inkscape:path-effect
       effect="spiro"
       id="path-effect4176"
       is_visible="true" />
    <inkscape:path-effect
       effect="spiro"
       id="path-effect4172"
       is_visible="true" />
    <inkscape:path-effect
       effect="spiro"
       id="path-effect4168"
       is_visible="true" />
    <inkscape:path-effect
       effect="spiro"
       id="path-effect4162"
       is_visible="true" />
    <inkscape:path-effect
       effect="spiro"
       id="path-effect4158"
       is_visible="true" />
    <inkscape:path-effect
       effect="spiro"
       id="path-effect4157"
       is_visible="true" />
    <inkscape:path-effect
       effect="spiro"
       id="path-effect4153"
       is_visible="true" />
    <inkscape:path-effect
       effect="spiro"
       id="path-effect4850"
       is_visible="true" />
    <inkscape:path-effect
       effect="spiro"
       id="path-effect4846"
       is_visible="true" />
    <inkscape:path-effect
       effect="spiro"
       id="path-effect4157-7"
       is_visible="true" />
    <inkscape:path-effect
       effect="spiro"
       id="path-effect4192-3"
       is_visible="true" />
    <inkscape:path-effect
       effect="spiro"
       id="path-effect4192-6"
       is_visible="true" />
    <inkscape:path-effect
       effect="spiro"
       id="path-effect4192-6-2"
       is_visible="true" />
    <inkscape:path-effect
       effect="spiro"
       id="path-effect4192-3-1"
       is_visible="true" />
    <inkscape:path-effect
       effect="spiro"
       id="path-effect4192-2"
       is_visible="true" />
    <inkscape:path-effect
       effect="spiro"
       id="path-effect4192-3-10"
       is_visible="true" />
    <inkscape:path-effect
       effect="spiro"
       id="path-effect4192-3-10-4"
       is_visible="true" />
    <inkscape:path-effect
       effect="spiro"
       id="path-effect4192-3-10-6"
       is_visible="true" />
    <inkscape:path-effect
       effect="spiro"
       id="path-effect4192-3-10-6-2"
       is_visible="true" />
    <inkscape:path-effect
       effect="spiro"
       id="path-effect4192-3-10-4-8"
       is_visible="true" />
    <inkscape:path-effect
       effect="spiro"
       id="path-effect4192-3-10-5"
       is_visible="true" />
  </defs>
  <sodipodi:namedview
     id="base"
     pagecolor="#ffffff"
     bordercolor="#666666"
     borderopacity="1.0"
     inkscape:pageopacity="0.0"
     inkscape:pageshadow="2"
     inkscape:zoom="0.82386083"
     inkscape:cx="24.664987"
     inkscape:cy="369.65478"
     inkscape:document-units="px"
     inkscape:current-layer="layer1"
     showgrid="false"
     inkscape:window-width="1920"
     inkscape:window-height="1017"
     inkscape:window-x="-8"
     inkscape:window-y="-8"
     inkscape:window-maximized="1"
     fit-margin-top="0"
     fit-margin-left="0"
     fit-margin-right="0"
     fit-margin-bottom="0" />
  <metadata
     id="metadata7">
    <rdf:RDF>
      <cc:Work
         rdf:about="">
        <dc:format>image/svg+xml</dc:format>
        <dc:type
           rdf:resource="http://purl.org/dc/dcmitype/StillImage" />
        <dc:title></dc:title>
      </cc:Work>
    </rdf:RDF>
  </metadata>
  <g
     inkscape:label="Ebene 1"
     inkscape:groupmode="layer"
     id="layer1"
     transform="translate(-258.38743,-86.299124)">
    <path
       style="fill:#a05a2c;fill-rule:evenodd;stroke:#000000;stroke-width:3;stroke-linecap:butt;stroke-linejoin:miter;stroke-miterlimit:4;stroke-dasharray:none;stroke-opacity:1"
       d="m 284.02855,674.87126 c 5.7219,0.34709 -1.43047,-4.63851 0,-6.06899 0.2861,-0.28609 1.03286,0.36189 1.2138,0 0.48042,-0.96084 -0.49543,-5.07813 0,-6.06898 0.25589,-0.51178 0.95791,-0.70202 1.2138,-1.2138 0.36188,-0.72377 0,-1.6184 0,-2.42759 0,-0.54665 -0.1847,-3.272 0,-3.6414 0.25589,-0.51178 0.8964,-0.7377 1.2138,-1.21379 0.50184,-0.75277 0.57407,-1.78787 1.21379,-2.4276 0.2861,-0.28609 0.92771,0.2861 1.2138,0 0.28609,-0.28609 -0.28609,-0.9277 0,-1.2138 0.28609,-0.28609 0.85191,0.18095 1.2138,0 0.51178,-0.25589 0.70201,-0.9579 1.21379,-1.21379 0.36189,-0.18094 0.92771,0.28609 1.2138,0 1.6184,-1.6184 -2.02299,-1.2138 1.2138,-1.2138 1.25569,0 1.67765,-0.28609 2.42759,1.2138 0.24667,0.49332 0,6.133 0,7.28278 0,0.4046 -0.18094,0.85191 0,1.2138 0.25589,0.51178 0.95791,0.70201 1.2138,1.2138 0.18094,0.36188 -0.36188,1.39473 0,1.21379 3.67475,2.99518 2.08781,-3.3016 2.42759,-3.64139 0.2861,-0.28609 0.8092,0 1.2138,0 0.4046,-0.8092 0.9277,-1.56931 1.2138,-2.42759 0.12794,-0.38384 -0.2861,-0.92771 0,-1.2138 0.63973,-0.63973 1.78787,-0.57407 2.42759,-1.2138 7.26517,1.04502 1.14814,-3.57573 2.4276,-4.85519 0.28609,-0.28609 0.85191,-0.18094 1.2138,0 0.51178,0.25589 1.07502,0.6587 1.21379,1.2138 0.29439,1.17756 0,2.42759 0,3.64139 0,2.8322 0,5.66439 0,8.49658 0,6.87819 -0.8092,0.4046 1.2138,2.4276 0.28609,0.28609 0,0.8092 0,1.21379 0,0.4046 0,1.6184 0,1.2138 0,-2.6089 -0.32256,-3.76445 1.2138,-6.06898 0.31739,-0.47609 0.9579,-0.70202 1.21379,-1.2138 0.18095,-0.36189 -0.18094,-1.57568 0,-1.2138 0.4046,1.2138 0.8092,2.4276 1.2138,3.64139 0.4046,0 0.9277,-0.28609 1.2138,0 0.28609,0.2861 -0.0981,0.82128 0,1.2138 0.31031,1.24125 0.90348,2.40014 1.2138,3.64139 0.0981,0.39252 -0.2861,0.9277 0,1.2138 0.94885,0.94886 2.11158,-1.05579 2.42759,-1.2138 0.36189,-0.18094 0.85191,0.18094 1.2138,0 1.68778,-0.84389 2.42759,-3.14153 2.42759,-4.85519 0,-0.4046 -0.4046,-1.21379 0,-1.21379 0.4046,0 0,0.80919 0,1.21379 0,0.4046 -0.28609,0.92771 0,1.2138 0.2861,0.28609 0.8092,0 1.2138,0 0.4046,0 0.85191,0.18094 1.2138,0 0.51178,-0.25589 0.80919,-0.8092 1.21379,-1.2138 0.8092,-0.8092 1.68284,-1.55871 2.4276,-2.42759 1.686,-1.96701 3.19666,-4.07876 4.85518,-6.06899 0.36631,-0.43957 0.64161,-1.2138 1.2138,-1.2138 0.8092,0 -0.57219,1.85541 0,2.4276 0.2861,0.28609 0.9277,-0.2861 1.2138,0 0.37211,0.37211 -0.37512,5.69387 0,6.06899 0.28609,0.28609 0.9277,-0.2861 1.2138,0 0.60689,0.60689 -0.6069,3.03449 0,3.64139 0.28609,0.28609 0.9277,0.28609 1.21379,0 0.2861,-0.2861 -0.12794,-0.82996 0,-1.2138 1.46679,-4.40037 0.57591,-0.86386 2.4276,-3.64139 0.50184,-0.75277 0.57407,-1.78787 1.21379,-2.4276 0.2861,-0.28609 -0.28609,0.92771 0,1.2138 0.63973,0.63973 1.56931,0.9277 2.4276,1.2138 0.38384,0.12794 0.9277,-0.2861 1.2138,0 0.28609,0.28609 0,0.8092 0,1.2138 0,0.40459 0.4046,1.21379 0,1.21379 -0.4046,0 -0.36189,-1.03285 0,-1.21379 0.72377,-0.36189 1.70382,0.36188 2.42759,0 0.36189,-0.18095 -0.28609,-0.92771 0,-1.2138 0.2861,-0.2861 0.85191,0.18094 1.2138,0 0.51178,-0.25589 0.75604,-0.87049 1.2138,-1.2138 0.18372,-0.13779 6.32147,-4.6027 7.28278,-3.64139 0.29208,0.29208 -0.29208,4.56311 0,4.85519 1.03153,1.03153 2.83219,-1.2138 3.64139,-2.4276 0.22443,-0.33664 -0.36188,-1.03285 0,-1.21379 0.72377,-0.36189 1.70383,0.36188 2.4276,0 0.36188,-0.18095 0,-0.8092 0,-1.2138 0,-0.4046 0,-1.6184 0,-1.2138 0,0.8092 0,1.6184 0,2.4276 0,0.4046 -0.2861,0.9277 0,1.21379 0.28609,0.2861 0.9277,-0.28609 1.21379,0 0.57219,0.57219 -0.57219,1.85541 0,2.4276 0.12138,0.12138 3.52001,0.12138 3.64139,0 0.63973,-0.63973 0.57407,-1.78787 1.2138,-2.4276 0.57219,-0.57219 1.85541,0.57219 2.4276,0 0.28609,-0.28609 -0.2861,-0.9277 0,-1.21379 0.28609,-0.2861 0.80919,0 1.21379,0 0.4046,0 0.92771,-0.2861 1.2138,0 0.28609,0.28609 -0.28609,0.9277 0,1.21379 0.28609,0.2861 0.8092,0 1.2138,0 0,0.8092 -0.36189,1.70383 0,2.4276 0.51178,1.02356 2.00258,1.36506 2.42759,2.42759 0.51094,1.27734 -0.54441,8.62156 0,9.71038 0.18094,0.36189 0.9277,-0.28609 1.2138,0 0.39351,0.39351 -0.3852,5.29859 0,6.06899 0.25589,0.51178 0.95791,0.70201 1.2138,1.21379 0.11382,0.22766 0.11382,9.48273 0,9.71038 -0.25589,0.51178 -1.03286,0.67097 -1.2138,1.2138 -0.25589,0.76767 0.30053,1.67627 0,2.42759 -0.54179,1.35447 -1.55231,2.47435 -2.4276,3.6414 -0.34331,0.45775 -1.03285,0.67097 -1.21379,1.21379 -0.25589,0.76768 0.36188,1.70383 0,2.4276 -0.18094,0.36188 -0.92771,-0.2861 -1.2138,0 -0.28609,0.28609 0.28609,0.9277 0,1.21379 -0.28609,0.2861 -0.85191,-0.18094 -1.2138,0 -0.51178,0.2559 -0.70201,0.95791 -1.21379,1.2138 -0.36189,0.18094 -0.92771,-0.28609 -1.2138,0 -0.2861,0.2861 0.28609,0.9277 0,1.2138 -0.57219,0.57219 -1.85541,-0.57219 -2.4276,0 -1.61839,1.6184 2.57486,1.16471 -1.21379,2.42759 -1.02716,0.34239 -5.20949,-0.42975 -6.06899,0 -1.02356,0.51179 -1.40403,1.91582 -2.42759,2.4276 -0.73286,0.36643 -3.0803,-0.5611 -3.6414,0 -0.28609,0.28609 0.2861,0.9277 0,1.2138 -0.28609,0.28609 -0.80919,0 -1.21379,0 -0.4046,0 -0.8092,0 -1.2138,0 -2.83219,0 -5.66439,0 -8.49658,0 -1.2138,0 -2.4276,0 -3.64139,0 -0.4046,0 -0.85192,-0.18095 -1.2138,0 -0.51178,0.25589 -0.70202,0.9579 -1.2138,1.21379 -0.42316,0.21158 -6.39176,0 -7.28278,0 -0.83339,0 -5.50139,0.2838 -6.06898,0 -0.51178,-0.25589 -0.65869,-1.07502 -1.2138,-1.21379 -1.17756,-0.29439 -2.42759,0 -3.64139,0 -1.6184,0 -3.23679,0 -4.85519,0 -0.4046,0 -0.9277,0.28609 -1.2138,0 -0.63973,-0.63973 -0.71195,-1.67483 -1.2138,-2.4276 -0.31739,-0.47609 -0.80919,-0.8092 -1.21379,-1.2138 -0.4046,-0.4046 -0.70202,-0.9579 -1.2138,-1.21379 -0.44198,-0.22099 -4.85519,0.21282 -4.85519,0 0,-0.57219 1.2138,-0.64161 1.2138,-1.2138 0,-0.27593 -4.56458,0.29061 -4.85519,0 -0.57219,-0.57219 0.57219,-1.85541 0,-2.4276 -0.2861,-0.28609 -1.2138,0.4046 -1.2138,0 0,-0.57219 0.95791,-0.70201 1.2138,-1.21379 0.18094,-0.36189 0,-0.8092 0,-1.2138 0,-1.92297 0.36188,-3.27951 -1.2138,-4.85519 -0.57219,-0.57219 -1.8554,0.57219 -2.42759,0 -0.2861,-0.28609 0.36188,-1.03285 0,-1.2138 -0.72377,-0.36188 -1.6184,0 -2.4276,0 -0.4046,0 -0.87715,0.22443 -1.21379,0 -4.80921,0.24233 -1.14814,-3.57573 -2.4276,-4.85519 -0.57219,-0.57218 -1.70382,0.36189 -2.42759,0 -0.36189,-0.18094 0.18094,-0.85191 0,-1.21379 -0.25589,-0.51178 -0.95791,-0.70202 -1.2138,-1.2138 -0.18094,-0.36188 0.28609,-0.9277 0,-1.2138 -2.51139,-2.51139 0.0982,3.83774 -2.42759,-1.21379 -0.18095,-0.36189 -0.2861,-0.92771 0,-1.2138 0.28609,-0.2861 1.45655,0.32368 1.21379,0 -1.37325,-1.83101 -3.23679,-3.23679 -4.85519,-4.85519 z"
       id="path4283"
       inkscape:connector-curvature="0" />
    <path
       style="fill:#999999;fill-rule:evenodd;stroke:#000000;stroke-width:4;stroke-linecap:butt;stroke-linejoin:miter;stroke-miterlimit:4;stroke-dasharray:none;stroke-opacity:1"
       d="m 279.83376,668.71915 c 1.73405,23.64397 4.24332,47.23108 7.52241,70.71069 3.593,25.72729 8.11033,51.32549 13.54035,76.7286 14.19757,3.72707 28.97012,5.25527 43.62999,4.51345 13.30386,-0.6732 26.51192,-3.21321 39.11655,-7.52241 6.61694,-23.10178 11.15464,-46.79867 13.54034,-70.71068 2.64306,-26.49153 2.64306,-53.24605 0,-79.73758 -19.8251,4.05802 -39.96532,6.57555 -60.17931,7.52242 -19.05947,0.89279 -38.18419,0.3895 -57.17033,-1.50449 z"
       id="path4267"
       inkscape:path-effect="#path-effect4269"
       inkscape:original-d="m 279.83376,668.71915 c 0,0 4.20709,47.24046 7.52241,70.71069 3.63258,25.7161 13.54035,76.7286 13.54035,76.7286 0,0 29.02285,5.14858 43.62999,4.51345 13.26523,-0.57678 39.11655,-7.52241 39.11655,-7.52241 0,0 11.27348,-46.81951 13.54034,-70.71068 2.51063,-26.46035 0,-79.73758 0,-79.73758 0,0 -39.98771,6.53178 -60.17931,7.52242 -19.04047,0.93416 -57.17033,-1.50449 -57.17033,-1.50449 z"
       inkscape:connector-curvature="0"
       sodipodi:nodetypes="cacacacac" />
    <path
       style="fill:none;fill-rule:evenodd;stroke:#000000;stroke-width:6;stroke-linecap:butt;stroke-linejoin:miter;stroke-miterlimit:4;stroke-dasharray:none;stroke-opacity:1"
       d="m 281.33825,667.21467 c -1.80703,-15.00381 2.70271,-30.66743 12.2113,-42.41334 9.50859,-11.74591 23.88988,-19.41827 38.9411,-20.77493 15.98986,-1.44126 32.4922,4.30827 44.12475,15.37338 11.63256,11.06511 18.19951,27.25953 17.55904,43.30144"
       id="path4271"
       inkscape:path-effect="#path-effect4273"
       inkscape:original-d="m 281.33825,667.21467 c 0,0 24.11026,-61.42979 51.1524,-63.18827 28.31785,-1.84143 61.68379,58.67482 61.68379,58.67482"
       inkscape:connector-curvature="0"
       sodipodi:nodetypes="cac" />
    <ellipse
       style="fill:#ffe6d5;fill-opacity:1;stroke:#000000;stroke-width:3;stroke-miterlimit:4;stroke-dasharray:none;stroke-opacity:1"
       id="path4250"
       cx="331.7384"
       cy="592.7428"
       rx="33.850857"
       ry="36.859821" />
    <ellipse
       style="fill:#ffe6d5;fill-opacity:1;stroke:#000000;stroke-width:3;stroke-miterlimit:4;stroke-dasharray:none;stroke-opacity:1"
       id="path4250-7"
       cx="541.61371"
       cy="599.51294"
       rx="33.850857"
       ry="36.859821" />
    <path
       style="fill:#c87137;fill-rule:evenodd;stroke:#000000;stroke-width:4;stroke-linecap:butt;stroke-linejoin:miter;stroke-miterlimit:4;stroke-dasharray:none;stroke-opacity:1"
       d="m 298.93618,580.02176 273.40427,2.12766 c 7.00861,-48.1373 4.09331,-97.69724 -8.51064,-144.68086 -9.91235,-36.95014 -25.78164,-72.29538 -46.80851,-104.25532 l -167.02129,3.19149 c -21.98288,30.36608 -38.30222,64.81803 -47.87234,101.06383 -12.24675,46.38327 -13.35015,95.66832 -3.19149,142.5532 z"
       id="path4178"
       inkscape:path-effect="#path-effect4180"
       inkscape:original-d="m 298.93618,580.02176 273.40427,2.12766 c 0,0 2.9907,-97.75958 -8.51064,-144.68086 C 554.76075,400.4701 517.0213,333.21324 517.0213,333.21324 l -167.02129,3.19149 c 0,0 -46.7191,60.26299 -47.87234,101.06383 -1.68465,59.60176 -3.19149,142.5532 -3.19149,142.5532 z"
       inkscape:connector-curvature="0"
       sodipodi:nodetypes="ccaccsc" />
    <ellipse
       style="fill:#ffe6d5;fill-opacity:1;stroke:#000000;stroke-width:4.22298098;stroke-miterlimit:4;stroke-dasharray:none;stroke-opacity:1"
       id="path4387"
       cx="353.19196"
       cy="253.02414"
       rx="12.333632"
       ry="14.479342" />
    <ellipse
       style="fill:#ffe6d5;fill-opacity:1;stroke:#000000;stroke-width:4.22298098;stroke-miterlimit:4;stroke-dasharray:none;stroke-opacity:1"
       id="path4387-0"
       cx="508.96255"
       cy="254.15784"
       rx="12.333632"
       ry="14.479342" />
    <ellipse
       style="fill:#000000;fill-opacity:1;stroke:#000000;stroke-width:4;stroke-miterlimit:4;stroke-dasharray:none;stroke-opacity:1"
       id="path4404-1"
       cx="506.3877"
       cy="254.15785"
       rx="3.0039949"
       ry="2.5748527" />
    <path
       style="fill:#ffe6d5;fill-rule:evenodd;stroke:#000000;stroke-width:4;stroke-linecap:butt;stroke-linejoin:miter;stroke-miterlimit:4;stroke-dasharray:none;stroke-opacity:1"
       d="m 359.09132,225.08889 -3.03125,4.54688 c 0.80383,0.13397 1.60951,0.2516 2.41406,0.37695 0.18048,-1.64982 0.37915,-3.29433 0.61719,-4.92383 z m -0.61719,4.92383 c -3.61599,84.0654 16.18649,152.35908 121.10931,115.54797 26.86164,-9.42414 24.26971,-104.19902 26.47663,-117.44055 -49.16442,1.51059 -99.02396,9.45851 -147.58594,1.89258 z"
       id="path4806"
       inkscape:connector-curvature="0"
       sodipodi:nodetypes="cccccscc" />
    <path
       style="fill:#008000;fill-rule:evenodd;stroke:#000000;stroke-width:4;stroke-linecap:butt;stroke-linejoin:miter;stroke-miterlimit:4;stroke-dasharray:none;stroke-opacity:1"
       d="m 458.70951,106.16188 c -6.86544,-0.44353 -15.06194,4.2234 -24.87304,13.89843 1.82086,1.47474 3.67126,3.14392 5.55664,5.0293 l -6.06055,-4.54492 c 0.17039,-0.17039 0.33449,-0.31731 0.50391,-0.48438 -28.26684,-22.893505 -53.53013,-11.51194 -68.69474,11.17508 -11.1397,16.66555 -4.6199,66.31794 -0.1412,75.07297 1.06604,0.16474 1.66601,0.36454 1.66601,0.59961 -22.77907,-0.4005 -50.86226,7.20737 -73.57932,12.16773 -29.25217,6.34187 -34.93713,23.21643 9.5441,22.77089 31.79766,-0.31849 66.42068,-4.18409 96.8373,-4.18409 30.17509,0 169.89986,10.1783 182.04558,-1.96742 33.40657,-33.40657 -70.02198,-17.29542 -75.45313,-22.72656 -11.08347,-11.08349 15.7033,-102.7331 -47.35156,-106.80664 z"
       id="path4852"
       inkscape:connector-curvature="0"
       sodipodi:nodetypes="sccccscccsssss" />
    <path
       style="fill:#ffffff;fill-rule:evenodd;stroke:#000000;stroke-width:4;stroke-linecap:butt;stroke-linejoin:miter;stroke-miterlimit:4;stroke-dasharray:none;stroke-opacity:1"
       d="m 411.68536,244.7391 c -6.31189,-1.74857 -12.82162,-1.16196 -18.199,3.16973 -17.8941,14.41441 13.40326,34.73506 23.60951,23.77301 7.91779,-8.50413 10.12548,-26.94274 -5.41051,-26.94274 z"
       id="path4864"
       inkscape:connector-curvature="0" />
    <ellipse
       style="fill:#000000;fill-opacity:1;stroke:#000000;stroke-width:1.34574461;stroke-miterlimit:4;stroke-dasharray:none;stroke-opacity:1"
       id="path4866"
       cx="404.06143"
       cy="257.94635"
       rx="3.1971221"
       ry="3.6980233" />
    <path
       inkscape:connector-curvature="0"
       id="path4874"
       d="m 463.20051,246.09307 c -6.31189,-1.74857 -12.82162,-1.16196 -18.199,3.16974 -17.8941,14.4144 13.40326,34.73505 23.60951,23.773 7.91779,-8.50413 10.12548,-26.94274 -5.41051,-26.94274 z"
       style="fill:#ffffff;fill-rule:evenodd;stroke:#000000;stroke-width:4;stroke-linecap:butt;stroke-linejoin:miter;stroke-miterlimit:4;stroke-dasharray:none;stroke-opacity:1" />
    <ellipse
       ry="3.6980233"
       rx="3.1971221"
       cy="259.30032"
       cx="455.5766"
       id="ellipse4876"
       style="fill:#000000;fill-opacity:1;stroke:#000000;stroke-width:1.34574461;stroke-miterlimit:4;stroke-dasharray:none;stroke-opacity:1" />
    <path
       style="fill:none;fill-rule:evenodd;stroke:#000000;stroke-width:3;stroke-linecap:butt;stroke-linejoin:miter;stroke-miterlimit:4;stroke-dasharray:none;stroke-opacity:1"
       d="m 418.08511,281.08561 c 12.15021,24.61042 25.89155,-0.6135 25.53191,0"
       id="path4878"
       inkscape:connector-curvature="0"
       sodipodi:nodetypes="cc" />
    <g
       id="g4889"
       transform="translate(274.33902,-225.50027)">
      <path
         inkscape:connector-curvature="0"
         id="path4882"
         d="m 111.17021,536.1388 c 11.86211,-6.17337 14.72731,-9.3001 15.15957,-9.84043"
         style="fill:none;fill-rule:evenodd;stroke:#000000;stroke-width:3;stroke-linecap:butt;stroke-linejoin:miter;stroke-miterlimit:4;stroke-dasharray:none;stroke-opacity:1"
         sodipodi:nodetypes="cc" />
      <path
         inkscape:connector-curvature="0"
         id="path4884"
         d="m 118.08511,531.08561 c 23.47092,35.01681 61.83175,30.63501 77.65957,4.25532"
         style="fill:none;fill-rule:evenodd;stroke:#000000;stroke-width:3;stroke-linecap:butt;stroke-linejoin:miter;stroke-miterlimit:4;stroke-dasharray:none;stroke-opacity:1" />
      <path
         inkscape:connector-curvature="0"
         id="path4886"
         d="m 190.15957,528.95795 c 4.81235,7.04684 5.9297,8.05735 10.37235,12.76596"
         style="fill:none;fill-rule:evenodd;stroke:#000000;stroke-width:3;stroke-linecap:butt;stroke-linejoin:miter;stroke-miterlimit:4;stroke-dasharray:none;stroke-opacity:1"
         sodipodi:nodetypes="cc" />
    </g>
    <path
       style="fill:#008000;fill-opacity:1;fill-rule:evenodd;stroke:#000000;stroke-width:4;stroke-linecap:butt;stroke-linejoin:miter;stroke-miterlimit:4;stroke-dasharray:none;stroke-opacity:1"
       d="m 516.80973,333.9718 -24.82396,-1.50448 -3.76121,118.23309 27.83293,0 0.75224,-116.72861 z"
       id="path4155"
       inkscape:path-effect="#path-effect4157"
       inkscape:original-d="m 516.80973,333.9718 -24.82396,-1.50448 -3.76121,118.23309 27.83293,0 z"
       inkscape:connector-curvature="0"
       sodipodi:nodetypes="ccccc" />
    <path
       style="fill:#008000;fill-opacity:1;fill-rule:evenodd;stroke:#000000;stroke-width:4;stroke-linecap:butt;stroke-linejoin:miter;stroke-miterlimit:4;stroke-dasharray:none;stroke-opacity:1"
       d="m 350.53443,336.24338 24.82396,-1.50448 3.76121,118.23309 -27.83293,0 -0.75224,-116.72861 z"
       id="path4155-2"
       inkscape:path-effect="#path-effect4157-7"
       inkscape:original-d="m 350.53443,336.24338 24.82396,-1.50448 3.76121,118.23309 -27.83293,0 z"
       inkscape:connector-curvature="0"
       sodipodi:nodetypes="ccccc" />
    <path
       style="fill:#008000;fill-opacity:1;fill-rule:evenodd;stroke:#000000;stroke-width:4;stroke-linecap:butt;stroke-linejoin:miter;stroke-miterlimit:4;stroke-dasharray:none;stroke-opacity:1"
       d="m 351.29668,446.95711 c 61.16303,0.77236 109.82714,-5.11572 166.24532,-1.50448 17.42484,67.21087 7.73954,174.48684 6.01793,258.64549 -46.66599,15.49962 -72.16179,1.63341 -88.01223,-3.76121 -22.05292,16.58229 -86.91319,10.20549 -87.25998,6.77018 -11.12659,-148.26311 2.64065,-253.74779 3.00896,-260.14998 z"
       id="path4154"
       inkscape:connector-curvature="0"
       sodipodi:nodetypes="cccccc" />
    <path
       style="fill:#ffd42a;fill-opacity:1;fill-rule:evenodd;stroke:#000000;stroke-width:3;stroke-linecap:butt;stroke-linejoin:miter;stroke-miterlimit:4;stroke-dasharray:none;stroke-opacity:1"
       d="m 373.7253,441.7712 c -6.10859,-0.6856 -14.88466,-1.46806 -19.41885,3.06613 -14.03857,14.03858 2.06093,33.97457 18.90783,25.55112 11.46719,-5.81334 11.57927,-25.0973 0.51102,-28.61725 z"
       id="path4862"
       inkscape:connector-curvature="0"
       sodipodi:nodetypes="cscc" />
    <path
       style="fill:none;fill-rule:evenodd;stroke:#000000;stroke-width:3;stroke-linecap:butt;stroke-linejoin:miter;stroke-miterlimit:4;stroke-dasharray:none;stroke-opacity:1"
       d="m 436.25431,700.21849 -1.50449,-49.64792"
       id="path4156"
       inkscape:path-effect="#path-effect4158"
       inkscape:original-d="m 436.25431,700.21849 -1.50449,-49.64792"
       inkscape:connector-curvature="0" />
    <path
       style="fill:none;fill-rule:evenodd;stroke:#000000;stroke-width:3;stroke-linecap:butt;stroke-linejoin:miter;stroke-miterlimit:4;stroke-dasharray:none;stroke-opacity:1"
       d="m 418.46647,643.20653 c 4.20202,4.97992 10.79371,7.84587 17.30155,7.52241 6.12654,-0.30451 12.05832,-3.41163 15.79707,-8.27465 l -0.75224,-0.75224"
       id="path4160"
       inkscape:path-effect="#path-effect4162"
       inkscape:original-d="m 418.46647,643.20653 c 0,0 11.01696,7.74997 17.30155,7.52241 5.94045,-0.21509 15.79707,-8.27465 15.79707,-8.27465 l -0.75224,-0.75224"
       inkscape:connector-curvature="0"
       sodipodi:nodetypes="cscc" />
    <path
       sodipodi:nodetypes="cscc"
       inkscape:connector-curvature="0"
       id="path4164"
       d="m 510.63321,440.26672 c -6.10859,-0.6856 -14.88466,-1.46806 -19.41885,3.06613 -14.03857,14.03858 2.06093,33.97457 18.90783,25.55112 11.46719,-5.81334 11.57927,-25.0973 0.51102,-28.61725 z"
       style="fill:#ffd42a;fill-rule:evenodd;stroke:#000000;stroke-width:3;stroke-linecap:butt;stroke-linejoin:miter;stroke-miterlimit:4;stroke-dasharray:none;stroke-opacity:1" />
    <path
       style="fill:none;fill-rule:evenodd;stroke:#000000;stroke-width:3;stroke-linecap:butt;stroke-linejoin:miter;stroke-miterlimit:4;stroke-dasharray:none;stroke-opacity:1"
       d="m 400.00001,585.66006 c 11.21,5.94472 24.02662,8.82382 36.70213,8.24468 11.05986,-0.50532 21.99153,-3.62866 31.64893,-9.04256"
       id="path4170"
       inkscape:path-effect="#path-effect4172"
       inkscape:original-d="m 400.00001,585.66006 c 0,0 24.16836,8.60406 36.70213,8.24468 10.96729,-0.31447 31.64893,-9.04256 31.64893,-9.04256"
       inkscape:connector-curvature="0"
       sodipodi:nodetypes="csc" />
    <path
       style="fill:none;fill-rule:evenodd;stroke:#000000;stroke-width:3;stroke-linecap:butt;stroke-linejoin:miter;stroke-miterlimit:4;stroke-dasharray:none;stroke-opacity:1"
       d="m 392.55321,506.93665 0,15.42553 0,-0.17021 c 13.58231,1.64569 27.27773,2.35714 40.95745,2.12766 12.9943,-0.21798 25.97429,-1.28483 38.82979,-3.19149 l 0,1.23404 -0.53192,-15.42553 c -13.24665,1.42664 -26.57038,2.13723 -39.89362,2.12766 -13.14594,-0.009 -26.29134,-0.72001 -39.3617,-2.12766 z"
       id="path4174"
       inkscape:path-effect="#path-effect4176"
       inkscape:original-d="m 392.55321,506.93665 0,15.42553 0,-0.17021 c 0,0 27.28811,2.33344 40.95745,2.12766 12.98544,-0.19548 38.82979,-3.19149 38.82979,-3.19149 l 0,1.23404 -0.53192,-15.42553 c 0,0 -26.57685,2.13245 -39.89362,2.12766 -13.13972,-0.005 -39.3617,-2.12766 -39.3617,-2.12766 z"
       inkscape:connector-curvature="0"
       sodipodi:nodetypes="cccacccac" />
    <path
       style="fill:#484537;fill-rule:evenodd;stroke:#000000;stroke-width:4;stroke-linecap:butt;stroke-linejoin:miter;stroke-miterlimit:4;stroke-dasharray:none;stroke-opacity:1"
       d="m 349.03995,699.25053 c 12.70083,3.70489 25.88943,5.7339 39.11654,6.01793 15.39196,0.33051 30.83254,-1.70667 45.61207,-6.01793 l 0,134.34067 c -33.57845,4.08291 -67.46939,5.59326 -101.27792,4.51345 -15.19577,-0.48534 -30.72025,-1.57135 -44.71068,-7.52241 -7.86152,-3.34403 -15.18894,-8.28964 -20.35775,-15.09181 -5.16882,-6.80216 -8.01406,-15.57968 -6.72294,-24.02474 1.15971,-7.58556 5.55998,-14.44817 11.35251,-19.48128 5.79253,-5.03311 12.90605,-8.35561 20.24163,-10.60837 17.43709,-5.35494 36.6274,-4.81767 53.73757,1.50448 l 3.00897,-63.62999 z"
       id="path4182"
       inkscape:path-effect="#path-effect4184"
       inkscape:original-d="m 349.03995,699.25053 c 0,0 25.92505,5.87632 39.11654,6.01793 15.3349,0.16462 45.61207,-6.01793 45.61207,-6.01793 l 0,134.34067 c 0,0 -67.54811,6.57606 -101.27792,4.51345 -15.08485,-0.92245 -31.95423,0.5817 -44.71068,-7.52241 -13.3858,-8.50393 -28.69735,-23.34053 -27.08069,-39.11655 1.48258,-14.46757 18.01673,-24.87789 31.59414,-30.08965 16.72938,-6.42166 53.73757,1.50448 53.73757,1.50448 z"
       inkscape:connector-curvature="0"
       sodipodi:nodetypes="caccaaaacc" />
    <path
       sodipodi:nodetypes="caccaaaacc"
       inkscape:connector-curvature="0"
       inkscape:original-d="m 524.25701,700.2595 c 0,0 -29.99069,6.00863 -45.18552,6.01793 -15.33578,0.009 -45.61207,-6.01793 -45.61207,-6.01793 l 0,134.34067 c 0,0 67.54811,6.57606 101.27792,4.51345 15.08485,-0.92245 31.95423,0.5817 44.71068,-7.52241 13.3858,-8.50393 28.69735,-23.34053 27.08069,-39.11655 -1.48258,-14.46757 -18.01673,-24.87789 -31.59414,-30.08965 -16.72938,-6.42166 -53.73757,1.50448 -53.73757,1.50448 z"
       inkscape:path-effect="#path-effect4188"
       id="path4186"
       d="m 524.25701,700.2595 c -14.7122,3.97026 -29.94703,5.99928 -45.18552,6.01793 -15.38067,0.0188 -30.76259,-2.01062 -45.61207,-6.01793 l 0,134.34067 c 33.57845,4.08291 67.46939,5.59326 101.27792,4.51345 15.19577,-0.48534 30.72025,-1.57135 44.71068,-7.52241 7.86152,-3.34403 15.18894,-8.28964 20.35775,-15.09181 5.16882,-6.80216 8.01406,-15.57968 6.72294,-24.02474 -1.15971,-7.58556 -5.55998,-14.44817 -11.35251,-19.48128 -5.79253,-5.03311 -12.90605,-8.35561 -20.24163,-10.60837 -17.43709,-5.35494 -36.6274,-4.81767 -53.73757,1.50448 l 3.06001,-63.62999 z"
       style="fill:#484537;fill-rule:evenodd;stroke:#000000;stroke-width:4;stroke-linecap:butt;stroke-linejoin:miter;stroke-miterlimit:4;stroke-dasharray:none;stroke-opacity:1" />
    <path
       style="fill:none;fill-rule:evenodd;stroke:#000000;stroke-width:3;stroke-linecap:butt;stroke-linejoin:miter;stroke-miterlimit:4;stroke-dasharray:none;stroke-opacity:1"
       d="m 354.30564,714.73708 25.5762,3.00897"
       id="path4190"
       inkscape:path-effect="#path-effect4192"
       inkscape:original-d="m 354.30564,714.73708 25.5762,3.00897"
       inkscape:connector-curvature="0" />
    <path
       style="fill:none;fill-rule:evenodd;stroke:#000000;stroke-width:3;stroke-linecap:butt;stroke-linejoin:miter;stroke-miterlimit:4;stroke-dasharray:none;stroke-opacity:1"
       d="m 356.56238,726.0207 25.5762,3.00897"
       id="path4190-4"
       inkscape:path-effect="#path-effect4192-3"
       inkscape:original-d="m 356.56238,726.0207 25.5762,3.00897"
       inkscape:connector-curvature="0" />
    <path
       style="fill:none;fill-rule:evenodd;stroke:#000000;stroke-width:3;stroke-linecap:butt;stroke-linejoin:miter;stroke-miterlimit:4;stroke-dasharray:none;stroke-opacity:1"
       d="m 358.06685,736.55207 25.5762,3.00897"
       id="path4190-9"
       inkscape:path-effect="#path-effect4192-6"
       inkscape:original-d="m 358.06685,736.55207 25.5762,3.00897"
       inkscape:connector-curvature="0" />
    <path
       style="fill:none;fill-rule:evenodd;stroke:#000000;stroke-width:3;stroke-linecap:butt;stroke-linejoin:miter;stroke-miterlimit:4;stroke-dasharray:none;stroke-opacity:1"
       d="m 477.2971,716.61769 25.5762,3.00897"
       id="path4190-2"
       inkscape:path-effect="#path-effect4192-2"
       inkscape:original-d="m 477.2971,716.61769 25.5762,3.00897"
       inkscape:connector-curvature="0" />
    <path
       style="fill:none;fill-rule:evenodd;stroke:#000000;stroke-width:3;stroke-linecap:butt;stroke-linejoin:miter;stroke-miterlimit:4;stroke-dasharray:none;stroke-opacity:1"
       d="m 479.55384,727.90131 25.5762,3.00897"
       id="path4190-4-4"
       inkscape:path-effect="#path-effect4192-3-1"
       inkscape:original-d="m 479.55384,727.90131 25.5762,3.00897"
       inkscape:connector-curvature="0" />
    <path
       style="fill:none;fill-rule:evenodd;stroke:#000000;stroke-width:3;stroke-linecap:butt;stroke-linejoin:miter;stroke-miterlimit:4;stroke-dasharray:none;stroke-opacity:1"
       d="m 481.05831,738.43268 25.5762,3.00897"
       id="path4190-9-8"
       inkscape:path-effect="#path-effect4192-6-2"
       inkscape:original-d="m 481.05831,738.43268 25.5762,3.00897"
       inkscape:connector-curvature="0" />
    <path
       style="fill:none;fill-rule:evenodd;stroke:#000000;stroke-width:4.77124739;stroke-linecap:butt;stroke-linejoin:miter;stroke-miterlimit:4;stroke-dasharray:none;stroke-opacity:1"
       d="m 488.19892,204.23021 c 5.761,-18.53883 13.99232,-36.30834 24.40794,-52.69102 9.41799,-14.81352 20.6188,-28.49244 33.28357,-40.64737 l 0,0"
       id="path4285"
       inkscape:path-effect="#path-effect4287"
       inkscape:original-d="m 488.19892,204.23021 c 0,0 14.14992,-36.31863 24.40794,-52.69102 9.31739,-14.87109 33.28357,-40.64737 33.28357,-40.64737 l 0,0"
       inkscape:connector-curvature="0"
       sodipodi:nodetypes="cacc" />
    <path
       style="fill:none;fill-rule:evenodd;stroke:#000000;stroke-width:2.51079297;stroke-linecap:butt;stroke-linejoin:miter;stroke-miterlimit:4;stroke-dasharray:none;stroke-opacity:1"
       d="m 532.23172,124.67994 17.33333,3.10993"
       id="path4190-4-2"
       inkscape:path-effect="#path-effect4192-3-10"
       inkscape:original-d="m 532.23172,124.67994 17.33333,3.10993"
       inkscape:connector-curvature="0" />
    <path
       style="fill:none;fill-rule:evenodd;stroke:#000000;stroke-width:3;stroke-linecap:butt;stroke-linejoin:miter;stroke-miterlimit:4;stroke-dasharray:none;stroke-opacity:1"
       d="m 537.66895,117.7511 25.5762,3.00897"
       id="path4190-4-2-3"
       inkscape:path-effect="#path-effect4192-3-10-4"
       inkscape:original-d="m 537.66895,117.7511 25.5762,3.00897"
       inkscape:connector-curvature="0" />
    <path
       style="fill:none;fill-rule:evenodd;stroke:#000000;stroke-width:3;stroke-linecap:butt;stroke-linejoin:miter;stroke-miterlimit:4;stroke-dasharray:none;stroke-opacity:1"
       d="m 545.03049,112.52229 25.4187,-4.13347"
       id="path4190-4-2-1"
       inkscape:path-effect="#path-effect4192-3-10-6"
       inkscape:original-d="m 545.03049,112.52229 25.4187,-4.13347"
       inkscape:connector-curvature="0" />
    <path
       style="fill:none;fill-rule:evenodd;stroke:#000000;stroke-width:3;stroke-linecap:butt;stroke-linejoin:miter;stroke-miterlimit:4;stroke-dasharray:none;stroke-opacity:1"
       d="m 541.71128,86.363503 1.10528,25.728847"
       id="path4190-4-2-1-1"
       inkscape:path-effect="#path-effect4192-3-10-6-2"
       inkscape:original-d="m 541.71128,86.363503 1.10528,25.728847"
       inkscape:connector-curvature="0" />
    <path
       style="fill:none;fill-rule:evenodd;stroke:#000000;stroke-width:3;stroke-linecap:butt;stroke-linejoin:miter;stroke-miterlimit:4;stroke-dasharray:none;stroke-opacity:1"
       d="m 532.05552,91.991742 6.18886,24.997888"
       id="path4190-4-2-3-8"
       inkscape:path-effect="#path-effect4192-3-10-4-8"
       inkscape:original-d="m 532.05552,91.991742 6.18886,24.997888"
       inkscape:connector-curvature="0" />
    <path
       style="fill:none;fill-rule:evenodd;stroke:#000000;stroke-width:2.51079297;stroke-linecap:butt;stroke-linejoin:miter;stroke-miterlimit:4;stroke-dasharray:none;stroke-opacity:1"
       d="m 527.90736,107.19094 3.76925,17.20201"
       id="path4190-4-2-8"
       inkscape:path-effect="#path-effect4192-3-10-5"
       inkscape:original-d="m 527.90736,107.19094 3.76925,17.20201"
       inkscape:connector-curvature="0" />
    <ellipse
       style="fill:#000000;fill-opacity:1;stroke:#000000;stroke-width:4;stroke-miterlimit:4;stroke-dasharray:none;stroke-opacity:1"
       id="path4404"
       cx="354.90054"
       cy="253.29955"
       rx="3.0039949"
       ry="2.5748527" />
  </g>
</svg>
