<?xml version="1.0" encoding="UTF-8" standalone="no"?>
<!-- Created with Inkscape (http://www.inkscape.org/) -->

<svg
   xmlns:dc="http://purl.org/dc/elements/1.1/"
   xmlns:cc="http://creativecommons.org/ns#"
   xmlns:rdf="http://www.w3.org/1999/02/22-rdf-syntax-ns#"
   xmlns:svg="http://www.w3.org/2000/svg"
   xmlns="http://www.w3.org/2000/svg"
   xmlns:sodipodi="http://sodipodi.sourceforge.net/DTD/sodipodi-0.dtd"
   xmlns:inkscape="http://www.inkscape.org/namespaces/inkscape"
   version="1.1"
   id="svg24785"
   xml:space="preserve"
   width="800"
   height="800"
   viewBox="0 0 800 800"
   sodipodi:docname="russian-flag-lion-symbol.svg"
   inkscape:version="0.92.4 (5da689c313, 2019-01-14)"><metadata
     id="metadata24791"><rdf:RDF><cc:Work
         rdf:about=""><dc:format>image/svg+xml</dc:format><dc:type
           rdf:resource="http://purl.org/dc/dcmitype/StillImage" /><dc:title></dc:title></cc:Work></rdf:RDF></metadata><defs
     id="defs24789"><clipPath
       clipPathUnits="userSpaceOnUse"
       id="clipPath24801"><path
         d="M 0,600 H 600 V 0 H 0 Z"
         id="path24799"
         inkscape:connector-curvature="0" /></clipPath></defs><sodipodi:namedview
     pagecolor="#ffffff"
     bordercolor="#666666"
     borderopacity="1"
     objecttolerance="10"
     gridtolerance="10"
     guidetolerance="10"
     inkscape:pageopacity="0"
     inkscape:pageshadow="2"
     inkscape:window-width="724"
     inkscape:window-height="480"
     id="namedview24787"
     showgrid="false"
     inkscape:zoom="0.295"
     inkscape:cx="400"
     inkscape:cy="400"
     inkscape:window-x="0"
     inkscape:window-y="0"
     inkscape:window-maximized="0"
     inkscape:current-layer="g24793" /><g
     id="g24793"
     inkscape:groupmode="layer"
     inkscape:label="russian-lion-publicdomainvectors.org"
     transform="matrix(1.3333333,0,0,-1.3333333,0,800)"><g
       id="g24795"><g
         id="g24797"
         clip-path="url(#clipPath24801)"><path
           d="M 600,0 H 0 v 600 h 600 z"
           style="fill:#231f20;fill-opacity:1;fill-rule:nonzero;stroke:none"
           id="path24803"
           inkscape:connector-curvature="0" /><path
           d="m 190.587,407.149 c -31.462,7.671 -41.022,21.975 -47.141,27.657 -2.938,2.734 -11.066,3.949 -19.619,2.68 -8.348,5.549 -24.342,9.05 -32.847,-4.817 1.312,1.102 9.611,0.682 14.046,-3.404 -0.122,-0.114 -0.232,-0.237 -0.352,-0.352 -10.176,0.038 -21.32,-4.086 -23.174,-15.957 0.909,1.763 10.3,5.473 15.415,1.238 -1.548,-3.303 -2.788,-7.239 -2.082,-11.995 h 8.829 c 4.267,2.78 11.128,2.959 20.78,0 h 118.604 c -19.993,8.556 -39.277,1.737 -52.459,4.95"
           style="fill:#ffffff;fill-opacity:1;fill-rule:nonzero;stroke:none"
           id="path24805"
           inkscape:connector-curvature="0" /><path
           d="m 361.997,459.432 c 1.233,6.16 29.546,3.362 36.695,-13.811 -1.227,37.557 -32.882,44.196 -56.096,57.368 -12.081,6.853 17.547,8.002 37.169,-1.614 -4.385,16.852 -53.93,53.355 -90.944,33.653 0,0 -1.054,-18.996 -14.4,-21.424 5.231,6.317 7.114,17.473 4.343,18.706 -10.458,0 -25.581,-15.005 -31.533,-26.398 l -16.821,-2.151 -14.014,-14.472 c 0,0 -24.001,-0.468 -25.234,-9.846 -1.056,-8.036 10.762,-23.768 14.169,-28.106 0,0 4.464,-6.402 10.338,-8.098 -4,5.852 -3.05,8.341 -0.743,10.647 3.248,-2.048 5.994,-1.216 5.994,-1.216 0,0 5.698,2.556 9.971,4.383 l -1.565,-13.315 c -6.696,-1.874 -11.113,0.814 -11.113,0.814 l 2.492,-5.739 c 1.384,-6.925 8.77,-19.394 11.084,-19.394 2.307,0 14.771,9.233 18.003,6.926 3.235,-2.309 50.326,-14.629 42.327,16.155 9.387,-11.075 12.618,-34.468 -40.942,-25.542 -1.383,0.231 -6.146,-13.688 -7.776,-14.759 h 150.333 c -14.12,25.479 -32.46,53.632 -31.737,57.233"
           style="fill:#ffffff;fill-opacity:1;fill-rule:nonzero;stroke:none"
           id="path24807"
           inkscape:connector-curvature="0" /><path
           d="m 532.475,414.918 c -6.765,5.538 -15.039,9.893 -28.28,7.272 -68.415,78.917 -123.591,26.444 -103.415,-19.991 h 17.521 c -22.645,41.539 22.66,79.899 79.424,14.956 -4.262,-3.653 -6.167,-9.459 -6.546,-14.956 h 51.12 c -8.269,7.266 -17.838,7.269 -21.485,7.676 -2.155,0.924 6.12,5.348 11.661,5.043"
           style="fill:#ffffff;fill-opacity:1;fill-rule:nonzero;stroke:none"
           id="path24809"
           inkscape:connector-curvature="0" /><path
           d="m 213.315,236.583 c 2.77,-34.168 12.331,-70.402 -19.854,-59.56 -18.148,6.113 -31.082,5.415 -39.399,3.079 -13.452,6.235 -31.539,2.262 -34.934,-12.162 6.793,5.865 13.597,5.134 18.676,2.969 -15.168,-1.404 -28.11,-14.827 -21.873,-29.137 2.066,9.402 8.897,12.459 14.743,13.288 -5.154,-6.402 -3.692,-15.022 4.123,-24.188 -1.291,11.883 7.176,14.11 10.892,14.519 2.181,-1.347 4.707,-2.657 7.605,-3.92 11.773,-3.193 54.171,10.159 91.729,-3.193 2.309,6.003 -6.925,22.36 -12.466,26.979 2.306,14.311 8.002,34.392 28.318,40.39 11.172,3.301 19.09,18.055 25.618,30.434 12.66,-3.715 28.431,-8.839 43.678,-15.227 8.454,-3.544 16.726,-7.5 24.093,-11.834 7.361,-4.322 13.791,-9.116 18.281,-14.169 2.218,-2.537 3.923,-5.137 5,-7.648 1.087,-2.504 1.516,-4.903 1.529,-6.89 0.033,-0.498 0.012,-0.97 -0.038,-1.413 -0.044,-0.442 -0.056,-0.864 -0.119,-1.248 -0.161,-0.761 -0.248,-1.43 -0.405,-1.949 -0.319,-1.041 -0.488,-1.598 -0.488,-1.598 0,0 0.239,0.535 0.687,1.533 0.227,0.501 0.398,1.157 0.659,1.917 0.118,0.384 0.181,0.812 0.284,1.262 0.111,0.451 0.193,0.936 0.227,1.457 0.249,2.065 0.125,4.672 -0.703,7.506 -0.812,2.836 -2.289,5.864 -4.31,8.862 -4.091,5.976 -10.208,11.847 -17.261,17.289 -7.061,5.46 -15.058,10.603 -23.253,15.331 -13.854,7.978 -28.245,14.849 -40.229,20.146 2.26,3.158 4.426,5.023 6.613,4.72 74.213,-35.712 97.886,-61 81.262,-80.079 -8.735,-10.036 -26.937,5.282 -40.599,-1.552 -1.669,-0.832 -3.235,-1.683 -4.634,-2.654 -0.884,0.197 -21.884,4.713 -29.561,-9.595 3.68,1.719 9.13,1.442 14.432,-1.003 -5.474,-4.117 -10.965,-10.122 -10.126,-17.314 2.494,3.808 7.806,5.816 14.469,5.743 -3.993,-5.951 -9.147,-16.26 -3.18,-23.519 2.259,11.283 11.928,14.366 24.633,14.284 0.997,-0.804 2.033,-1.893 3.134,-3.375 30.257,-2.675 69.367,18.529 85.757,13.795 -1.616,18.467 -21.319,23.317 -21.931,25.162 4.337,16.628 0.893,39.223 -8.166,59.658 0.678,0.244 1.373,0.493 2.08,0.758 2.972,1.141 6.175,2.393 9.474,3.937 3.313,1.497 6.736,3.245 10.188,5.193 1.717,0.999 3.465,1.994 5.176,3.12 1.738,1.069 3.432,2.257 5.134,3.459 1.71,1.18 3.34,2.528 5.008,3.798 1.59,1.396 3.254,2.69 4.77,4.175 l 0.925,0.881 h -14.774 c -0.37,-0.205 -0.739,-0.408 -1.115,-0.601 -1.679,-0.888 -3.335,-1.764 -5.033,-2.53 -1.665,-0.819 -3.371,-1.512 -5.031,-2.216 -3.342,-1.357 -6.625,-2.539 -9.791,-3.507 -3.147,-1.01 -6.188,-1.769 -8.984,-2.453 -1.668,-0.387 -3.247,-0.719 -4.75,-1.011 -1.102,1.845 -2.256,3.65 -3.456,5.414 9.415,0.384 18.764,2.85 27.497,6.904 H 216.429 c -2.493,-6.378 -3.822,-13.687 -3.114,-22.417"
           style="fill:#d13d3a;fill-opacity:1;fill-rule:nonzero;stroke:none"
           id="path24811"
           inkscape:connector-curvature="0" /><path
           d="m 207.474,252.028 c 0.049,2.345 0.422,4.673 1.047,6.972 h -1.936 c -0.025,-2.285 0.241,-4.606 0.889,-6.972"
           style="fill:#d13d3a;fill-opacity:1;fill-rule:nonzero;stroke:none"
           id="path24813"
           inkscape:connector-curvature="0" /><path
           d="m 98.459,392.872 c 0.53,4.239 2.249,7.402 5.203,9.327 h -8.829 c 0.417,-2.808 1.512,-5.905 3.626,-9.327"
           style="fill:#295bb0;fill-opacity:1;fill-rule:nonzero;stroke:none"
           id="path24815"
           inkscape:connector-curvature="0" /><path
           d="m 494.965,388.024 c -0.192,8.114 6.931,10.008 6.931,10.008 0,0 2.455,-32.633 17.386,-39.56 -1.228,9.087 3.692,14.006 3.692,14.006 0,0 24.009,-15.073 22.779,-40.48 13.344,17.639 -5.645,59.063 -5.645,59.063 0,0 4.717,-0.887 13.03,-7.193 -2.581,8.8 -6.534,14.55 -10.839,18.331 h -51.12 c -0.452,-6.553 1.269,-12.669 3.786,-14.175"
           style="fill:#295bb0;fill-opacity:1;fill-rule:nonzero;stroke:none"
           id="path24817"
           inkscape:connector-curvature="0" /><path
           d="m 422.631,376.012 c 60.033,-43.5 17.866,-97.646 -35.87,-97.58 7.808,8.315 19.651,20.991 23.556,25.495 -48.017,8.001 -85.741,43.072 -89.261,58.549 10.516,-13.339 87.291,-71.644 123.126,-31.768 -55.405,-7.325 -74.674,48.393 -77.146,55.776 0,0 20.505,5.386 42.045,-24.778 2.594,5.626 -5.311,22.384 -15.347,40.493 H 243.401 c -0.065,-0.042 -0.125,-0.07 -0.179,-0.07 -0.058,0.024 -0.117,0.046 -0.176,0.07 H 124.442 c 4.047,-1.24 8.575,-3.022 13.616,-5.404 25.396,-12.005 43.251,-14.01 61.72,-32.478 12.814,-10.287 58.327,-31.239 46.782,-61.248 C 240.863,288.257 223.692,277.583 216.429,259 h 207.117 c 43.122,20.026 71.173,78.895 17.549,118.251 -10.741,7.884 -18.177,16.482 -22.794,24.948 H 400.78 c 4.063,-9.347 11.174,-18.45 21.851,-26.187"
           style="fill:#295bb0;fill-opacity:1;fill-rule:nonzero;stroke:none"
           id="path24819"
           inkscape:connector-curvature="0" /><path
           d="m 206.585,259 h 1.936 c 4.893,17.98 25.425,34.13 30.832,41.796 3.462,4.91 4.384,9.529 3.87,13.686 0.326,-0.192 0.657,-0.366 0.984,-0.564 -0.153,1.964 -1.186,4.236 -2.832,6.694 -4.055,8.423 -12.894,13.793 -12.894,13.793 l -0.001,-0.002 c -10.001,8.884 -22.211,17.579 -28.552,22.087 -17.543,-23.177 -49.758,5.425 -68.997,-8.238 -0.329,-0.234 -0.638,-0.483 -0.957,-0.726 -8.97,3.38 -27.416,2.758 -30.187,-14.974 1.026,1.99 8.86,7.48 12.269,0.443 -6.693,-4.947 -12.115,-14.474 -6.425,-26.762 -0.282,2.507 5.67,16.501 14.16,8.09 l 0.001,0.01 c 2.738,-5.48 8.067,-9.541 16.065,-10.406 -14.108,10.84 4.93,17.854 12.316,11.082 7.387,-6.774 18.469,4.305 18.469,4.305 0,0 30.331,13.17 62.958,1.543 5.189,-3.924 3.342,-9.073 -3.743,-21.822 C 218.705,286.162 206.741,273.301 206.585,259"
           style="fill:#295bb0;fill-opacity:1;fill-rule:nonzero;stroke:none"
           id="path24821"
           inkscape:connector-curvature="0" /><path
           d="m 450.353,260.304 c 0.762,0.721 1.457,1.529 2.183,2.285 0.706,0.778 1.453,1.511 2.12,2.32 0.664,0.806 1.328,1.61 1.99,2.409 l 0.983,1.196 0.905,1.256 c 0.601,0.831 1.195,1.658 1.789,2.48 1.151,1.666 2.15,3.41 3.194,5.061 0.923,1.733 1.826,3.437 2.673,5.11 0.742,1.722 1.467,3.409 2.172,5.049 0.577,1.683 1.141,3.318 1.687,4.901 0.479,1.599 0.839,3.173 1.235,4.659 0.437,1.477 0.624,2.948 0.883,4.323 0.217,1.384 0.535,2.669 0.624,3.914 0.121,1.236 0.236,2.393 0.342,3.462 0.099,1.066 0.222,2.041 0.212,2.931 0.078,3.541 0.125,5.566 0.125,5.566 0,0 -0.301,-1.995 -0.825,-5.485 -0.101,-0.874 -0.346,-1.821 -0.581,-2.855 -0.237,-1.031 -0.487,-2.144 -0.761,-3.335 -0.24,-1.194 -0.715,-2.414 -1.092,-3.721 -0.422,-1.297 -0.777,-2.681 -1.38,-4.052 -0.569,-1.378 -1.096,-2.832 -1.749,-4.291 -0.704,-1.431 -1.433,-2.906 -2.183,-4.426 -0.857,-1.455 -1.736,-2.945 -2.636,-4.471 -1.01,-1.443 -2.039,-2.918 -3.086,-4.42 -1.174,-1.409 -2.285,-2.887 -3.536,-4.281 -0.642,-0.683 -1.282,-1.371 -1.928,-2.061 l -0.969,-1.037 -1.042,-0.978 c -0.695,-0.65 -1.39,-1.304 -2.088,-1.959 -0.695,-0.656 -1.469,-1.238 -2.2,-1.861 -0.749,-0.601 -1.458,-1.248 -2.239,-1.814 l -2.331,-1.714 c -1.53,-1.165 -3.21,-2.144 -4.788,-3.217 -1.299,-0.745 -2.559,-1.527 -3.847,-2.248 h 14.774 z"
           style="fill:#295bb0;fill-opacity:1;fill-rule:nonzero;stroke:none"
           id="path24823"
           inkscape:connector-curvature="0" /></g></g></g></svg>