<?xml version="1.0" encoding="UTF-8" standalone="no"?>
<!-- Created with Inkscape (http://www.inkscape.org/) -->

<svg
   xmlns:dc="http://purl.org/dc/elements/1.1/"
   xmlns:cc="http://creativecommons.org/ns#"
   xmlns:rdf="http://www.w3.org/1999/02/22-rdf-syntax-ns#"
   xmlns:svg="http://www.w3.org/2000/svg"
   xmlns="http://www.w3.org/2000/svg"
   xmlns:sodipodi="http://sodipodi.sourceforge.net/DTD/sodipodi-0.dtd"
   xmlns:inkscape="http://www.inkscape.org/namespaces/inkscape"
   version="1.1"
   id="svg8032"
   xml:space="preserve"
   width="800"
   height="800"
   viewBox="0 0 800 800"
   sodipodi:docname="round-sticker-austria-flag.svg"
   inkscape:version="0.92.4 (5da689c313, 2019-01-14)"><metadata
     id="metadata8038"><rdf:RDF><cc:Work
         rdf:about=""><dc:format>image/svg+xml</dc:format><dc:type
           rdf:resource="http://purl.org/dc/dcmitype/StillImage" /><dc:title></dc:title></cc:Work></rdf:RDF></metadata><defs
     id="defs8036"><clipPath
       clipPathUnits="userSpaceOnUse"
       id="clipPath8048"><path
         d="M 0,600 H 600 V 0 H 0 Z"
         id="path8046"
         inkscape:connector-curvature="0" /></clipPath><linearGradient
       x1="0"
       y1="0"
       x2="1"
       y2="0"
       gradientUnits="userSpaceOnUse"
       gradientTransform="matrix(58.769989,-70.039322,70.039337,58.769989,354.84082,275.35937)"
       spreadMethod="pad"
       id="linearGradient8078"><stop
         style="stop-opacity:1;stop-color:#ffffff"
         offset="0"
         id="stop8070" /><stop
         style="stop-opacity:1;stop-color:#ffffff"
         offset="0.174157"
         id="stop8072" /><stop
         style="stop-opacity:1;stop-color:#e0e2e6"
         offset="0.8072"
         id="stop8074" /><stop
         style="stop-opacity:1;stop-color:#d0d3d8"
         offset="1"
         id="stop8076" /></linearGradient></defs><sodipodi:namedview
     pagecolor="#ffffff"
     bordercolor="#666666"
     borderopacity="1"
     objecttolerance="10"
     gridtolerance="10"
     guidetolerance="10"
     inkscape:pageopacity="0"
     inkscape:pageshadow="2"
     inkscape:window-width="1920"
     inkscape:window-height="1018"
     id="namedview8034"
     showgrid="false"
     inkscape:zoom="0.87878947"
     inkscape:cx="455.9322"
     inkscape:cy="438.98305"
     inkscape:window-x="-8"
     inkscape:window-y="-8"
     inkscape:window-maximized="1"
     inkscape:current-layer="g8040" /><g
     id="g8040"
     inkscape:groupmode="layer"
     inkscape:label="Austria-sticker-publicdomainvectors.org"
     transform="matrix(1.3333333,0,0,-1.3333333,0,800)"><g
       id="g8042"><g
         id="g8044"
         clip-path="url(#clipPath8048)"><path
           d="m 299.053,545.952 c -123.654,0 -224.261,-100.6 -224.261,-224.261 0,-118.791 92.837,-216.288 209.756,-223.792 L 522.829,336.196 C 515.326,453.115 417.842,545.952 299.053,545.952"
           style="fill:#e0e2e6;fill-opacity:1;fill-rule:nonzero;stroke:none"
           id="path8050"
           inkscape:connector-curvature="0" /><path
           d="m 277.32,121.455 h 31.447 L 442.67,255.452 H 108.639 C 133.86,183.305 198.852,129.866 277.32,121.455"
           style="fill:#e43451;fill-opacity:1;fill-rule:nonzero;stroke:none"
           id="path8052"
           inkscape:connector-curvature="0" /><path
           d="M 108.875,389.448 H 489.242 C 463.013,463.616 394.689,517.861 312.995,523.445 H 285.104 C 203.415,517.861 135.101,463.612 108.875,389.448"
           style="fill:#e43451;fill-opacity:1;fill-rule:nonzero;stroke:none"
           id="path8054"
           inkscape:connector-curvature="0" /><path
           d="m 97.363,322.119 c 0,-23.365 3.98,-45.796 11.276,-66.667 H 442.67 l 57.875,57.915 c 0.123,2.894 0.201,5.821 0.201,8.744 l 0.008,0.008 c 0,23.612 -4.066,46.27 -11.512,67.329 H 108.875 C 101.429,368.389 97.363,345.731 97.363,322.119"
           style="fill:#ffffff;fill-opacity:1;fill-rule:nonzero;stroke:none"
           id="path8056"
           inkscape:connector-curvature="0" /><g
           id="g8058"><g
             id="g8060"><g
               id="g8066"><g
                 id="g8068"><path
                   d="m 523.311,335.712 c -4.8,0.309 -9.627,0.482 -14.498,0.482 -123.66,0 -224.263,-100.61 -224.263,-224.26 0,-4.871 0.168,-9.711 0.478,-14.507 L 523.32,335.708 Z"
                   style="fill:url(#linearGradient8078);stroke:none"
                   id="path8080"
                   inkscape:connector-curvature="0" /></g></g></g></g></g></g></g></svg>