<?xml version="1.0" encoding="UTF-8" standalone="no"?>
<svg id="svg4402" xmlns:rdf="http://www.w3.org/1999/02/22-rdf-syntax-ns#" xmlns="http://www.w3.org/2000/svg" height="218.24mm" width="186.15mm" version="1.1" xmlns:cc="http://creativecommons.org/ns#" xmlns:dc="http://purl.org/dc/elements/1.1/" viewBox="0 0 659.5914 773.29195">
<g id="layer1" transform="translate(-41.633 -102.86)">
<g id="g4372" fill-rule="evenodd" stroke-width=".26458" transform="matrix(10.63 0 0 10.63 -1320.8 -989.1)">
<path id="path4721" d="m153.7 144.2c0.68596 0.98803 1.0746 2.1337 1.2596 3.3874-1.2324-0.96292-1.916-1.6683-2.3606-1.9706-0.44453-0.30231-0.98714-0.12583-1.4292 0.25477-0.60074-0.30591-0.96885-0.71556-1.3038-1.1402 1.2148 0.0302 2.1682 0.0508 2.9508-0.15285 0.3429-0.0892 0.64035-0.21323 0.88321-0.37851zm20.717 7.4503c-0.45585 0.57967-0.93337 1.1553-1.2759 1.7188-0.34253 0.56346-0.5502 1.1149-0.81989 1.646-1.03 2.0281-1.4734 3.8501-1.2288 5.5458 0.12473 0.86477 0.40844 1.6883 0.84376 2.4721 0.38804 0.69871 0.70911 1.6125 1.4548 2.1196 0.74589 0.50707 1.9168 0.6078 2.7671 1.1859 0.47617 0.32377 0.6999 0.91551 1.0457 1.465 0.45254-0.1219 0.7353-0.0833 0.90773 0.0593 0.22881 0.18936 0.14211 0.57412 0.24405 0.98623 0.10401 0.42069 0.16896 0.72983 0.001 1.7776 0.23931 1.2863 0.0145 2.3511 0.0218 3.5266 0.1143 1.4179-0.25014 1.7924-1.3143 0.64207-0.45159-0.49162-0.60362-0.98497-1.0242-1.3722-0.26828-0.24691-0.68677-0.34719-1.0046-0.55036-0.49101-0.3138-0.77234-0.77753-1.3156-1.0477-0.90548-0.45022-2.7367-1.0767-3.052-1.0891-0.28597-0.0376-0.54338-0.16732-0.77947-0.36396-0.16973-0.14147-0.21563-0.39039-0.32416-0.63368-0.13949-0.31276-0.32528-0.64532-0.40162-1.0336-0.0761-0.38722-0.0562-0.79418-0.22087-1.1425-0.16711-0.35325-0.50625-0.31486-0.8142-0.56333-0.34899-0.28154-0.67088-0.84381-0.88741-1.1533-0.40958-0.71769-1.1219-0.64337-1.8712-0.5859-0.58275 0.0447-1.21 0.04-1.5938-0.10162-0.68228-0.25178-1.0442-0.77423-1.3255-1.0369-0.33353-0.31141-0.6105-1.1911-0.12861-1.5299 0.35247-0.24789 1.3412 0.93075 2.1442-0.21082-0.66389-0.65198-0.89707-1.3926-1.5609-2.0446-1.144-1.1235-2.9678-1.8599-3.8632-3.2824-1.357-0.17886-1.8016-0.0607-2.3639-0.47728-0.45577-0.33774-0.63515-1.1294-0.76469-1.8397-0.0632-0.34682-0.20722-0.46366-0.1869-0.90586-0.79124-0.10493-1.2713-0.37777-1.2964-0.89596-0.65243-0.0686-1.0284-0.34943-0.79674-1.097-0.84277-0.0135-0.93488-0.46776-0.91987-0.98481-0.7161-0.40605-1.3348-1.3071-2.0489-1.7164-0.33195-0.19021-0.7098 0.0442-1.0686-0.0298-0.40658-0.0839-0.74544-0.67387-1.1792-0.69022-0.57759 0.80428-1.0445 1.6543-1.4781 2.5168-0.59428 1.1821-1.1262 2.3882-1.7948 3.5335-0.69398 1.1889-1.5971 2.2718-2.1937 3.5064-0.24389 0.49088-0.51991 0.87381-0.80325 1.2077-1.1 1.2964-2.6156 1.1869-2.2656 0.21572 0.0626-0.17402 0.16148-0.38994 0.29879-0.6504-0.44137 0.17105-0.65698 0.47196-0.94498 0.6368-0.37052 0.21212-0.69646 0.34584-0.9778 0.40111-0.64312 0.12639-1.2196-0.15637-1.232-0.84847-1.59 1.1088-2.004 0.77708-1.242-0.9951-2.3495 0.9012-2.8763 0.27361-1.5803-1.8828-2.5574 0.95168-4.1321 1.1878-4.675 0.67305-0.52613-0.49898-0.0831-1.7036 1.3739-3.6462 0.70343-0.94072 1.6652-1.7549 2.5547-2.6515 0.69178-0.69737 1.2965-1.4886 1.9832-2.1462 0.7134-0.6831 1.4318-1.1671 2.0001-1.9272 1.2571-1.681 1.4339-3.9357 2.6911-5.6168-0.23833-0.78068-0.1847-1.4433-0.44617-2.038-0.29625-0.67394-0.82716-1.2243-1.261-1.7422-0.34304 0.40291-0.56026 0.88778-0.69329 1.4272-0.25403 1.03 0.0855 2.3476-0.13462 3.4978-0.0284 0.43186-0.20169 0.72128-0.25104 1.024-0.0511 0.31411-0.0297 0.6687-0.10477 0.86198-0.24524 0.63151-0.66744 0.50692-0.83534-0.25373-0.0701-0.3174 0.0571-0.87263 0.0124-1.4194-0.0182-0.39314-0.24382-0.5592-0.42413-0.92784-0.14015-0.28678-0.24448-0.77497-0.25858-1.0807-0.0416-0.89865 0.0601-2.0962 0.46035-2.7845-0.99195-0.0295-2.0153 1.4312-3.0973 1.5499-0.43326 0.0475-0.86789-0.37621-1.3246-0.47257-0.31284-0.066-0.60052 0.15428-0.92612 0.11451-0.36915-0.0451-0.77795-0.35835-1.1562-0.59362-0.98925-0.16221-1.4696-0.33126-1.5112-0.50601-0.0536-0.22471 0.61785-0.45887 1.865-0.70051 0.73506-0.10208 1.3929-0.35925 2.128-0.46141 1.0072-0.13986 2.092-0.12494 3.0994-0.26487-0.61163-0.48152-1.378-0.9079-1.9896-1.3894-1.0903-0.85847-2.026-1.7723-3.1164-2.6306-1.2158-1.1874-1.1154-1.9657-0.89176-2.1019 0.18796-0.11454 0.55716 0.30284 1.483 0.98676 0.3216 0.23752 0.87556 0.39061 1.2862 0.72451 0.57052 0.42397 1.5769 0.59211 2.3733 0.87847 0.38361 0.13793 0.65084 0.33758 0.92564 0.54174 0.5448 0.40491 0.64606 0.99681 1.0066 1.5143 0.38378 0.55094 1.0264 1.0283 1.6066 1.4595-0.45308-0.68281-1.2376-1.2993-1.6908-1.982-0.33059-0.49824-0.32985-1.0629-0.66053-1.5611 0.002-0.0838 0.008-0.15729 0.0167-0.22034 0.0837-0.6087 0.45744-0.23926 1.1215 1.2038 0.20796 0.81023 0.65106 1.4951 1.7435 1.8328 0.26601-1.0604-0.18114-1.0559-0.3147-1.5756-0.20844-0.81058-0.61553-1.5595-1.3763-2.1469-1.1506-0.88839-2.7734-1.7714-3.3317-3.1289-0.26167-0.63638-0.48029-1.3637-0.5861-2.0817-0.13944-0.94605-0.004-2.0579-0.11041-3.0015-0.0998-0.88648-0.43349-1.6091-0.78232-2.377-1.193-1.8587-0.34269-2.0673 0.75089-0.22341 0.36459 0.61468 0.82719 1.4525 1.3923 2.5234 0.37296 0.6168 0.82418 1.388 1.0402 2.1371 0.31591 1.0949 0.31469 2.3003 0.76306 3.395 0.27315 0.66691 0.7008 1.4664 1.2827 2.0011 0.52597 0.27667 1.098 0.35041 1.7712-0.0223-0.32422-0.63159-0.55956-1.2608-0.73313-1.8881-0.28882-1.044-0.606-2.0018-0.73081-3.0181-0.091-0.74154-0.0798-1.5143 0.11965-2.3742-0.2835-0.71842-0.73433-1.2353-0.88808-1.705-0.45151-1.3795-0.1302-1.823 0.55664-1.064 0.22891 0.25304 0.30226 0.76776 0.66278 1.2552 0.33276 0.45 0.87929 0.93696 1.3048 1.5943 0.59386 0.57907 0.63543 1.4903 0.72099 2.2576 0.18159 1.6281-0.91845 3.1235 0.0808 4.9287 0.021-0.61463 0.45472-1.3097 0.57208-1.9544 0.1609-0.88312 0.13224-1.6417 0.32544-2.3625 0.10253-0.38249 0.35618-0.18786 0.46239-0.56955 0.10752-1.3668 0.77001-1.5745 0.9348-1.4307 0.14557 0.12721 0.15425 0.68265 0.0107 1.5665-0.0644 0.39682-0.0347 0.84712 0.0545 1.4019 0.87323 1.633-0.0215 3.0116-0.72827 4.0358-0.62338 0.90331-0.92025 2.0827-0.58475 3.2401 0.28633 0.80385 0.48635 1.655 1.1181 2.2698 0.2318-1.7196 0.64963-3.3848 1.2009-4.9806 0.24855-0.71948 0.62383-1.414 0.92205-2.104 0.73334-1.6968 1.5029-3.311 2.4362-4.7993 1.1743-1.8728 2.4148-3.6573 3.9617-5.222 1.3319-1.3473 2.8787-2.8135 4.528-3.6358-0.0718-0.38002 0.11957-0.63833 0.43088-0.84135 0.0419-7.0224 4.5465-11.07 7.9971-12.187 2.3962-0.77565 5.1773-0.5316 8.0666 1.3373 0.99142 0.64124 1.5057 1.7138 2.3306 2.7547 0.7995 1.0089 1.9878 2.0327 4.9481 2.5618 1.0088 0.11761 0.64018 0.71303-0.11385 0.84106-0.64958 0.11033-1.6761 0.25786-2.5726 0.44812-0.88578 0.18802-1.5542 0.57359-2.1287 0.61034 0.70057 0.58973-0.153 1.4499-0.63653 2.6045-0.29001 0.6927-0.54211 1.4517-0.51202 2.2106 0.13845 0.97734 0.72419 2.0202 1.0927 2.9964 0.38505 1.0199 0.76965 2.0886 0.77521 3.1618 0.0215 4.1152-1.9524 8.1422-3.5808 10.882-1.128 1.8976-2.7107 3.6639-4.4737 5.2943-1.1301 1.045-2.2695 2.1386-3.6244 2.8331-2.3731 1.2167-5.4787 1.7781-7.9915 2.0444 0.67161 1.0684 0.96861 2.1637 1.4785 3.239 0.6351 1.3396 1.1891 2.6997 1.2604 4.1824 1.3586 0.57158 3.0794 1.7611 4.0594 3.0862 0.73538 0.99436 1.616 1.4602 1.0734 0.29515-0.068-0.14603-0.15616-0.31763-0.26604-0.51639-0.23759-0.53901 0.34433-0.39471 0.84249 0.0128 0.46117 0.37725 0.79573 0.88469 1.0015 1.4159 0.30083 0.77647 0.4149 1.6044 0.97311 2.1531 0.79119 0.77753 1.4285 1.6378 2.8952 1.8758 0.25779-0.57203 0.51562-1.144 0.77349-1.7159-0.7053-1.4799-1.8065-0.0936-2.517-0.56581-0.62669-0.41661-1.1128-1.1426-1.3501-2.4121-0.60233-0.26572-0.97441-0.60516-0.83979-1.107-0.30382-0.76396-0.3021-1.502-0.12719-2.0814 0.17489-0.5793 0.43469-1.4649 1.1769-1.3947 0.44092-1.1179 1.5992-0.47678 3.16 1.1513 1.3232 0.13126 1.2808 1.5701 1.2596 2.989 0.27344 0.43108 0.15885 1.0438-0.011 1.6827 1.3916-1.1393 0.28419-1.4095 0.39286-2.1745 0.0697-0.4902-0.0439-0.81645 0.51316-1.3459-0.0109-0.46284 0.12824-0.82161 0.30937-1.1513 0.13994-0.75644-0.36097-1.535-0.17677-2.1033-0.83986-0.55509-1.3592-1.1502-1.4916-1.7934-0.65939-0.28434-1.1161-0.60901-1.4806-0.95205-0.7755-0.5943-0.95602-1.3988-0.7293-2.3469-0.0122-0.41349 0.0717-0.81593 0.82875-1.1402 0.0937-0.55178 0.41776-0.94665 1.2485-0.99631 0.27871-0.15171 0.88897-1.0342 1.245-1.042 0.31417-0.007 0.58431 0.82746 0.76589 0.99772 0.48774-0.29641 0.2802-0.80759 0.47437-0.98213 0.19426-0.17452 0.43665-0.14534 0.76314 0.24045 0.30816-0.5784 0.58537-0.81862 0.8313-0.72067 0.16843 0.0671 0.16753 0.33689 0.4614 0.67643 0.6372-0.60915 1.84-0.0787 2.2295 0.68768 0.26654 0.52446 0.39555 1.2579 0.44436 2.113 0.16944-0.11445 0.30938-0.0812 0.41987 0.0997 0.1638 0.63368-0.19719 1.4953-0.91705 2.5129 0.56349-0.39367 1.1268-0.9231 1.6905-1.9372 0.0899-0.56459-0.18646-1.2842-0.17174-1.9263 0.0147-0.64206 0.0887-1.2842 0.18277-1.9261-0.16957-0.93811-0.21757-1.8852-0.20992-2.8672 0.14055-1.4292-0.0977-2.2028-0.047-3.3399 0.0453-1.0135 0.30189-2.0214 0.41814-3.0604 0.0709-0.63302 0.2145-1.2953 0.26908-1.9378 0.0852-1.0021 0.0809-1.9884 0.22157-2.9868 0.1203-0.41423 0.30892-0.5367 0.49583-0.48096 0.24045 0.0717 0.47818 0.43807 0.56488 0.85731 0.0433 0.67905-0.0862 1.3458 0.002 2.0425 0.0623 0.49247 0.2844 0.87062 0.39278 1.3791 0.13081 0.61373 0.14139 1.3622 0.0996 2.0036-0.0968 1.4855-0.68617 3.0484-1.1051 4.6505-0.24598 0.94051-0.43312 1.8946-0.42764 2.8544 0.55943-1.2214 0.87654-2.5175 1.2752-3.6984 0.13282-0.39367 0.26024-0.60248 0.37888-1.0045 0.20048-0.67906 0.21392-1.4644 0.45413-2.127 0.40942-1.1292 1.1396-2.1258 1.5491-3.2551 0.0433-0.70898 0.38939-1.3477 0.55793-1.9316 0.10109-0.35025-0.01-0.68117 0.12689-0.99549 0.10514-0.24135 0.33052-0.40693 0.45323-0.63074 0.17579-0.32054 0.19643-0.76147 0.39127-1.0593 0.17901-0.27358 0.37875-0.26287 0.58988-0.50684 0.14333-0.16552 0.2811-0.5112 0.43252-0.69683 0.41881-0.51359 0.73673-1.0093 1.2712-1.3637 0.44281-0.30128 0.68874-0.2808 0.86207-0.15983 0.41084 0.28673 0.21262 1.3934-0.19913 1.9643-0.42412 1.0037-1.224 1.8858-1.6481 2.8895-0.47077 1.1143-0.56602 2.3505-1.0368 3.4648-0.19243 0.64381-0.36285 1.2988-0.64365 1.9093-0.83444 1.8144-2.0404 3.602-3.0378 5.3941-0.39032 0.70125-0.74867 1.4033-1.0402 2.1078-0.31739 0.76679-0.79891 1.4926-0.67035 2.3122 0.20754-0.39968 0.39601-0.81389 0.57939-1.2284 0.095-0.21471 0.39883-0.29683 0.4931-0.50977 0.1533-0.34597 0.15738-0.71692 0.28562-1.0676 0.0767-0.21 0.21466-0.22746 0.32017-0.42442 0.18802-0.35115 0.37021-0.86378 0.60743-1.1394 0.33118-0.38468 0.70567-0.71446 1.1395-0.96631 0.27855-0.53115 1.004-0.93697 1.9303-1.2864 1.3219-0.49869 3.0226-0.12353 4.4614-0.96128 0.29874-0.17386 0.45347-0.48856 0.85643-0.69697 1.2467-0.28276 0.4227 0.85672-0.1215 1.1956-0.77422 0.56203-1.405 1.5118-2.1791 2.0738-1.1825 0.8586-2.7145 1.1924-4.0533 1.7841-0.65392 0.28898-1.1946 0.72398-1.7561 1.1486-0.6441 0.48696-1.1995 1.1065-1.6021 1.9567 1.8206-0.48969 3.3761-1.4999 5.1526-2.1335 0.29888-0.10657 0.60532 0.007 0.91583-0.0847 0.41878-0.12308 0.69096-0.39383 1.1182-0.53842 0.81584-0.27615 1.7669-0.47821 2.5366-0.75269 0.7206-0.32364 1.3383 0.56295 0.1878 1.0628-0.86738 0.43725-1.8896 0.7638-2.7624 1.2343-0.87278 0.47048-1.5964 1.085-2.4417 1.3894-1.0361 0.34613-2.1608 0.72556-3.0422 1.2267-0.70327 0.39981-1.4035 0.83751-2.0624 1.3261-0.45067 0.33419-0.88207 0.69238-1.2818 1.0783 0.81894-0.30512 1.1741-0.21069 1.741-0.34817 0.27683-0.0671 0.52972-0.17332 0.80108-0.21944 0.33787-0.0574 0.44452 0.0846 0.78277 0.0536 0.56377-0.0517 1.3597-0.26662 1.9234-0.36052 1.7396-0.70583 2.6935 0.1797 0.33149 0.96314-0.66508 0.10657-1.3481 0.45114-1.9623 0.62182-0.6141 0.17071-1.1597 0.16785-1.6381 0.50935-0.50114 0.35766-0.90479 0.83857-1.1618 1.5035-0.12083 0.36748-0.34621 0.66209-0.63907 0.90937-0.43358 0.36592-1.1372 0.75023-1.7483 0.99203-0.73761 0.29189-1.1754 0.22199-2.0101 0.81082zm1.3922-4.3617c-0.26138 0.97284-1.0107 1.9235-1.5702 2.8852-0.27733 0.4767-0.67026 0.89837-0.95173 1.3753-0.36187 0.61299-0.61193 1.2815-0.95858 1.8946 0.17806-1.382 0.56618-2.5234 1.1098-3.4852 0.2862-0.50626 0.72615-0.80812 1.0908-1.2241 0.42053-0.47972 0.77761-1.0605 1.2798-1.4458z" fill="#520"/>
<path id="path4727" d="m173.86 107.9c-0.17265 0.79402-0.58 1.4604-0.5854 2.2914 0.19748 0.0755 0.37056 0.16063 0.37538 0.31033-0.0349 0.25823-0.009 0.51654 0.0441 0.77501 0.67569-0.0515 1.3648-0.20651 2.0555-0.37648-0.22574-0.23797-0.96217-0.18804-1.6685-0.15489-0.0616-0.303-0.0242-0.48678 0.15049-0.55893 0.31087-0.12862 0.92532 0.0353 1.2502 0.0794 0.51713 0.0701 1.8058 0.20574 1.8036-0.15158-1.3922-0.53414-2.5046-1.2964-3.4252-2.2142zm-20.38 34.416c-0.14444 0.01-0.0929 0.35157 0.25081 0.91832 0.10559 0.18246 0.20801 0.36409 0.30702 0.54515 0.8712 1.592 1.4796 3.1239 1.7214 4.5707 0.0515 0.24961-0.22179 0.20893-0.30152 0.36546-0.1026 0.20121-0.13657 0.50971-0.25851 0.70169-0.16836 0.26522-0.33554 0.6096-0.55012 0.85329-0.18931 0.21511-0.42096 0.33226-0.65374 0.52696-0.46434 0.44965-0.22893 0.71464 0.37483 0.46302 0.77041-0.51374 1.3104-1.2121 1.7859-1.9623-0.0936 0.95131-0.43174 1.8365-1.5875 2.4033-0.49606 0.18968-0.0434 0.61348 0.55122 0.35278 0.85508-0.37163 1.1728-1.2816 1.5434-2.1387-0.0856 1.0194-0.46387 1.8996-1.345 2.5356-0.56708 0.4953-0.0285 0.68246 0.57326 0.37483 0.65625-0.45278 1.1381-1.2208 1.4999-2.2049-0.10523-0.58912-0.23152-1.1632-0.37979-1.7226-0.21921-0.82674-0.64244-1.5222-0.96518-2.2875-0.53377-1.2657-1.0622-2.5502-1.9188-3.6634-0.30456-0.4456-0.53533-0.63916-0.64768-0.63169zm-5.6185 0.21166c-0.12346 0.28059-0.32964 0.52405-0.71824 0.68627-0.2985 0.24315-0.41851 0.59559-0.5694 0.95746-0.10681 0.27636-0.34673 0.50251-0.40404 0.73862-0.0896 0.3685-0.008 0.65997 0.21111 0.55122 0.55245-0.26566 0.98673-0.7084 1.3036-1.3284-0.13269 0.43352-0.37588 0.87625-0.8621 1.3394-0.2743 0.23604 0.002 0.57544 0.23206 0.42058 0.42706-0.26948 0.71464-0.67905 0.9062-1.1846-0.12055 0.66135-0.32464 1.2909-0.82848 1.8047-0.19884 0.38381 0.34021 0.63811 0.60744 0.33183 0.40875-0.58679 0.67399-1.1734 0.72926-1.76 0.28358-0.95586 0.0813-1.8081-0.60744-2.5571z" fill="#ff7f2a"/>
<g>
<path id="path4729" d="m166.25 103.93c-1.0855 0.004-2.1004 0.20528-2.9016 0.55452-2.9274 1.2759-6.532 5.13-6.7099 10.74-0.2793 0.62474-0.21658 1.3268-0.8384 1.8741-0.92385 0.48075-1.5899 1.1468-2.3576 1.776-1.0518 0.86214-2.0662 1.8008-3.0295 2.8432-1.2553 1.3583-2.4243 2.8929-3.4771 4.6638 1.2408-1.537 2.5885-2.9325 4.0305-4.203 1.5838-1.3956 3.2814-2.6407 5.0761-3.7571 0.56586-0.47792 0.6605-1.3614 1.0231-2.0097 0.33015-0.5905 0.71786-1.1052 1.2706-1.3858 0.47617-0.77219-0.18516-1.4437 0.0694-2.1205 0.0997-0.26498 0.2584-0.52177 0.50381-0.76784 0.25611-0.42359 0.55857-0.59065 0.90785-0.50051 0.27173 0.0701 0.62753 0.27369 0.81194 0.72099 0.15047 0.50438 0.18091 1.0546 0.41176 1.4508 0.2037 0.34957 0.68403 0.51821 0.9988 0.71823 0.3052 0.19405 0.44127 0.51373 1.125 0.30042 1.0978 0.0442 1.7275-0.56209 2.3906-0.3175 0.58516 0.21585 0.91554 0.80116 1.4023 1.5743 1.0413 0.1374 1.2509 0.60266 1.9193 0.67854 0.71152 0.0808 1.2224-0.43542 2.2258-0.23757 0.86706-1.1305 2.1428-2.7149 2.6232-3.9671-0.10993-0.21764-0.26429-0.20712-0.37373-0.26403-0.39074-0.20349-0.51351-0.3284-0.28718-0.88415-0.66411-0.63114-0.74749-1.2489-0.64492-1.862 0.12383-0.74008 0.9165-0.45549 0.49058-2.2175-1.5436-2.4569-4.2727-3.4089-6.6609-3.401zm6.1758 12.64c-0.75276 0.69159-1.6486 1.1974-2.6513 1.5644-0.61328 0.22431-1.2338 0.28627-1.9188 0.41782-0.80079 0.15383-1.6783 0.36212-2.5521 0.42113-0.0561 0.70329-0.32072 0.89549-0.42333 1.3185-0.1959 0.80783-0.28351 1.5702-0.44925 2.368-0.59414 2.8595-1.4254 5.5495-3.4793 7.8896-3.1621 3.6027-7.9914 6.674-14.148 8.9087 0.80198 0.7932 1.2502 1.7191 1.345 2.7781 0.48778 0.25214 0.84378 0.92073 1.125 1.8521 1.1852-0.16012 2.3819-0.21435 3.4997-0.42885 0.19836-0.0381 0.39432-0.0822 0.5876-0.13064-0.17934-0.30975-0.44689-0.59408-0.72981-0.87422-0.46768-1.048 0.70701-1.701 1.5688-0.79706 0.31935 0.36232 0.59176 0.76172 0.82351 1.1928 0.19349-0.0561 0.38641-0.10975 0.58043-0.15875 0.72843-0.18396 1.4573-0.10053 2.1751-0.24364 1.7652-0.35205 3.4632-0.90189 4.9207-1.6233 2.9964-1.4832 5.2294-3.9988 7.0186-6.452 2.223-3.0479 5.0277-7.5685 4.7201-12.347-0.12038-1.8698-1.1145-3.625-2.0125-5.6555zm-26.203 23.173c-0.49093 0.11535-0.89803 0.38666-1.1824 0.8858 0.97912 0.51427 1.7166 1.109 2.2539 1.7711-0.15118-0.90459-0.5947-1.782-1.0716-2.6569z" fill="#e6c451"/>
<path id="path4731" d="m166.05 110.45c-0.55682-0.27646-0.75864-0.81383-0.46403-1.3616 0.15037-0.27961 0.48202-0.38205 0.72628-0.52305 0.84392-0.48704 1.7592-0.63915 2.6524-0.41116 0.22762 0.0581 0.43206 0.15645 0.64312 0.29212 0.42696 0.27451 0.62392 0.68123 0.32047 1.1181-0.13074 0.18825-0.32206 0.3162-0.49274 0.44857-0.79539 0.61651-1.7358 0.85291-2.8666 0.58899-0.16862-0.0393-0.35071-0.0685-0.51893-0.15195z" fill="#fff"/>
<path id="path4733" d="m168.01 108.59c-0.14888 0.53806-0.0959 0.98982 0.43325 1.2391 0.31186-0.21572 0.5674-0.5455 0.7039-0.96904-0.41085-0.15838-0.78996-0.2481-1.1372-0.2701zm-0.42223 0.008c-0.54412 0.0604-0.99676 0.31723-1.3576 0.77115 0.44595 0.67655 1.1398 0.86769 1.7507 0.68351-0.1596-0.24437-0.27329-0.49957-0.36049-0.76178-0.0694-0.20865 0.0744-0.50351-0.0325-0.69288z" fill="#004589"/>
<path id="path4739" d="m159.55 112.46c-0.45621-0.002-0.77043 0.66167-0.6791 1.0594 0.0573 0.24916 0.45705 0.22413 0.43877 0.83124-0.1701 0.58126-0.42877 1.2513-0.97455 1.6112-0.6735 0.44416-0.8354 1.3806-1.2529 2.0709-1.636 1.8535-4.1164 3.0218-5.9322 4.7024-1.5161 1.4033-3.2393 2.8825-4.1446 4.4924 1.3713-1.47 2.8506-2.4122 4.3011-3.525 0.70845-0.54351 1.393-1.2646 2.1227-1.7038 1.1252-0.67722 2.2797-1.2109 3.4765-1.5401 0.78563-0.39359 1.2742-0.87015 1.3676-1.4558 0.0952-1.195 0.62517-1.7758 1.179-1.9822 0.58965-0.21985 1.4116-0.10613 2.2826 0.79155 0.5802 0.48884 1.3967 0.19174 2.1883 0.2249 0.57763 0.0242 1.1213 0.0687 1.7143 0.19402 1.2789-0.3234 3.1437-0.36998 3.837-0.97014-0.72774 0.0923-1.4042-0.0192-2.0698-0.25686-0.39931-0.14258-0.85313-0.20276-1.2375-0.44869-0.35402-0.73583-0.30716-1.2319-0.87919-1.3516-0.50469-0.10562-1.2532 0.55145-2.2523 0.55783-1.2449-0.20791-2.2409-0.65569-2.6899-1.6316 0.008-0.32759 0.0585-0.75991-0.0766-0.98557-0.22651-0.37854-0.36405-0.62304-0.62618-0.67524-0.0316-0.006-0.0627-0.009-0.0932-0.009zm0.0772 5.2206c-0.80647 0.35422-0.66254 1.6474-1.2237 2.2032-0.97298 0.96371-2.0062 1.5051-3.0411 2.3851-0.49852 0.42381-1.0762 0.8852-1.5577 1.4078-0.44646 0.48472-0.7977 1.0288-1.2397 1.4866-0.48112 0.49823-0.99568 0.82771-1.4458 1.3009-1.4719 1.5471-3.1804 2.8088-4.445 4.4687-1.6272 2.1358-3.0422 4.3871-4.1402 6.8103 0.0803 0.16049 0.16063 0.32126 0.24088 0.48176 1.5852-2.0635 3.2314-4.0929 4.9185-6.0981 1.3361-1.5881 2.9166-3.0382 4.4577-4.5161 0.71512-0.6858 1.4529-1.3673 2.0979-2.0897 0.70943-0.79454 1.5026-1.5373 2.1734-2.3162 0.76634-0.89003 1.4053-1.8183 2.1376-2.7671 0.16148-0.20915 0.47665-0.50949 0.64217-0.71658 0.14092-0.17624 0.3032-0.34133 0.39522-0.54074 0.16412-0.35582 0.238-0.75579 0.51153-1.0583-0.1302-0.20791-0.26057-0.35519-0.48176-0.44152zm1.3163 0.72099c-0.0873 0.005-0.17784 0.0175-0.27285 0.0413v0.00055c-0.39293 0.46112-0.66347 0.94285-1.0286 1.4084-1.5292 1.9498-2.9856 3.9076-4.714 5.8015-1.2846 1.4077-3.1702 2.6811-4.3932 4.1165-1.0614 1.2456-2.2358 2.3796-3.2252 3.6579-1.3559 1.7516-2.5186 3.6518-3.9732 5.3589l0.72209 0.72209c2.507-2.8342 5.1607-5.5072 7.8284-8.1701 1.3974-1.3949 2.8624-2.7234 4.1755-4.208 1.9175-2.1678 3.2926-4.9147 5.2101-7.0826 0.006-1.0378 0.64023-1.1091 1.3643-1.0429 0.30901 1.1345-1.097 1.2182-1.6101 1.8565-1.2472 1.5515-2.0609 3.1412-3.1463 4.7245-0.88003 1.284-2.0232 2.5639-3.0537 3.8161-0.60269 0.73223-1.4695 1.342-2.1905 2.05-1.1624 1.1414-2.226 2.3702-3.2886 3.5217-0.69262 0.75061-1.5238 1.4091-2.2523 2.1486-0.77526 0.78706-1.4508 1.6548-2.2743 2.4264 0.0401 0.21397 0.0806 0.42813 0.12072 0.64217 2.5813-1.9493 5.0197-4.0142 7.416-6.1179 2.0633-1.8114 4.1226-3.6311 5.903-5.6786 1.6922-1.9462 2.9788-4.3136 4.2967-6.5727 0.4213-0.72203 1.0066-1.2563 1.4436-1.9342 0.12406-0.34765 0.11056-0.69561-0.0402-1.0435-0.48091 0.0265-0.93424 0.0116-1.3681-0.0325-0.59212-0.0603-1.0378-0.44291-1.6492-0.4101zm3.4186 2.2484c-1.0231 0.65609-1.5509 1.751-2.2633 2.987-0.96316 1.6709-1.9124 3.6002-3.1039 5.0552-0.74977 0.91559-1.8403 1.6466-2.6491 2.5317-2.2223 2.4317-4.8538 4.5982-7.4717 6.8803 3.2843-1.4086 5.9956-3.0846 8.298-4.9913 1.4116-1.169 2.7813-2.3025 3.8453-3.6678 1.5007-1.9257 2.3978-4.2595 2.8961-6.8108 0.13311-0.68188 0.40018-1.2496 0.44868-1.9844zm-10.196 1.7281c-0.0754-0.001-0.21329 0.0562-0.43657 0.19788-4.4253 3.1316-8.9272 6.1992-10.111 12.037 1.607-3.0391 3.7155-5.4392 5.9636-7.5665 1.261-1.1933 2.5303-2.3009 3.8668-3.3872 0.19359-0.16312 1.0442-1.2756 0.71769-1.2816zm-13.399 19.419c-0.71647 0.74655-1.2664 1.5214-1.5197 2.3454 0.69668-0.67622 1.3061-1.3701 1.8096-2.0847 0.0532-0.19413-0.0732-0.25993-0.28993-0.26072zm1.1438 0.43436c-1.2835 1.041-2.3791 2.1919-3.1993 3.503 1.0279-0.53819 2.0391-1.218 2.9143-2.2087 0.18563-0.21008 0.45709-0.29716 0.66146-0.4983 0.01-0.38115-0.11608-0.64625-0.37648-0.79595zm0.88745 1.4332c-0.0704 0-0.14503 0.022-0.22434 0.0667-1.7067 1.4888-3.5647 2.8648-5.2713 4.3535-0.50094 0.43693-0.89296 0.86625-1.3736 1.3185-1.0576 0.99501-2.183 2.0289-3.2852 2.9903-1.1714 1.0014-2.0659 2.0056-2.3912 2.728-0.33951 0.75398-0.34602 1.0136 0.3142 0.62507 0.0853-0.0502 0.18323-0.11105 0.29324-0.18355 0.66802-0.65121 1.4138-1.2086 2.0852-1.8598 0.84286-0.8174 1.5676-1.7191 2.4033-2.5488 1.9071-1.8935 3.916-3.7298 5.8296-5.5954 0.6249-0.60915 1.1929-1.2186 1.8179-1.8278-0.0615-0.0447-0.12746-0.0667-0.19789-0.0667zm0.74084 0.15931c-0.0798-0.002-0.16342 0.0322-0.23758 0.11906-1.5942 1.6952-3.2282 3.3702-4.8915 5.0309-2.2297 2.2264-4.512 4.4264-6.8224 6.6124-0.22749 0.11695-0.43261 0.19623-0.57106 0.30648-1.3981 1.1138 0.51076 0.8576 3.1766-0.5176 1.7764-1.7463 3.4783-3.5836 5.1202-5.494 0.65061-0.75698 1.3108-1.299 1.9436-2.0781 0.86718-1.0674 1.8697-2.3245 2.5372-3.4848 0.18859-0.16481-0.0159-0.48914-0.25521-0.49444zm0.84942 0.7943c-0.0612-0.007-0.15548 0.0557-0.26514 0.21663-0.64066 0.77693-1.1684 1.6109-1.8091 2.3879-1.2666 1.5359-2.6466 3.0151-3.9131 4.5508-0.53835 0.65281-0.96364 1.4054-1.5021 2.0582-0.64514 0.78235-1.4038 1.4655-2.0489 2.2479-1.0934 1.9334-0.83894 2.4738 1.0616 0.86375 0.30014-0.25432 0.54453-0.64508 0.93376-1.0049 1.739-2.0247 3.299-4.1726 4.7664-6.3544 0.59655-0.88701 1.2249-1.7445 1.7705-2.6563 0.35769-0.59791 0.60892-1.2284 0.95195-1.8344 0.16561-0.26053 0.15598-0.46403 0.054-0.47514zm0.73642 0.62673c-0.095 0.007-0.21618 0.10357-0.34451 0.3412-1.6405 2.4395-3.2809 4.879-4.9212 7.3185-0.41132 0.61169-0.68168 1.2376-1.0931 1.8493-0.66328 0.98639-1.4682 1.9588-2.1316 2.9452-0.99869 1.5561-0.0389 1.2571 0.77501 0.32852 3.1421-3.7893 5.8041-7.8696 7.8873-12.301 0.0725-0.25389-0.0136-0.49285-0.17198-0.48176zm0.63721 1.1598c-0.12265 0.00012-0.24999 0.0713-0.34782 0.23757-1.9277 3.8222-4.2879 7.4849-6.8781 11.057-0.13634 0.16434-0.25171 0.30979-0.34672 0.43766-1.0277 1.3832 0.40637 1.3484 1.9193-0.36711 0.41318-0.45929 0.68308-1.004 1.0545-1.4811 2.198-2.8237 3.8156-5.8664 4.9786-9.1061 0.13735-0.4339-0.10996-0.77805-0.37979-0.77776zm1.2964 1.1228c-0.14616 0.0161-0.30964 0.13967-0.44703 0.40625-1.5844 3.5725-3.3828 6.9308-5.4934 9.9764-1.0974 1.6735-0.26996 2.1865 1.0098 0.0943 2.1215-2.8678 3.7151-6.0993 5.188-9.4136 0.30283-0.61592 0.0642-1.0988-0.25742-1.0633z" fill="#c99e4a"/>
<path id="path4741" d="m139.39 131.23c-0.67108 0.21405-1.3008 0.26451-1.8708 0.0755 0.52525 0.96623 1.2799 1.8503 1.6592 2.7847 0.24171 0.59563 0.17073 1.2649-0.0529 1.9403 0.3402 0.252 0.37814 0.55448 0.11355 0.9073 0.93869 0.81269 1.4237 1.8268 1.4552 3.0427 0.48511 0.15735 0.71819 0.44127 0.39688 1.0021 0.26526 0.13015 0.44327 0.44332 0.68846 0.59752 0.21646 0.13605 0.50218 0.11099 0.70776 0.26183 0.24681 0.18103 0.39377 0.42843 0.6328 0.62508 0.30742 0.25299 0.70622 0.45933 1.0159 0.72595 0.13216 0.11385 0.44255 0.0459 0.5672 0.19127 0.12472 0.14544 0.0834 0.47853 0.24804 0.55893 0.12354 0.0605 0.24859-0.01 0.39964 0.006 0.25183 0.0252 0.35316 0.26931 0.76784 0.20891 0.13229-0.47249 0.26458-0.94467 0.39687-1.4172-1.0412-1.1293-2.2949-2.184-3.3508-3.186-1.6067-1.5248-2.3011-3.0935-2.7644-4.6522-0.0806-0.27091-0.0929-0.64117-0.19623-0.91612-0.10327-0.27488-0.29794-0.45501-0.36491-0.72375-0.17221-0.69096-0.21349-1.3576-0.44924-2.0323zm9.7113 14.057c-0.18728 0.50781-0.44847 0.97846-0.81746 1.3957 0.53023 0.36846 0.83695 0.94575 1.3598 1.3262 0.26146 0.19026 0.5599 0.29742 0.87423 0.44098 0.31432 0.14353 0.64439 0.32353 0.90013 0.5231 0.70028 0.54647 1.3885 1.1143 2.0588 1.711 0.6015-0.53916 1.0893-1.1241 1.464-1.754-0.71903-0.61446-1.285-1.7395-2.1062-2.2517-0.13829-0.0863-0.37111-0.21557-0.57326-0.21332-0.5166 0.006-1.1166 0.30507-1.5258 0.19513-0.73184-0.19679-1.0014-0.97822-1.6344-1.3731zm8.7015 6.0044c-0.34036 0.78864-0.86461 1.5162-1.7159 2.1343 1.1168 0.73171 0.58064 2.0938 1.2772 2.6585 0.50834 0.41222 1.2609 0.29246 2.109 0.54295 0.55367 0.19065 0.66329 0.79075 1.1068 1.1581 0.94131 0.77962 2.1048 1.505 2.9788 2.3305 0.38999 0.36841 0.6097 0.80459 0.94313 1.2121 0.33346 0.40756 0.7807 0.78689 1.1708 1.1554 0.39886 0.96631-0.50221 1.2311-1.9938 1.1768-1.1549-0.11864-0.78227 0.26033-0.19127 0.71107 1.2321 0.65582 2.3651 0.008 3.4412 0.30923 0.38933 0.10898 0.6794 0.67143 0.95525 0.92218 0.34277 0.15928 0.43954 0.64341 0.68682 0.89352 0.26334 0.26633 0.67115 0.30399 0.82572 0.62784 0.31927 0.66884 0.41817 1.4133 0.66917 2.0896 0.13637 0.36734 0.22414 0.64541 0.61406 0.9514 0.39751 0.31191 0.77726 0.008 1.2777 0.21442 0.51614 0.21255 1.0551 0.64034 1.5952 0.97731 0.61222 0.3819 1.2189 0.68419 1.6503 1.0876 0.74581 0.23638 1.1841-0.0803 1.1741-1.2044 0.0382-0.52596 0.21999-1.2761 0.41507-1.8251 0.10215-0.28747 0.29005-0.40673 0.28608-0.65319-0.005-0.28048-0.61555-0.39215-0.64658-0.64107-0.34375-0.25439-0.20529-0.82102-0.54901-1.0754-0.40614-0.30067-1.091-0.41478-1.6371-0.62508-0.34994-0.1347-0.58469-0.35074-0.84501-0.54349-0.29895-0.12645-0.61455-0.35164-0.92604-0.64768-0.4236-0.40275-0.72637-0.9657-1.0804-1.5644-0.36515-0.61762-0.77831-1.2754-0.9536-1.9541-0.17002-0.65836-0.22145-1.416-0.0987-2.3195 0.57727-1.2172-0.14735-1.2791-0.47294-0.9514-0.22048 0.22201-0.51795 0.73965-0.89242 1.5533-0.0907 0.26834-0.0679 0.74935-1.0517-0.11631-0.9588 0.0472-3.0621-1.784-3.3448-3.277-0.0832-0.44085-0.2265-0.70731-0.4101-0.85714-0.40364-0.32957-0.28721 0.75263-1.5836 0.091-1.0341-1.8391-2.3397-3.2549-4.3965-3.5024-0.55673-0.27512-0.51467-0.65026-0.38695-1.0396zm19.76 17.97c-0.0236 0.006-0.0459 0.0197-0.064 0.0402-0.30541 0.34552-0.33652 0.8617-0.44814 1.3091-0.0681 0.27353-0.0566 0.56097-0.0882 0.84116-0.0529 0.46884-0.21322 0.93665-0.16592 1.4062 0.0293 0.29046 0.26407 0.52089 0.38641 0.78603 0.098 0.21238 0.13358 0.45921 0.2745 0.64603 0.0977 0.1295 0.38706 0.42232 0.41066 0.26182 0.0748-0.50945-0.0755-1.0588-0.11631-1.5754-0.028-0.35338 0.0602-0.67431 0.0502-1.0264-0.0128-0.46244-0.1247-0.97111-0.13891-1.4337-0.007-0.24217 0.10016-0.44009 0.0728-0.68075-0.01-0.0845 0.0455-0.31402 0.0132-0.43326-0.0311-0.11512-0.11547-0.16024-0.1863-0.14111z" fill="#803300"/>
<path id="path4773" d="m133.16 123.04c0.23138 1.4605 0.21244 2.7935 0.34616 3.8596 0.18625 1.4851 0.92892 2.4209 2.0086 2.5218-0.49455-0.79928-0.74931-1.6963-0.95415-2.5852-0.33015-1.433-0.27743-3.0604-1.4006-3.7962zm4.9824 0.17087c-0.12256 0.9849-0.10252 1.9358 0.022 2.8619 0.17079 1.2688 0.63533 2.4909 1.0016 3.6898-0.0604-1.5522 0.3319-2.9868 0.0987-4.2058-0.17574-0.91845-0.52934-1.7142-1.1223-2.346zm48.205 0.33625c-0.14714-0.0224-0.47979 0.2013-1.0396 0.80918-0.33059 0.38984-0.74087 0.7544-1.0236 1.2055-0.37704 0.60158-0.60954 1.3121-0.91667 2.0031-0.35264 0.79342-0.47814 1.697-0.76344 2.5769-0.26805 0.82664-0.95587 1.565-1.2331 2.4248-0.28596 0.88694-0.48849 1.8848-0.38364 2.8184 0.35795-0.75628 0.97336-1.3604 1.3312-2.1167 0.4531-0.95737 0.92103-1.9112 1.1658-2.9677 0.16216-0.69985 0.0823-1.5106 0.35499-2.1608 0.38235-0.91192 0.86369-1.8511 1.4398-2.6734 0.31498-0.44961 0.76483-0.76614 0.99494-1.2524 0.18191-0.37606 0.22046-0.64455 0.0733-0.66697zm-44.588 3.2808c-0.26993 0.16664-0.47596 0.52341-0.57436 1.2518-0.0673 0.49861 0.008 1.2923-0.21884 1.8372-0.29197 0.70202-0.61503 1.3967-0.33293 2.5416 0.32962-1.2465 1.0977-2.113 1.2711-3.2362 0.11859-0.76854 0.0905-1.563-0.14497-2.3945zm37.437 1.8488c-0.83169 3.156-1.0863 6.2399-0.88139 9.2665 0.24411-1.8478 1.0181-3.5111 1.1531-5.2211 0.0524-0.66479 0.24034-1.3245 0.20174-1.9783-0.0411-0.69585-0.4936-1.0614-0.47349-2.067zm-48.369 2.8768c-0.24134 0.0167-0.14596 0.23865 0.28553 0.66587 1.1922 0.69315 2.4038 1.9924 3.5961 2.6855 0.76417 0.44429 1.275 0.69321 2.2732 0.72705-0.40312-0.27982-0.87463-0.59918-1.135-0.96738-0.33473-0.47347-0.44812-1.0024-0.96628-1.362-0.41101-0.28531-1.0491-0.44445-1.5903-0.64934-0.79097-0.29962-1.5091-0.6308-2.11-1.0479-0.15521-0.04-0.27288-0.0574-0.35333-0.0518zm57.238 4.1159c-1.8979 0.59063-3.7741 0.5043-5.1054 1.4321-0.97124 0.67694-1.941 1.4806-2.1145 3.0025 0.93239-0.71708 1.8678-1.3379 2.9683-1.8692 1.002-0.48382 2.1872-0.74024 2.965-1.2942 0.54404-0.38761 0.99207-0.8052 1.2865-1.2711zm-53.096 0.71328c-0.59672 0.0332-1.2235 0.17687-1.7981 0.23978-0.4467 0.049-0.84668 0.0109-1.2755 0.0838-0.76237 0.12967-1.5714 0.35991-2.1817 0.52972 0.2811 0.50818 1.0298 0.42959 1.5638 0.65595 0.21945 0.0931 0.5865 0.0691 0.82021 0.10087 0.30075 0.0409 0.47009 0.12292 0.76288 0.12292 0.56311 0 1.2042-0.87974 1.7672-0.87974 0.87458-0.48953 0.81917-0.72848 0.3412-0.85328zm2.4573 0.3412c-1.4142 1.084-1.7506 2.6977-0.51208 5.085 0.40216-0.99232-0.15406-2.2962 0.038-3.4611 0.0885-0.53684 0.23695-1.0777 0.47405-1.6239zm50.724 3.3227c-1.1867 0.13943-2.2686 0.6651-3.3768 1.0468-1.041 0.35859-2.1153 0.71492-3.0206 1.2342-1.1217 0.6432-2.2642 1.3323-2.9187 2.459 1.1203-0.84728 2.3296-1.5916 3.6022-2.2611 0.84397-0.44399 1.8654-0.53605 2.7583-0.92329 1.0118-0.43881 1.9011-1.1664 2.9556-1.5555zm-11.886 5.0023c-0.3014-0.003-0.34994 0.38559-0.57877 0.51153-0.15713 0.0864-0.31025 0.17766-0.43987 0.2927-0.13528 0.12022-0.12953 0.39437-0.24915 0.5253-0.19261 0.21072-0.65319-0.0166-0.82186 0.21112-0.28117 0.37957-0.26259 1.2206-0.58374 1.5721-0.33276 0.10418-0.51599-0.057-0.61791-0.36325-0.11549-0.34695-0.12619-0.88063-0.13119-1.4249-0.0998 0.23336-0.21868 0.31348-0.35719 0.23868-0.13734 0.58364-0.0442 1.2559-0.13174 1.5781-0.0772 0.28432-0.19339 0.38652-0.36215 0.24364-0.21111-0.30901-0.40014-0.56629-0.56665-0.7717-0.32676-0.40296-0.75604-0.6505-1.0054-0.6769-0.24928-0.0264-0.49245 0.28366 0.0739 0.64823 0.78954 0.54113 1.2525 1.3977 1.4265 2.5323 0.1927 1.2554-1.33 2.6298-0.42994 4.7377 0.0847-1.8082 0.49615-3.391 1.1471-4.8077 0.0918-0.19995 0.16609-0.50098 0.2756-0.68571 0.22341-0.37687 0.53831-0.60399 0.81911-0.92163 0.56018-0.63375 1.1489-1.3022 1.749-1.9601 0.21016-0.23041 0.52632-0.51192 0.6802-0.80643 0.11972-0.22899 0.0714-0.47728 0.25026-0.64603-0.0546-0.0183-0.10302-0.0266-0.14608-0.027zm3.589 1.5825c-1.1896 0.1737-1.9601 0.94527-2.8178 1.641-0.83137 0.67447-1.8115 1.3206-2.2567 2.4557 1.0234-0.51839 1.9886-0.84962 2.7897-1.4811 0.90781-0.71551 1.4041-1.7967 2.2848-2.6155zm-10.548 5.7613c-0.0583-0.006-0.13857 0.0527-0.2497 0.21111-0.0687 0.10645-0.22014 0.13108-0.28883 0.23757-0.10044 0.1555-0.11848 0.39307-0.21884 0.54846-0.0698 0.10824-0.36601 0.0526-0.43601 0.16096-0.0794 0.12276 0.0672 0.41025-0.0121 0.53302 0.10903 0.61148 0.41474 1.1933 1.2639 1.695 0.66038-0.61296 0.1902-1.781 0.1108-2.5995-0.0174-0.17982 0.006-0.77-0.16923-0.78658zm-1.7727 2.4998c-0.13719 0.0745-0.38225 0.12359-0.62728 0.11079-0.24503-0.0126-0.49017-0.0876-0.62728-0.0132-0.14372 0.078-0.21592 0.34133 0 0.58374h0.00055c0.14446 0.46448 0.42246 0.73439 0.80698 0.84832 0.26101 0.0772 0.53019 0.0111 0.88139-0.043 0.27324-0.0421 0.61218-0.0484 0.931-0.15709-0.61296-0.42891-1.054-0.87356-1.3654-1.3295z" fill="#009035"/>
<path id="path4789" d="m173.56 141.29c-0.1372 0.0138-0.0817 0.25439 0.009 0.53633 0.40606 0.65085 0.58622 1.2827 0.59752 1.9 0.015 0.81975-0.26715 1.6144-0.71107 2.395-0.20783 0.78293-0.009 0.80962 0.39688 0.45365 0.18191-0.14256 0.0573-0.60267 0.23922-0.74524 0.23376-0.18338 0.70862 0.0822 1.0082-0.23262 1.2501-1.2093 1.5841-2.4858 0.43987-3.8701-0.11507-0.0887-0.26529-0.006-0.39798-0.0358-0.10306-0.0231-0.18286-0.17966-0.31089-0.12017-0.33027-0.069-0.4327 0.39778-0.58539 0.39578-0.22291-0.002-0.3663-0.25565-0.4779-0.60799-0.0944-0.0527-0.16152-0.0735-0.20726-0.0689zm-2.954 0.45144c-0.30501 0.15771-0.48034 0.44514-0.46743 0.92163 0.18487 0.0467 0.34046 0.12199 0.46743 0.22655 0.1479-0.20047 0.33231-0.35578 0.59586-0.4112-0.0974-0.34717-0.26743-0.62186-0.59586-0.73698zm2.1409 0.21277c-0.99142 0.12991-1.4639 1.3369-1.5693 1.9667-0.1233 0.73643-0.0323 1.7796 1.1438 2.1156 0.78126-0.57224 1.2378-1.2139 1.2893-1.9419 0.0454-0.6423-0.12498-1.848-0.86375-2.1404zm-3.5972 0.71217c-0.24967 0.00076-0.46682 0.19744-0.62728 0.73367-0.22934 0.3954-0.66978 0.62903-0.72595 0.9558-0.0821 0.47754 0.31837 1.0096 0.60578 1.3406 0.48419 0.5574 1.4929 0.90722 3.0262 1.049-0.22876-0.78653-0.69056-1.2716-0.90895-1.9326-0.15946-0.48247-0.26486-0.97574-0.296-1.4839-0.37792-0.34092-0.75277-0.66354-1.0738-0.66256zm-2.2049 7.7495c-0.16227 0.0101-0.32413 0.16641-0.44318 0.55066-0.52467-0.042-0.2211 1.0037-0.0364 1.4293 0.13483 0.31057 0.37449 0.59459 0.71934 0.85108 0.2721-0.41445 0.84835-0.38389 1.0622-0.69343 0.1887-0.27313 0.20353-0.64362-0.12678-1.2072-0.21074-0.0279-0.53657-0.17583-0.63555-0.41838-0.12109-0.29642-0.33101-0.52505-0.53964-0.51207zm-1.4668 0.62618c-0.73005 0.21804-0.79802 1.8461-0.49885 2.4292 0.10975 0.21381 0.38569 0.30781 0.62728 0.45751 0.37687 0.23347 0.33508 0.7298 1.5274 0.54681 0.0518-0.94297-0.56082-0.92672-0.80532-1.3973-0.34612-0.66602-0.63812-1.3433-0.85052-2.0362z" fill="#ff8080"/>
</g>
</g>
</g>
</svg>
