<?xml version="1.0" encoding="UTF-8" standalone="no"?>
<svg id="svg2" xmlns:rdf="http://www.w3.org/1999/02/22-rdf-syntax-ns#" xmlns="http://www.w3.org/2000/svg" height="2421pt" width="2726.7pt" version="1.1" xmlns:cc="http://creativecommons.org/ns#" xmlns:dc="http://purl.org/dc/elements/1.1/" viewBox="0 0 2726.6704 2421.0298">
<g id="g4539" transform="translate(-4052.3 -14.141)">
<path id="rect4427" d="m4999.9 14.141c26.82 39.81 41.27 86.209 56.82 131.19 18.36 59.22 35.98 118.9 47.03 179.97 7.1704 75.15 5.4608 150.93 15.07 225.92 5.34 45.48 13.159 91.56 32.619 133.37 25.46 49.21 67.92 86.209 105.72 125.36-51.92 5.62-101.6 28.26-141.5 61.68-63.44 53.22-124.99 113.41-160.68 189.3-20.57 42.84-26.11 96.73 1.12 138 29.26 44.9 79.199 69.83 127.91 88.15 10.67 43.38 28.04 84.46 44.14 125.97-72.15-0.75-144.45-2.8506-216.53-7.6906-10.683-0.6412-21.426-0.964-32.182-0.9297-46.609 0.1489-93.473 7.0297-136.96 24.011-83.479 31.42-143.91 101.14-193.58 172.43-107.48 135.11-228.24 258.89-350.12 380.88-44.641 44.89-93.661 87.81-146.45 121.28 89.73-27.22 186.6-14.269 274.72 12.991 49.56 13.54 101.96 12.289 152.35 4.3594 34.25-6.03 68.53-15.48 98.57-33.43 25.87-15.64 42.639-41.43 63.259-62.73 15.5-15.88 39.39-11.77 59.241-15.78 60.51-10.78 117.65-46.16 149.58-99.4 16.26-25.94 43.96-43.291 73.73-49.281 45.289-9.11 91.89-3.1697 137.65-3.1297 73.31 1.99 144.03 24.64 216.96 30.1 18.24 0.31 38.99 0.3906 53.85-12.009 54.46 25.61 111.28 45.98 168.78 63.5-0.5696 1.54-2.2216 1.9097-3.64 2.2797-92.121 24.31-186.89 37.61-281.77 45.12-72.16 3.88-145.68 6.0591-216.5-10.761 58.69 21.65 119.02 39.461 180.47 51.611 31.479 5.56 64.02 9.85 95.64 2.7 78.03-11.76 159.92-31.8 237.4-6.7703 28.17 11.45 56.81 22 86.259 29.58-16.879 28.22-20.789 61.83-31.159 92.68-14.12 42.46-28.881 87.981-63.39 118.63-67.57 43.11-116.11 109.03-164.13 171.88 28.42-21.77 61.43-41.201 98.3-41.761 49.3-1.27 101.43-0.8494 145.53-26.409 65.62-43.43 140.78-69.1 208.95-108 9.3488 11.51 23.819 17.56 37.879 21.18 43.07 10.98 87.991 20.581 132.51 13.161 28.11-3.72 55.249-20.251 67.718-46.281 19.25-36.46 33.45-75.629 44.95-115.12 48.22 1.13 94.03-15.91 140.42-26.5 30.85-7.13 65.42-8.0212 93.45 8.6688 37.92 26.62 82.59 40.761 126.24 54.791 73.04 21.82 147.58 38.78 222.99 50 38.77 4.89 80.261 10.989 117.79 4.1094-47.1-7.25-96.43-24.48-135.73-54.18-49.67-32.94-96.211-72.999-153.26-92.809-64.76-13.92-133.26-21.851-191.32-56.191 75.42-14.2 153.13-26.71 229.77-15.22 24.38 4.08 49.502 12.49 66.531 31.32 45.91-3.58 81.669-38.39 112.87-69.17 36.47-38.8 68.851-87.54 68.341-142.75 0.6-48-25.35-91.75-57.97-125.13-30.51-30.3-65.959-55.91-104.34-75.2-3.4896-2.22-9.72-1.7697-13.6-4.5797 2.3104-5.39 5.4992-10.43 7.3896-15.97 6.62-11.33 11.999-23.4 17.379-35.37 5.1704-9.94 9.9904-20.24 14.1-30.65 4.84-8.98 9.1912-18.61 12.711-28.3 18.61-14.26 36.939-28.929 54.11-44.919 43.7-38.95 76.001-94.521 73.961-154.53 2.7896-16.5 0.3792-35.76-6.8704-51.4-29.78-72.4-86.921-132.15-155.96-168.51-5.64-101.26-59.95-201.16-148.78-252.68-64.11-37.54-139.41-52.071-213.06-51.811-20.2-0.52-37.97 11.32-57.2 14.95-71.56-7.99-134.8-47.759-189.02-92.859-22.561-20.53-50.871-33.12-79.591-42.42-52.536-16.161-107.59-22.828-162.49-22.711-12.67 0.0269-25.334 0.415-37.956 1.1312-24-106.92-64.4-211.78-128.88-301.07-66.45-92.11-174.12-147.96-284.34-167.66-49.2-9.26-100.88-6.5706-148.12-24.891-23.54-9.17-41.35-27.739-60.4-43.589-35.45-30.16-69.91-61.57-105.3-91.7z" fill="#608f64"/>
<path id="path4" fill="#608f64" d="m4999.9 14.141c26.82 39.81 41.27 86.209 56.82 131.19 18.36 59.22 35.98 118.9 47.03 179.97 7.17 75.15 5.4603 150.93 15.07 225.92 5.34 45.48 13.159 91.56 32.619 133.37 25.46 49.21 67.92 86.209 105.72 125.36 38.73-3.82 79.081 3.4797 113.01 22.93 9.81 4.25 17.9 11.42 26.9 17.05-4.27-7.81 2.2191-2.9 6.7891-2.4 4.62-28.07 16.15-54.24 31.03-78.28-52.2-2.11-105.41 4.9194-156.78 7.1094 53.96-10.01 109.26-10.76 163.77-16.3 7.84-8.15 14.81-17.119 23.17-24.819-18.14-21.44-31.18-46.891-48.57-68.731-73.07-35.31-157.28-47.039-233.36-67.639 78.29 0.88 153.98 25.089 229.71 42.109-36.41-86.07-89.681-164.04-137.89-243.9 41.4 34.73 67.741 83.35 97.011 128 38.79 63.93 76.8 128.58 111.23 194.87 9-6.65 18.38-12.761 27.87-18.691-37.31-54.47-70.54-112.48-101.05-171.23-46.55-74.03-108.06-136.93-160.09-206.91-57.92-82.55-152.57-136.2-194.85-230.15 72.41 89.34 161.35 163.55 244.63 242.37 31.22 33.7 58 71.129 84.37 108.64 52.8 79.59 104.42 160.83 142.01 248.91 17.16-8.88 35.019-16.32 53.259-22.7-17.94-32.93-48.52-56.271-69.33-87.161-15.25-21.68-26.251-45.92-37.041-70.02 29.15 34.3 54.6 72.37 88.63 102.35 7.15 7.61 24.321 12.821 27.661-1.4891 7.89-34.29-8.0606-67.69-15.241-100.6 4.46 0.01 5.7803 5.8094 7.9703 8.8594 20.87 42.55 34.12 88.881 39.17 135.99 34.7-8.13 70.139-13.72 105.79-15.07-24-106.92-64.4-211.78-128.88-301.07-66.45-92.11-174.12-147.96-284.34-167.66-49.2-9.26-100.88-6.5706-148.12-24.891-23.54-9.17-41.35-27.739-60.4-43.589-35.45-30.16-69.91-61.57-105.3-91.7zm431.22 441.77c20.37 10.84 30.999 32.82 39.939 53.05-14.56-16.54-27.059-35.11-39.939-53.05zm-551.68 948.52c-46.608 0.1489-93.473 7.0297-136.96 24.011-83.48 31.42-143.91 101.14-193.58 172.43-107.48 135.11-228.24 258.89-350.12 380.88-44.64 44.89-93.66 87.81-146.45 121.28 89.73-27.22 186.6-14.269 274.72 12.991 49.56 13.54 101.96 12.289 152.35 4.3594 34.25-6.03 68.53-15.48 98.57-33.43 25.87-15.64 42.639-41.43 63.259-62.73 15.5-15.88 39.391-11.77 59.241-15.78 60.51-10.78 117.65-46.16 149.58-99.4 16.26-25.94 43.96-43.291 73.73-49.281 45.29-9.11 91.89-3.1697 137.65-3.1297 73.31 1.99 144.03 24.64 216.96 30.1 18.24 0.31 38.99 0.3906 53.85-12.009-43.61-21.42-89.539-45.04-118.16-85.75-12.84-16.44-11.751-38.531-20.141-56.891-18.73-45.42-64.41-70.52-89.13-112-21.63-1.56-45.1-7.3494-65.83 0.9406-25.73 49.75-50.259 101.15-86.259 144.67-13.87 16.57-27.361 35.49-39.741 51.95 16.19-58.28 60.73-102.58 82.52-158.21 6.02-12.27 7.7097-34.819-9.5703-38.539-22.73-3.59-44.58 6.3494-65.1 14.909-30.59 14.36-60.21 30.93-88.27 49.72-28.3 45.98-58.739 91.48-98.309 128.7-41 42.25-54.12 102.93-66.27 157.73-1.95-14.58 2.31-29.19 5.8-43.2 15.97-53.22 39.489-104.22 68.359-151.65 14.25-24.81 35.781-44.69 48.911-70.18 2.52-4.7 5.7191-13.66-2.3109-15.18-13.94-2.7-28.75 0.7797-40.8 8.1797-36.64 20.96-66.09 52.36-102.88 73.12-39.01 21.29-78.36 41.999-118.05 62.019 51.95-46.88 116-77.909 170.46-121.62 9.68-7.51 20.609-13.181 31.669-18.331 74.11-33.91 151.4-60.109 227.84-88.159 42.52-16.34 89.42-12.79 134-11.97-3.28-7.45-5.99-15.17-9.95-22.27-45.9-0.93-90.891 10.03-134.69 22.62-119.29 36.31-235.06 84.54-345.38 142.6-89.95 54.64-156.67 138.1-233.2 208.81-40.57 39.5-91.339 75.819-150.39 75.519v-1.7891c42.42-13.36 77.889-41.73 112.67-68.45 88.89-71.24 165.22-156.19 248.71-233.29 29.87-22.47 65.56-35.41 99.43-50.58 104.88-42.8 212.04-80.169 321.06-110.96 23.97-5.12 47.92-14.221 72.82-12.431-3.73-16.68-4.2697-34.119-0.1797-50.789-82.32 24.26-165.04 48.69-243.81 83.07-60.98 34.4-128.28 55.659-196.03 72.039 33.07-23.1 69.621-41.63 101.54-66.52 14.69-12.96 32.24-32.149 25.45-53.359-6.75-19.12-29.549-20.14-46.359-18.78-6.21 0.2-19.48-4.8106-12.75-12.391 18.75-11.1 42.23-4.98 62.63-2.55 47.13 6.37 90.72 28.09 138.05 33.13 10.31 1 31.669 1.1406 30.209-14.409-3.64-20.53-20.579-34.77-32.409-50.78-2.55-4.96 2.3697-6.3709 5.8297-6.5109 24.12-0.31 47.29 7.3506 70.33 13.541 32.09 12.37 66.75 16.07 100.82 15.63 11.41-25.56 36.62-40.38 59.98-53.57 1.81-0.5 0.8497-2.2997 0.7297-3.5797-3.28-4.98-5.7891-10.35-7.9391-15.88-72.15-0.75-144.45-2.8506-216.53-7.6906-10.684-0.6412-21.427-0.964-32.183-0.9297zm795.7 589.7c-27.16 16.71-56.2 32.349-76.25 57.909-16.88 28.22-20.789 61.83-31.159 92.68-14.12 42.46-28.881 87.981-63.391 118.63-67.57 43.11-116.11 109.03-164.13 171.88 28.42-21.77 61.43-41.201 98.3-41.761 49.3-1.27 101.43-0.8494 145.53-26.409 65.62-43.43 140.78-69.1 208.95-108 49.27-27.7 98.861-59.119 131.94-106.06 4.8484-5.8723 7.0459-16.072 13.911-18.412-58.049-2.9121-111.26-31.862-156.7-66.438-58.46 24.14-59.849 98.389-103.36 137.66-51.71 39.03-109.66 70.26-156.37 115.63-31.76 20.12-70.631 25.691-101.51 47.491 22.71-25.56 59.111-35.78 80.611-63.4 47.34-39.94 106.53-65.97 147.23-113.78 34.28-48.78 67.939-98.9 112.56-139.05-27.22-21.57-55.299-42.48-86.159-58.57zm263.7 140.46c2.4247 0.1216 4.857 0.2019 7.2984 0.2312-2.9423-0.9329-5.3138-0.9077-7.2984-0.2312zm357.79-114.7c-24.24 4.88-48.581 9.7106-72.381 16.341-62.18 37.43-127.24 72.42-198.26 89.58 16.68 2.08 32.959 7.8906 50.059 6.1906 48.22 1.13 94.03-15.91 140.42-26.5 30.85-7.13 65.42-8.0212 93.45 8.6688 37.92 26.62 82.591 40.761 126.24 54.791 73.04 21.82 147.58 38.78 222.99 50 38.77 4.89 80.261 10.989 117.79 4.1094-47.1-7.25-96.43-24.48-135.73-54.18-49.67-32.94-96.211-72.999-153.26-92.809-64.76-13.92-133.26-21.851-191.32-56.191z"/>
<path id="path6" fill="#245328" d="m5055 92.97c42.28 93.95 136.93 147.6 194.85 230.15 52.03 69.98 113.54 132.88 160.09 206.91 30.51 58.75 63.74 116.76 101.05 171.23 4.97-2.86 9.9903-5.6088 15.02-8.3688-37.59-88.08-89.211-169.32-142.01-248.91-26.37-37.51-53.15-74.939-84.37-108.64-83.28-78.82-172.22-153.03-244.63-242.37zm219.88 304.11c48.21 79.86 101.48 157.83 137.89 243.9-75.73-17.02-151.42-41.229-229.71-42.109 76.08 20.6 160.29 32.329 233.36 67.639 17.39 21.84 30.43 47.291 48.57 68.731 5.96-5.2 12.09-10.181 18.13-15.291-34.43-66.29-72.44-130.94-111.23-194.87-29.27-44.65-55.611-93.27-97.011-128zm156.18 58.83c12.88 17.94 25.379 36.51 39.939 53.05-8.94-20.23-19.569-42.21-39.939-53.05zm41.839 57.1c10.79 24.1 21.791 48.34 37.041 70.02 20.81 30.89 51.39 54.231 69.33 87.161 13.85-4.31 27.64-8.8303 41.82-12.07-5.05-47.11-18.3-93.441-39.17-135.99-2.19-3.05-3.5103-8.8494-7.9703-8.8594 7.18 32.91 23.131 66.31 15.241 100.6-3.34 14.31-20.511 9.0991-27.661 1.4891-34.03-29.98-59.48-68.05-88.63-102.35zm-31.08 247.05c-54.51 5.54-109.81 6.29-163.77 16.3 51.37-2.19 104.58-9.2194 156.78-7.1094 2.46-2.94 5.3406-5.6606 6.9906-9.1906zm-535.39 696.85c-0.7519-0.01-1.504-0.01-2.2578 0-3.46 0.14-8.3797 1.5509-5.8297 6.5109 11.83 16.01 28.769 30.25 32.409 50.78 1.46 15.55-19.899 15.409-30.209 14.409-47.33-5.04-90.92-26.76-138.05-33.13-20.4-2.43-43.88-8.55-62.63 2.55-6.73 7.58 6.54 12.591 12.75 12.391 16.81-1.36 39.609-0.3403 46.359 18.78 6.79 21.21-10.76 40.399-25.45 53.359-31.92 24.89-68.471 43.42-101.54 66.52 67.75-16.38 135.05-37.639 196.03-72.039 78.77-34.38 161.49-58.81 243.81-83.07 1.16-2.64 2.32-5.2806 3.5-7.8906-34.07 0.44-68.73-3.2597-100.82-15.63-22.32-5.9966-44.762-13.372-68.072-13.545zm158.59 87.627c-22.412 0.1097-44.119 8.0193-65.842 12.659-109.02 30.79-216.18 68.159-321.06 110.96-33.87 15.17-69.56 28.11-99.43 50.58-83.49 77.1-159.82 162.05-248.71 233.29-34.78 26.72-70.249 55.09-112.67 68.45v1.7891c59.05 0.3 109.82-36.019 150.39-75.519 76.53-70.71 143.25-154.17 233.2-208.81 110.32-58.06 226.09-106.29 345.38-142.6 43.8-12.59 88.791-23.55 134.69-22.62-2.7-9.43-5.6703-18.74-8.9703-27.95-2.3344-0.1678-4.6597-0.2395-6.9781-0.2281zm-24.88 49.567c-28.361 0.1959-56.647 2.6391-83.222 12.852-76.44 28.05-153.73 54.249-227.84 88.159-11.06 5.15-21.989 10.821-31.669 18.331-54.46 43.71-118.51 74.739-170.46 121.62 39.69-20.02 79.04-40.729 118.05-62.019 36.79-20.76 66.24-52.16 102.88-73.12 12.05-7.4 26.86-10.88 40.8-8.1797 8.03 1.52 4.8309 10.48 2.3109 15.18-13.13 25.49-34.661 45.37-48.911 70.18-28.87 47.43-52.389 98.43-68.359 151.65-3.49 14.01-7.75 28.62-5.8 43.2 12.15-54.8 25.27-115.48 66.27-157.73 39.57-37.22 70.009-82.72 98.309-128.7 28.06-18.79 57.68-35.36 88.27-49.72 20.52-8.56 42.37-18.499 65.1-14.909 17.28 3.72 15.59 26.269 9.5703 38.539-21.79 55.63-66.33 99.931-82.52 158.21 12.38-16.46 25.871-35.38 39.741-51.95 36-43.52 60.529-94.92 86.259-144.67 20.73-8.29 44.2-2.5006 65.83-0.9406-4.99-8.17-9.0897-16.81-13.83-25.1-16.718-0.3075-33.761-0.9988-50.778-0.8813zm721.09 458.54c-44.62 40.15-78.279 90.27-112.56 139.05-40.7 47.81-99.89 73.84-147.23 113.78-21.5 27.62-57.901 37.84-80.611 63.4 30.88-21.8 69.751-27.371 101.51-47.491 46.71-45.37 104.66-76.6 156.37-115.63 43.51-39.27 44.899-113.52 103.36-137.66-6.98-5.13-13.711-10.56-20.841-15.45z"/>
<path id="path158" d="m6876.2 2422.8c-0.7125 1.925-2.7758 2.3871-4.5508 2.8496-115.15 30.388-233.61 47.013-352.21 56.4-90.2 4.85-182.1 7.5738-270.62-13.451 73.362 27.062 148.78 49.326 225.59 64.514 39.35 6.95 80.026 12.312 119.55 3.375 97.538-14.7 199.9-39.75 296.75-8.4629 35.212 14.312 71.012 27.5 107.82 36.975 25.062-31.95 61.362-51.499 95.312-72.387-68.138-35.212-146.09-43.475-217.64-69.812zm656.2 234.41c-32.638 7.7875-66.25 12.062-99.812 11.262-16.4-5.2-18.699 13.264-26.512 22.727-41.35 58.675-103.34 97.949-164.93 132.57 11.688 14.388 29.775 21.95 47.35 26.475 53.838 13.725 109.99 25.726 165.64 16.451 35.138-4.65 69.061-25.314 84.648-57.852 24.062-45.575 41.812-94.536 56.188-143.9-21.375 2.125-41.724-5.1383-62.574-7.7383z" transform="scale(.8)" fill="#10721c"/>
</g>
<g id="g4545" transform="translate(-52.3 -14.141)">
<g>
<path id="rect4536" d="m1764.9 641.92c-12.671 0.0269-25.334 0.415-37.956 1.1312-35.65 1.35-71.089 6.9403-105.79 15.07-14.18 3.24-27.97 7.7603-41.82 12.07-18.24 6.38-36.099 13.82-53.259 22.7-5.03 2.76-10.05 5.5088-15.02 8.3688-9.49 5.93-18.87 12.041-27.87 18.691-6.04 5.11-12.17 10.091-18.13 15.291-8.36 7.7-15.33 16.669-23.17 24.819-1.65 3.53-4.5306 6.2506-6.9906 9.1906-14.88 24.04-26.41 50.21-31.03 78.28-4.57-0.5-11.059-5.41-6.7891 2.4-9-5.63-17.09-12.8-26.9-17.05-33.93-19.45-74.281-26.75-113.01-22.93-51.92 5.62-101.6 28.26-141.5 61.68-63.44 53.22-124.99 113.41-160.68 189.3-20.57 42.84-26.11 96.73 1.1203 138 29.26 44.9 79.199 69.83 127.91 88.15 10.67 43.38 28.041 84.46 44.141 125.97 2.15 5.53 4.6591 10.9 7.9391 15.88 0.12 1.28 1.0803 3.0797-0.7297 3.5797-23.36 13.19-48.57 28.01-59.98 53.57-1.18 2.61-2.34 5.2506-3.5 7.8906-4.09 16.67-3.5503 34.109 0.1797 50.789 3.3 9.21 6.2703 18.52 8.9703 27.95 3.96 7.1 6.67 14.82 9.95 22.27 4.74 8.29 8.8397 16.93 13.83 25.1 24.72 41.48 70.4 66.58 89.13 112 8.39 18.36 7.3006 40.451 20.141 56.891 28.62 40.71 74.549 64.33 118.16 85.75 54.46 25.61 111.28 45.98 168.78 63.5 57.24 21.07 119.6 27.68 174.11 55.85 30.86 16.09 58.939 37 86.159 58.57 7.13 4.89 13.861 10.32 20.841 15.45 47.34 36.02 103.11 65.939 164 66.669 26.85 0.64 53.74-2.7794 79.85-9.0094 71.02-17.16 136.08-52.15 198.26-89.58 23.8-6.63 48.141-11.461 72.381-16.341 75.42-14.2 153.13-26.71 229.77-15.22 24.38 4.08 49.501 12.49 66.531 31.32 45.91-3.58 81.669-38.39 112.87-69.17 36.47-38.8 68.851-87.54 68.341-142.75 0.6-48-25.35-91.75-57.97-125.13-30.51-30.3-65.959-55.91-104.34-75.2-3.49-2.22-9.72-1.7697-13.6-4.5797 2.31-5.39 5.4991-10.43 7.3891-15.97 6.62-11.33 12-23.4 17.38-35.37 5.17-9.94 9.99-20.24 14.1-30.65 4.84-8.98 9.1909-18.61 12.711-28.3 18.61-14.26 36.939-28.929 54.109-44.919 43.7-38.95 76.001-94.521 73.961-154.53 2.79-16.5 0.3797-35.76-6.8703-51.4-29.78-72.4-86.921-132.15-155.96-168.51-5.64-101.26-59.95-201.16-148.78-252.68-64.11-37.54-139.41-52.071-213.06-51.811-20.2-0.52-37.97 11.32-57.2 14.95-71.56-7.99-134.8-47.759-189.02-92.859-22.56-20.53-50.871-33.12-79.591-42.42-52.536-16.161-107.59-22.828-162.49-22.711z" fill="#cf4f52"/>
<path id="path14" fill="#ed7c71" d="m1764.9 641.92c-12.671 0.0269-25.334 0.415-37.956 1.1312-35.65 1.35-71.089 6.9403-105.79 15.07-14.18 3.24-27.97 7.7603-41.82 12.07-18.24 6.38-36.099 13.82-53.259 22.7-5.03 2.76-10.05 5.5088-15.02 8.3688-9.49 5.93-18.87 12.041-27.87 18.691-6.04 5.11-12.17 10.091-18.13 15.291-8.36 7.7-15.33 16.669-23.17 24.819-1.65 3.53-4.5306 6.2506-6.9906 9.1906-14.88 24.04-26.41 50.21-31.03 78.28-4.57-0.5-11.059-5.41-6.7891 2.4-9-5.63-17.09-12.8-26.9-17.05 4.02 11.53 13.359 19.99 20.869 29.25-4.33 2.17-8.8191 3.931-13.489 5.161-4.94 2.36-9.6597 5.099-14.53 7.589-5.94 2.99-11.891 5.97-17.781 9.05-11 6.52-21.709 13.53-32.059 21.05-23.54 18.61-44.5 41.75-55.92 69.83 2.07 19.11-8.41 37.08-7.35 56.22-2.38 29.44 17.151 54.73 38.211 72.88 33.07 27.95 71.369 49.49 110.87 66.87-0.3-2.3-0.53-4.5997-0.7-6.8797-41.19-20.51-85.37-43.54-110.25-83.92-17.11-28.76-4.7494-62.559-1.1094-93.059 30.42-66.05 102.98-93.84 167.62-115.47 72.17-8.46 144.84-13.58 216.81-24.13 10.91-0.93 19.401-8.43 28.841-13.15 73.49-40.65 169.99-46.12 243.22-2.5297-4 4.25-18.691 1.4894-26.531 3.2594-8.18 0.67-16.38 1.2397-24.53 2.1297-7.59 1.18-15.18 2.4106-22.82 3.0906-74.56 12.52-147.6 46.049-196.54 105.09-8.43 15.21-19.54 29.15-25.58 45.77-5.58 11.85-9.5909 24.34-12.311 37.15-4.97 18.01-4.29 36.68-4.35 55.18-1.44 7.54 3.3603 12.251 9.6203 15.591 10.56 5.49 20.48 12.14 30.87 17.97 7.71 4.3 15.66 8.2094 22.98 13.209 28.54 14.05 56.02 30.25 84.77 43.92-29.35-36.66-54.431-78.089-64.511-124.46-8.93-36.57-6.5294-79.34 19.291-108.8 25.49-27.94 64.949-36.351 101.31-36.231 51.17 0.74 102.05 11.651 150.19 28.441-13.52 10.96-30.171 17.86-44.991 27.03-14.93 9.43-29.909 19.141-42.159 32.011-8.58 11.37-14.18 25.099-12.25 39.689 0.77 7.94 2.25 15.801 4.35 23.511 3.22-4.08 6.3806-8.2112 9.6906-12.231 16.57-19.36 33.329-38.84 53.619-54.45 19.48-24.96 49.281-38.289 77.761-50.239 40.77-17.01 85.619-25.47 129.69-19.23 42.96 3.18 85.371 28.95 100.18 70.8 15.72 42.51 13.27 89.539 4.8 133.34 18.36 34.87 30.719 75.05 23.859 114.67 0.2 1.01 0.4694 2.0206 0.8094 3.0406 32.81-19.06 62.201-49.48 68.281-88.27 2.82-19.39 1.5294-39.73-3.9906-58.48-30.55-42.2-55.64-87.951-80.28-133.76-21.18-39-53.06-71.479-91.35-93.789 16.85-3.28 37.949 2.95 56.439 0.7 41.57-16.68 89.4-14.74 129.27 5.75 71.9 33.08 133.46 92.819 161.32 167.67 20.43 54.43 18.531 115.58 0.4406 170.37 11.11 62.21-7.1112 125.3-36.681 179.98 22.54-13.65 47.191-27.249 61.531-50.109 32.31-68.92 46.259-144.71 56.459-219.65 0-0.63-0.01-1.8897-0.01-2.5297-0.62-1.68 0.5191-3.5697 2.1391-1.9797 35.26 47.17 63.32 102.09 69.67 161.37 6.42 60.45-17.01 122.17-59.58 165.11-45.2 47.97-105.08 79.92-167.46 99.58-71.64 17.47-145.62 22.2-219.02 25.98-58.94-0.1-119.16 3.34-176.81-11.3-38.64 8.11-76.759-3.5891-114.44-10.589-33-2.98-64.11 8.77-95.37 17.05-52.2 14.39-105.95 27.029-153.37 54.169 13.66 9.29 25.53 20.991 39.15 30.091 88.28-12.57 178.98-11.799 266.46 6.3406 101.57 23.77 207.38 23.96 310.54 11.5 90.39-13.85 183.79-37.25 256.64-95.5 25.36-21.88 52.24-41.911 79.18-61.781 18.61-14.26 36.939-28.929 54.109-44.919 43.7-38.95 76.001-94.521 73.961-154.53-1.11-17.28-3.3503-34.45-6.8703-51.4-29.78-72.4-86.921-132.15-155.96-168.51-5.64-101.26-59.95-201.16-148.78-252.68-64.11-37.54-139.41-52.071-213.06-51.811-20.2-0.52-37.97 11.32-57.2 14.95-71.56-7.99-134.8-47.759-189.02-92.859-22.56-20.53-50.871-33.12-79.591-42.42-52.536-16.161-107.59-22.828-162.49-22.711zm59.156 39.036c33.386-0.15 66.623 4.8703 98.088 16.945 61.8 22.67 112.52 68.861 149.56 122.39-0.95 4.6-6.7997 7.8987-9.5297 11.769-2.19 4.78-5.9703 8.78-9.1703 12.95-2.46 5.34-4.2309 10.99-7.0609 16.15-1.04 6.97-6.8897-4.2294-9.8797-5.2094-20.69-20.36-52.339-16.011-75.239-31.741-63.86-35.85-141.94-53.509-213.21-30.639-21.97 6.77-42.31 17.499-62.03 29.089-14.66 2.5-29.69 3.2313-44.52 4.4813-19.1 1.88-40.189 3.519-60.109 5.039-16.34 1.81-32.811 2.381-49.141 4.311-16.13 0.94-35.239 2.5194-52.609 3.7094 12.07-26.39 36.23-44.6 59.87-60.15 58-36.08 119.92-66.93 186-85.02 32.06-8.605 65.595-13.925 98.981-14.075zm-601 420c6.27 19.65 15.63 38.221 25.93 56.041 10.71 11.34 21.83 22.31 34.42 31.63 36.26 27.81 66.24 62.54 97.03 95.97 49 36.67 96.23 76.23 136.48 122.52 31.49 37.85 63.53 83.44 58 135.08 25.94 14.79 50.95 34.08 77.45 45.87-9.34-7.93-20.589-13.04-30.359-20.33 13.72-33.63 6.8791-71.641-8.0609-103.66-20.31-45.01-52.229-83.48-85.659-119.33-65.72-67.23-139.95-127.09-222.37-172.64-33.67-15.38-62.479-40.29-82.859-71.15z"/>
<path id="path16" d="m1725 695.03c64.12-17.21 134.14-21.28 197.07 2.87 61.8 22.67 112.52 68.86 149.56 122.39-0.95 4.6-6.8 7.9-9.53 11.77-34.91-46.16-81.8-84.2-136-105.2-94.66-36.52-199.9-13.02-288.08 30.2-35.42 18.16-72.76 36.06-99.61 66.32-2.17 4.1-8.61 7.86-6.67 13.11-16.13 0.94-35.24 2.52-52.61 3.71 12.07-26.39 36.23-44.6 59.87-60.15 58-36.08 119.92-66.93 186-85.02z" fill="#dc6961"/>
<path id="path18" d="m1638.1 757.06c88.18-43.22 193.42-66.72 288.08-30.2 54.2 21 101.09 59.04 136 105.2-2.19 4.78-5.97 8.78-9.17 12.95-58.42-69.04-147.34-113.68-238.86-109.02-63.57 1.47-124.89 23.78-180.27 53.84-19.24 11.77-40.04 23.25-52.92 42.35-16.34 1.81-32.81 2.38-49.14 4.31-1.94-5.25 4.5-9.01 6.67-13.11 26.85-30.26 64.19-48.16 99.61-66.32z" fill="#ce5752"/>
</g>
<path id="path20" fill="#bf4445" d="m1633.8 789.83c55.38-30.06 116.7-52.37 180.27-53.84 91.52-4.66 180.44 39.98 238.86 109.02-2.46 5.34-4.23 10.99-7.06 16.15-48.2-47.41-108.97-84.41-176.33-95.73-81.04-15.01-166.98 8.67-232.6 57.42-4.97 3.78-1.4 5.14 4.05 4.29-19.1 1.88-40.19 3.52-60.11 5.04 12.88-19.1 33.68-30.58 52.92-42.35z"/>
<g>
<path id="path24" fill="#b03338" d="m1819.8 760.96c-65.336 0.11622-130.53 23.045-182.82 61.892-4.97 3.78-1.4 5.1406 4.05 4.2906 14.83-1.25 29.86-1.9813 44.52-4.4813 19.72-11.59 40.06-22.319 62.03-29.089 71.27-22.87 149.35-5.2109 213.21 30.639 22.9 15.73 54.549 11.381 75.239 31.741 2.99 0.98 8.8397 12.179 9.8797 5.2094-48.2-47.41-108.97-84.41-176.33-95.73-16.461-3.0489-33.124-4.5015-49.778-4.4719zm-506.6 144.02c-43.97 2.03-88.501 21.961-116.84 56.341-19.83 25.98-38.31 58.339-30.98 92.359 10.91 53.77 43.08 99.98 73.55 144.43 37.56 50.48 77.62 99.471 121.95 144.09-1.38-3.35-2.5503-6.7803-3.8203-10.17-30.13-61.84-74.659-115.1-108.06-175.03-10.3-17.82-19.66-36.391-25.93-56.041-20.15-44.01-1.1506-96.04 34.209-126.15 11.42-28.08 32.38-51.22 55.92-69.83zm-132.39 635.26c-0.31 0.23-0.9088 0.6997-1.2188 0.9297 9.51 37 31.96 69.11 56.7 97.6 55.88 62.04 129.44 113.67 213.83 125.15 66.58 20.61 124.68 60.949 182.89 98.089-24.91-41.63-59.02-82.129-106.08-98.889-31.36-13.46-63.12-26.01-95.67-36.32-63.84-22.4-120.9-59.469-181.89-88.059-27.85-28.97-47.851-64.31-68.561-98.5z"/>
<path id="path26" d="m1700.2 834.17c73.49-40.65 169.99-46.12 243.22-2.53-4 4.25-18.69 1.49-26.53 3.26 5.82-1.67-3.77-4.11-5.67-5.23-72.18-29.19-154.06-7.4-219.6 28.9-18.67 13.41-42.25 15.02-64.17 18.86-52.38 8.1-105.22 13.19-157.56 21.4-59.59 19.01-128.23 43.08-155.33 104.71-5.07 29.73-13.23 63.09 4.57 90.37 18.83 28.85 49.02 47.94 79.13 63.4 0.01 1.65 0.02 4.94 0.03 6.59-41.19-20.51-85.37-43.54-110.25-83.92-17.11-28.76-4.75-62.56-1.11-93.06 30.42-66.05 102.98-93.84 167.62-115.47 72.17-8.46 144.84-13.58 216.81-24.13 10.91-0.93 19.4-8.43 28.84-13.15z" fill="#db625a"/>
<path id="path28" d="m1257.1 809.95c38.73-3.82 79.08 3.48 113.01 22.93 4.02 11.53 13.36 19.99 20.87 29.25-4.33 2.17-8.82 3.93-13.49 5.16-6-5.7-11.05-12.29-16.6-18.36-63.2-30.1-138.82-14.88-195.6 22.39-54.95 38.33-102.88 87.52-138.89 144.1-26.46 41.46-42.24 95.25-22.43 142.6 20.98 51.38 71.26 82.29 119.78 104.1 23.22 21.35 48.46 40.52 73.92 59.18 57.33 34.17 118.95 61.54 175.86 95.9-1.02 5.28-2.6 10.47-3.62 15.78-1 0.96-2.2 0.55-3.28 0.05-67.22-31.54-134.17-63.69-201.34-95.33-28.15-15.05-52.17-37.76-81.34-50.62-48.71-18.32-98.65-43.25-127.91-88.15-27.23-41.27-21.69-95.16-1.12-138 35.69-75.89 97.24-136.08 160.68-189.3 39.9-33.42 89.58-56.06 141.5-61.68z" fill="#f6978a"/>
<path id="path30" d="m1691.6 858.57c65.54-36.3 147.42-58.09 219.6-28.9 1.9 1.12 11.49 3.56 5.67 5.23-8.18 0.67-16.38 1.24-24.53 2.13-12.8-10.01-32.78-7.99-48.28-9.14-63.78 2.04-121.42 33.49-176.26 62.89-85.26 26.43-179.35 21.73-259.8 64.2-34.33 17.35-69.7 47.46-69.99 89.07-9.66 45.22 21.71 86.65 60.17 106.32 0.01 1.74 0.04 5.21 0.06 6.94-30.11-15.46-60.3-34.55-79.13-63.4-17.8-27.28-9.64-60.64-4.57-90.37 27.1-61.63 95.74-85.7 155.33-104.71 52.34-8.21 105.18-13.3 157.56-21.4 21.92-3.84 45.5-5.45 64.17-18.86z" fill="#ca4844"/>
<path id="path32" fill="#b92c32" d="m1844 827.89c-63.78 2.04-121.42 33.489-176.26 62.889-85.26 26.43-179.35 21.73-259.8 64.2-34.33 17.35-69.701 47.46-69.991 89.07-9.66 45.22 21.71 86.65 60.17 106.32-0.03-3.1-0.29-6.3306-0.2-9.3406-0.27 0.64-0.8206 1.9209-1.0906 2.5609-28.41-29.7-40.899-75.52-24.509-114.25 12.37-26.55 39.04-42.621 64.78-54.181 61.34-26.72 128.5-34.749 192.9-51.119 44.88-9.81 80.63-40.651 121.83-59.161 36.26-17.18 76.78-35.529 117.63-24.759 7.64-0.68 15.23-1.9106 22.82-3.0906-12.8-10.01-32.78-7.989-48.28-9.139zm768 293.41c-10.2 74.94-24.149 150.73-56.459 219.65 54.18-54.2 89.539-144.13 56.459-219.65z"/>
<path id="path34" d="m1165.3 871.32c56.78-37.27 132.4-52.49 195.6-22.39 5.55 6.07 10.6 12.66 16.6 18.36-4.94 2.36-9.66 5.1-14.53 7.59-2.23-3.03-4.02-6.83-7.78-8.18-58.79-22.04-124.92-5.29-175.26 29.24-43.28 31.76-80.2 72.44-107 119-21.97 37.45-28.07 85.46-9.4 125.53 15.46 35.31 44.68 62.74 76.56 83.42 9.05 6.17 19.97 10.29 25.99 20.03 20.8 22.85 43.71 43.77 67.47 63.52 44.93 30.92 93.25 56.47 139.73 84.9 0.23 4.88 0.92 9.8 1.04 14.74-0.27 3.29-0.27 6.79-0.78 10.12-56.91-34.36-118.53-61.73-175.86-95.9-25.46-18.66-50.7-37.83-73.92-59.18-48.52-21.81-98.8-52.72-119.78-104.1-19.81-47.35-4.03-101.14 22.43-142.6 36.01-56.58 83.94-105.77 138.89-144.1z" fill="#e37d72"/>
<path id="path36" fill="#a80b21" d="m1842.8 836.92c-31.654 0.40672-62.583 14.542-90.911 27.964-41.2 18.51-76.95 49.351-121.83 59.161-64.4 16.37-131.56 24.399-192.9 51.119-25.74 11.56-52.41 27.631-64.78 54.181-16.39 38.73-3.9006 84.55 24.509 114.25 0.27-0.64 0.8206-1.9209 1.0906-2.5609 0.28-59.07 44.62-107.05 93.43-134.63 55.93-31.61 118.47-50.661 181.57-61.191 48.94-59.04 121.98-92.569 196.54-105.09-8.936-2.3559-17.856-3.3186-26.719-3.2047zm223.9 140.27c-38.918 0.0422-78.653 7.9294-112.69 26.803 70.72-23.93 146.72-4.4303 214.28 20.73 28.02 9.07 48.45 31.28 67.85 52.25-21.85-63.27-89.401-96.44-152.83-99.33-5.5076-0.30504-11.05-0.4592-16.609-0.45312z"/>
<path id="path38" d="m2239.7 867.29c41.57-16.68 89.4-14.74 129.27 5.75 71.9 33.08 133.46 92.82 161.32 167.67 20.43 54.43 18.53 115.58 0.44 170.37-3.53-4.61-3.45-10.78-5.61-16 15.92-46.93 7.79-101.54-13.92-146.28-29.25-55.07-78.39-98.85-135.5-123.5-13.93-5.6-28.34-11-43.53-11.32-8.61-10.96-15.66-23.08-24.45-33.86-21.95-7.24-46.22-6.63-68.02-12.83z" fill="#c7615e"/>
<path id="path40" d="m1180 895.94c50.34-34.53 116.47-51.28 175.26-29.24 3.76 1.35 5.55 5.15 7.78 8.18-5.94 2.99-11.89 5.97-17.78 9.05-63.49-13.86-131.01 13.15-175 59.28-28.19 30.29-55.64 66.08-60.69 108.41-5.36 62.43 35.98 117.35 81.61 155.25 26.62 33.66 55.08 66.21 87.23 94.76 29.75 23.12 60.52 45.27 91.45 66.59 2.5 7.74 4.62 15.91 3.49 24.12-46.48-28.43-94.8-53.98-139.73-84.9-23.76-19.75-46.67-40.67-67.47-63.52-6.02-9.74-16.94-13.86-25.99-20.03-31.88-20.68-61.1-48.11-76.56-83.42-18.67-40.07-12.57-88.08 9.4-125.53 26.8-46.56 63.72-87.24 107-119z" fill="#d1645c"/>
<path id="path42" fill="#e05d61" d="m2193.2 865.63c-3.413 0.065-6.7219 0.34592-9.8813 0.96096 38.29 22.31 70.17 54.789 91.35 93.789 24.64 45.81 49.73 91.561 80.28 133.76 5.52 18.75 6.8106 39.09 3.9906 58.48 9.78 8.2 14.579 28.4 23.069 30.97 10.52 15.59 16.781 33.53 26.841 49.38 1.4-2.92 1.11-7.1709 4.1-8.9609 6.96 17.07 13.42 34.331 18.22 52.161 4.95-3.37 7.0803-11.451 12.87-12.991 3.66 22.84 3.7791 47.371-6.0609 68.761-11.49 25.62-34.61 43.669-59.37 55.619-50.72 23.04-107.44 28.46-162.54 28.52-59.79-1.14-119.54-8.3594-177.68-22.409-24.42-5.73-49.561-7.1397-74.441-9.5797-77.55-4.84-155.85-7.96-233.17-1-14.76-8.75-31.62-1.3912-47.02 1.1188 62.16 52.62 133.24 103.29 167.46 179.78 31.26-8.28 62.37-20.03 95.37-17.05 45.65-10.71 90.809-30.96 138.72-25.12-2.43-0.6-5.49-0.4303-7.45-1.7703 44.91-12.07 89.571-25.43 136.28-28.73 23.8-3.59 46.49-11.98 69.9-17.33 35.29-8.6 72.21-13.261 104.88-30.131 33.18-21.14 71.709-31.95 105.19-52.8 29.57-54.68 47.791-117.77 36.681-179.98-3.53-4.61-3.4509-10.78-5.6109-16-1.53-5.39-3-10.79-5.2-15.93-3.75-8.91-8.2697-17.429-12.68-26.009-13.84-22.86-31.31-43.391-51.3-61.081-12.67-15.08-22.751-32.219-34.391-48.089-15.25-22.93-31.379-45.261-46.759-68.091-14.6-20.37-28.61-41.14-42.62-61.9-8.61-10.96-15.66-23.079-24.45-33.859-21.95-7.24-46.22-6.6297-68.02-12.83-15.023 1.8281-31.768-1.9422-46.558-1.661zm-499 264.47c0.19 43.87 16.501 85.31 30.891 126.07 3.88-28.91-2.47-60.109 1.05-89.859 3.79-1.13 6.76 2.3 10 3.7 51.21 27.01 101.7 55.589 154.48 79.489 14.88 1.54 32.819 6.0703 46.659 2.5703-5.23-2.27-10.54-4.4-15.47-7.25-24.32-9.83-48.08-21.281-71.05-33.891-6.22-2.38-12.029-5.5994-17.669-9.0594-5.98-2.43-11.701-5.4706-17.291-8.6406-6.29-3.35-13.25-5.6491-18.75-10.339-6.2-2.61-12.59-4.9303-18.08-8.8703-28.75-13.67-56.23-29.87-84.77-43.92zm-558.14 298.85c0.12 1.28 1.0803 3.0797-0.7297 3.5797-23.36 13.19-48.57 28.01-59.98 53.57-1.18 2.61-2.34 5.2506-3.5 7.8906-4.09 16.67-3.5503 34.109 0.1797 50.789 3.3 9.21 6.2703 18.52 8.9703 27.95 3.96 7.1 6.67 14.82 9.95 22.27 4.74 8.29 8.8397 16.93 13.83 25.1 24.72 41.48 70.4 66.58 89.13 112 8.39 18.36 7.3006 40.451 20.141 56.891 28.62 40.71 74.549 64.33 118.16 85.75 54.46 25.61 111.28 45.98 168.78 63.5 57.24 21.07 119.6 27.68 174.11 55.85 30.86 16.09 58.939 37 86.159 58.57 7.13 4.89 13.861 10.32 20.841 15.45 47.34 36.02 103.11 65.939 164 66.669 26.85 0.64 53.74-2.7794 79.85-9.0094 71.02-17.16 136.08-52.15 198.26-89.58 23.8-6.63 48.141-11.461 72.381-16.341 75.42-14.2 153.13-26.71 229.77-15.22 24.38 4.08 49.501 12.49 66.531 31.32 45.91-3.58 81.669-38.39 112.87-69.17 36.47-38.8 68.851-87.54 68.341-142.75 0.6-48-25.35-91.75-57.97-125.13-30.51-30.3-65.959-55.91-104.34-75.2 0.27 2.74 2.9294 4.3909 4.5094 6.5109 34.37 37.52 46.59 90.759 43.47 140.49-2.68 43.37-14.4 87.36-40.17 122.92-12.19 16.71-30.82 29.36-51.98 30-67.13 6.02-134.74 6.2897-201.6 15.28-18.86 13.26-36.401 28.79-57.091 39.18-64.97 14.99-122.78 49.521-179.24 83.631-27.91 16.66-56.401 33.259-87.911 42.089-32.96 10.35-68.07 0.3009-96.75-16.839-40.06-26.08-78.149-54.991-117.01-82.781-4.1789-1.3049-3.7795-4.9237-3.3734-8.236-0.6303 2.1632-2.5734 2.1874-4.8266 0.086-38.61-30.2-79.99-57.089-117.98-87.819-8.88-0.02-15.121-10.371-23.011-14.061-7.44-5.54-15.579-10.09-22.809-15.87-7.95-5.05-15.661-10.47-23.061-16.25-58.21-37.14-116.31-77.479-182.89-98.089-84.39-11.48-157.95-63.11-213.83-125.15-24.74-28.49-47.19-60.6-56.7-97.6-12.79-28.47-22.571-58.281-34.681-87.091-0.31-2.14-4.1494-8.2491 0.2406-6.2391-1.76-6.83-5.0006-13.171-9.0406-18.911zm688.59 566.99c0.1585-0.5441 0.2366-1.2168 0.2125-2.0328-0.044 0.6461-0.1269 1.3344-0.2125 2.0328z"/>
<path id="path44" d="m1170.2 943.21c43.99-46.13 111.51-73.14 175-59.28-11 6.52-21.71 13.53-32.06 21.05-43.97 2.03-88.5 21.96-116.84 56.34-19.83 25.98-38.31 58.34-30.98 92.36 10.91 53.77 43.08 99.98 73.55 144.43 37.56 50.48 77.62 99.47 121.95 144.09 3.79 8.37 6.44 17.2 8.98 26.02-30.93-21.32-61.7-43.47-91.45-66.59-32.15-28.55-60.61-61.1-87.23-94.76-45.63-37.9-86.97-92.82-81.61-155.25 5.05-42.33 32.5-78.12 60.69-108.41z" fill="#c14b49"/>
<path id="path48" d="m1733.8 940.74c25.49-27.94 64.95-36.35 101.31-36.23 51.17 0.74 102.05 11.65 150.19 28.44-13.52 10.96-30.17 17.86-44.99 27.03-41.52-11.16-87.11-16.24-129.08-3.83-25.18 7.62-47.88 25.6-57.4 50.61-21.76 61.06 7.44 126.68 43.27 176.11-6.2-2.61-12.59-4.93-18.08-8.87-29.35-36.66-54.43-78.09-64.51-124.46-8.93-36.57-6.53-79.34 19.29-108.8z" fill="#d86c5e"/>
<path id="path50" d="m2332.2 913.98c15.19 0.32 29.6 5.72 43.53 11.32 57.11 24.65 106.25 68.43 135.5 123.5 21.71 44.74 29.84 99.35 13.92 146.28-1.53-5.39-3-10.79-5.2-15.93 12.41-81.63-46.89-156.19-115.93-192.17-9.59-3.52-18.64-11.71-29.2-11.1-14.6-20.37-28.61-41.14-42.62-61.9z" fill="#a74a4e"/>
<path id="path52" d="m2031.3 938.27c40.77-17.01 85.62-25.47 129.69-19.23 42.96 3.18 85.37 28.95 100.18 70.8 15.72 42.51 13.27 89.54 4.8 133.34-2.9-4.6-5.66-9.28-8.09-14.11 2.39-47.82-4.23-101.7-39.65-137.27-32.57-31.45-81.2-35.52-124.08-33.75-71.02 6.39-136.7 42.75-183.14 96.26-4.53 0.94-6.9 12.89-11.09 8.65 16.57-19.36 33.33-38.84 53.62-54.45 19.48-24.96 49.28-38.29 77.76-50.24z" fill="#e1796b"/>
<path id="path54" d="m1911 1034.3c46.44-53.51 112.12-89.87 183.14-96.26 42.88-1.77 91.51 2.3 124.08 33.75 35.42 35.57 42.04 89.45 39.65 137.27-4.03-6.57-9.66-12.67-10.44-20.6-5.38-39.66-22.7-79.96-55.82-104.07-36.72-25.66-84.27-28.75-127.51-25.33-46.31 7.85-94.35 23.04-128.96 56.05-9.09 4.75-14.95 15.93-24.14 19.19z" fill="#ce594f"/>
<path id="path56" d="m1491.4 1006.4c55.93-31.61 118.47-50.66 181.57-61.19-8.43 15.21-19.54 29.15-25.58 45.77-18.3-5.79-38.18-5.96-57.22-7.81-43.3 11.27-85.52 31.57-116.89 64.12-32.84 34.29-45.15 84.12-39.01 130.49 1.42 8.65 1.02 18.73 7.54 25.49-14.84-10.06-29.12-20.99-42.85-32.49-0.3-2.3-0.53-4.6-0.7-6.88-0.01-1.65-0.02-4.94-0.03-6.59-0.02-1.73-0.05-5.2-0.06-6.94-0.03-3.1-0.29-6.33-0.2-9.34 0.28-59.07 44.62-107.05 93.43-134.63z" fill="#f16c71"/>
<path id="path58" d="m1811.2 956.15c41.97-12.41 87.56-7.33 129.08 3.83-14.93 9.43-29.91 19.14-42.16 32.01-41.15-4.05-90.64 11.13-107.7 52.39-19.34 49.9-1.26 105.31 25.4 148.83-6.29-3.35-13.25-5.65-18.75-10.34-35.83-49.43-65.03-115.05-43.27-176.11 9.52-25.01 32.22-42.99 57.4-50.61z" fill="#c65e4d"/>
<path id="path60" d="m2064.1 959.07c43.24-3.42 90.79-0.33 127.51 25.33 33.12 24.11 50.44 64.41 55.82 104.07 0.78 7.93 6.41 14.03 10.44 20.6 2.43 4.83 5.19 9.51 8.09 14.11 18.36 34.87 30.72 75.05 23.86 114.67-0.6 5.05-6 6.87-9.73 9.32-34.75 18.91-72.34 32.08-110.32 42.82-34.56 11.05-71.73 9.4-106.86 2.04-43.34-8.09-84.95-23.25-125.61-39.98-5.23-2.27-10.54-4.4-15.47-7.25 0.31-20.54 9.26-39.72 19.39-57.12 12.1 16.22 32.61 22.07 50.86 28.25 31.32 8.82 63.97 14.24 96.58 12.82 23.18-2.9 50.76-13.92 57.05-38.83 28.55-13.51 49.89-50.59 41.77-83.3-4.64-19.09-17.9-34.51-31.85-47.71 27.85-0.49 58.13 3.84 80.49 21.94 3.46 2.73 0.53-2.19 0.04-3.88-21.85-63.27-89.4-96.44-152.83-99.33-44.06-2.44-90.4 4.78-129.3 26.35-6.49 3.39-12.63 7.37-18.89 11.13 34.61-33.01 82.65-48.2 128.96-56.05z" fill="#bc3e3b"/>
<path id="path62" d="m1223 1101c-20.15-44.01-1.15-96.04 34.21-126.15 2.07 19.11-8.41 37.08-7.35 56.22-2.38 29.44 17.15 54.73 38.21 72.88 33.07 27.95 71.37 49.49 110.87 66.87 13.73 11.5 28.01 22.43 42.85 32.49 14.15 10.87 28.07 22.14 43.07 31.85 11.88 9.92 24.54 18.9 37.21 27.8 12.1 9.25 24.25 18.49 36.83 27.11 41.64 31.32 83.55 62.32 124.79 94.18 62.16 52.62 133.24 103.29 167.46 179.78-52.2 14.39-105.95 27.03-153.37 54.17-15.02-10.24-29.36-21.6-45.47-30.09-9.34-7.93-20.59-13.04-30.36-20.33 13.72-33.63 6.88-71.64-8.06-103.66-20.31-45.01-52.23-83.48-85.66-119.33-65.72-67.23-139.95-127.09-222.37-172.64-33.67-15.38-62.48-40.29-82.86-71.15z" fill="#ef8e82"/>
<path id="path64" d="m2374.8 975.88c10.56-0.61 19.61 7.58 29.2 11.1 69.04 35.98 128.34 110.54 115.93 192.17-3.75-8.91-8.27-17.43-12.68-26.01-9.2-46.63-45.75-86.14-85.69-109.17-15.25-22.93-31.38-45.26-46.76-68.09z" fill="#8b343e"/>
<path id="path68" d="m1473.3 1047.3c31.37-32.55 73.59-52.85 116.89-64.12 19.04 1.85 38.92 2.02 57.22 7.81-5.58 11.85-9.59 24.34-12.31 37.15-8.11-3.51-15.46-11.98-24.86-9.04-39.71 13.99-78.11 34.98-106.23 66.9-31.61 34.94-40.57 85.68-29.72 130.72 0.72 7.46 7.08 12.24 10.61 18.41-15-9.71-28.92-20.98-43.07-31.85-6.52-6.76-6.12-16.84-7.54-25.49-6.14-46.37 6.17-96.2 39.01-130.49z" fill="#dc615e"/>
<path id="path70" d="m1790.4 1044.4c17.06-41.26 66.55-56.44 107.7-52.39-8.58 11.37-14.18 25.1-12.25 39.69-25.24 6.48-47.78 23.91-57.84 48.3-17.22 38.97-9.43 83.35 5.08 121.87-5.98-2.43-11.7-5.47-17.29-8.64-26.66-43.52-44.74-98.93-25.4-148.83z" fill="#b4503d"/>
<path id="path72" d="m1954 1004c70.72-23.93 146.72-4.43 214.28 20.73 28.02 9.07 48.45 31.28 67.85 52.25 0.49 1.69 3.42 6.61-0.04 3.88-22.36-18.1-52.64-22.43-80.49-21.94-19.36-5.6-39.04-10.02-58.55-15.05-20.48-5.9-40.63 5.76-58.12 15.08-43.33 27.3-84 66.66-96.49 117.97-0.57 3.53-0.82 7.17-1.25 10.77-10.13 17.4-19.08 36.58-19.39 57.12-24.32-9.83-48.08-21.28-71.05-33.89 1.03-53.74 8.56-110.23 39.44-155.72 3.22-4.08 6.38-8.21 9.69-12.23 4.19 4.24 6.56-7.71 11.09-8.65 9.19-3.26 15.05-14.44 24.14-19.19 6.26-3.76 12.4-7.74 18.89-11.13z" fill="#940709"/>
<path id="path74" d="m1610.2 1019.1c9.4-2.94 16.75 5.53 24.86 9.04-4.97 18.01-4.29 36.68-4.35 55.18-4.1-6.06 6.25-31.9-6.87-24.37-34.81 15.98-67.94 37.74-91.76 68.17-29.46 37.89-34.68 94.32-10.01 135.81-12.67-8.9-25.33-17.88-37.21-27.8-3.53-6.17-9.89-10.95-10.61-18.41-10.85-45.04-1.89-95.78 29.72-130.72 28.12-31.92 66.52-52.91 106.23-66.9z" fill="#c9574e"/>
<path id="path76" fill="#a2432d" d="m1885.8 1031.7c-25.24 6.48-47.781 23.91-57.841 48.3-17.22 38.97-9.4288 83.35 5.0812 121.87 5.64 3.46 11.449 6.6794 17.669 9.0594 1.03-53.74 8.5606-110.23 39.441-155.72-2.1-7.71-3.58-15.571-4.35-23.511zm-245.5 67.22c-41.32 23.96-84.7 56.64-95.4 106-7.36 29.41 2.0403 58.57 13.97 85.13 41.64 31.32 83.549 62.32 124.79 94.18 15.4-2.51 32.26-9.8688 47.02-1.1188 77.32-6.96 155.62-3.84 233.17 1 24.88 2.44 50.021 3.8497 74.441 9.5797 58.14 14.05 117.89 21.269 177.68 22.409 55.1-0.06 111.82-5.4803 162.54-28.52 24.76-11.95 47.88-29.999 59.37-55.619 9.84-21.39 9.7209-45.921 6.0609-68.761-5.79 1.54-7.9203 9.6206-12.87 12.991-32.86 31.71-76.74 48.219-119.67 61.289-41.42 11.25-83.649 20.58-126.66 22.42-62.71 1.73-123.22-17.15-184.97-24.7-69.38-8.17-141.78-12.16-208.89 10.67-5.97-0.82-9.9397-6.8894-14.13-10.759-6.36-5.98-12.78-11.961-18.05-18.931-7.45-7.43-13.621-15.99-18.741-25.15-35.66-51.51-58.259-112.45-68.789-174.14-10.39-5.83-20.31-12.48-30.87-17.97zm446.69 20.28c-1.232 0.01-2.4543 0.026-3.6656 0.05-50.83 5.35-100.65 30.45-140.92 57.68-0.57 3.53-0.82 7.1703-1.25 10.77 12.1 16.22 32.609 22.07 50.859 28.25 31.32 8.82 63.971 14.24 96.581 12.82 23.18-2.9 50.76-13.92 57.05-38.83 4.15-18.74-1.2003-37.53-5.7703-55.58-13.875-13.331-34.404-15.29-52.884-15.161zm683.93 138.78c3.52 16.95 5.7603 34.12 6.8703 51.4 2.79-16.5 0.3797-35.76-6.8703-51.4zm-172.7 361.1c-82.23 67.28-160.2 140.41-235.93 215.15-32.58 30.08-63.11 62.841-99.28 88.741-51.19 30.52-111.45 40.989-169.5 50.069 2.41-5.87 11.04-9.7791 14.23-16.239-51.41 19.34-100.34 45.419-148.91 71.009-44.63-14.34-88.4-31.929-130.97-51.689-4.09 0.22-1.1494 6.4691-2.5594 9.1391-0.3 2.69-0.1009 5.7709-0.4109 8.6109-0.25 3.71-1.8991 8.6888 3.1609 10.269 38.86 27.79 76.949 56.701 117.01 82.781 28.68 17.14 63.79 27.189 96.75 16.839 31.51-8.83 60.001-25.429 87.911-42.089 56.46-34.11 114.27-68.641 179.24-83.631 20.69-10.39 38.231-25.92 57.091-39.18 27.29-24.32 52.47-50.94 76.82-78.15 19.26-25.39 39.639-50.06 57.219-76.72 16.3-23.92 32.091-48.209 46.681-73.209 4.77-12.37 20.899-9.3494 29.459-17.609 16.98-16.01 18.47-41.161 23.58-62.311 4.79 4.32 7.2409 13.82 12.661 14.88-2.33-6.32-6.0812-11.96-9.0812-17.93 3.29 2.12 6.4306 4.9009 10.091 6.1609-2.86-2.98-5.7294-5.8612-8.2594-9.0812 3.81 1.56 7.4294 3.2612 11.109 5.2812-1.58-2.12-4.2394-3.7709-4.5094-6.5109-3.49-2.22-9.72-1.7697-13.6-4.5797z"/>
<path id="path78" d="m2038.9 1058.9c17.49-9.32 37.64-20.98 58.12-15.08 19.51 5.03 39.19 9.45 58.55 15.05 13.95 13.2 27.21 28.62 31.85 47.71 8.12 32.71-13.22 69.79-41.77 83.3 4.15-18.74-1.2-37.53-5.77-55.58-14.8-14.22-37.17-15.5-56.55-15.11-50.83 5.35-100.65 30.45-140.92 57.68 12.49-51.31 53.16-90.67 96.49-117.97z" fill="#df7f6f"/>
<path id="path80" d="m2421.6 1044c39.94 23.03 76.49 62.54 85.69 109.17-13.84-22.86-31.31-43.39-51.3-61.08-12.67-15.08-22.75-32.22-34.39-48.09z" fill="#711d30"/>
<path id="path82" fill="#b64d3d" d="m1627.8 1057.6c-0.9806 0-2.2537 0.4228-3.8937 1.364-34.81 15.98-67.939 37.739-91.759 68.169-29.46 37.89-34.679 94.321-10.009 135.81 12.1 9.25 24.25 18.489 36.83 27.109-11.93-26.56-21.33-55.72-13.97-85.13 10.7-49.36 54.08-82.04 95.4-106-6.26-3.34-11.06-8.0506-9.6203-15.591-3.5875-5.3025 3.8878-25.749-2.9766-25.733zm43.467 59.294c10.53 61.69 33.129 122.63 68.789 174.14-4.89-11.66-11.019-22.799-14.919-34.859-14.39-40.76-30.701-82.2-30.891-126.07-7.32-5-15.27-8.9094-22.98-13.209z"/>
<path id="path88" d="m2612 1118.8c-0.62-1.68 0.52-3.57 2.14-1.98 39.2 60.56 66.88 137.7 39.18 208.58-23.27 62.36-76.98 107.99-134.27 138.72-40.02 23.62-86.67 31.25-131.75 39.26-69.69 10.45-140.62 19.2-210.99 12.11-29.54 8.34-60.68 9.87-91.09 6.36-2.43-0.6-5.49-0.43-7.45-1.77 44.91-12.07 89.57-25.43 136.28-28.73 26.66 0.86 52.97-6.69 77.24-17.31 67.22-6.14 134.02-20.71 197.31-44.39 56.16-23.74 104.28-67.67 134.34-120.64 33.32-58.94 25.23-134.61-10.94-190.21z" fill="#d2554e"/>
<path id="path92" d="m2614.2 1116.8c35.26 47.17 63.32 102.09 69.67 161.37 6.42 60.45-17.01 122.17-59.58 165.11-45.2 47.97-105.08 79.92-167.46 99.58-71.64 17.47-145.62 22.2-219.02 25.98-58.94-0.1-119.16 3.34-176.81-11.3-38.64 8.11-76.76-3.59-114.44-10.59 45.65-10.71 90.81-30.96 138.72-25.12 30.41 3.51 61.55 1.98 91.09-6.36 70.37 7.09 141.3-1.66 210.99-12.11 45.08-8.01 91.73-15.64 131.75-39.26 57.29-30.73 111-76.36 134.27-138.72 27.7-70.88 0.02-148.02-39.18-208.58z" fill="#e0695f"/>
</g>
<path id="path96" d="m2612 1118.8c36.17 55.6 44.26 131.27 10.94 190.21-30.06 52.97-78.18 96.9-134.34 120.64-63.29 23.68-130.09 38.25-197.31 44.39-24.27 10.62-50.58 18.17-77.24 17.31 23.8-3.59 46.49-11.98 69.9-17.33 35.29-8.6 72.21-13.26 104.88-30.13 33.18-21.14 71.71-31.95 105.19-52.8 22.54-13.65 47.19-27.25 61.53-50.11 54.18-54.2 89.54-144.13 56.46-219.65 0-0.63-0.01-1.89-0.01-2.53z" fill-opacity=".76078" fill="#bb3135"/>
<g>
<path id="path102" fill="#d05653" d="m2358.9 1152.6c-6.08 38.79-35.471 69.21-68.281 88.27-0.34-1.02-0.6094-2.0306-0.8094-3.0406-0.6 5.05-5.9997 6.8703-9.7297 9.3203-34.75 18.91-72.34 32.08-110.32 42.82 43.02 1.95 89.209-0.11 133.26-3.9 43.02-15.07 76.1-56.54 78.95-102.5-8.49-2.57-13.289-22.77-23.069-30.97zm-631.37 13.447c-0.4503 0.012-0.9106 0.082-1.3844 0.2234-3.52 29.75 2.83 60.949-1.05 89.859 3.9 12.06 10.029 23.199 14.919 34.859 5.12 9.16 11.291 17.72 18.741 25.15 9.46-18.27 23.469-33.469 35.209-50.189 9.36-12.84 13.101-28.971 22.241-41.791 48.88 18.37 95.69 42.051 144.22 61.411 31.25 6.69 63.709 5.8597 95.489 8.5297 2.76 0.11 15.001 0.3994 6.9812-2.0906-43.34-8.09-84.951-23.25-125.61-39.98-13.84 3.5-31.779-1.0303-46.659-2.5703-52.78-23.9-103.27-52.479-154.48-79.489-2.835-1.225-5.4638-4.0048-8.6156-3.9234zm877.67 458.84c2.53 3.22 5.3994 6.1012 8.2594 9.0812 21.27 28.44 27.37 65.679 24.03 100.41-3.78 35.95-13.46 73.951-39.62 100.44-15.98 16.51-40.299 14.949-61.239 17.789-31.3 2.31-62.51 5.66-93.78 8.1-24.35 27.21-49.53 53.83-76.82 78.15 66.86-8.99 134.47-9.2597 201.6-15.28 21.16-0.64 39.79-13.29 51.98-30 25.77-35.56 37.49-79.55 40.17-122.92 3.12-49.73-9.1003-102.97-43.47-140.49-3.68-2.02-7.2994-3.7212-11.109-5.2812z"/>
<path id="path104" d="m1249 1157c10.71 11.34 21.83 22.31 34.42 31.63 36.26 27.81 66.24 62.54 97.03 95.97 49 36.67 96.23 76.23 136.48 122.52 31.49 37.85 63.53 83.44 58 135.08 25.94 14.79 50.95 34.08 77.45 45.87 16.11 8.49 30.45 19.85 45.47 30.09 13.66 9.29 25.53 20.99 39.15 30.09 12.24 14.67 27.28 27.41 36.05 44.76 28.6 55.14 41.07 117 47.8 178.29 1.23 13.56 2.26 27.16 2.98 40.77 1.62 20.69 1.08 41.44 1.38 62.19-0.13 3.55-0.03 7.38 0.11 11.02-0.3 2.69-0.1 5.77-0.41 8.61 0.12 4.06-2.22 4.75-5.04 2.12-38.61-30.2-79.99-57.09-117.98-87.82 20.96-39.93 18.34-88.98 2.01-130.05-9.39-22.19-23.58-44.26-45.9-55.12-116.4-37.7-219.5-105.9-329-159-44.93-22.66-95.62-47.28-147.13-34.29-7.06 3.71-3.92-7.62-5.92-11.53-9.69-23.68-21.18-46.65-30.85-70.34-1.76-6.83-5-13.17-9.04-18.91-3.28-4.98-5.79-10.35-7.94-15.88-16.1-41.51-33.47-82.59-44.14-125.97 29.17 12.86 53.19 35.57 81.34 50.62 67.17 31.64 134.12 63.79 201.34 95.33 1.08 0.5 2.28 0.91 3.28-0.05 32.9 19.97 70.14 34.17 103.88 53.48 16.54 11.27 34.76 19.91 52.41 29.25-3.15-19.54-13.62-37.14-24.82-53.12-38.46-52.89-90.77-94.12-144.4-130.56-30.13-61.84-74.66-115.1-108.06-175.03z" fill="#e1635d"/>
<path id="path108" fill="#c15046" d="m2382 1183.6c-2.85 45.96-35.93 87.43-78.95 102.5-44.05 3.79-90.239 5.85-133.26 3.9-34.56 11.05-71.729 9.3991-106.86 2.0391 8.02 2.49-4.2212 2.2006-6.9812 2.0906-31.78-2.67-64.239-1.8397-95.489-8.5297-48.53-19.36-95.34-43.041-144.22-61.411-9.14 12.82-12.881 28.951-22.241 41.791-11.74 16.72-25.749 31.919-35.209 50.189 5.27 6.97 11.69 12.951 18.05 18.931 34.96-25.67 79.271-30.691 117.29-50.031 4.82-1.76 9.6488-6.01 15.069-3.8 43.49 11.04 85.221 27.91 128.29 40.32 49.2 6.63 99.449 9.18 148.91 3.8 47.24-7.8 95.45-9.2097 142.25-19.68 34.13-13.23 66.501-37.83 80.191-72.73-10.06-15.85-16.321-33.79-26.841-49.38zm221.4 444.24c3 5.97 6.7512 11.61 9.0812 17.93 9.15 36.2 2.9288 77.481-17.781 108.89-21.68 29.52-63.15 20.869-94.6 29.359-17.58 26.66-37.959 51.33-57.219 76.72 31.27-2.44 62.48-5.79 93.78-8.1 20.94-2.84 45.259-1.2791 61.239-17.789 26.16-26.49 35.84-64.491 39.62-100.44 3.34-34.73-2.7597-71.969-24.03-100.41-3.66-1.26-6.8006-4.0409-10.091-6.1609z"/>
<path id="path110" fill="#b1493a" d="m2412.9 1224c-2.99 1.79-2.7 6.0409-4.1 8.9609-13.69 34.9-46.061 59.5-80.191 72.73-46.8 10.47-95.01 11.88-142.25 19.68-49.46 5.38-99.709 2.83-148.91-3.8-43.07-12.41-84.801-29.28-128.29-40.32-5.42-2.21-10.249 2.04-15.069 3.8-38.02 19.34-82.331 24.361-117.29 50.031 4.19 3.87 8.1597 9.9394 14.13 10.759 67.11-22.83 139.51-18.84 208.89-10.67 61.75 7.55 122.26 26.43 184.97 24.7 43.01-1.84 85.239-11.17 126.66-22.42 42.93-13.07 86.81-29.579 119.67-61.289-4.8-17.83-11.26-35.091-18.22-52.161zm186.88 406.87c-5.11 21.15-6.5997 46.301-23.58 62.311-8.56 8.26-24.689 5.2394-29.459 17.609-14.59 25-30.381 49.289-46.681 73.209 31.45-8.49 72.92 0.1606 94.6-29.359 20.71-31.41 26.931-72.691 17.781-108.89-5.42-1.06-7.8709-10.56-12.661-14.88z"/>
<path id="path114" d="m1357 1332c53.63 36.44 105.94 77.67 144.4 130.56 11.2 15.98 21.67 33.58 24.82 53.12-17.65-9.34-35.87-17.98-52.41-29.25-24.31-33.68-61.29-59.88-95.77-84.09-5.25-5.98-3.2 2.03-3.71 4.71-0.12-4.94-0.81-9.86-1.04-14.74 1.13-8.21-0.99-16.38-3.49-24.12-2.54-8.82-5.19-17.65-8.98-26.02-1.38-3.35-2.55-6.78-3.82-10.17z" fill="#dc4348"/>
<path id="path116" d="m1374.3 1407.1c0.51-2.68-1.54-10.69 3.71-4.71 34.48 24.21 71.46 50.41 95.77 84.09-33.74-19.31-70.98-33.51-103.88-53.48 1.02-5.31 2.6-10.5 3.62-15.78 0.51-3.33 0.51-6.83 0.78-10.12z" fill="#d31937"/>
<path id="path122" d="m1144.9 1454.1c-0.31-2.14-4.15-8.25 0.24-6.24 9.67 23.69 21.16 46.66 30.85 70.34 2 3.91-1.14 15.24 5.92 11.53 7.96 11.11 14.21 23.47 19.49 36.05 7.93 12.07 16.64 23.8 23.74 36.3 32.83 6.36 64.4 18.2 93.9 33.93 85.77 46.05 175.89 83.29 265.82 120.2 41.84 24.86 67.94 74.38 71.2 122.07-7.95-5.05-15.66-10.47-23.06-16.25-24.91-41.63-59.02-82.13-106.08-98.89-31.36-13.46-63.12-26.01-95.67-36.32-63.84-22.4-120.9-59.47-181.89-88.06-27.85-28.97-47.85-64.31-68.56-98.5-0.31 0.23-0.91 0.7-1.22 0.93-12.79-28.47-22.57-58.28-34.68-87.09z" fill="#bc3f41"/>
<path id="path126" d="m2570.6 1570.6c25.36-21.88 52.24-41.91 79.18-61.78-3.52 9.69-7.87 19.32-12.71 28.3-20.18 13.46-39.01 28.87-57.95 44-75.01 67-167.47 112.44-263.07 141.95-14.11 1.07-14.13 18.76-21 27.97-20.6 35.02-48.01 67.94-79.46 92.96 5.89-7.47 11.65-15.05 16.83-23.03 32.5-48.07 71.68-96.06 81.54-154.87 90.39-13.85 183.79-37.25 256.64-95.5z" fill="#d66259"/>
<path id="path128" d="m1181.9 1529.7c51.51-12.99 102.2 11.63 147.13 34.29 109.51 53.07 212.58 121.34 328.95 159.02 22.32 10.86 36.51 32.93 45.9 55.12 16.33 41.07 18.95 90.12-2.01 130.05-8.88-0.02-15.12-10.37-23.01-14.06 13.52-55.16-6.86-123.52-56.86-154.1-114.43-41.43-220.24-102.88-329.84-155.17-28.37-13.06-59.52-19.72-90.77-19.1-5.28-12.58-11.53-24.94-19.49-36.05z" fill="#d45652"/>
<path id="path130" d="m2579.1 1581.1c18.94-15.13 37.77-30.54 57.95-44-4.11 10.41-8.93 20.71-14.1 30.65-31.2 17.83-59.1 45.32-87.68 68.52-73.09 58.67-152.77 110.12-236.89 151.15-28.43 45.75-74.12 76.91-119.15 104.58-2.31 1.77-1.99-0.06-1.37-1.93 2.48-2.69 5.03-5.32 7.46-8.07 10.86-12.03 20.34-25.22 30.25-38.02 31.45-25.02 58.86-57.94 79.46-92.96 6.87-9.21 6.89-26.9 21-27.97 95.6-29.51 188.06-74.95 263.07-141.95z" fill="#c95a4d"/>
<path id="path136" d="m1201.4 1565.8c31.25-0.62 62.4 6.04 90.77 19.1 109.6 52.29 215.41 113.74 329.84 155.17 50 30.58 70.38 98.94 56.86 154.1-7.44-5.54-15.58-10.09-22.81-15.87-3.26-47.69-29.36-97.21-71.2-122.07-89.93-36.91-180.05-74.15-265.82-120.2-29.5-15.73-61.07-27.57-93.9-33.93-7.1-12.5-15.81-24.23-23.74-36.3z" fill="#c84b49"/>
<path id="path138" d="m2535.3 1636.3c28.58-23.2 56.48-50.69 87.68-68.52-5.38 11.97-10.76 24.04-17.38 35.37 0.02-2.32 2.69-8.28-1.34-4.85-58.87 44.66-112.2 96.08-170.55 141.41-46.44 36.39-91.31 75.12-141.26 106.71-42.48 47.37-103.61 71.18-162.39 91.52 2.6-5.14 7.48-8.78 11.01-13.31 17.1-4.63 24.54-23.2 36.82-34.53-0.62 1.87-0.94 3.7 1.37 1.93 45.03-27.67 90.72-58.83 119.15-104.58 84.12-41.03 163.8-92.48 236.89-151.15z" fill="#bc5242"/>
<path id="path142" d="m2604.2 1598.3c4.03-3.43 1.36 2.53 1.34 4.85-1.89 5.54-5.08 10.58-7.39 15.97-82.23 67.28-160.2 140.41-235.93 215.15-32.58 30.08-63.11 62.84-99.28 88.74-51.19 30.52-111.45 40.99-169.5 50.07 2.41-5.87 11.04-9.78 14.23-16.24-51.41 19.34-100.34 45.42-148.91 71.01-44.63-14.34-88.4-31.93-130.97-51.69-4.09 0.22-1.15 6.47-2.56 9.14-0.14-3.64-0.24-7.47-0.11-11.02 0.99-8.02 0.58-16.04 0.96-24.04 44.77 4.88 89.77 8.67 134.55 13.48 58-20.55 118.74-36.09 180.38-39.09-3.53 4.53-8.41 8.17-11.01 13.31 58.78-20.34 119.91-44.15 162.39-91.52 49.95-31.59 94.82-70.32 141.26-106.71 58.35-45.33 111.68-96.75 170.55-141.41z" fill="#af4a38"/>
<path id="path152" d="m1737 1648.2c88.28-12.57 178.98-11.8 266.46 6.34 101.57 23.77 207.38 23.96 310.54 11.5-9.86 58.81-49.04 106.8-81.54 154.87-6.6-0.53-7.85 14.85-15.55 10.92-87.75-25.43-182.09-39.89-272.38-19.4-44.97 9.97-87.75 29.91-123.68 58.82-6.73-61.29-19.2-123.15-47.8-178.29-8.77-17.35-23.81-30.09-36.05-44.76z" fill="#cf4f52"/>
<path id="path154" d="m1944.5 1812.5c90.29-20.49 184.63-6.03 272.38 19.4 7.7 3.93 8.95-11.45 15.55-10.92-5.18 7.98-10.94 15.56-16.83 23.03-9.91 12.8-19.39 25.99-30.25 38.02-1-0.86-1.79-2.15-3.13-2.31-73.4-10.16-148.96-9.58-221.07 8.63-46.64 1.37-92.54 11.35-137.35 23.74-0.72-13.61-1.75-27.21-2.98-40.77 35.93-28.91 78.71-48.85 123.68-58.82z" fill="#c44b49"/>
<path id="path156" d="m1961.1 1888.3c72.11-18.21 147.67-18.79 221.07-8.63 1.34 0.16 2.13 1.45 3.13 2.31-2.43 2.75-4.98 5.38-7.46 8.07-12.28 11.33-19.72 29.9-36.82 34.53-61.64 3-122.38 18.54-180.38 39.09-44.78-4.81-89.78-8.6-134.55-13.48-0.38 8 0.03 16.02-0.96 24.04-0.3-20.75 0.24-41.5-1.38-62.19 44.81-12.39 90.71-22.37 137.35-23.74z" fill="#b94940"/>
</g>
</g>
</svg>
