<?xml version="1.0" encoding="UTF-8" standalone="no"?>
<svg id="svg2" xmlns:rdf="http://www.w3.org/1999/02/22-rdf-syntax-ns#" xmlns="http://www.w3.org/2000/svg" height="300.37mm" width="228.44mm" version="1.1" xmlns:cc="http://creativecommons.org/ns#" xmlns:dc="http://purl.org/dc/elements/1.1/" viewBox="0 0 228.44234 300.36697">
<g id="g4325" fill-rule="evenodd" transform="matrix(2 0 0 2 -154.17 -144.55)">
<path id="path34" d="m91.403 72.274c-0.36608-0.02432-1.0001 0.28495-1.4403 0.89462-0.38843 0.53797-0.58703 1.33-0.87974 2.0527-0.55117 1.3606-0.71523 2.8224-1.3946 2.9589-0.72475 0.14549-1.1151-2.3815-1.9778-3.541-0.86277-1.1595-2.1986-0.95169-2.9926-0.61681-0.86108 0.36314-1.6103 0.65803-2.4584 1.13-0.84825 0.47199-1.7952 1.1217-2.9325 1.7198 0.3823 5.0524-0.90643 8.7506 0.25246 11.04 0.81882 1.618 1.9397 1.462 4.6903 1.964 0.25103 1.0989-1.2395 2.3345-1.8333 3.218-1.53 2.2758-1.4381 4.2838-0.67965 5.2707 0.78141 1.0168 2.438 1.3232 4.989 0.28884 1.0992-0.44563 3.6586-0.81712 4.3562-0.64768-0.015 1.2341-0.64699 2.2923-1.1206 3.2874-0.57239 1.2025-0.34839 2.8115 0.30372 3.46 1.3951 1.3876 4.9243-0.008 10.242-1.6404-0.41758 2.2197-0.2148 3.625 0.55618 4.284 0.8207 0.70144 2.2855 0.5571 4.3326-0.35168l0.0298 0.86265c-5.367 0.37777-7.3008 3.2381-7.7225 5.7034-0.25296 1.4794-0.0319 3.973 1.6906 5.0861-0.59729 2.004-1.0424 4.0079-1.4023 6.0121-1.259-4.0431-1.5122-7.8428-3.1948-9.6187-0.6356-0.67079-2.4108-0.26696-3.2439 1.2419-0.8868 1.6062-0.8409 4.3498-1.8069 4.4599-1.0687 0.12158-1.2299-3.3728-2.4011-4.8176-0.85986-1.0608-2.3979-0.63773-3.1822-0.0524-1.5273 1.1398-2.8772 2.8788-4.8512 4.8584 0.0508 2.6301 0.10519 5.1485 0.24529 7.4464 0.0533 0.87306 0.92107 1.7778 1.9458 2.2346 0.84906 0.37845 1.8802 0.30986 1.9745 0.91998 0.156 1.0092-0.87591 1.7627-1.3113 2.8465-0.63651 1.584-0.74109 3.4349-0.12954 4.1948 1.5091 1.8755 3.4178 1.0827 7.2534 0.28939-0.88732 4.138-1.1066 6.7157 0.21222 7.6944 1.4039 1.0416 4.092-0.34577 8.1988-1.9414 0.36344 2.1653-0.42466 3.8698 0.36545 4.7824 0.54059 0.62429 1.4586 0.86411 2.8856 0.58429-7.1876 4.5566-5.9036 8.1504-5.516 9.9594 0.43937 2.05 3.2253 4.6453 8.895 1.0082 0.39119-0.32091 0.88329-0.19207 1.1355 0.2238 0.22245 0.36673 0.6396 0.42879 1.1763 0.51759 0.67766 3.4419 1.5496 4.5544 0.77556 5.1506-0.90389 0.69601-2.8475-0.50939-4.7575-0.94148-1.8513-0.41878-3.673-0.0669-4.3937 0.68902-0.47821 0.50167-0.84239 1.5895-0.48121 3.0758 0.49493 2.037 1.8376 4.6087 1.4144 5.489-0.45553 0.94757-1.9482 0.15436-3.1855-0.0243-1.1754-0.16965-2.1769 0.6464-2.3212 1.7716-0.39158 3.0541 0.0887 6.5271 0.34285 10.42 2.0934 1.5397 3.9131 2.6854 5.4482 3.2852 1.0153 0.39675 2.8432-0.0147 3.6253-1.3571 1.0055-1.7258 0.91874-4.5674 1.8808-4.7272 0.75609-0.12571 1.3283 1.7963 2.1734 3.3993 0.73837 1.4004 1.7468 2.5116 2.465 2.4038 1.579-0.23701 1.9151-2.5699 2.6172-5.0116 0.6392-2.2231 0.96732-4.4566 1.6807-4.9797 0.72537-0.53205 0.84101 1.503 1.6454 2.8426 0.35182 0.58601 0.73804 1.1692 1.2231 1.4442 0.62367 0.35348 1.3472 0.28286 1.6978-0.0469 0.69404-0.65269 1.4456-2.9077 1.6889-5.322 0.26735-2.6516 0.0163-5.4959 0.6135-6.6196 0.62385-1.174 0.73161 2.0714 2.6205 2.2517 1.0325 0.0986 1.5508-1.9201 1.8069-3.2886 0.39628-2.1183 0.75239-4.3909 1.0308-6.9608 0.61393-2.8919 1.7454-2.0575 1.7903 0.38695 0.18936 8.157-0.65357 15.452-1.3549 21.803-0.36713 3.3247-0.80559 6.3571-1.2694 9.1524-0.47947 2.8892-0.99582 5.5236-2.0715 7.8212-0.40905 0.87368-1.3224 1.6628-2.2931 1.4381-1.6179-0.37438-3.4002-1.2324-4.5652-0.44318-0.5757 0.39007-1.2937 1.0116-1.6873 1.8328-0.50609 1.056-0.51712 2.3433-1.3637 2.5213-0.90763 0.19086-1.8037-1.1119-2.8895-1.598-1.0201-0.45658-2.2363-0.10418-2.9407 0.2271-2.1662 1.0189-3.9212 4.8831-1.1741 8.4176 0.30493-2.7 0.95398-3.8045 1.7942-4.0371 0.85491-0.23661 1.601 0.59981 2.691 1.404 1.4468 1.0673 3.2661 2.2078 4.4665 1.9767 0.76934-0.14811 1.5804-0.91923 2.0549-1.7567 0.50511-0.89143 0.67438-1.8537 1.5572-2.0643 0.88274-0.21058 1.9338 0.63681 3.1618 1.0986 1.1533 0.43378 2.487 0.48716 3.2599 0.21056 1.0637-0.38069 1.7533-0.5771 2.7158-1.4012-0.24134 2.397-0.98559 3.7567-1.9954 4.5023-1.4201 1.0484-3.3917 0.4322-5.1787 0.0656-1.9522-0.40048-3.9385 0.10664-4.693 1.4944-0.55461 1.0202-0.68627 2.3437-0.17859 4.1258l1.9943 0.6328c0.15411-1.4805 1.1595-1.7698 2.5163-1.5848 1.1336 0.15465 2.3086 1.0156 3.6424 1.4144 1.5117 0.45192 3.1697 0.41724 4.1407 0.0369 2.2236-0.87083 4.0743-2.4328 5.5028-4.7768 3.5657-6.7955 0.94411-7.0149 4.5752 0 1.4285 2.344 3.2792 3.906 5.5028 4.7768 0.97101 0.3803 2.6291 0.41498 4.1407-0.0369 1.3338-0.39882 2.5088-1.2598 3.6424-1.4144 1.3568-0.18501 2.3622 0.10422 2.5163 1.5848l1.9943-0.6328c0.50768-1.7821 0.37601-3.1056-0.17859-4.1258-0.75458-1.3877-2.7408-1.8948-4.693-1.4944-1.787 0.36661-3.7586 0.98281-5.1787-0.0656-1.0098-0.74559-1.754-2.1054-1.9954-4.5023 0.96254 0.82409 1.6521 1.0205 2.7158 1.4012 0.77289 0.2766 2.1066 0.22322 3.2599-0.21056 1.2279-0.46178 2.279-1.3092 3.1618-1.0986s1.0521 1.1729 1.5572 2.0643c0.47452 0.8375 1.2856 1.6086 2.0549 1.7567 1.2004 0.23109 3.0197-0.90935 4.4665-1.9767 1.09-0.80414 1.8361-1.6406 2.691-1.404 0.84023 0.23257 1.4893 1.3371 1.7942 4.0371 2.7471-3.5345 0.9921-7.3987-1.1741-8.4176-0.70442-0.33128-1.9207-0.68368-2.9407-0.2271-1.0858 0.48606-1.9818 1.7888-2.8895 1.598-0.84659-0.17799-0.85761-1.4653-1.3637-2.5213-0.39359-0.82123-1.1116-1.4427-1.6873-1.8328-1.165-0.78921-2.9473 0.0688-4.5652 0.44318-0.9707 0.22463-1.884-0.56445-2.293-1.4381-1.0756-2.2976-1.592-4.932-2.0715-7.8212-0.46386-2.7953-0.90232-5.8277-1.2694-9.1524-0.70132-6.3512-1.5442-13.646-1.3549-21.803 0.0449-2.4445 1.1764-3.2788 1.7904-0.38695 0.27839 2.5699 0.6345 4.8425 1.0308 6.9608 0.25606 1.3685 0.77436 3.3872 1.8069 3.2886 1.8889-0.18028 1.9966-3.4258 2.6205-2.2517 0.59716 1.1237 0.34615 3.9679 0.6135 6.6196 0.24336 2.4143 0.99488 4.6693 1.6889 5.322 0.35055 0.32971 1.0741 0.40033 1.6977 0.0469 0.4851-0.27503 0.87133-0.85817 1.2232-1.4442 0.80437-1.3396 0.92001-3.3747 1.6454-2.8426 0.71334 0.52307 1.0414 2.7566 1.6807 4.9797 0.70204 2.4418 1.0382 4.7746 2.6172 5.0116 0.71827 0.10776 1.7267-1.0034 2.465-2.4038 0.84514-1.603 1.4174-3.525 2.1734-3.3993 0.96201 0.1598 0.87524 3.0014 1.8807 4.7272 0.7821 1.3424 2.6101 1.7538 3.6254 1.3571 1.5351-0.59981 3.3548-1.7456 5.4482-3.2852 0.25414-3.8925 0.73443-7.3656 0.34285-10.42-0.14431-1.1252-1.1458-1.9412-2.3212-1.7716-1.2372 0.17861-2.7299 0.97182-3.1855 0.0243-0.42322-0.88026 0.91951-3.452 1.4144-5.489 0.36119-1.4863-0.003-2.5741-0.48119-3.0758-0.72074-0.75591-2.5424-1.1078-4.3937-0.68902-1.91 0.43209-3.8536 1.6375-4.7575 0.94148-0.77405-0.59611 0.0979-1.7086 0.77556-5.1506 0.5367-0.0888 0.95385-0.15086 1.1763-0.51759 0.25222-0.41587 0.74431-0.54471 1.1355-0.2238 5.6697 3.6371 8.4556 1.0418 8.895-1.0082 0.38761-1.8089 1.6716-5.4028-5.516-9.9594 1.427 0.27982 2.345 0.04 2.8856-0.58429 0.79011-0.91255 0.002-2.617 0.36545-4.7824 4.1068 1.5956 6.7949 2.983 8.1988 1.9414 1.3188-0.97868 1.0995-3.5564 0.21223-7.6944 3.8356 0.79327 5.7443 1.5861 7.2534-0.28939 0.61155-0.75988 0.50698-2.6108-0.12951-4.1948-0.43544-1.0838-1.4674-1.8373-1.3114-2.8465 0.0943-0.61012 1.1254-0.54153 1.9745-0.91998 1.0247-0.45683 1.8925-1.3616 1.9458-2.2346 0.14009-2.2979 0.19448-4.8163 0.24528-7.4464-1.974-1.9796-3.3239-3.7186-4.8512-4.8584-0.78427-0.58536-2.3223-1.0085-3.1822 0.0524-1.1712 1.4449-1.3324 4.9392-2.4011 4.8176-0.96599-0.11006-0.9201-2.8536-1.8069-4.4599-0.83309-1.5088-2.6083-1.9127-3.2439-1.2419-1.6826 1.7759-1.9359 5.5756-3.1948 9.6187-0.35992-2.0042-0.80501-4.0081-1.4023-6.0121 1.7225-1.1131 1.9436-3.6067 1.6906-5.0861-0.42176-2.4654-2.3555-5.3257-7.7225-5.7034l0.0298-0.86265c2.047 0.90878 3.5118 1.0531 4.3326 0.35168 0.77097-0.65908 0.97375-2.0644 0.55617-4.284 5.3178 1.6328 8.847 3.028 10.242 1.6404 0.65213-0.64848 0.87613-2.2575 0.30372-3.46-0.47362-0.99516-1.1056-2.0533-1.1206-3.2874 0.69768-0.16944 3.2571 0.20205 4.3562 0.64768 2.5511 1.0343 4.2076 0.72792 4.9891-0.28884 0.75848-0.98688 0.85034-2.995-0.67964-5.2707-0.59386-0.88348-2.0844-2.1191-1.8334-3.218 2.7506-0.50199 3.8715-0.34594 4.6903-1.964 1.1589-2.2897-0.12985-5.9879 0.25248-11.04-1.1373-0.59806-2.0842-1.2478-2.9325-1.7198-0.84808-0.47196-1.5973-0.76685-2.4584-1.13-0.79395-0.33488-2.1298-0.54266-2.9925 0.61681s-1.253 3.6865-1.9778 3.541c-0.67934-0.13652-0.84342-1.5984-1.3946-2.9589-0.29272-0.72275-0.49132-1.5148-0.87974-2.0527-0.44024-0.60967-1.0742-0.91894-1.4403-0.89462-0.45615 0.0303-1.0777 0.30265-1.609 0.92108-0.77648 0.9038-1.4625 2.4127-1.996 3.8723-0.81808 2.2381-0.96035 4.6801-1.8003 5.0276-0.92069 0.38099-1.1105-3.0012-2.0064-4.2714-1.0478-1.4855-2.7774-0.83635-3.4644 0.69343-1.1717 2.6088-1.3506 6.3728-2.3548 11.641-0.40422 0.23159-0.78613-0.48344-1.1443-0.62563-0.4605-0.18278-0.88174-0.25427-1.2623-0.20836-0.72001 0.08699-1.2932 0.59448-1.7049 1.5632-0.66092-2.2108-3.8316-2.0263-3.7047-3.1651 0.11298-1.015 2.1463-1.9404 3.2748-2.9225 1.2265-1.0675 1.0731-2.3731 0.80698-3.336-0.71844-2.5987-1.7303-5.1322-3.2031-7.6233-4.2714 0.29662-6.7722-0.21938-8.3917 1.2375-1.2595 1.1332-0.70035 2.2362-0.96959 5.8903v0.0017c-1.2482-0.49733-2.1358-1.995-3.0113-2.6045-1.6715-1.1635-2.8678-1.3685-3.5421-0.52035-0.56419 0.70934-0.76306 2.1558-0.56941 4.3943 0.18195 2.1029 2.018 6.3024 1.6084 8.4512-2.0754-2.4535-3.7642-3.6184-4.8887-2.8994-0.25137 0.48794-0.0662 1.4354-0.0612 2.228 0.005 0.89811 0.0448 1.8653 0.12622 2.9159 0.13524 1.7449 1.2184 5.3869 0.78769 5.9983-1.3477-0.37598-2.5978-0.48293-3.7119-0.21608-1.114-0.2667-2.3638-0.15984-3.7113 0.21608-0.43066-0.61146 0.65245-4.2534 0.78768-5.9983 0.0814-1.0506 0.12123-2.0178 0.12623-2.9159 0.005-0.79261 0.19019-1.7401-0.0612-2.228-1.1246-0.71903-2.8134 0.44591-4.8887 2.8994-0.40957-2.1488 1.4265-6.3483 1.6084-8.4512 0.19366-2.2385-0.005-3.685-0.5694-4.3943-0.67431-0.84816-1.8706-0.6432-3.5421 0.52035-0.87553 0.60951-1.7631 2.1072-3.0113 2.6045v-0.0017c-0.26924-3.6541 0.28994-4.7571-0.96959-5.8903-1.6196-1.4569-4.1203-0.94086-8.3917-1.2375-1.4728 2.4912-2.4847 5.0246-3.2031 7.6233-0.26616 0.96284-0.41956 2.2684 0.80698 3.336 1.1285 0.98217 3.1618 1.9075 3.2748 2.9225 0.12684 1.1388-3.0438 0.95425-3.7047 3.1651-0.41174-0.96876-0.9849-1.4763-1.7049-1.5632-0.38054-0.04591-0.80178 0.02558-1.2623 0.20836-0.35819 0.14219-0.74011 0.85722-1.1443 0.62563-1.0042-5.2683-1.1831-9.0324-2.3548-11.641-0.68697-1.5298-2.4166-2.1789-3.4644-0.69343-0.89594 1.2702-1.0857 4.6524-2.0064 4.2714-0.83991-0.34753-0.98218-2.7896-1.8003-5.0276-0.53347-1.4596-1.2195-2.9685-1.996-3.8723-0.53135-0.61843-1.1529-0.89078-1.609-0.92108zm18.123 21.622c1.4471 1.1784 2.5528 2.0836 3.3729 2.658 0.82009 0.57451 1.355 0.8182 1.4844 1.5522 0.15412 0.87425-0.38078 1.2253-1.394 2.1553-0.39636 0.3639-0.91199 0.97377-1.3317 1.6548-1.3722-2.0464-1.8738-4.9177-2.1316-8.0202zm49.337 0c-0.25781 3.1025-0.75937 5.9738-2.1316 8.0202-0.41974-0.68098-0.93537-1.2908-1.3317-1.6548-1.0132-0.92997-1.5481-1.281-1.394-2.1553 0.12938-0.73402 0.66433-0.97771 1.4844-1.5522 0.82012-0.57438 1.9258-1.4796 3.3729-2.658zm-44.876 11.601c3.8509 0.22058 3.0094 0.3426 4.4577 0.52696 1.3182 0.16778 2.2571 0.42441 1.8708 0.98943-0.60417 0.81651-0.99975 1.7027-1.2524 2.6365-2.0045-1.3843-3.7166-2.7684-5.0761-4.1528zm40.415 0c-1.3596 1.3844-3.0717 2.7686-5.0761 4.1528-0.25261-0.93373-0.64819-1.82-1.2524-2.6365-0.38624-0.56502 0.55263-0.82165 1.8708-0.98943 1.4482-0.18436 0.60675-0.30638 4.4577-0.52696zm-46.58 0.25025c0.3185-0.0115 0.62383 0.0618 0.91392 0.23426 1.443 1.431 2.8862 2.7658 4.3292 4.0211-0.73297 0.19389-1.5751 0.29669-2.6591 0.19789-1.0353-1.1771-0.83553-2.2735-2.648-3.4975-0.29648-0.20026-0.86675-0.27193-1.0655-0.61184 0.25921-0.25306 0.7686-0.33096 1.1294-0.34396zm52.746 0c0.36083 0.013 0.87023 0.0909 1.1294 0.34396-0.19874 0.33991-0.76901 0.41158-1.0655 0.61184-1.8125 1.224-1.6127 2.3203-2.648 3.4975-1.084 0.0988-1.9261-0.004-2.6591-0.19789 1.4431-1.2553 2.8862-2.5902 4.3292-4.0211 0.29009-0.17243 0.59541-0.24575 0.91392-0.23426zm-37.725 6.6741c0.47564 0.0643 0.93073-0.0373 1.362 0.048 0.78226 0.15465 1.4002 0.48357 2.0147 0.76453 0.54218 0.24782 1.1017 0.43906 1.4921 0.71769 0.56123 0.40034 1.1979 0.70461 1.3968 1.2772 0.1596 0.45952-0.0489 1.1549-0.15654 1.7413-0.25305 0.17603-0.54721-0.42028-1.0567-0.91888-0.38394-0.37568-0.96617-0.62019-1.3185-0.86265-1.2799-0.8805-2.6136-1.7093-3.7339-2.7671zm22.704 0c-1.1203 1.0578-2.4541 1.8866-3.7339 2.7671-0.35234 0.24246-0.93457 0.48697-1.3185 0.86265-0.50947 0.4986-0.80363 1.0949-1.0567 0.91888-0.10763-0.58641-0.31614-1.2818-0.15655-1.7413 0.19892-0.57255 0.83556-0.87682 1.3968-1.2772 0.39045-0.27863 0.94997-0.46987 1.4921-0.71769 0.61446-0.28096 1.2324-0.60988 2.0147-0.76453 0.43132-0.0853 0.88642 0.0163 1.3621-0.048zm-32.345 1.4502c1.1887 0.002 2.6078 0.23911 3.4936 0.53468 2.2071 0.73643 6.896 4.2652 6.4994 5.0023-0.86991-0.003-1.5964 0.0432-2.3239 0.62673-0.60546 0.48571-1.2184 1.2342-2.2688 2.2082 0.0954-3.0916-0.0859-5.1528-1.2413-6.3649-1.0311-1.0818-1.0463-0.62893-3.7918-0.88414-0.63673-0.0592-1.4657-0.0549-2.4601-0.11245-0.2649-1.0981 0.82751-1.0124 2.093-1.0104zm41.986 0c1.2655-0.002 2.3579-0.0877 2.093 1.0104-0.99434 0.0576-1.8233 0.0533-2.4601 0.11245-2.7455 0.25521-2.7607-0.19764-3.7918 0.88414-1.1554 1.212-1.3367 3.2733-1.2413 6.3649-1.0504-0.974-1.6634-1.7225-2.2688-2.2082-0.72749-0.58351-1.454-0.62973-2.3239-0.62673-0.39661-0.73712 4.2923-4.2658 6.4994-5.0023 0.88578-0.29557 2.3049-0.53268 3.4936-0.53468zm-50.717 5.2939c0.32383 0.31238 0.42273 0.66168 0.39523 1.0324 1.1518 0.14451 2.1298-0.0937 2.9887-0.59366-0.0922 2.1058-0.84445 4.602-0.28002 6.1885 0.53022 1.4906 2.0559 1.7778 3.4445 3.1292-0.70319 0.98884-2.3732 1.3402-2.7688 2.373-0.8973-1.8091-1.7435-2.7396-2.5384-2.7908-0.79461-0.0512-1.56 0.60069-2.2302 2.4832-0.86439-3.7795-1.1798-7.9545-2.5935-11.338 1.399-0.10236 2.5935-0.26361 3.5823-0.48342zm59.448 0c0.98884 0.21981 2.1834 0.38106 3.5824 0.48342-1.4137 3.384-1.7291 7.559-2.5935 11.338-0.67018-1.8825-1.4356-2.5345-2.2302-2.4832-0.79484 0.0512-1.641 0.98166-2.5383 2.7908-0.39554-1.0328-2.0656-1.3841-2.7688-2.373 1.3886-1.3515 2.9143-1.6387 3.4445-3.1292 0.56443-1.5864-0.18784-4.0827-0.28002-6.1885 0.85888 0.49995 1.8369 0.73817 2.9887 0.59366-0.0275-0.37075 0.0714-0.72005 0.39522-1.0324zm-38.756 2.4937v0.00055c0.7115 0.032 1.2017 1.4051 1.6658 2.1867 0.67836 1.1423 1.177 2.4648 1.5947 3.8679v0.00055c-0.0487 0.65124-0.8745-0.0753-1.286 0.004-0.41158 0.079-0.80385 0.26108-1.1697 0.62122-0.6165 0.60703-1.3854 1.2086-2.0048 2.1431 0.0659-2.9374 1.1863-5.8749 1.0545-8.8123 0.0494-0.0106 0.0981-0.0136 0.14552-0.0116zm18.065 0c0.0474-0.002 0.0961 0.00097 0.14552 0.0116-0.13184 2.9374 0.98858 5.8749 1.0545 8.8123-0.61935-0.9345-1.3883-1.5361-2.0048-2.1431-0.36583-0.36014-0.7581-0.54222-1.1697-0.62122-0.41148-0.0792-1.2373 0.64738-1.286-0.004v-0.00055c0.41772-1.4031 0.91631-2.7256 1.5947-3.8679 0.46411-0.78158 0.95427-2.1546 1.6658-2.1867v-0.00055zm-14.145 10.649c0.30213 2.5148 0.33542 5.0517-0.0656 7.625-0.31125-0.0733-0.58972 0.0404-0.8599 0.20064-0.27012 0.16026-0.57592 0.67476-0.81028 0.48066-0.40896-0.25611 0.29626-2.1241 0.51594-3.2218 0.33173-1.6573 0.7586-3.3623 1.2198-5.0844zm10.226 0c0.46124 1.7221 0.88811 3.4271 1.2198 5.0844 0.21968 1.0978 0.9249 2.9657 0.51594 3.2218-0.23436 0.1941-0.54016-0.3204-0.81029-0.48066-0.27017-0.16028-0.54864-0.27393-0.85989-0.20064-0.40102-2.5732-0.36773-5.1101-0.0656-7.625zm-29.65 3.643c1.4618 1.1014 4.3855 2.1024 4.5657 2.9435-0.50477 0.37944-0.80009 0.81942-1.1697 1.2546-0.39346 0.46313-0.85014 0.92645-1.0049 1.4877-0.0899 0.32572-0.032 0.67153-0.0182 1.0401 0.0178 0.47399 0.0283 0.98595 0.25025 1.544-0.87065 0.0938-1.062-2.0395-1.4469-3.1882-0.52761-1.5743-1.4129-3.873-1.1763-5.0816zm49.075 0c0.23664 1.2086-0.6487 3.5073-1.1763 5.0816-0.3849 1.1487-0.57629 3.282-1.4469 3.1882 0.22191-0.558 0.23245-1.07 0.25026-1.544 0.0138-0.36861 0.0717-0.71442-0.0182-1.0401-0.15472-0.56128-0.6114-1.0246-1.0049-1.4877-0.36959-0.43515-0.66491-0.87513-1.1697-1.2546 0.18018-0.8411 3.1039-1.8421 4.5657-2.9435zm-43.57 10.545c3.7012 0.37514 5.3579 1.2189 3.9324 2.7688-1.4274-0.71841-2.7182-1.6765-3.9324-2.7688zm38.065 0c-1.2142 1.0923-2.505 2.0503-3.9324 2.7688-1.4256-1.5498 0.23116-2.3936 3.9324-2.7688zm-47.744 0.50106c0.52858 0.004 1.062 0.077 1.5561 0.14221 1.3172 0.17386 2.6349 0.7754 3.9522 1.8052-1.6182 0.56157-2.9692 1.1766-4.0525 1.8455-0.90963-1.5515-2.1935-2.5144-3.8519-2.8889 0.64788-0.72722 1.5152-0.911 2.3961-0.90399zm57.423 0c0.88098-0.007 1.7482 0.17677 2.3961 0.90399-1.6584 0.37454-2.9423 1.3374-3.8519 2.8889-1.0834-0.66883-2.4343-1.2839-4.0525-1.8455 1.3173-1.0298 2.635-1.6314 3.9522-1.8052 0.49406-0.0652 1.0275-0.13812 1.5561-0.14221zm-50.734 5.9961c0.65471-0.003 1.2894 0.0553 1.8504 0.15379 1.9108 0.33549 3.6401 1.3683 5.2046 3.0311-2.6712-0.78359-4.5207-0.79099-5.4603 0.0606-0.8828 0.80009-0.56525 2.2731-0.16812 4.7432-2.3862-0.0102-4.6718-0.47303-6.9067-1.1653-0.19266-0.78028 0.9746-1.9297 1.2138-2.8531 0.25462-0.98288-0.0135-1.9067 0.23592-2.8603 1.0545-0.80446 2.5902-1.1042 4.0305-1.1102zm44.046 0c1.4403 0.006 2.976 0.30569 4.0305 1.1102 0.24944 0.95355-0.0187 1.8774 0.23592 2.8603 0.23918 0.92339 1.4064 2.0728 1.2138 2.8531-2.2349 0.69224-4.5205 1.155-6.9067 1.1653 0.39713-2.4701 0.71468-3.9431-0.16812-4.7432-0.93966-0.85163-2.7891-0.84423-5.4603-0.0606 1.5645-1.6628 3.2938-2.6956 5.2046-3.0311 0.56099-0.0985 1.1957-0.15651 1.8504-0.15379z" fill="#1b1918"/>
<g>
<path id="path4320" d="m325.44 261.07c-1.5438 0.001-3.388 1.9485-4.8652 5.5508-1.6881 4.1174-2.8962 10.395-4.9023 13.848-1.8237 3.1393-4.6278 3.3064-6.3379 2.8164-4.5045-1.2909-5.2976-17.226-10.357-18.215-5.3868-1.0537-16.645 5.7493-21.146 12.176-0.004 5.849-3.1986 24.995-0.51758 30.928 3.0384 6.7236 14.909 0.58168 17.846 6.2949 3.3574 6.5324-1.8876 9.6946-6.3125 16.021-4.1651 5.9549-5.0071 13.644-3.1387 15.648 2.6231 2.8142 7.0083 1.9038 13.566-0.20703 8.4515-2.7198 18.818-7.8165 21.184-5.543 1.9121 1.8384 2.1859 6.3449 0.30274 11.271-2.7521 7.2009-8.3355 15.302-5.4668 17.289 2.9765 2.0624 11.844-1.8463 19.734-4.3926 7.8908-2.5465 14.806-3.7308 17.867-2.4746 1.5891 0.65211 0.18812 5.0656-0.33593 9.1992-0.40773 3.216-0.0613 6.3756 1.1894 6.7461 5.1177 1.5159 21.803-7.5476 23.178-9.791-15.994-14.703-31.868-29.494-47.529-44.445-6.0149-5.743-12.001-9.9451-17.949-15.738-8.1505-7.9396-17.938-16.5-24.232-25.547 14.783 12.658 29.766 24.967 44.9 37.01 19.458 15.484 40.59 33.656 59.027 45.309-1.6851-8.3605-5.7483-34.206-10.416-42.197-2.801-4.7952-8.0954 8.6367-11.439 3.9492-5.081-7.1202-4.8019-43.637-11.768-50.232-1.8302-1.7334-3.9344 10.281-7.6523 16.938-2.713 4.8578-7.1499 5.0683-8.6973 3.8711-4.6594-3.6046-8.9133-33.563-15.088-35.963-0.20622-0.0802-0.42183-0.11932-0.64257-0.11914zm299.41 0c-0.22074-0.00015-0.43618 0.039-0.64258 0.11914-6.1745 2.3999-10.429 32.358-15.088 35.963-1.5474 1.1972-5.9843 0.98668-8.6973-3.8711-3.718-6.6569-5.8222-18.671-7.6524-16.938-6.9657 6.5955-6.6866 43.112-11.768 50.232-3.3441 4.6874-8.6385-8.7444-11.439-3.9492-4.6677 7.9912-8.7309 33.837-10.416 42.197 18.438-11.653 39.569-29.825 59.027-45.309 15.135-12.043 30.117-24.352 44.9-37.01-6.2942 9.0472-16.082 17.607-24.232 25.547-5.9479 5.7932-11.934 9.9952-17.949 15.738-15.662 14.951-31.536 29.743-47.529 44.445 1.3744 2.2434 18.06 11.307 23.178 9.791 1.2506-0.37052 1.5972-3.5301 1.1894-6.7461-0.52419-4.1337-1.9251-8.5471-0.33594-9.1992 3.0614-1.2562 9.9764-0.0719 17.867 2.4746 7.8905 2.5463 16.758 6.455 19.734 4.3926 2.8687-1.987-2.7147-10.088-5.4668-17.289-1.883-4.9266-1.6093-9.4331 0.30273-11.271 2.366-2.2735 12.732 2.8231 21.184 5.543 6.5581 2.1108 10.943 3.0212 13.566 0.20703 1.8685-2.0045 1.0263-9.6935-3.1387-15.648-4.4249-6.3269-9.6698-9.4891-6.3125-16.021 2.9368-5.7132 14.807 0.42864 17.846-6.2949 2.6811-5.9328-0.51248-25.079-0.51758-30.928-4.5019-6.4265-15.76-13.23-21.146-12.176-5.0598 0.98933-5.8529 16.924-10.357 18.215-1.7101 0.49003-4.5142 0.32286-6.3379-2.8164-2.0061-3.4531-3.2144-9.7302-4.9023-13.848-1.4772-3.6023-3.3214-5.5497-4.8652-5.5508zm-226.97 4.8926c-2.3014 8.5508-10.902 19.01-10.232 26.361 0.14847 1.6346 0.45 3.5443 1.6211 4.7832 1.9519 2.0646 5.367 3.2249 7.5195 5.1758 3.1358 2.8415 4.5063 6.3804 3.7324 9.2129-1.8347 6.7139-13.665 6.3838-12.189 13.449 6.912 8.7934 14.922 11.419 21.705 17.875 1.506 1.4337 2.372 4.8129-0.0645 7.75-4.1985 5.0621-13.434 10.407-11.697 13.719 2.9231 5.5714 27.18 4.0729 30.975 8.877 3.3433 4.2328-6.8232 12.104-2.6152 15.562 4.769 3.9198 23.642 6.6695 27.334 8.668 0.49826-2.2635-1.2171-5.484-2.5703-9.4199-6.074-17.667-21.136-49.733-31.459-74.209l-14.152-35.596 16.707 32.633 42.504 75.279c2.7303 3.6498 3.5723-2.5784 4.4727-7.0078 1.2336-6.0693 1.5652-15.335 1.8476-24.773-3.5583-3.8406-6.5976 5.0282-9.7969 2.375-4.3803-3.6328 3.3112-32.135 0.63672-39.346-0.96439-2.5994-4.2916 3.4523-8.1973 6.957-3.0372 2.7257-6.7986 3.1109-7.6719 1.8281-2.9572-4.3453 1.9824-22.418 3.7344-34.873 0.7965-5.6614 0.29482-9.4157-0.78125-11.506-2.6784-5.2012-19.652 16.323-21.91 11.039-0.68559-1.6043-1.4788-3.7814-1.5996-5.9688-0.30898-5.5917 0.78935-12.002-2.7578-14.652-5.5931-4.1792-17.188-3.9946-25.094-4.1934zm154.53 0c-7.9059 0.19874-19.501 0.0142-25.094 4.1934-3.5472 2.6502-2.449 9.0606-2.7578 14.652-0.12082 2.1874-0.91401 4.3644-1.5996 5.9688-2.2583 5.2835-19.232-16.24-21.91-11.039-1.0761 2.0901-1.5778 5.8445-0.78125 11.506 1.752 12.455 6.6916 30.528 3.7344 34.873-0.87332 1.2828-4.6347 0.89762-7.6719-1.8281-3.9057-3.5047-7.2329-9.5564-8.1973-6.957-2.6745 7.2102 5.017 35.713 0.63672 39.346-3.1992 2.6532-6.2385-6.2156-9.7969-2.375 0.2824 9.4386 0.61409 18.704 1.8476 24.773 0.90036 4.4294 1.7424 10.658 4.4727 7.0078l42.504-75.279 16.707-32.633-14.152 35.596c-10.323 24.476-25.385 56.542-31.459 74.209-1.3532 3.9359-3.0686 7.1564-2.5703 9.4199 3.6925-1.9985 22.565-4.7482 27.334-8.668 4.208-3.4584-5.9586-11.33-2.6152-15.562 3.7944-4.8041 28.052-3.3055 30.975-8.877 1.7372-3.3116-7.4987-8.6567-11.697-13.719-2.4364-2.9371-1.5704-6.3163-0.0644-7.75 6.7832-6.4563 14.793-9.0816 21.705-17.875 1.4754-7.0654-10.355-6.7353-12.189-13.449-0.77389-2.8325 0.5966-6.3714 3.7324-9.2129 2.1525-1.9509 5.5676-3.1112 7.5195-5.1758 1.1711-1.2389 1.4726-3.1486 1.6211-4.7832 0.66919-7.3513-7.931-17.81-10.232-26.361zm-226.73 143.07c-2.6096 0.00053-5.6702 11.814-8.7988 18.727-1.8719 4.1362-3.874 4.7544-5.5625 4.3262-2.1642-0.54836-5.1313-4.0326-5.9394-7.6191-1.3213-5.8643-4.6238-11.791-8.0957-11.549-5.1609 0.35907-13.772 14.237-18.02 18.186 0.0106 3.0647-0.33945 9.153-0.59375 14.713-0.17398 3.8036-0.62372 7.361 0.39062 9.5332 2.3447 5.0233 12.773 1.8192 15.709 6.5684 0.91705 1.4837 0.58329 4.6604-1.3086 8.3555-1.6368 3.1968-5.1578 6.4808-6.998 9.6934-2.2208 3.8776-2.546 7.5152-1.3848 8.9707 3.6675 4.5974 26.193-5.4117 29.496-0.82813 1.7587 2.4403-1.3876 10.358-2.9258 17.141-0.98614 4.3483-1.1325 8.5883 0.50977 9.4473 3.5522 1.8584 12.391-2.3387 19.619-5.3144 5.2747-2.1714 9.4084-3.7628 11.402-1.5312 1.257 1.4068 2.1267 4.4228 2.1055 7.627-0.0248 4.12-1.0284 8.5515 0.66016 10.281 9.3273-0.21508 9.7516-3.7416 14.566-5.6953 5.8106-2.3582 11.848-4.4077 19.152-4.7383-10.584-10.372-21.543-20.476-32.748-30.406-8.4824-7.5168-17.862-14.933-26.568-22.289-10.183-8.6043-19.724-17.128-30.047-25.631 31.829 24.068 66.392 47.224 100.71 70.465 3.404 0.69095-2.2303-8.821-3.2949-12.654-1.3686-4.9287-2.6816-9.2212-3.9375-12.879-2.8094-8.1815-3.919-19.804-6.5273-21.061-3.3434-1.6096-4.8071 5.2994-6.3516 8.6387-6.0574 2.49-8.5588-10.202-9.6016-16.705-2.423-15.112-4.1787-27.989-8.4668-29.389-4.6814-1.5281-3.6918 6.7349-6.877 14.736-1.3449 3.3782-1.1944 9.7704-6.5059 8.2227-2.9554-0.74906-4.1708-11.15-6.4297-20.795-1.8137-7.7429-4.6758-14.999-6.8164-16.385-0.17008-0.10984-0.34371-0.16246-0.51758-0.16211zm298.93 0c-0.17398-0.00004-0.34761 0.0526-0.51758 0.16211-2.1406 1.3856-5.0027 8.6419-6.8164 16.385-2.2589 9.6449-3.4743 20.046-6.4297 20.795-5.3114 1.5477-5.161-4.8445-6.5059-8.2227-3.1852-8.0014-2.1956-16.264-6.877-14.736-4.2881 1.3999-6.0437 14.276-8.4668 29.389-1.0428 6.5032-3.5442 19.195-9.6016 16.705-1.5445-3.3393-3.0081-10.248-6.3516-8.6387-2.6083 1.2561-3.7179 12.879-6.5273 21.061-1.2559 3.6577-2.5689 7.9502-3.9375 12.879-1.0646 3.8333-6.6989 13.345-3.2949 12.654 34.313-23.24 68.876-46.397 100.71-70.465-10.323 8.5033-19.864 17.027-30.047 25.631-8.7068 7.3565-18.086 14.772-26.568 22.289-11.205 9.9299-22.164 20.034-32.748 30.406 7.3042 0.33059 13.342 2.38 19.152 4.7383 4.8147 1.9537 5.2391 5.4803 14.566 5.6953 1.6885-1.7298 0.68656-6.1613 0.66016-10.281-0.0213-3.2041 0.84848-6.2202 2.1055-7.627 1.9939-2.2315 6.1276-0.64016 11.402 1.5312 7.2285 2.9758 16.067 7.1728 19.619 5.3144 1.6423-0.85893 1.496-5.0989 0.50977-9.4473-1.5381-6.7831-4.6846-14.7-2.9258-17.141 3.3026-4.5836 25.829 5.4255 29.496 0.82813 1.1612-1.4555 0.836-5.0932-1.3848-8.9707-1.8403-3.2126-5.3613-6.4965-6.998-9.6934-1.8918-3.6951-2.2256-6.8718-1.3086-8.3555 2.9358-4.7491 13.364-1.545 15.709-6.5684 1.0144-2.1722 0.56442-5.7296 0.39062-9.5332-0.25441-5.5599-0.60505-11.648-0.59375-14.713-4.2479-3.9481-12.859-17.826-18.02-18.186-3.4719-0.24201-6.7744 5.6845-8.0957 11.549-0.80819 3.5865-3.7752 7.0708-5.9394 7.6191-1.6885 0.42821-3.6906-0.18992-5.5625-4.3262-3.1287-6.9125-6.1892-18.726-8.7988-18.727zm-221.09 2.3828c-4.2543-0.0677-8.7217 0.48721-11.596 0.16406-2.4542 8.6812-8.7285 18.348-8.5566 27.318 0.0656 3.4041 5.7124 5.1145 9.623 8.127 3.4504 2.6581 5.5811 6.6004 6.2949 9.4434 0.91031 3.6227-7.7967 6.5949-12.16 10.086-1.9829 1.5868-2.167 3.7333-1.7285 5.3027 1.6154 5.7778 22.249 11.298 23.973 16.965 0.63592 2.0898 0.0432 5.4867-3.4961 8.2285-4.0779 3.1591-7.8596 7.1614-6.4004 9.7324 3.4124 6.014 23.42 7.7578 26.211 14.098 1.4773 3.3563-0.67638 9.0772 0.9336 12.322 5.1768 4.0404 10.353 7.1345 15.529 9.2793-6.3384-26.49-18.258-50.377-27.387-75.564-5.6624-15.623-12.068-29.013-16.986-46.867 7.4099 16.432 15.726 33.186 24.814 50.219 10.299 19.302 21.032 38.959 33.678 58.9 0.97214-9.2111 1.9446-18.421 1.2109-27.631-3.0119-1.5435-5.6457 1.999-7.2168 1.084-1.2222-0.71185-1.9732-2.1425-2.3359-4.1699-1.382-7.7249 6.5812-24.242 8.3418-42.297-2.4424-1.6917-7.4782 1.9883-10.125 6.8203-1.4153 2.5838-5.4222 4.8151-7.8379 4.0352-1.9794-0.63844-4.4934-5.5916-2.0078-15.379 1.882-7.4118 6.9453-17.527 1.6992-22.811-0.94358-0.95035-3.3486-1.233-6.25 0.83789-5.1721 3.6917-10.217 11.572-14.787 9.1621-1.9424-1.0242-0.6665-4.3331-0.56445-8.2324 0.14952-5.6999-0.43026-12.664-2.5527-15.607-2.0254-2.8098-6.066-3.4987-10.32-3.5664zm143.26 0c-4.2543 0.0677-8.2949 0.75657-10.32 3.5664-2.1225 2.9436-2.7021 9.9075-2.5527 15.607 0.10205 3.8993 1.3779 7.2082-0.56445 8.2324-4.5697 2.41-9.615-5.4704-14.787-9.1621-2.9014-2.0709-5.3064-1.7882-6.25-0.83789-5.2461 5.2835-0.18284 15.399 1.6992 22.811 2.4856 9.7874-0.0283 14.74-2.0078 15.379-2.4156 0.77998-6.4226-1.4514-7.8379-4.0352-2.6468-4.832-7.6826-8.512-10.125-6.8203 1.7606 18.055 9.7238 34.572 8.3418 42.297-0.36272 2.0274-1.1138 3.4581-2.3359 4.1699-1.5711 0.91506-4.2048-2.6274-7.2168-1.084-0.73364 9.2103 0.23883 18.42 1.2109 27.631 12.646-19.941 23.378-39.598 33.678-58.9 9.0882-17.032 17.405-33.786 24.814-50.219-4.9182 17.854-11.324 31.244-16.986 46.867-9.1289 25.187-21.048 49.075-27.387 75.564 5.1767-2.1448 10.353-5.2389 15.529-9.2793 1.61-3.245-0.54369-8.966 0.93359-12.322 2.7906-6.3399 22.799-8.0836 26.211-14.098 1.4592-2.5711-2.3225-6.5733-6.4004-9.7324-3.5392-2.7418-4.132-6.1387-3.4961-8.2285 1.7241-5.6672 22.357-11.187 23.973-16.965 0.43845-1.5694 0.25442-3.716-1.7285-5.3027-4.3635-3.491-13.07-6.4632-12.16-10.086 0.71383-2.8429 2.8445-6.7853 6.2949-9.4434 3.9106-3.0124 9.5574-4.7228 9.623-8.127 0.17185-8.97-6.1025-18.637-8.5566-27.318-2.874 0.32315-7.3414-0.23173-11.596-0.16406zm-137.58 142.87c-1.2458 0.0354-2.2885 0.2941-3.1309 0.77539-3.5546 2.0306 1.4384 3.0344-0.11329 17.777-13.663 2.7117-22.815-2.9645-27.842 0.83008-5.0271 3.795 4.1584 11.674-3.0938 21.299-2.7956 1.9224-8.4706 0.31146-14.221-1.4453-6.517-1.9907-13.131-4.1682-15.762-1.6035-0.85911 0.83753-2.024 2.2042-1.8691 3.9141 0.39515 4.3706 4.1915 10.989 5.1367 16.787 0.45865 2.814 0.61866 5.5192-0.18164 7.6113-0.62231 1.6272-2.0911 2.8316-2.7363 3.7715-1.7553 2.556-5.0084 2.7393-8.0039 2.0684-2.9954-0.67131-5.7355-2.1972-7.0039 0.70899-2.537 5.8134 1.3456 25.588-0.15429 32.146 3.0453 3.3654 6.9597 5.1408 9.5898 7.2109 5.385 4.2391 8.8241 6.7042 12.469 5.5137 1.0164-0.33236 2.5936-0.71665 3.2168-1.8262 2.7007-4.8056 1.1736-17.089 7.2734-21.537 3.2721-1.1954 5.9416 0.0978 8.2031 2.5293 2.5283 2.7181 3.8756 6.8607 5.6582 10.541 2.2921 4.7315 4.8669 8.6995 6.957 7.8945 3.4071-1.3124 2.864-9.9361 4.9121-18.152 1.4943-5.9952 2.3802-15.864 6.7285-19.334 2.0481-1.7082 5.4343 2.1132 8.3027 6.7188 3.4622 5.5584 6.4175 12.134 8.5801 9.8945 2.4226-2.5097 2.7333-15.368 3.75-26.139 0.69555-7.37 2.0092-13.621 3.4219-15.479 1.1302-1.4859 3.8354-1.5808 5.8516 0.16797 1.1047 0.95829 1.4612 3.0651 2.3887 4.1914 1.5456 1.877 3.4875 2.4688 4.377 1.0293 0.68429-1.1072 1.6494-3.4239 2.1543-6.1738 0.78768-4.29 1.0362-9.8314 1.8047-14.986 1.2615-8.4592 2.8412-15.515 0.48437-13.27-30.479 24.294-60.866 48.68-92.809 71.51l86.217-86.996c-1.5422-4.3316-9.1096-4.9261-12.627-6.2402-3.2131-1.2005-5.8533-1.7667-7.9297-1.709zm131.89 0c-2.0764-0.0578-4.7165 0.50851-7.9297 1.709-3.5174 1.3141-11.085 1.9086-12.627 6.2402l86.217 86.996c-31.942-22.83-62.33-47.216-92.809-71.51-2.3569-2.2456-0.77712 4.8104 0.48437 13.27 0.76847 5.1549 1.017 10.696 1.8047 14.986 0.50492 2.7499 1.47 5.0665 2.1543 6.1738 0.88944 1.4395 2.8314 0.84766 4.377-1.0293 0.92746-1.1263 1.2839-3.2331 2.3887-4.1914 2.0162-1.7488 4.7213-1.6539 5.8516-0.16797 1.4127 1.8574 2.7263 8.1085 3.4219 15.479 1.0167 10.771 1.3274 23.629 3.75 26.139 2.1626 2.2396 5.1179-4.3362 8.5801-9.8945 2.8684-4.6056 6.2546-8.427 8.3027-6.7188 4.3484 3.4696 5.2342 13.339 6.7285 19.334 2.0481 8.2163 1.505 16.84 4.9121 18.152 2.0901 0.80497 4.6649-3.163 6.957-7.8945 1.7826-3.6803 3.1299-7.8229 5.6582-10.541 2.2615-2.4316 4.931-3.7247 8.2031-2.5293 6.0999 4.448 4.5727 16.732 7.2734 21.537 0.6232 1.1095 2.2004 1.4939 3.2168 1.8262 3.6447 1.1905 7.0838-1.2745 12.469-5.5137 2.6301-2.0702 6.5446-3.8455 9.5898-7.2109-1.5-6.558 2.3825-26.333-0.15429-32.146-1.2684-2.9062-4.0084-1.3803-7.0039-0.70899-2.9955 0.67096-6.2486 0.48761-8.0039-2.0684-0.6452-0.93993-2.114-2.1443-2.7363-3.7715-0.80019-2.0922-0.64018-4.7974-0.18164-7.6113 0.94531-5.798 4.7415-12.417 5.1367-16.787 0.15485-1.7098-1.01-3.0765-1.8691-3.9141-2.6304-2.5647-9.2447-0.38722-15.762 1.6035-5.7502 1.7566-11.425 3.3677-14.221 1.4453-7.2521-9.6252 1.9334-17.504-3.0938-21.299-5.0271-3.7946-14.179 1.8816-27.842-0.83008-1.5516-14.743 3.4414-15.747-0.11328-17.777-0.84238-0.48133-1.885-0.7407-3.1309-0.77539z" transform="scale(.28222)" fill="#008000"/>
<path id="path4312" d="m94.661 91.687c-0.19401 0.02818-0.23401 0.26799 0.46247 0.88856 7.0302 6.165 13.408 12.579 21.091 18.495-0.99892 0.48475-3.3955-0.0255-5.5127 0.52145 0.0842 0.42613-0.39078 1.3186 0.81139 1.2783 0.97731-0.10624 1.955-0.0894 2.9209 0.0347 2.762 0.35496 5.1823 1.8692 7.4905 3.6242 2.3816 1.8108 4.6282 3.8965 5.9493 6.4222 1.0775 2.06 2.043 4.2562 2.4716 6.8869 0.32298 1.9819 0.22828 4.2792 0.28278 6.5688 0.10178 4.2783-0.19008 9.0821-0.59532 14.366-0.44594 2.7254-1.1076 1.2836-1.6614 0.41672l-10.487-19.641c-0.41478-0.77475-1.1884-1.5136-0.0584 1.1245l8.4716 19.491c0.79686 1.964 0.34791 2.6828-1.3466 2.1569-6.2933-3.0429-12.695-8.0256-18.665-12.685-2.8797-1.9573-7.0885-5.926-8.6392-5.8715 0.86639 1.4264 2.3602 1.9269 3.5184 2.8988 1.3126 1.1017 2.6092 2.2098 3.8993 3.3205 2.5053 2.1571 4.8784 4.5036 7.5136 6.4724 0.68934 0.46027 1.0929 0.87246 0.34396 0.84226-1.6207-0.0603-3.4679 0.7411-5.5028 2.2567-0.27074 0.54067-0.10648 1.2057 0.39908 1.4354 2.6535-1.1904 5.1218-1.4662 7.4276-0.93541 1.3849 0.31883 2.602 1.1041 3.8453 1.9915 1.0302 0.7353 2.2068 1.3454 3.1915 2.5356 1.6786 1.339-0.25995 3.0578-3.3288 6.3561-1.7452 1.8757-4.079 3.9808-6.7033 6.3853-1.915 1.7549-3.957 3.7113-6.1753 5.6488-0.7154 0.67364-0.39116 1.0794 0.34892 0.50381 4.0602-3.4327 8.1388-6.8866 11.574-9.5652 4.7082-3.6708 8.0911-6.6586 8.8062-4.5927 2.1297 2.6045 0.007 20.035-0.80092 27.593-0.66357 6.206-1.0517 11.391-2.8376 15.295-0.61672 1.348-1.7848 2.1991-3.1926 2.0979-1.4988-0.10771-3.2545-1.2033-4.3678-0.818-0.86655 0.30001-0.95565 1.341-1.3433 2.3912-0.41281 1.118-1.1232 2.2539-2.1244 2.5014-1.0042 0.24822-1.8423-0.84097-2.9457-1.5092-0.80517-0.4876-1.8771-0.6261-2.6398-0.4746-1.0166 0.2019-2.8214 1.3641-2.7351 4.7008 0.73972-0.89751 1.787-2.0605 2.7864-2.1486 0.97844-0.0862 2.1161 0.36963 3.2428 1.2303 1.1206 0.85622 2.2309 2.1165 3.1629 2.1255 0.89534 0.008 1.3152-1.2628 1.9838-2.3542 0.48794-0.79641 1.2237-1.4336 1.8052-1.7236 0.8366-0.4173 2.2849-0.37686 3.6507 0.53026 0.68429 0.45449 1.5461 0.8643 2.3008 0.86486 0.8552 0.00053 1.5887-0.46275 2.0544-0.84556 2.4558-2.0189 2.9742-7.9254 3.8761-11.456 0.005 2.5959-0.24179 5.0488-0.3423 7.1438-0.17918 3.7346-0.32788 6.593-1.3836 8.7538-0.91516 1.8733-3.1698 2.5924-5.4785 2.4832-2.1018-0.0995-4.2489-0.99323-5.4692-0.2271-0.8895 0.55845-1.2872 1.6648-0.8169 3.7819 0.68817-1.3217 1.7684-1.8801 3.0405-2.0329 1.7735-0.21307 3.839 1.4292 5.8175 1.8212 2.1061 0.41738 4.1032-0.43964 5.1737-1.6079 1.1581-1.264 2.0262-2.9081 2.6409-4.8838 2.8318-9.4548 1.689-9.4492 4.4648 0 0.6147 1.9756 1.4828 3.6198 2.6409 4.8838 1.0705 1.1682 3.0676 2.0253 5.1737 1.6079 1.9785-0.39203 4.044-2.0343 5.8175-1.8212 1.2721 0.15277 2.3523 0.71117 3.0405 2.0329 0.47032-2.1171 0.0726-3.2234-0.8169-3.7819-1.2202-0.76612-3.3673 0.1276-5.4692 0.2271-2.3087 0.10919-4.5634-0.60988-5.4785-2.4832-1.0557-2.1608-1.2044-5.0193-1.3836-8.7538-0.10051-2.0949-0.3473-4.5479-0.3423-7.1438 0.90195 3.5311 1.4204 9.4376 3.8761 11.456 0.46567 0.3828 1.1992 0.84609 2.0544 0.84556 0.75466-0.00045 1.6165-0.41037 2.3008-0.86486 1.3658-0.90712 2.8141-0.94756 3.6507-0.53026 0.58155 0.29 1.3173 0.92723 1.8052 1.7236 0.66863 1.0915 1.0885 2.3622 1.9838 2.3542 0.93196-0.009 2.0422-1.2693 3.1629-2.1255 1.1267-0.86068 2.2644-1.3165 3.2428-1.2303 0.99942 0.0881 2.0467 1.2511 2.7864 2.1486 0.0863-3.3366-1.7185-4.4989-2.7351-4.7008-0.76265-0.1515-1.8346-0.013-2.6398 0.4746-1.1034 0.66825-1.9415 1.7574-2.9457 1.5092-1.0012-0.24752-1.7116-1.3834-2.1244-2.5014-0.38766-1.0502-0.47677-2.0912-1.3433-2.3912-1.1134-0.38534-2.869 0.71029-4.3678 0.818-1.4079 0.10117-2.5759-0.74991-3.1926-2.0979-1.786-3.9036-2.1741-9.0886-2.8377-15.295-0.80799-7.5585-2.9306-24.989-0.80092-27.593 0.71516-2.0658 4.098 0.92193 8.8062 4.5927 3.4356 2.6786 7.5142 6.1326 11.574 9.5652 0.74008 0.57562 1.0643 0.16984 0.34892-0.50381-2.2182-1.9375-4.2602-3.894-6.1753-5.6488-2.6244-2.4045-4.9581-4.5096-6.7033-6.3853-3.0688-3.2983-5.0074-5.017-3.3288-6.3561 0.98471-1.1902 2.1613-1.8003 3.1915-2.5356 1.2432-0.88745 2.4604-1.6727 3.8453-1.9915 2.3058-0.53075 4.7742-0.25496 7.4276 0.93541 0.50556-0.22971 0.66983-0.8947 0.39908-1.4354-2.0349-1.5156-3.882-2.317-5.5028-2.2567-0.74894 0.0302-0.34538-0.38199 0.34396-0.84226 2.6352-1.9687 5.0083-4.3152 7.5136-6.4724 1.2901-1.1108 2.5867-2.2188 3.8993-3.3205 1.1582-0.97196 2.652-1.4724 3.5184-2.8988-1.5507-0.0545-5.7595 3.9143-8.6392 5.8715-5.97 4.6595-12.371 9.6422-18.665 12.685-1.6945 0.52593-2.1435-0.1929-1.3466-2.1569l8.4716-19.491c1.13-2.6381 0.35635-1.8992-0.0584-1.1245l-10.487 19.641c-0.55371 0.86684-1.2154 2.3087-1.6614-0.41672-0.40524-5.2837-0.69709-10.088-0.59531-14.366 0.0545-2.2897-0.0402-4.5869 0.28277-6.5688 0.42869-2.6307 1.3941-4.8269 2.4716-6.8869 1.321-2.5257 3.5677-4.6114 5.9493-6.4222 2.3082-1.7551 4.7285-3.2693 7.4905-3.6242 0.96585-0.1241 1.9436-0.14097 2.9209-0.0347 1.2022 0.0403 0.72718-0.85214 0.81139-1.2783-2.1172-0.54691-4.5138-0.0367-5.5127-0.52145 7.6824-5.9163 14.06-12.33 21.091-18.495 0.69646-0.62057 0.65647-0.86038 0.46247-0.88856-0.11641-0.0169-0.28817 0.04214-0.38972 0.14111-5.3202 4.5206-10.708 8.8389-16.193 12.862l-16.999 13.503c-2.0866 0.86676-2.9664 0.0701-2.1955-3.0014 2.9614-7.7961 6.281-15.472 9.6182-23.143-3.3276 6.2216-7.0718 12.965-9.557 16.977-0.91111 1.4708-2.0412 4.2225-2.6403 2.744-1.5618-13.745-0.48236-13.733-2.1552-0.00041-0.59909 1.4786-1.7292-1.2732-2.6403-2.744-2.4851-4.0118-6.2293-10.755-9.557-16.977 3.3372 7.6704 6.6567 15.347 9.6182 23.143 0.77086 3.0715-0.10885 3.8681-2.1955 3.0014l-16.999-13.503c-5.4855-4.0232-10.873-8.3414-16.193-12.862-0.10154-0.09897-0.2733-0.15801-0.38971-0.14111z" fill="#520"/>
<path id="path4310" d="m372.87 380.15c-0.76461 0.0106-1.563 0.072-2.3965 0.1875 1.3142 13.233 2.254 26.465 2.6465 39.697 12.222 0.48937 17.13-9.577 16.064-19.695-0.96764-9.195-4.8452-20.354-16.314-20.189zm204.55 0c-11.469-0.16441-15.347 10.994-16.314 20.189-1.0651 10.118 3.8426 20.185 16.064 19.695 0.39252-13.233 1.3323-26.465 2.6465-39.697-0.83349-0.11551-1.6319-0.17652-2.3965-0.1875zm-216.4 147.34c-2.538 0.0755-5.0626 0.81151-4.5234 4.2558 3.063 11.756 6.3361 23.197 10.475 33.338 3.9 0.28843 4.985-2.207 6.6738-3.9492 5.5169-5.6915 5.6502-15.178 3.6953-21.064-0.99468-2.9953-2.0417-6.6654-4.2637-9.0059-2.2218-2.3407-5.6202-3.3519-8.4961-3.4434-0.65367-0.0213-1.5376-0.10056-2.4824-0.1289-0.35433-0.0106-0.71557-0.0142-1.0781-0.002zm228.25 0c-0.36255-0.0106-0.72578-0.007-1.0801 0.002-0.94479 0.0283-1.8288 0.108-2.4824 0.1289-2.8759 0.0914-6.2743 1.1027-8.4961 3.4434-2.2219 2.3404-3.269 6.0106-4.2637 9.0059-1.9549 5.8862-1.8215 15.373 3.6953 21.064 1.6888 1.7422 2.7738 4.2378 6.6738 3.9492 4.1385-10.141 7.4116-21.582 10.475-33.338 0.53919-3.4443-1.9836-4.1804-4.5215-4.2558z" transform="scale(.28222)" fill="#7c3f00"/>
<path id="path4306" d="m363.91 387.02c-3.5431-0.0177-6.6694 0.54809-9.373 1.5312-4.0925 1.4885-8.1414 3.3625-10.291 6.2012-2.2885 3.0221-2.5475 7.0627-2.6035 10.285-0.057 3.2737 1.0429 6.2972 3.3203 8.3516 4.1418 3.7364 12.365 5.2846 25.045 1.8106-0.0142-9.163-0.86774-18.492-2.416-27.961-1.2736-0.14102-2.5006-0.21166-3.6816-0.21875zm222.46 0c-1.181 0.007-2.408 0.0777-3.6816 0.21875-1.5483 9.4686-2.4014 18.798-2.416 27.961 12.679 3.474 20.903 1.9258 25.045-1.8106 2.2775-2.0544 3.3775-5.0779 3.3203-8.3516-0.056-3.2224-0.31504-7.2631-2.6035-10.285-2.1496-2.8387-6.1985-4.7127-10.291-6.2012-2.7036-0.98316-5.8299-1.5486-9.373-1.5312zm-231.7 148.44c-4.9515-0.17327-10.737 4.822-13.908 7.6992-9.512 8.6324-7.2776 19.063-6.2422 22.271 1.1484 3.5573 8.6864 8.3674 19.227 3.3203 2.9516-1.4129 8.254-2.4901 9.4863-6.8008l-8.5625-26.488v-0.002zm240.94 0v0.002l-8.5625 26.488c1.2323 4.3106 6.5348 5.3879 9.4863 6.8008 10.54 5.047 18.078 0.23703 19.227-3.3203 1.0354-3.2081 3.2698-13.639-6.2422-22.271-3.1709-2.8772-8.9567-7.8725-13.908-7.6992z" transform="scale(.28222)" fill="#875c07"/>
</g>
</g>
</svg>
