<svg width="100%" height="100%" viewBox="0 0 450 950"
     xmlns="http://www.w3.org/2000/svg" 
     xmlns:xlink="http://www.w3.org/1999/xlink">


  <desc>
    Animated Walking Man Sprite Sheet
    Using CSS animation
    
    Remix of https://openclipart.org/detail/301130/walking-with-torso-head-and-arms
    
    original work: https://openclipart.org/detail/300191/vexstrips-walk-and-run-side-view
    Sequence changed from original (1,2,3,4,5,6,7,8) to be 1,2,3,4,6,7,8,5
    
    Jay Nick
    STEAMcoded.org
  </desc>
  
  <style type="text/css"><![CDATA[
    @keyframes walk {from {transform:translateX(0px)} to {transform:translateX(3600px)}}
    .animate {animation:walk 1s infinite steps(8);}
  ]]>
  </style>
  
  <defs>
    <clipPath id="cp1">
      <rect x="0" width="450" height="950" />
    </clipPath>
    
    <symbol id="head" overflow="visible">
      <path style="fill:#ffccaa;" d="M-211.21-132.97c-47.33 41.26-132.73 16.52-132.73-12.68 0.8-23.46-4.06-22.39-5.44-33.35-1.63-12.88 0.55-35.01 0.55-34.99l1.1-59.54c0-29.17 11.56-59.19 42.32-59.19l40.8 0c30.75 0 42.31 27.89 41.91 56.93 0 0 13.79 88.03 11.49 142.82z"/>
      <path style="fill:none;" d="M-211.21-132.97c-47.33 41.26-132.73 16.52-132.73-12.68 0.8-23.46-4.06-22.39-5.44-33.35-1.63-12.88 0.55-35.01 0.55-34.99l1.1-59.54c0-29.17 11.56-59.19 42.32-59.19l40.8 0c30.75 0 42.31 27.89 41.91 56.93 0 0 13.79 88.03 11.49 142.82z"/>
      <path style="fill:#000000;" d="M-212.31-134.1c-26.44 22.46-63.96 26.25-96.29 16.95-11.71-3.36-26.18-9.43-32.35-20.95-3.29-6.12-1.4-14.21-2.09-20.9-0.5-4.89-2.23-9.25-3.81-13.83-4.19-12.17-1.93-27.89-0.7-40.52 0.78-8.22 0.3-16.75 0.45-24.99 0.45-24.66-2.56-53.61 10.61-75.41 13.04-21.57 38.37-17.67 59.62-17.67 10.13 0 20.32-0.72 29.84 3.56 16 7.22 21.49 26.71 22.83 42.98 4.09 50.4 13.67 100.32 11.73 151.24-0.05 1.13 2.48 2.89 2.54 1.31 1.38-35.88-2.38-72.02-6.7-107.58-1.3-10.81-2.76-21.59-4.36-32.34-1.71-11.4-1.2-22.21-5.19-33.3-4.34-12.04-12.89-21.54-24.66-26.1-9.3-3.61-20.49-2.36-30.27-2.35-9.73 0-19.61-0.51-29.32 0.2-14.95 1.1-25.86 11.55-32.03 24.82-9.71 20.9-6.8 48.3-7.2 70.89-0.15 7.79 0.3 15.83-0.45 23.59-1.23 12.81-2.93 27.43 0.5 39.98 1.33 4.87 3.36 9.12 4.04 14.22 0.88 6.63-0.73 13.6 1.51 20 2.91 8.35 10.99 14.11 18.2 18.26 24.68 14.14 57.28 15.39 83.98 7.53 11.69-3.43 22.47-9.43 31.8-17.36 0.9-0.77-1.28-3.07-2.23-2.23z"/>
      <path style="fill:#946421;" d="M-212.07-155.25c-2.06 1.64-8.15 0.97-15.97 0.39-14.3 1.79-24.8-11.63-24.76-19.93-1.03-9.76-1.18-17.6 22.9-16.85 11.24-2.66 17.73-3.74 19.11-1.49 2.96-2.25 2.98-2.66 0.03-0.38 2.33-13.68-1.86-16.39-10.51-14.96-4.46-5.66-13.37-4.79-23.53-0.64-9.91-3.05-19.09-2.87-23.77 3.33-8.38-0.44-17.38 2.15-13.75 15.55-2.98-2.02 0.03 17.72 2.81 18.23-2.76-0.49 2.21 15.65 4.57 14.91-1.76 12.14 2.61 20.23 10.81 22.72 5.22 7.76-1.1 13.91 12.61 11.47 12.87 4.76 12.92 4.12 22.85-2.15 9.05 1.51 16.68-1.05 15.95-5.99 7.98-2.18 3.66-14.93 0.55-21.39 2.86 1.13 2.96-1.92 0.1-2.82z"/>
      <path style="fill:none;" d="M-212.07-155.25c-2.06 1.64-8.15 0.97-15.97 0.39-14.3 1.79-24.8-11.63-24.76-19.93-1.03-9.76-1.18-17.6 22.9-16.85 11.24-2.66 17.73-3.74 19.11-1.49 2.96-2.25 2.98-2.66 0.03-0.38 2.33-13.68-1.86-16.39-10.51-14.96-4.46-5.66-13.37-4.79-23.53-0.64-9.91-3.05-19.09-2.87-23.77 3.33-8.38-0.44-17.38 2.15-13.75 15.55-2.98-2.02 0.03 17.72 2.81 18.23-2.76-0.49 2.21 15.65 4.57 14.91-1.76 12.14 2.61 20.23 10.81 22.72 5.22 7.76-1.1 13.91 12.61 11.47 12.87 4.76 12.92 4.12 22.85-2.15 9.05 1.51 16.68-1.05 15.95-5.99 7.98-2.18 3.66-14.93 0.55-21.39 2.86 1.13 2.96-1.92 0.1-2.82z"/>
      <path style="fill:#000000;" d="M-213.04-156.48c-3.56 1.9-8.8 0.77-12.67 0.49-5.92-0.44-10.73-0.08-16.15-3.18-7.78-4.46-10.48-12.93-10.01-21.46 0.4-6.99 7.32-8.66 12.94-9.4 5.22-0.69 9.88-0.33 15.03-1.46 2.23-0.49 10.58-3.1 12.44-1.08 0.35 0.38 1.1 1.13 1.68 0.67 0.83-0.54 1.56-1.18 2.23-1.89 0.9-0.9-0.93-3.05-1.98-2.46-0.8 0.38-1.56 0.9-2.24 1.51 0.73 0.67 1.45 1.36 2.21 2.02 0.7-4.69 1.56-10.5-1.65-14.5-2.96-3.69-8.5-0.9-10.86-3.4-4.64-4.92-12.99-3.15-18.54-1.62-7.95 2.2-17.13-2.84-24.65 1.64-3.16 1.9-5.12 3.28-8.78 3.59-3.01 0.26-5.69 1.43-7.88 3.51-1.63 1.54-2.08 3.92-2.38 6.02-0.3 2.18 1.38 5.4 0.58 5.86-3.91 2.18 0.45 18.77 4.14 20.72-0.23-0.82-0.45-1.64-0.71-2.46-3.86 0.85 1.43 17.13 5.87 17.63-0.58-0.72-1.15-1.43-1.7-2.16-0.7 6.3-0.3 12.01 2.83 17.57 2.61 4.64 8.93 5.74 10.23 10.86 0.6 2.43 0.58 5.53 2.81 7.15 1.58 1.13 3.06 1.25 4.99 1.28 4.01 0.03 7.17 0.79 11.02 1.79 5.07 1.31 8.43 0.44 12.86-2.23 5.89-3.51 14.27 0.26 19.14-5.68 1.63-2 4.82-5.46 5.09-8.2 0.3-3.02-0.1-5.74-0.83-8.68-0.28-1.1-2.36-6.92-2.03-6.89 0.3 0.03 0.45-0.08 0.63-0.31 1.61-2.28-0.78-4.05-2.59-5.15-1.76-1.08-1.25 1.56-0.17 2.23-0.18 0.1-0.35 0.23-0.53 0.36-0.7-0.08-0.8 0.72-0.57 1.23 2.51 5.48 7.62 17.03-0.26 20.16-0.25 0.1-0.43 0.28-0.42 0.56-0.1 6.15-8.63 5.92-12.59 5.76-3.91-0.15-4.82 0.9-8.38 3.05-7.12 4.25-12.67-1.95-19.74-0.87-4.67 0.72-5.32-0.72-6.07-4.61-0.43-2.2-1.38-4.2-2.51-6.09-0.65-1.1-1.68-1.25-2.83-1.67-8.1-2.95-8.48-12.88-7.67-20.05 0.1-0.87-0.85-2.05-1.74-2.13-1.68-0.18-4.67-11.91-3.28-12.22 1.18-0.26-0.18-2.2-0.68-2.46-3.01-1.61-1.86-15.57-2.66-15.82 0.58 0.2 1.13-0.1 0.96-0.82-2.38-10.71 3.44-14.93 13.06-14.68 0.68 0.03 5.59-4 6.32-4.3 5.27-2.2 11.96-0.56 17.18 0.89 1.73 0.49 6.04-1.87 7.88-2.35 6.27-1.74 10.06-0.59 15.32 2.84 1.18 0.77 3.81-0.08 5-0.08 6.77 0.03 5.02 9.04 4.38 13.14-0.13 0.87 1.28 2.69 2.21 2.03 0.68-0.61 1.4-1.13 2.21-1.51-0.65-0.82-1.33-1.66-1.98-2.49-1.58 1.56-0.28 2.25-2.29 1.18-1.15-0.64-2.58-0.59-3.83-0.59-6.8 0-13.52 2.38-20.34 2.69-8.3 0.38-17.76 1.74-18.34 11.83-0.53 9.3 3.29 17.11 10.36 22.87 4.09 3.3 9.08 4.76 14.22 4.95 5.42 0.18 13.57 2.07 18.69-0.67 0.98-0.51-0.88-3.07-1.98-2.46z"/>
      <path style="fill:#946421;" d="M-211.69-317.4c0.18-1.1 0.28-2.23 0.3-3.38 0-9.81-6.75-17.75-15.1-17.75-0.48 0-0.93 0.03-1.38 0.08-1.48-7.99-7.5-13.98-14.72-13.96-0.9 0-1.78 0.1-2.63 0.28-2.76-3.53-6.7-5.76-11.11-5.79-3.69 0-7.07 1.56-9.71 4.18-2.68-2.97-6.32-4.82-10.31-4.82-2.53 0-4.92 0.74-6.97 2.05-2.31-1.69-5.02-2.69-7.95-2.69-6.07 0-11.31 4.25-13.7 10.35-2.76-3.76-6.85-6.15-11.38-6.15-6.22 0-11.56 4.43-13.85 10.76-1.38-0.49-2.83-0.77-4.36-0.74-7.15 0-13.12 5.87-14.67 13.73-8.23 0.13-14.87 8.02-14.9 17.74 0 4.1 1.18 7.86 3.18 10.86-3.66 3.56-5.84 8.17-5.86 13.19 0 5.22 2.38 9.96 6.32 13.6-2.36 2.15-3.81 5.15-3.84 8.51 0 6.51-3.71 16.98 3.13 16.98 0.08 0 0.18-0.03 0.25-0.03-3.31 4.79-5.19 12.32-3.28 24 1.33 8.09 3.76 28.17 16.05 20.77 12.21-7.35 10.91-11.83 10.64-18.87 2.91 2.46 6.22 3.3 8.9 1.87 4.36-2.33 6.04 1.08 9.91-15.06 0.15-0.59 0.08-1.36-0.13-2.16 7.4-1.38 13.49-5.87 16.43-11.85 4.16 1.25 9.83 2.71 15.17 9.65 4.82 6.27 10.46-7.94 10.44-17.75 0-6.25-4.16-11.32-8.68-14.21 2.36-3.2 3.76-6.99 3.76-11.09 0-1.1-0.13-2.15-0.3-3.23 0.58-1.23 1-2.51 1.35-3.82 3.56 1.97 7.78 3.15 12.32 3.13 9 0 16.8-4.53 20.61-11.14 2.46 2.07 5.47 3.3 8.73 3.28 0.9 0 1.81-0.1 2.69-0.29 2.76 3.97 6.95 6.51 11.66 6.51 8.33 0 15.07-7.94 15.07-17.77 0-3.28-0.75-6.33-2.08-8.97z"/>
      <path style="fill:none;" d="M-211.69-317.4c0.18-1.1 0.28-2.23 0.3-3.38 0-9.81-6.75-17.75-15.1-17.75-0.48 0-0.93 0.03-1.38 0.08-1.48-7.99-7.5-13.98-14.72-13.96-0.9 0-1.78 0.1-2.63 0.28-2.76-3.53-6.7-5.76-11.11-5.79-3.69 0-7.07 1.56-9.71 4.18-2.68-2.97-6.32-4.82-10.31-4.82-2.53 0-4.92 0.74-6.97 2.05-2.31-1.69-5.02-2.69-7.95-2.69-6.07 0-11.31 4.25-13.7 10.35-2.76-3.76-6.85-6.15-11.38-6.15-6.22 0-11.56 4.43-13.85 10.76-1.38-0.49-2.83-0.77-4.36-0.74-7.15 0-13.12 5.87-14.67 13.73-8.23 0.13-14.87 8.02-14.9 17.74 0 4.1 1.18 7.86 3.18 10.86-3.66 3.56-5.84 8.17-5.86 13.19 0 5.22 2.38 9.96 6.32 13.6-2.36 2.15-3.81 5.15-3.84 8.51 0 6.51-3.71 16.98 3.13 16.98 0.08 0 0.18-0.03 0.25-0.03-3.31 4.79-5.19 12.32-3.28 24 1.33 8.09 3.76 28.17 16.05 20.77 12.21-7.35 10.91-11.83 10.64-18.87 2.91 2.46 6.22 3.3 8.9 1.87 4.36-2.33 6.04 1.08 9.91-15.06 0.15-0.59 0.08-1.36-0.13-2.16 7.4-1.38 13.49-5.87 16.43-11.85 4.16 1.25 9.83 2.71 15.17 9.65 4.82 6.27 10.46-7.94 10.44-17.75 0-6.25-4.16-11.32-8.68-14.21 2.36-3.2 3.76-6.99 3.76-11.09 0-1.1-0.13-2.15-0.3-3.23 0.58-1.23 1-2.51 1.35-3.82 3.56 1.97 7.78 3.15 12.32 3.13 9 0 16.8-4.53 20.61-11.14 2.46 2.07 5.47 3.3 8.73 3.28 0.9 0 1.81-0.1 2.69-0.29 2.76 3.97 6.95 6.51 11.66 6.51 8.33 0 15.07-7.94 15.07-17.77 0-3.28-0.75-6.33-2.08-8.97z"/>
      <path style="fill:#000000;" d="M-210.41-316.71c1.4-11.32-5.87-23.77-18.11-23.05 0.63 0.56 1.23 1.1 1.86 1.67-1.86-7.68-6.6-13.68-14.35-15.42-1.78-0.41-3.86 0.13-5.39-1.18-1.83-1.56-3.51-2.64-5.72-3.61-3.71-1.61-7.78-0.85-11.34 0.72-4.92 2.15-3.94-0.05-8.65-1.39-5.07-1.41-10.41 1.33-14.97-0.64-8.15-3.53-15.8 2.64-19.11 9.84 0.63 0.1 1.23 0.2 1.85 0.28-4.51-5.35-10.03-7.79-16.9-6.15-3.39 0.82-6.09 3.66-8.1 6.35-3.14 4.15-3.59 2.18-8.03 3.18-3.44 0.77-5.87 2.18-8.43 4.58-2.13 2.02-3.59 8.53-6.22 9.17-7.7 1.82-12.01 7.99-13.21 15.7-0.53 3.3 0.15 6.56 1.07 9.71 1.45 4.87-1.48 7.17-3.18 11.71-2.26 6.07 0.28 13.96 4.64 18.41 0.23 0.23-2.73 7.5-2.89 8.81-0.45 4.12-1.05 8.43-0.95 12.58 0.1 3.38 2.73 6.66 6.25 6.35-0.58-0.82-1.15-1.64-1.76-2.43-7.37 11.6-4.97 33.24 2.53 44.61 2.93 4.46 8.08 5.17 12.44 2.41 8.35-5.3 11.29-9.58 10.81-19.34-0.53 0.08-1.05 0.15-1.58 0.26 4.61 3.15 13.49 4.2 16.66-1.95 1.38-2.66 2.18-5.53 2.98-8.42 1.2-4.41 2.33-4.89 6.5-6.66 2.63-1.13 4.89-3.02 6.92-5 2.03-1.97 2.43-4.92 5.67-3.89 9.71 3.12 15.02 18.13 21.24 2.92 4.49-10.94 2.28-21.57-7.3-28.33 0.25 0.69 0.53 1.36 0.78 2.05 2.68-4.1 4.11-8.22 3.84-13.19-0.25-4.74 1.91-3.94 4.76-2.89 3.31 1.23 7 1.28 10.49 1.12 4.77-0.23 9.15-2.28 13.04-4.94 0.9-0.61 5.04-5.92 6.14-5.12 1.33 0.95 3.71 1.92 5.35 2.07 5.17 0.49 7.1 3.33 11.61 5.46 4.09 1.9 8.7 0.9 12.46-1.13 9.08-4.89 9.73-17.39 6.12-25.87-0.5-1.2-3.01-2-2.2-0.07 3.86 9.04 1.4 19.54-7.35 24.28-5.92 3.2-10.96-1.2-15.9-4.95-0.2-0.15-0.4-0.26-0.66-0.33-7.35-2.18 3.03 7.17-10.75-2.66-0.28-0.2-1.1-0.69-1.41-0.23-7.1 10.91-20.49 13.6-31.85 8.04-0.35-0.18-1.05-0.36-1.21 0.18-1.91 6.2-0.88 12.14-4.69 17.95-0.45 0.72 0.23 1.64 0.81 2.05 7.62 5.4 8.5 12.27 6.67 20.67-0.4 1.84-3.86 13.45-7.53 9.76-5.04-5.12-9.28-8.2-16.12-10.27-0.38-0.13-0.7-0.03-0.91 0.3-3.56 6.38-9.18 9.91-16.07 11.5-0.25 0.05-0.38 0.36-0.38 0.62 0.55 8.66-6.37 22.44-17.1 15.11-0.43-0.28-1.63-0.74-1.58 0.23 0.25 4.89 0.33 8.71-2.96 12.68-2.26 2.71-5.84 4.84-8.83 6.4-5.64 2.97-8.48-3.28-9.83-7.32-3.61-10.86-5.79-25.82 0.6-35.83 0.58-0.92-0.75-2.54-1.73-2.46-3.71 0.33-2.18-7.81-1.96-9.58 0.63-5.07 0.45-9.32 4.11-13.42 0.48-0.51-0.1-1.38-0.47-1.8-7.52-7.71-6.95-17.37 0.05-24.99 0.28-0.28 0.18-0.79-0.03-1.13-6.04-10.5-1.98-26.18 11.26-27.33 0.25-0.03 0.53-0.08 0.61-0.38 2.21-8.73 8.83-15.11 18.13-12.66 0.35 0.1 0.73 0.08 0.88-0.33 4.24-9.86 15.1-14.75 23.4-4.92 0.38 0.44 1.48 1.1 1.85 0.31 3.46-7.58 10.38-12.19 18.61-8.6 6.85 2.97 10.21-4.46 18.46 3.43 0.4 0.38 1.18 0.97 1.73 0.51 2.83-2.46 5.47-3.69 9.23-4.02 5.89-0.51 6.12 3.3 10.49 5.58 0.95 0.51 2.48-0.03 3.26-0.1 6.97-0.77 11.46 6.43 12.86 12.32 0.18 0.72 1.05 1.72 1.86 1.66 10.63-0.64 15.47 9.71 14.27 19.09-0.13 1.13 2.33 2.95 2.56 1.35z"/>
      <path style="fill:#ffccaa;" d="M-220.67-259.93c0.7 9.81 11.76 25.71 15.48 26.36 21.54 3.76 10.51 36.75-8.31 32.55-14.22-3.18-21.32-13.47-13.84-22.69"/>
      <path style="fill:none;" d="M-220.67-259.93c0.7 9.81 11.76 25.71 15.48 26.36 21.54 3.76 10.51 36.75-8.31 32.55-14.22-3.18-21.32-13.47-13.84-22.69"/>
      <path style="fill:#000000;" d="M-221.95-260.59c0.95 7.94 5.07 15.14 9.66 21.49 1.56 2.15 3.36 4.12 5.39 5.76 3.61 2.89 7.85 1.72 10.76 6.48 4.26 7.02-0.35 16.75-5.69 21.51-10.63 9.48-34.51-3.15-24.38-17.23 0.75-1.02-1.56-3.2-2.23-2.26-6.77 9.43-0.75 17.95 8.15 22.64 9.38 4.92 19.21 3.1 25.03-6.01 3.91-6.12 4.72-15.73-0.58-21.34-3.46-3.69-8.53-3.66-11.89-6.89-5.79-5.53-10.68-14.83-11.66-22.84-0.13-1.1-2.73-2.79-2.56-1.31l0 0z"/>
      <path style="fill:#006e90;stroke:#000000;" d="M-247.08-243.79a8.1 8.07 0 0 0 16.2 0 8.1 8.07 0 0 0-16.2 0"/>
      <path d="M-242.45-243.79a3.47 3.46 0 0 0 6.95 0 3.47 3.46 0 0 0-6.95 0"/>
      <path style="fill:#ffffff;" d="M-239.34-243.02a1.53 1.52 0 0 0 3.05 0 1.53 1.52 0 0 0-3.05 0"/>
      <path style="fill:#ffccaa;" d="M-294.86-246.4c-5.84-3.53-13.14-6.99-20.04-4.48-5.72 2.1-9.13 7.43-10.18 13.21-1.98 10.76-0.75 22.41 10.73 26.89 6.42 2.51 12.21 1.56 17.49-2.68"/>
      <path style="fill:none;" d="M-294.86-246.4c-5.84-3.53-13.14-6.99-20.04-4.48-5.72 2.1-9.13 7.43-10.18 13.21-1.98 10.76-0.75 22.41 10.73 26.89 6.42 2.51 12.21 1.56 17.49-2.68"/>
      <path style="fill:#000000;" d="M-294.78-247.71c-7.95-4.58-16.33-7.99-24.66-2.46-6.72 4.46-7.65 14.55-7.4 21.88 0.58 16.11 17.41 25.79 30.68 16.26 1.03-0.74-0.45-3.53-1.41-2.87-5.47 3.92-10.58 4.79-17 2.69-8.13-2.66-10.38-10.89-10.18-18.62 0.13-5.69 1.66-10.83 5.29-15.19 6.55-7.79 17.48-3.2 24.55 0.9 1.61 0.92 1.1-2.02 0.13-2.59l0 0z"/>
      <path style="fill:none;" d="M-319.26-237.72c-1.45-3.69 5.44-6.74 9.76-5.53 3.91 1.1 3.89 6.56 3.33 10.27-0.28 1.92-0.85 3.56-2.23 4.92-1.83 1.82-0.88 1.18-2.79 0.38-1.33-0.54-2.26-1.61-3.71-0.28-1.08 1-2.13 6.56-0.65 5.99"/>
      <path style="fill:#000000;" d="M-318.31-237.72c-0.9-3.53 11.76-8.55 11.31 2.02-0.03 0.69-1.66 8.27-3.26 7.18-1.2-0.82-2.61-1.46-4.09-1.52-3.24-0.13-4.54 9.68-0.75 9.58 1.33-0.03 0.25-3.02-0.9-2.99 1.38-0.03 0.88-0.46 1.28-1.85 0.7-2.43 3.31-1.33 4.74-0.33 1.25 0.85 2.53-1.23 3.18-2 2.51-2.89 2.56-9.43 1.16-12.8-1.66-4.07-5.02-5.07-9.08-4.23-3.46 0.74-6.42 3.15-5.47 6.94 0.4 1.56 2.41 2.07 1.88 0l0 0z"/>
      <path style="fill:#ffffff;" d="M-263.08-247.14c0 0 0.35-2.7 6.3-6.63 6.47-4.25 23.33-11.14 28.92-0.89 1.93 3.56 3.64 9.9 1.75 14.04-2.86 6.26-6.45 6.91-11.03 6.3-5.47-0.72-11.26-1.44-16.4-4.39-1.93-1.11-3.81-2.47-5.55-4.1-0.6-0.57-2.71-2.48-3.99-4.33z"/>
      <path style="fill:none;" d="M-263.08-247.14c0 0 0.35-2.7 6.3-6.63 6.47-4.25 23.33-11.14 28.92-0.89 1.93 3.56 3.64 9.9 1.75 14.04-2.86 6.26-6.45 6.91-11.03 6.3-5.47-0.72-11.26-1.44-16.4-4.39-1.93-1.11-3.81-2.47-5.55-4.1-0.6-0.57-2.71-2.48-3.99-4.33z"/>
      <path style="fill:#000000;" d="M-261.9-246.62c0.78-3.86 6.75-7.01 11.26-9.16 2.83-1.34 6.02-2.35 9.38-2.99 7.93-1.55 12.04 2.63 13.7 7.2 1.66 4.59 2.66 14.97-6.77 16.5-3.84 0.62-10.03-1.09-13.37-1.96-6.7-1.73-11.31-6.21-14.45-10.24-0.7-0.91-2.81-0.98-1.85 0.24 6.09 7.81 15.88 13.2 29.72 13.76 12.54 0.52 10.23-14.39 8.6-18.87-2.26-6.19-8.48-10.06-18.46-8.1-7.78 1.52-18.96 6.96-20.11 12.56-0.15 0.7 2.13 2.04 2.35 1.06z"/>
      <path style="fill:#946421;" d="M-222.24-270.28c-0.88-1.5-5.27-3.97-6.47-4.8-4.16-2.94-10.76-6.27-16.31-5.65-7.45 0.85-22.35 8.1-23.22 16.81 5.99-5.02 13.59-11.57 23.55-11.29 2.43 0.07 12.82 5.23 14.55 6.26 1.91 1.14 3.79 3.02 6.64 2.09 3.08-1.01 2.11-1.94 1.26-3.42z"/>
      <path style="fill:none;" d="M-222.24-270.28c-0.88-1.5-5.27-3.97-6.47-4.8-4.16-2.94-10.76-6.27-16.31-5.65-7.45 0.85-22.35 8.1-23.22 16.81 5.99-5.02 13.59-11.57 23.55-11.29 2.43 0.07 12.82 5.23 14.55 6.26 1.91 1.14 3.79 3.02 6.64 2.09 3.08-1.01 2.11-1.94 1.26-3.42z"/>
      <path style="fill:#000000;" d="M-221.17-270.28c-3.91-4.57-15.78-12.58-24.78-11.24-11.69 1.73-22.17 9.35-23.55 17.03-0.1 0.54 1.61 1.94 2.39 1.26 4.49-3.76 8.95-7.53 15.37-9.95 7.35-2.79 13.32 0.77 18.94 3.56 2.18 1.09 4.89 3.82 8 3.8 4.49-0.02 5.09-2.04 3.79-4.26-0.4-0.65-3.11-1.49-2.49-0.39-2.33 2.48-4.34 2.84-6.04 1.11-0.43-0.25-0.88-0.51-1.36-0.74-1.25-0.67-2.56-1.31-3.86-1.92-2.68-1.31-6.22-3.37-9.61-3.88-10.61-1.55-19.59 6.72-25.03 11.28 0.8 0.42 1.61 0.85 2.41 1.26 1.05-5.78 6.55-10.21 13.5-13.65 4.44-2.19 9.36-3.66 15.02-2.28 4.92 1.19 12.41 5.87 15.12 9.03 0.6 0.7 3.19 1.16 2.18-0.02z"/>
      <g style="overflow:visible" transform="matrix(2.0389953,0,0,2.5981172,-1226.214,-654.36483)">
        <circle style="fill:#006e90;stroke:#000000" r="3.15" cy="157.625" cx="486.71"/>
        <circle r="1.35" cy="157.625" cx="486.713"/>
        <circle style="fill:#ffffff" r="0.594" cy="157.924" cx="487.165"/>
      </g>
      <path style="color:#000000;clip-rule:nonzero;overflow:visible;visibility:visible;isolation:auto;mix-blend-mode:normal;color-interpolation:sRGB;color-interpolation-filters:linearRGB;solid-color:#000000;solid-fill:#ffccaa;stroke:#000000;stroke-width:2;stroke-linecap:round;stroke-linejoin:round;stroke-miterlimit:4;color-rendering:auto;image-rendering:auto;shape-rendering:auto;text-rendering:auto;enable-background:accumulate;" d="M-223.69-259.19c-1.88 3.69-8.22-0.01-19.48 0.59-11.26 0.6-24.47 14.78-22.7 7.82 0.57-2.24 11.36-13.52 22.63-14.12 11.26-0.6 21.44 2.01 19.55 5.71z"/>
      <path style="fill:none;stroke:#000000;stroke-width:2.36746716;stroke-linecap:round;stroke-linejoin:round;stroke-miterlimit:4;" d="M-213.43-175.73c-8.91 8.08-22.27 4.64-27.43 2.25"/>
      <path style="fill:none;stroke:#000000;stroke-width:2.36746716;stroke-linecap:round;stroke-linejoin:round;stroke-miterlimit:4;" d="M-239.85-176.8l-5.25 1.98 3.35 4.18"/>    
    </symbol>
    
    <symbol id="leftarm" overflow="visible">
      <path style="fill:#ffccaa;stroke:#000000;stroke-width:0.81851822;stroke-linecap:round;stroke-linejoin:round;stroke-miterlimit:4;" d="M790.19 141.04l16.05 11.06c7.06-6.94 17.43-10.87 28.99-9.85 21.07 1.85 40.1 9.62 40.82 29.3 0.15 3.74 1.37 9.71-9.06 10.13 2.74 2.42 3.77 7.53 2.25 11-1.23 2.68-4 4.38-8.8 3 6.55 6.42-1.94 13.81-11.61 10.16 5.66 4.82-5.31 8.3-14.19 7.43-19.96-2-36.21-17.49-37.71-35.81 1.72-7.04-9.36-9.84-16.47-13.98"/>
      <path style="fill:#ffccaa;stroke:#000000;stroke-width:0.81851822;stroke-linecap:round;stroke-linejoin:round;stroke-miterlimit:4;" d="M830.94 177.15c-8.42-13.67 14.97-18.82 36.55 4.02"/>
      <path style="fill:#ffccaa;stroke:#000000;stroke-width:0.81851822;stroke-linecap:round;stroke-linejoin:round;stroke-miterlimit:4;" d="M839.59 150.79c-23.86 14.54-16.12 30.41-1.19 28.15 12.59-1.9 31.9-26.37 27.05-35.19-6.66-12.12-41.18-12.31-49.25 5.32"/>
      <path style="fill:#ffccaa;stroke:#000000;stroke-width:0.81851822;stroke-linecap:round;stroke-linejoin:round;stroke-miterlimit:4;" d="M812.73 202.42c-8.42-13.67 14.97-18.82 36.55 4.02"/>
      <path style="fill:#ffccaa;stroke:#000000;stroke-width:0.81851822;stroke-linecap:round;stroke-linejoin:round;stroke-miterlimit:4;" d="M820.93 190.38c-9.05-13.34 13.96-19.52 36.56 2.46"/>
      <path style="fill:#ffccaa;" d="M704.42 53.65a29.44 23.94 2.1513 0 0 58.81 2.21 29.44 23.94 2.1513 0 0-58.81-2.21"/>
      <path style="fill:#ffccaa;" d="M758.09 65.89c6.27-4.9 10.38-11.74 10.79-19.79 0.61-11.84 5.77-30.52-4.66-39.53-5.82-5.02-34.38-8.14-38.17-4.49-2.2 2.11-14.02 21.54-15.45 25.26-2.39 6.27-4.47 12.65-5.2 19.23-0.22 2.06-0.47 3.98-0.62 5.77"/>
      <path style="fill:none;" d="M758.09 65.89c6.27-4.9 10.38-11.74 10.79-19.79 0.61-11.84 5.77-30.52-4.66-39.53-5.82-5.02-34.38-8.14-38.17-4.49-2.2 2.11-14.02 21.54-15.45 25.26-2.39 6.27-4.47 12.65-5.2 19.23-0.22 2.06-0.47 3.98-0.62 5.77"/>
      <path style="fill:#000000;" d="M759.06 67.43c12.63-10.72 13.67-30.53 12.59-46.44-0.91-13.42-9.45-18.34-20.84-20.63-6.64-1.33-13.63-1.95-20.39-1.45-4.7 0.33-6.15 2.44-8.71 6.31-9.7 14.56-16.33 28.3-18.1 46.24 2.22 21.94 10.98 22.57 11.17 20.37-15.37-18.08-2.74-44.82 4.77-57.09 2.21-3.64 4.47-7.31 7.05-10.66 2.11-2.74 8.52-1.84 11.42-1.76 12.88 0.33 29.18 1.46 31.32 17.71 0.89 6.88-0.53 14.18-1.28 21-1.09 9.93-3.34 16.9-10.93 23.36-0.98 0.83 0.68 4.08 1.93 3.04z"/>
      <path style="fill:#c23c32;" d="M765.83-40.82c-5.44-2.07-10.3-2.7-13.5-2.49-14.86 1-20.71 17.6-26.17 27.29-5.73 10.2-8.44 21.42-13.52 31.85-1.37 2.8-2.71 5.66-3.65 8.57-0.62 1.87-6.76 5.81-5.04 7.23 4.4 3.59 13.15 4.46 16.61 5.64 11.03 3.75 22.22 7.02 34.06 8.57 7.06 0.93 16.57 5.25 20.46 4.01 2.7-0.86 1.44-4.84 2.31-9.46 1.47-7.75 5.31-14.54 6.51-22.18 2.09-12.83 4.9-29.51 1.59-42.3"/>
      <path style="fill:none;" d="M765.83-40.82c-5.44-2.07-10.3-2.7-13.5-2.49-14.86 1-20.71 17.6-26.17 27.29-5.73 10.2-8.44 21.42-13.52 31.85-1.37 2.8-2.71 5.66-3.65 8.57-0.62 1.87-6.76 5.81-5.04 7.23 4.4 3.59 13.15 4.46 16.61 5.64 11.03 3.75 22.22 7.02 34.06 8.57 7.06 0.93 16.57 5.25 20.46 4.01 2.7-0.86 1.44-4.84 2.31-9.46 1.47-7.75 5.31-14.54 6.51-22.18 2.09-12.83 4.9-29.51 1.59-42.3"/>
      <path style="fill:#000000;" d="M765.56-42.33c-9.3-3.11-17.86-3.91-26.02 2.5-7.63 5.99-11.67 16.97-16.17 25.41-3.42 6.42-5.67 13.57-8.29 20.38-2.16 5.65-4.77 14.68-8.81 19.03-3.35 3.63-6.1 6.59-0.21 9.36 4.8 2.25 9.77 2.98 14.8 4.43 6.22 1.76 12.28 4.06 18.59 5.59 7.63 1.85 15.46 2.62 23.02 4.68 4.41 1.19 8.9 3.04 13.5 2.37 2.86-0.4 2.39-5.64 2.46-7.48 0.32-8.48 5.13-16.59 6.88-24.84 2.87-13.7 4.62-28.89 1.57-42.66-0.29-1.27-3.18-3.18-2.75-1.06 2.46 11.05 1.32 22.15-0.21 33.22-1.64 11.56-6.86 22.08-8.24 33.56-1.05 8.85-8.27 5.48-13.76 3.89-4.71-1.35-9.48-1.98-14.3-2.79-10.67-1.81-20.62-6-31.1-8.43-2.1-0.5-13.02-1.9-9.17-5.78 2.24-2.26 2.85-3.17 4.02-6.33 3.9-10.66 8.7-21.47 13.27-31.89 3.46-7.89 7.85-16.28 12.87-23.18 7.35-10.08 17.74-10.62 28.57-6.99 1.99 0.68 0.67-2.59-0.52-2.99l0 0z"/>
      <path style="fill:#ffccaa;" d="M759.39 57.21c6.13 2.23 10.6 6.17 15.92 10.71 7.27 6.26 9.78 10.83 14.72 18.84 8.98 14.56 4.08 24.19 21.97 53.81 4.49 7.44 3.07 13.76-7.23 19.92-9.45 5.67-14.84 10.61-21.81 4.77-21.98-18.49-26.91-24.08-37.65-36.35-11.56-13.17-21.86-27.67-28.28-44.21-4.17-10.76-3.3-17.64 5.36-24.96 8.37-7.07 15.9-4.9 26.23-4.53 4.23 0.17 7.7 0.84 10.77 2z"/>
      <path style="fill:#ffccaa;" d="M787.96 167.93c-1.61-0.27-3.23-1.07-4.97-2.55-21.78-18.52-26.67-24.13-37.37-36.42-11.49-13.17-21.74-27.67-28.13-44.19"/>
      <path style="fill:none;" d="M787.96 167.93c-1.61-0.27-3.23-1.07-4.97-2.55-21.78-18.52-26.67-24.13-37.37-36.42-11.49-13.17-21.74-27.67-28.13-44.19"/>
      <path style="fill:#000000;" d="M788.23 166.92c-7.92-2.68-16.19-12.54-22.37-18.3-4.41-4.14-8.62-8.51-12.67-12.99-13.84-15.35-26.22-31.57-34.07-50.87-0.48-1.2-4-1.65-3.27 0.06 8.18 20.13 21.29 36.82 35.65 52.74 4.68 5.17 9.64 10.04 14.78 14.74 6.37 5.87 13.2 13.83 21.43 16.62 2.12 0.71 2.59-1.29 0.52-2l0 0z"/>
      <path style="fill:#ffccaa;" d="M748.45 55.67c4.16 0.17 7.6 0.9 10.64 2.02 6.07 2.26 10.49 6.23 15.75 10.77 7.22 6.29 9.72 10.84 14.62 18.82 8.94 14.55 4.18 24.07 22.01 53.69 1.69 2.79 2.55 5.4 2.43 7.94"/>
      <path style="fill:none;" d="M748.45 55.67c4.16 0.17 7.6 0.9 10.64 2.02 6.07 2.26 10.49 6.23 15.75 10.77 7.22 6.29 9.72 10.84 14.62 18.82 8.94 14.55 4.18 24.07 22.01 53.69 1.69 2.79 2.55 5.4 2.43 7.94"/>
      <path style="fill:#000000;" d="M749.1 56.82c20.82 1.62 38.31 23.33 44.07 43.01 1.63 5.56 2.81 11.2 4.79 16.64 1.64 4.54 3.56 8.96 5.67 13.32 2.96 6.07 7.97 11.95 8.5 18.8 0.1 1.35 3.64 2.21 3.52 0.61-0.51-6.35-4.39-11.28-7.38-16.8-3.02-5.6-5.52-11.5-7.57-17.51-2.45-7.2-3.68-14.73-6.6-21.8-7.81-19.08-25.86-37.01-46.29-38.58-2.37-0.19-0.15 2.2 1.29 2.31l0 0z"/>
      <path style="fill:#ffccaa;" d="M710.16 81.51a13.66 7.5 53.2621 0 0 11.78-9.22 13.66 7.5 53.2621 0 0-11.78 9.22"/>
      <path style="fill:#ffccaa;" d="M718.52 89.36c-3-0.91-6.03-3.06-8.39-6.16-2.36-3.11-3.43-5.9-3.54-9.06-0.11-3.17-0.3-7.67 1.88-9.4"/>
      <path style="fill:none;" d="M718.52 89.36c-3-0.91-6.03-3.06-8.39-6.16-2.36-3.11-3.43-5.9-3.54-9.06-0.11-3.17-0.3-7.67 1.88-9.4"/>
      <path style="fill:#000000;" d="M718.82 88.4c-5.3-1.94-9.23-6.72-10.36-12.35-0.65-3.23-0.68-7.98 1.58-10.42 1.02-1.11-2.23-2.75-3.12-1.76-3.02 3.26-2.85 10.75-1.04 14.74 2.5 5.52 6.73 9.68 12.33 11.74 2.08 0.77 2.72-1.19 0.61-1.95l0 0z"/>
    </symbol>
    
    <symbol id="rightarm234" overflow="visible">
      <path style="fill:#ffccaa;stroke:#000000;stroke-width:0.79504991;stroke-linecap:round;stroke-linejoin:round;stroke-miterlimit:4;" d="M1081.62 61.26l0.54 21.33c9.43 0.49 18.37 5.92 24.18 16 10.58 18.42 15.37 39.69 0.45 55.14-1.06 1.12-2.29 2.56-3.72 3.52-2.38 1.62-5.43 1.88-9.31-3.17-0.55 7.2-10.87 16.48-14.63 5.24-1.26 10.15-11.84 8.85-14.56-1.7-0.54 8.23-9.5 1.99-13.89-5.89-9.84-17.65-6.99-42.51 6.44-57.54l-7.85-18.11"/>
      <path style="fill:#ffccaa;stroke:#000000;stroke-width:0.79504991;stroke-linecap:round;stroke-linejoin:round;stroke-miterlimit:4;" d="M1108.91 114.94c-0.3 8.51 6.78 24.9 13.48 9.25 6.11-14.26-13.88-42.61-32.21-35.82"/>
      <path style="fill:#ffccaa;" d="M1063.74-50.22a29.44 23.94 42.2744 0 0 43.55 39.59 29.44 23.94 42.2744 0 0-43.55-39.59"/>
      <path style="fill:#ffccaa;" d="M1096.89-6.27c7.95 0.29 15.5-2.29 21.01-8.18 8.1-8.65 24.08-19.62 21.91-33.23-1.21-7.59-21.04-28.38-26.29-28.04-3.04 0.19-24.6 7.44-28.1 9.37-5.87 3.26-11.57 6.79-16.36 11.35-1.5 1.44-2.92 2.74-4.2 4.01"/>
      <path style="fill:none;" d="M1096.89-6.27c7.95 0.29 15.5-2.29 21.01-8.18 8.1-8.65 24.08-19.62 21.91-33.23-1.21-7.59-21.04-28.38-26.29-28.04-3.04 0.19-24.6 7.44-28.1 9.37-5.87 3.26-11.57 6.79-16.36 11.35-1.5 1.44-2.92 2.74-4.2 4.01"/>
      <path style="fill:#000000;" d="M1096.65-4.47c16.57-0.06 30.12-14.54 39.55-27.39 7.96-10.85 4.59-20.11-2.64-29.21-4.22-5.3-9.16-10.27-14.65-14.25-3.81-2.77-6.27-2.09-10.73-0.79-16.8 4.88-30.73 11.11-43.64 23.69-12.44 18.21-6.15 24.33-4.59 22.78-0.1-23.73 26.79-36.04 40.44-40.58 4.03-1.36 8.13-2.71 12.27-3.61 3.38-0.73 7.7 4.08 9.86 6.01 9.63 8.55 21.37 19.92 12.53 33.73-3.75 5.83-9.55 10.5-14.51 15.23-7.23 6.89-13.44 10.77-23.41 10.82-1.29 0-2.11 3.56-0.48 3.57z"/>
      <path style="fill:#c23c32;" d="M1171.58-82.88c-2.83-5.08-6.13-8.7-8.71-10.6-12.01-8.81-27.17 0.11-37.6 4-10.95 4.11-20.26 10.94-30.86 15.64-2.85 1.26-5.72 2.58-8.32 4.2-1.68 1.03-8.92 0.08-8.51 2.28 1.05 5.58 7.18 11.88 9.07 15.02 6.02 9.97 12.47 19.69 20.51 28.5 4.8 5.26 9.29 14.69 13.07 16.25 2.62 1.09 4.22-2.77 7.86-5.74 6.12-4.98 13.43-7.7 19.27-12.77 9.87-8.46 22.76-19.4 28.48-31.32"/>
      <path style="fill:none;" d="M1171.58-82.88c-2.83-5.08-6.13-8.7-8.71-10.6-12.01-8.81-27.17 0.11-37.6 4-10.95 4.11-20.26 10.94-30.86 15.64-2.85 1.26-5.72 2.58-8.32 4.2-1.68 1.03-8.92 0.08-8.51 2.28 1.05 5.58 7.18 11.88 9.07 15.02 6.02 9.97 12.47 19.69 20.51 28.5 4.8 5.26 9.29 14.69 13.07 16.25 2.62 1.09 4.22-2.77 7.86-5.74 6.12-4.98 13.43-7.7 19.27-12.77 9.87-8.46 22.76-19.4 28.48-31.32"/>
      <path style="fill:#000000;" d="M1172.36-84.21c-5.11-8.37-11.13-14.5-21.52-14.85-9.69-0.34-19.86 5.46-28.74 9-6.75 2.7-13.08 6.72-19.47 10.24-5.3 2.93-13.11 8.15-19 8.88-4.9 0.62-8.91 1.1-6.19 7.02 2.22 4.81 5.55 8.57 8.46 12.92 3.62 5.36 6.77 11.02 10.61 16.26 4.64 6.33 10.13 11.97 14.59 18.41 2.61 3.75 4.85 8.06 8.8 10.51 2.44 1.53 5.47-2.77 6.7-4.12 5.71-6.28 14.61-9.38 21.26-14.57 11.02-8.63 22.15-19.11 28.7-31.6 0.6-1.16-0.38-4.48-1.42-2.59-5.24 10.03-13.26 17.78-21.57 25.27-8.71 7.78-19.48 12.46-27.93 20.35-6.51 6.09-9.86-1.14-13.03-5.89-2.74-4.07-5.98-7.62-9.14-11.35-6.99-8.26-11.9-17.87-18.34-26.49-1.29-1.74-8.73-9.84-3.29-10.33 3.16-0.29 4.22-0.58 7.16-2.25 9.85-5.64 20.49-10.81 30.69-15.84 7.73-3.8 16.49-7.39 24.78-9.42 12.12-2.97 20.41 3.31 26.35 13.06 1.08 1.8 2.18-1.55 1.54-2.62l0 0z"/>
      <path style="fill:#ffccaa;" d="M1103.49-12.07c3.25 5.66 4.12 11.55 5.27 18.45 1.53 9.47 0.5 14.59-0.89 23.89-2.51 16.92-12.47 21.13-17.87 55.31-1.36 8.59-6.53 12.5-18.37 10.57-10.88-1.75-18.18-1.45-19.75-10.41-4.89-28.3-5.06-35.75-5.36-52.06-0.35-17.53 1.12-35.24 6.86-52.03 3.75-10.92 8.84-15.61 20.19-15.63 10.96-0.01 15.31 6.5 22.97 13.44 3.12 2.85 5.35 5.61 6.95 8.47z"/>
      <path style="fill:#ffccaa;" d="M1053.98 91c-1.06-1.25-1.78-2.9-2.16-5.15-4.72-28.2-4.85-35.64-5.1-51.93-0.3-17.48 1.21-35.16 6.96-51.92"/>
      <path style="fill:none;" d="M1053.98 91c-1.06-1.25-1.78-2.9-2.16-5.15-4.72-28.2-4.85-35.64-5.1-51.93-0.3-17.48 1.21-35.16 6.96-51.92"/>
      <path style="fill:#000000;" d="M1054.84 90.4c-4.33-7.15-4.3-20.02-5.32-28.4-0.7-6-1.11-12.06-1.31-18.1-0.69-20.66 0.29-41.04 6.73-60.85 0.41-1.22-2-3.84-2.54-2.07-6.72 20.67-7.44 41.87-6.72 63.3 0.25 6.97 0.9 13.89 1.79 20.8 1.09 8.6 1.18 19.08 5.68 26.52 1.17 1.91 2.81 0.68 1.69-1.2l0 0z"/>
      <path style="fill:#ffccaa;" d="M1096.12-20.3c3.07 2.81 5.24 5.58 6.83 8.4 3.19 5.64 4.01 11.52 5.1 18.39 1.47 9.46 0.45 14.55-0.95 23.8-2.54 16.88-12.32 21.1-17.77 55.25-0.51 3.22-1.53 5.77-3.26 7.63"/>
      <path style="fill:none;" d="M1096.12-20.3c3.07 2.81 5.24 5.58 6.83 8.4 3.19 5.64 4.01 11.52 5.1 18.39 1.47 9.46 0.45 14.55-0.95 23.8-2.54 16.88-12.32 21.1-17.77 55.25-0.51 3.22-1.53 5.77-3.26 7.63"/>
      <path style="fill:#000000;" d="M1095.87-19c14.88 14.66 14.26 42.53 5.98 61.29-2.33 5.3-5.07 10.38-7.06 15.8-1.67 4.53-3.05 9.14-4.25 13.85-1.64 6.55-1.61 14.27-5.61 19.85-0.8 1.1 1.36 4.03 2.29 2.74 3.7-5.19 3.91-11.46 5.19-17.6 1.3-6.23 3.19-12.35 5.49-18.28 2.76-7.08 6.68-13.63 9-20.91 6.32-19.62 4.07-44.96-10.53-59.34-1.69-1.67-1.53 1.58-0.5 2.6l0 0z"/>
      <path style="fill:#ffccaa;" d="M1050.18-25.22a7.5 13.66 3.3852 0 0 14.95 0.55 7.5 13.66 3.3852 0 0-14.95-0.55"/>
      <path style="fill:#ffccaa;" d="M1051.52-13.83c-1.7-2.63-2.64-6.22-2.45-10.11 0.2-3.9 1.18-6.72 3.13-9.21 1.96-2.49 4.71-6.06 7.5-5.97"/>
      <path style="fill:none;" d="M1051.52-13.83c-1.7-2.63-2.64-6.22-2.45-10.11 0.2-3.9 1.18-6.72 3.13-9.21 1.96-2.49 4.71-6.06 7.5-5.97"/>
      <path style="fill:#000000;" d="M1052.37-14.37c-2.8-4.9-2.73-11.09 0.03-16.12 1.58-2.89 4.62-6.54 7.93-6.94 1.5-0.19 0.07-3.54-1.26-3.36-4.41 0.54-9.1 6.39-10.29 10.6-1.64 5.83-1.09 11.74 1.86 16.93 1.1 1.93 2.84 0.84 1.73-1.11l0 0z"/>
    </symbol>
    
    <symbol id="rightarm56" overflow="visible">
      <path style="fill:#ffccaa;stroke:#000000;stroke-width:0.79504991;stroke-linecap:round;stroke-linejoin:round;stroke-miterlimit:4;" d="M2027.29 27.15l13.2 15.95c7.81-5.25 18.2-6.43 28.86-2.21 19.46 7.75 36 21.12 33.33 41.8-0.18 1.49-0.3 3.32-0.87 4.91-0.94 2.65-3.21 4.67-9.31 3.13 3.86 5.82 1.18 19.05-8.55 12.72 5.07 8.49-4.15 13.81-12.63 7.38 4.49 6.6-6.39 7.18-14.61 3.78-18.41-7.6-31-28.26-29.27-47.74l-17.1-9.13"/>
      <path style="fill:#ffccaa;stroke:#000000;stroke-width:0.79504991;stroke-linecap:round;stroke-linejoin:round;stroke-miterlimit:4;" d="M2081.18 51.84c4.85 6.67 20.3 14.96 16.29-0.98-3.65-14.53-36.56-24.24-47.13-8.14"/>
      <path style="fill:#ffccaa;" d="M1912-22.06a29.44 23.94 0 0 0 58.85 0 29.44 23.94 0 0 0-58.85 0"/>
      <path style="fill:#ffccaa;" d="M1966.09-11.83c6.08-5.13 9.93-12.12 10.04-20.19 0.17-11.85 4.62-30.72-6.14-39.32-6-4.8-34.66-6.84-38.31-3.06-2.12 2.19-13.2 22.05-14.49 25.82-2.15 6.36-3.99 12.81-4.47 19.41-0.14 2.07-0.32 3.99-0.41 5.79"/>
      <path style="fill:none;" d="M1966.09-11.83c6.08-5.13 9.93-12.12 10.04-20.19 0.17-11.85 4.62-30.72-6.14-39.32-6-4.8-34.66-6.84-38.31-3.06-2.12 2.19-13.2 22.05-14.49 25.82-2.15 6.36-3.99 12.81-4.47 19.41-0.14 2.07-0.32 3.99-0.41 5.79"/>
      <path style="fill:#000000;" d="M1967.12-10.33c12.22-11.19 12.51-31.02 10.85-46.88-1.41-13.38-10.13-17.97-21.61-19.83-6.69-1.08-13.69-1.44-20.43-0.69-4.68 0.51-6.05 2.67-8.47 6.63-9.15 14.91-15.26 28.89-16.35 46.88 3.04 21.84 11.82 22.14 11.94 19.95-16.04-17.49-4.42-44.69 2.61-57.23 2.07-3.72 4.19-7.47 6.65-10.92 2.01-2.82 8.44-2.16 11.34-2.19 12.88-0.15 29.21 0.36 31.96 16.53 1.15 6.84 0 14.19-0.49 21.02-0.72 9.96-2.7 17.01-10.04 23.76-0.95 0.87 0.83 4.05 2.04 2.97z"/>
      <path style="fill:#c23c32;" d="M1969.82-118.77c-5.51-1.86-10.39-2.31-13.58-1.98-14.81 1.56-20.03 18.36-25.13 28.26-5.34 10.41-7.63 21.72-12.31 32.34-1.26 2.85-2.5 5.76-3.33 8.69-0.55 1.89-6.54 6.06-4.76 7.41 4.53 3.42 13.31 3.96 16.81 5.01 11.16 3.33 22.47 6.18 34.35 7.29 7.09 0.66 16.76 4.62 20.6 3.24 2.67-0.96 1.26-4.89 1.95-9.54 1.18-7.8 4.76-14.73 5.68-22.4 1.61-12.9 3.79-29.67 0-42.33"/>
      <path style="fill:none;" d="M1969.82-118.77c-5.51-1.86-10.39-2.31-13.58-1.98-14.81 1.56-20.03 18.36-25.13 28.26-5.34 10.41-7.63 21.72-12.31 32.34-1.26 2.85-2.5 5.76-3.33 8.69-0.55 1.89-6.54 6.06-4.76 7.41 4.53 3.42 13.31 3.96 16.81 5.01 11.16 3.33 22.47 6.18 34.35 7.29 7.09 0.66 16.76 4.62 20.6 3.24 2.67-0.96 1.26-4.89 1.95-9.54 1.18-7.8 4.76-14.73 5.68-22.4 1.61-12.9 3.79-29.67 0-42.33"/>
      <path style="fill:#000000;" d="M1969.5-120.27c-9.41-2.76-17.99-3.24-25.91 3.48-7.4 6.27-11.02 17.4-15.21 26.01-3.18 6.54-5.16 13.77-7.51 20.67-1.95 5.73-4.22 14.85-8.1 19.34-3.21 3.75-5.85 6.81 0.15 9.36 4.88 2.07 9.87 2.61 14.95 3.87 6.28 1.53 12.42 3.6 18.79 4.89 7.69 1.56 15.55 2.04 23.19 3.81 4.45 1.02 9.01 2.7 13.57 1.86 2.84-0.51 2.18-5.73 2.18-7.56 0-8.49 4.5-16.77 5.94-25.07 2.35-13.8 3.53-29.04-0.03-42.69-0.34-1.26-3.3-3.06-2.78-0.96 2.87 10.95 2.15 22.08 1.03 33.21-1.21 11.61-6.03 22.32-6.97 33.83-0.72 8.88-8.06 5.79-13.6 4.41-4.76-1.17-9.55-1.62-14.41-2.25-10.73-1.41-20.83-5.22-31.39-7.26-2.12-0.42-13.08-1.41-9.38-5.43 2.15-2.34 2.73-3.27 3.79-6.48 3.5-10.8 7.89-21.78 12.05-32.36 3.16-8.01 7.23-16.56 11.99-23.64 6.97-10.35 17.33-11.28 28.29-8.07 2.01 0.6 0.57-2.61-0.63-2.97l0 0z"/>
      <path style="fill:#ffccaa;" d="M1964.26-27.11c6.52 0.08 12.04 2.32 18.57 4.85 8.93 3.5 12.82 6.99 20.11 12.91 13.29 10.77 11.85 21.48 38.54 43.51 6.71 5.54 7.45 11.97-0.24 21.19-7.05 8.48-10.5 14.92-18.99 11.71-26.86-10.18-33.35-13.82-47.56-21.84-15.27-8.6-29.78-18.89-41.31-32.37-7.49-8.78-8.95-15.55-3.2-25.32 5.56-9.44 13.38-9.88 23.25-12.95 4.04-1.24 7.55-1.75 10.83-1.69z"/>
      <path style="fill:#ffccaa;" d="M2027.84 67.93c-1.61 0.28-3.4 0.06-5.53-0.76-26.68-10.28-33.15-13.95-47.31-22.01-15.2-8.62-29.66-18.92-41.16-32.39"/>
      <path style="fill:none;" d="M2027.84 67.93c-1.61 0.28-3.4 0.06-5.53-0.76-26.68-10.28-33.15-13.95-47.31-22.01-15.2-8.62-29.66-18.92-41.16-32.39"/>
      <path style="fill:#000000;" d="M2027.76 66.89c-8.36 0.09-19.42-6.47-27.16-9.86-5.53-2.45-10.94-5.18-16.24-8.08-18.14-9.91-35.19-21.11-48.99-36.73-0.85-0.98-4.32-0.24-3.07 1.14 14.38 16.29 32.28 27.69 51.09 37.97 6.13 3.33 12.42 6.28 18.82 9.03 7.95 3.43 17.03 8.68 25.73 8.59 2.24-0.03 2.02-2.08-0.18-2.06l0 0z"/>
      <path style="fill:#ffccaa;" d="M1953.43-24.94c3.98-1.21 7.47-1.67 10.71-1.61 6.48 0.13 11.96 2.4 18.43 4.95 8.89 3.55 12.75 7.01 20.01 12.92 13.25 10.77 11.91 21.33 38.53 43.4 2.51 2.07 4.19 4.26 4.92 6.68"/>
      <path style="fill:none;" d="M1953.43-24.94c3.98-1.21 7.47-1.67 10.71-1.61 6.48 0.13 11.96 2.4 18.43 4.95 8.89 3.55 12.75 7.01 20.01 12.92 13.25 10.77 11.91 21.33 38.53 43.4 2.51 2.07 4.19 4.26 4.92 6.68"/>
      <path style="fill:#000000;" d="M1954.42-24.06c20.19-5.36 43.87 9.35 55.82 26.01 3.38 4.71 6.36 9.65 10.01 14.11 3.05 3.75 6.32 7.28 9.77 10.7 4.8 4.74 11.47 8.64 14.24 14.93 0.54 1.25 4.16 0.88 3.52-0.58-2.59-5.82-7.88-9.2-12.52-13.42-4.71-4.28-9.02-9.02-12.94-14.02-4.69-5.98-8.34-12.68-13.43-18.38-13.68-15.42-36.64-26.37-56.45-21.11-2.3 0.61 0.58 2.12 1.98 1.76l0 0z"/>
      <path style="fill:#ffccaa;" d="M1925.84 12.11a13.66 7.5 33.9449 0 0 8.07-12.59 13.66 7.5 33.9449 0 0-8.07 12.59"/>
      <path style="fill:#ffccaa;" d="M1936.32 16.76c-3.13 0.13-6.7-0.89-9.95-3.04-3.26-2.16-5.19-4.43-6.34-7.38-1.15-2.95-2.82-7.13-1.33-9.49"/>
      <path style="fill:none;" d="M1936.32 16.76c-3.13 0.13-6.7-0.89-9.95-3.04-3.26-2.16-5.19-4.43-6.34-7.38-1.15-2.95-2.82-7.13-1.33-9.49"/>
      <path style="fill:#000000;" d="M1936.3 15.75c-5.64-0.08-10.93-3.29-13.87-8.22-1.68-2.83-3.28-7.3-1.95-10.36 0.59-1.39-3.01-1.85-3.53-0.62-1.78 4.07 0.87 11.08 3.89 14.25 4.19 4.38 9.56 6.91 15.52 7 2.22 0.04 2.17-2.02-0.06-2.05l0 0z"/>
    </symbol>

    <symbol id="rightarm78" overflow="visible">
      <path style="fill:#ffccaa;stroke:#000000;stroke-width:0.79504991;stroke-linecap:round;stroke-linejoin:round;stroke-miterlimit:4;" d="M2977.82 51.48l15.87 11.51c5.51-7.28 14.38-11.4 24.91-10.4 19.24 1.84 37.38 9.93 40.49 30.53 0.24 1.48 0.61 3.27 0.53 4.96-0.12 2.82-1.6 5.4-7.4 5.68 4.95 4.47 6.08 17.94-4.19 14.66 6.72 6.69-0.02 14.44-9.2 10.7 5.71 5.04-3.75 8.73-11.9 7.83-18.27-2.01-34.85-18.22-38.48-37.4l-17.51-3.86"/>
      <path style="fill:#ffccaa;stroke:#000000;stroke-width:0.79504991;stroke-linecap:round;stroke-linejoin:round;stroke-miterlimit:4;" d="M3031.94 59.7c6.05 5.01 21.88 8.52 14.13-5.62-7.07-12.89-38.69-12.76-43.77 5.73"/>
      <path style="fill:#ffccaa;" d="M2853.74 29.58a29.44 23.94 0 0 0 58.85 0 29.44 23.94 0 0 0-58.85 0"/>
      <path style="fill:#ffccaa;" d="M2907.83 39.81c6.08-5.13 9.93-12.12 10.04-20.19 0.17-11.85 4.62-30.72-6.14-39.32-6-4.8-34.66-6.84-38.31-3.06-2.12 2.19-13.2 22.05-14.49 25.83-2.15 6.36-3.99 12.81-4.47 19.4-0.14 2.07-0.32 3.99-0.4 5.79"/>
      <path style="fill:none;" d="M2907.83 39.81c6.08-5.13 9.93-12.12 10.04-20.19 0.17-11.85 4.62-30.72-6.14-39.32-6-4.8-34.66-6.84-38.31-3.06-2.12 2.19-13.2 22.05-14.49 25.83-2.15 6.36-3.99 12.81-4.47 19.4-0.14 2.07-0.32 3.99-0.4 5.79"/>
      <path style="fill:#000000;" d="M2908.86 41.31c12.22-11.19 12.51-31.02 10.85-46.88-1.41-13.38-10.13-17.97-21.61-19.83-6.69-1.08-13.69-1.44-20.43-0.69-4.68 0.51-6.05 2.67-8.46 6.63-9.15 14.91-15.26 28.89-16.36 46.88 3.04 21.84 11.82 22.14 11.94 19.95-16.04-17.49-4.42-44.69 2.61-57.23 2.07-3.72 4.19-7.47 6.66-10.92 2.01-2.82 8.44-2.16 11.33-2.19 12.88-0.15 29.21 0.36 31.96 16.53 1.15 6.84 0 14.19-0.48 21.02-0.72 9.96-2.7 17.01-10.05 23.76-0.95 0.87 0.83 4.05 2.04 2.97z"/>
      <path style="fill:#c23c32;" d="M2911.56-67.13c-5.51-1.86-10.39-2.31-13.57-1.98-14.81 1.56-20.03 18.36-25.14 28.26-5.34 10.41-7.63 21.72-12.31 32.34-1.26 2.85-2.5 5.76-3.33 8.7-0.55 1.89-6.54 6.06-4.76 7.4 4.53 3.42 13.31 3.96 16.81 5.01 11.16 3.33 22.47 6.18 34.35 7.29 7.09 0.66 16.76 4.62 20.6 3.24 2.67-0.96 1.26-4.89 1.95-9.54 1.18-7.8 4.76-14.73 5.68-22.4 1.61-12.9 3.79-29.67 0-42.33"/>
      <path style="fill:none;" d="M2911.56-67.13c-5.51-1.86-10.39-2.31-13.57-1.98-14.81 1.56-20.03 18.36-25.14 28.26-5.34 10.41-7.63 21.72-12.31 32.34-1.26 2.85-2.5 5.76-3.33 8.7-0.55 1.89-6.54 6.06-4.76 7.4 4.53 3.42 13.31 3.96 16.81 5.01 11.16 3.33 22.47 6.18 34.35 7.29 7.09 0.66 16.76 4.62 20.6 3.24 2.67-0.96 1.26-4.89 1.95-9.54 1.18-7.8 4.76-14.73 5.68-22.4 1.61-12.9 3.79-29.67 0-42.33"/>
      <path style="fill:#000000;" d="M2911.24-68.63c-9.41-2.76-17.99-3.24-25.91 3.48-7.4 6.27-11.02 17.4-15.21 26.01-3.18 6.54-5.16 13.77-7.51 20.67-1.95 5.73-4.22 14.85-8.1 19.35-3.21 3.75-5.85 6.81 0.15 9.35 4.88 2.07 9.87 2.61 14.95 3.87 6.28 1.53 12.42 3.6 18.79 4.89 7.69 1.56 15.55 2.04 23.19 3.81 4.45 1.02 9.01 2.7 13.57 1.86 2.84-0.51 2.18-5.73 2.18-7.56 0-8.49 4.5-16.77 5.94-25.07 2.35-13.8 3.53-29.04-0.03-42.69-0.34-1.26-3.3-3.06-2.78-0.96 2.87 10.95 2.15 22.08 1.03 33.21-1.21 11.61-6.03 22.32-6.97 33.83-0.72 8.88-8.06 5.79-13.6 4.41-4.76-1.17-9.55-1.62-14.41-2.25-10.73-1.41-20.83-5.22-31.39-7.26-2.12-0.42-13.08-1.41-9.38-5.42 2.15-2.34 2.73-3.27 3.79-6.48 3.5-10.8 7.89-21.78 12.05-32.37 3.16-8.01 7.23-16.56 11.99-23.64 6.97-10.35 17.33-11.28 28.29-8.07 2.01 0.6 0.57-2.61-0.63-2.97l0 0z"/>
      <path style="fill:#ffccaa;" d="M2900.63 19.62c6.34-1.39 12.24-0.64 19.19 0.15 9.52 1.11 14.14 3.35 22.66 6.97 15.52 6.6 16.75 16.46 48.02 30.1 7.86 3.43 10.15 8.99 4.95 18.93-4.76 9.13-6.52 15.65-15.55 14.7-28.54-3.02-35.72-4.81-51.46-8.76-16.91-4.23-33.5-10.12-47.97-19.54-9.41-6.14-12.48-11.84-9.3-21.84 3.08-9.66 10.56-11.81 19.37-16.77 3.61-2.01 6.89-3.26 10.09-3.94z"/>
      <path style="fill:#ffccaa;" d="M2985.54 89.98c-1.49 0.61-3.28 0.82-5.55 0.57-28.38-3.16-35.56-4.97-51.26-8.97-16.85-4.26-33.39-10.18-47.84-19.59"/>
      <path style="fill:none;" d="M2985.54 89.98c-1.49 0.61-3.28 0.82-5.55 0.57-28.38-3.16-35.56-4.97-51.26-8.97-16.85-4.26-33.39-10.18-47.84-19.59"/>
      <path style="fill:#000000;" d="M2985.2 89.08c-8.08 1.96-20.41-1.4-28.75-2.69-5.96-0.94-11.88-2.15-17.72-3.53-20.01-4.75-39.28-10.89-56.49-21.71-1.06-0.68-4.25 0.76-2.7 1.71 17.93 11.28 38.07 17.41 58.83 22.33 6.76 1.59 13.58 2.81 20.47 3.81 8.55 1.27 18.64 3.9 27.04 1.87 2.17-0.53 1.45-2.31-0.68-1.79l0 0z"/>
      <path style="fill:#ffccaa;" d="M2890.65 23.99c3.56-1.98 6.83-3.17 9.99-3.84 6.31-1.35 12.18-0.55 19.08 0.27 9.49 1.16 14.08 3.38 22.57 7.01 15.48 6.61 16.77 16.33 47.98 29.99 2.94 1.28 5.1 2.85 6.41 4.84"/>
      <path style="fill:none;" d="M2890.65 23.99c3.56-1.98 6.83-3.17 9.99-3.84 6.31-1.35 12.18-0.55 19.08 0.27 9.49 1.16 14.08 3.38 22.57 7.01 15.48 6.61 16.77 16.33 47.98 29.99 2.94 1.28 5.1 2.85 6.41 4.84"/>
      <path style="fill:#000000;" d="M2891.83 24.55c18.27-9.31 44.83-1.54 60.49 10.62 4.43 3.43 8.53 7.16 13.16 10.32 3.87 2.65 7.9 5.06 12.09 7.33 5.82 3.14 13.24 5.12 17.46 10.09 0.83 0.99 4.25-0.16 3.28-1.3-3.93-4.6-9.89-6.42-15.43-9.14-5.61-2.76-10.95-6.01-15.98-9.58-6.01-4.27-11.2-9.42-17.52-13.35-17.03-10.66-41.98-15.25-59.9-6.11-2.08 1.06 1.08 1.76 2.35 1.12l0 0z"/>
      <path style="fill:#ffccaa;" d="M2872.97 63.2a13.54 6.95 17.1714 0 0 4.75-13.03 13.54 6.95 17.1714 0 0-4.75 13.03"/>
      <path style="fill:#ffccaa;" d="M2884.27 64.98c-3 0.82-6.71 0.71-10.39-0.47-3.69-1.19-6.12-2.78-7.95-5.15-1.84-2.37-4.48-5.72-3.62-8.15"/>
      <path style="fill:none;" d="M2884.27 64.98c-3 0.82-6.71 0.71-10.39-0.47-3.69-1.19-6.12-2.78-7.95-5.15-1.84-2.37-4.48-5.72-3.62-8.15"/>
      <path style="fill:#000000;" d="M2884 64.09c-5.49 1.2-11.41-0.47-15.46-4.2-2.33-2.14-4.97-5.77-4.42-8.79 0.24-1.37-3.37-0.97-3.58 0.24-0.72 4.03 3.56 9.68 7.27 11.81 5.14 2.96 10.96 4.01 16.75 2.75 2.16-0.47 1.61-2.29-0.56-1.81l0 0z"/>
    </symbol>
  </defs>

  <g style="display:none">
    <rect width="100%" height="950" style="fill:none;stroke:red;" />
    <rect width="450" height="950" style="fill:none;stroke:red;" />
    <rect x="450" width="450" height="950" style="fill:none;stroke:red;" />
    <rect x="900" width="450" height="950" style="fill:none;stroke:red;" />
    <rect x="1350" width="450" height="950" style="fill:none;stroke:red;" />
    <rect x="1800" width="450" height="950" style="fill:none;stroke:red;" />
    <rect x="2250" width="450" height="950" style="fill:none;stroke:red;" />
    <rect x="2700" width="450" height="950" style="fill:none;stroke:red;" />
    <rect x="3150" width="450" height="950" style="fill:none;stroke:red;" />
  </g>  
  
  <g clip-path="url(#cp1)">
    <g class="animate">
    <g id="strip5" transform="translate(450) scale(-1,1)translate(-280,180)">
      <g id="f1" transform="translate(0,80)">
        <use id="f1larm" xlink:href="#leftarm" transform="translate(-170,130)" />
        <g id="f1shirt" transform="translate(280,-320)">
          <path style="fill:#c23c32;stroke:#000000;stroke-width:2.55;stroke-linecap:round;stroke-linejoin:round;stroke-miterlimit:4;" d="M260.28 667.47c-29.43 19.12-78.46 5.37-92.33-26.11-13.86-31.47 3.13-60.21 24.41-85.7 15.56-18.64 29.51-57.08 29.18-85.46-0.38-32.8 4.12-73.69 36.17-88.14 32.05-14.44 70.7-2.85 81.3 29.99 11.61 35.9-19.38 214.79-78.73 255.42z"/>
          <path style="fill:#ffccaa;stroke:#000000;stroke-width:2.55;stroke-linecap:round;stroke-linejoin:round;stroke-miterlimit:4;" d="M280.27 384.64l9.68-40.97c0.87-3.68 9.47-4.23 18.49-1.45 9.02 2.79 14.94 7.83 14.07 11.51l-9.67 40.97c-4.73 4.55-10.47 7.8-32.57-10.06z"/>
        </g>
        <path style="fill:#1c1008;stroke:#000000;stroke-width:4.89459181;stroke-linecap:round;stroke-linejoin:round;stroke-miterlimit:4;" d="M386.08 628.78c-26.17 7.17-60.64 3.44-66.82-19.42-5.65-20.92-9.23-59.05-17.49-79.99-18.16-46-8.42-57.21 14.88-63.44 11.16-2.98 50.41 16.63 45.82 87.27-2.45 37.61-0.01 25.48 10.12 30.72 24.35 8.81 26.39 36.49 13.49 44.86z"/>
        <path style="fill:#c87137;stroke:#000000;stroke-width:4.89459181;stroke-linecap:round;stroke-linejoin:round;stroke-miterlimit:4;" d="M382.36 624.08c-16.77 2.95-51.03 5.18-57.21-17.67-5.65-20.92-9.41-58.99-17.5-80-20.08-52.15 0.18-65.34 24.25-62.93 13.07 1.3 41.08 16.17 36.46 86.76-2.46 37.61 0.25 26.23 10.13 30.72 24.35 8.81 24.57 39.48 3.87 43.12z"/>
        <path style="fill:#4c2b15;stroke:#000000;stroke-width:5;stroke-linecap:round;stroke-linejoin:round;stroke-miterlimit:4;" d="M695.39 526.76c24.48 31.32-32.52 74.98-60.28 112.27-26.6 35.73-66.07 16.34-66.75-8.38-0.67-24.72 4.89-41.56 63.88-67.46 41.75-18.34 47.32-56.69 63.15-36.43z"/>
        <path style="fill:#c87137;stroke:#000000;stroke-width:5;stroke-linecap:round;stroke-linejoin:round;stroke-miterlimit:4;" d="M692.05 524.37c23.62 31.32-34.56 74.97-63.35 112.28-27.58 35.73-66.52 16.34-66.52-8.38 0-24.72 6.03-41.56 65.73-67.46 42.25-18.34 48.87-56.69 64.14-36.44z"/>
        <g style="fill:#aad400;fill-rule:evenodd;stroke:#000000;stroke-width:5;stroke-linecap:round;stroke-linejoin:round;stroke-miterlimit:4" id="g76913">
          <path d="M463.91 362.71c-28.71 39.86-31.87 109.7-126.15 110-7.79 28.64-2.59 39.32 12.95 70.11 91.05-11.73 106.8-58.5 143.27-109.29"/>
          <path d="M449.58 260.06c-23.88 82.01-24.78 108.06 23.04 158.79 37.02 69.73 64.63 135.89 96.59 210.42 15.54-4.74 58.28-21.19 54.8-51.66-34.29-81.28-77.1-168.23-77.23-199.62 4.76-8.98 23.59-31.5 17.18-60.23-63.21-11.44-90.76-28.96-114.38-57.7z"/>
        </g>
  		<g id="f1rarm" transform="translate(280,-320)">
   		  <path style="fill:#ffccaa;stroke:#000000;stroke-width:0.79504991;stroke-linecap:round;stroke-linejoin:round;stroke-miterlimit:4;" d="M143.24 544.69l-13.73 16.34c6.74 6.61 9.83 16.61 7.5 28.01-4.28 20.81-14.8 39.91-36.21 41.58-1.54 0.13-3.41 0.4-5.13 0.17-2.86-0.37-5.31-2.19-4.86-8.54-5.18 5.02-19.06 5.13-14.44-5.78-7.67 6.77-14.73-1.22-9.77-10.92-5.86 5.8-8.43-4.81-6.49-13.61 4.33-19.74 22.94-36.46 42.95-38.83l6.13-18.76"/>
   		  <path style="fill:#ffccaa;stroke:#000000;stroke-width:0.79504991;stroke-linecap:round;stroke-linejoin:round;stroke-miterlimit:4;" d="M128.09 602.98c-5.86 6.18-11.43 23.13 3.96 15.86 14.03-6.63 17.85-41.1-0.37-48.17"/>
  	      <path style="fill:#ffccaa;stroke-width:0.6817131;stroke-miterlimit:4;" d="M154.67 417.31a29.44 23.94 48.9365 0 0 38.65 44.37 29.44 23.94 48.9365 0 0-38.65-44.37"/>
    	  <path style="fill:#ffccaa;stroke-width:0.6817131;stroke-miterlimit:4;" d="M182.48 464.8c7.86 1.21 15.66-0.47 21.82-5.68 9.05-7.66 26.2-16.7 25.62-30.47-0.32-7.68-17.61-30.63-22.86-30.89-3.04-0.16-25.3 4.53-28.99 6.04-6.21 2.56-12.28 5.41-17.58 9.37-1.65 1.25-3.22 2.38-4.63 3.5"/>
    	  <path style="fill:none;stroke-width:0.6817131;stroke-miterlimit:4;" d="M182.48 464.8c7.86 1.21 15.66-0.47 21.82-5.68 9.05-7.66 26.2-16.7 25.62-30.47-0.32-7.68-17.61-30.63-22.86-30.89-3.04-0.16-25.3 4.53-28.99 6.04-6.21 2.56-12.28 5.41-17.58 9.37-1.65 1.25-3.22 2.38-4.63 3.5"/>
          <path style="fill:#000000;stroke-width:0.6817131;stroke-miterlimit:4;" d="M182.04 466.57c16.46 1.86 31.61-10.94 42.46-22.63 9.16-9.85 6.89-19.44 0.77-29.31-3.58-5.75-7.91-11.27-12.9-15.86-3.46-3.19-5.99-2.81-10.57-2.03-17.25 2.9-31.81 7.47-46.09 18.48-14.47 16.64-8.93 23.46-7.2 22.09 2.65-23.58 30.79-32.69 44.87-35.62 4.16-0.88 8.38-1.75 12.6-2.16 3.45-0.34 7.17 4.94 9.11 7.11 8.57 9.61 18.92 22.26 8.53 34.96-4.4 5.36-10.7 9.32-16.18 13.45-7.98 6-14.6 9.14-24.5 8.03-1.28-0.14-2.51 3.29-0.9 3.49z"/>
          <path style="fill:#c23c32;stroke-width:0.6817131;stroke-miterlimit:4;" d="M265.56 397.37c-2.22-5.38-5.08-9.35-7.42-11.54-10.9-10.14-27-3.04-37.81-0.39-11.36 2.81-21.39 8.51-32.47 11.97-2.98 0.92-5.99 1.9-8.75 3.2-1.79 0.83-8.87-0.95-8.71 1.28 0.4 5.66 5.76 12.64 7.26 15.97 4.82 10.6 10.1 21 17.07 30.68 4.16 5.78 7.53 15.67 11.09 17.66 2.48 1.38 4.51-2.26 8.47-4.79 6.66-4.23 14.23-6.09 20.63-10.44 10.78-7.26 24.86-16.63 31.92-27.81"/>
          <path style="fill:none;stroke-width:0.6817131;stroke-miterlimit:4;" d="M265.56 397.37c-2.22-5.38-5.08-9.35-7.42-11.54-10.9-10.14-27-3.04-37.81-0.39-11.36 2.81-21.39 8.51-32.47 11.97-2.98 0.92-5.99 1.9-8.75 3.2-1.79 0.83-8.87-0.95-8.71 1.28 0.4 5.66 5.76 12.64 7.26 15.97 4.82 10.6 10.1 21 17.07 30.68 4.16 5.78 7.53 15.67 11.09 17.66 2.48 1.38 4.51-2.26 8.47-4.79 6.66-4.23 14.23-6.09 20.63-10.44 10.78-7.26 24.86-16.63 31.92-27.81"/>
          <path style="fill:#000000;stroke-width:0.6817131;stroke-miterlimit:4;" d="M266.49 396.15c-4.1-8.91-9.37-15.69-19.65-17.25-9.59-1.46-20.36 3.12-29.59 5.61-7.02 1.9-13.77 5.15-20.53 7.91-5.6 2.29-13.97 6.57-19.9 6.61-4.94 0.04-8.98 0.06-6.96 6.26 1.64 5.04 4.52 9.16 6.9 13.81 2.97 5.74 5.44 11.73 8.66 17.38 3.88 6.82 8.68 13.06 12.35 19.98 2.15 4.03 3.88 8.57 7.52 11.47 2.25 1.81 5.75-2.12 7.13-3.33 6.4-5.58 15.6-7.62 22.81-11.99 11.95-7.29 24.21-16.41 32.17-28.07 0.73-1.08 0.14-4.5-1.11-2.73-6.37 9.36-15.24 16.13-24.35 22.6-9.55 6.71-20.79 10.12-30.1 16.96-7.17 5.29-9.66-2.27-12.26-7.35-2.24-4.36-5.05-8.26-7.76-12.34-5.99-9.02-9.75-19.13-15.15-28.44-1.08-1.87-7.53-10.79-2.07-10.64 3.18 0.08 4.26-0.09 7.37-1.4 10.44-4.46 21.6-8.36 32.32-12.18 8.12-2.88 17.24-5.43 25.7-6.48 12.38-1.54 19.89 5.66 24.67 16.03 0.87 1.91 2.34-1.28 1.83-2.42l0 0z"/>
          <path style="fill:#ffccaa;stroke-width:0.6817131;stroke-miterlimit:4;" d="M184.95 467.32c1.12 6.42-0.06 12.26-1.35 19.14-1.8 9.42-4.51 13.89-8.97 22.14-8.13 15.05-18.92 15.61-35.66 45.91-4.2 7.61-10.39 9.53-20.87 3.67-9.63-5.36-16.6-7.56-15.02-16.5 5.04-28.28 7.43-35.33 12.71-50.78 5.64-16.59 13.07-32.75 24.19-46.56 7.24-8.98 13.63-11.66 24.3-7.81 10.3 3.73 12.18 11.33 17.01 20.46 1.96 3.74 3.11 7.09 3.66 10.33z"/>
          <path style="fill:#ffccaa;stroke-width:0.6817131;stroke-miterlimit:4;" d="M103.26 547.33c-0.58-1.53-0.69-3.33-0.27-5.57 5.18-28.12 7.59-35.16 12.91-50.56 5.67-16.54 13.13-32.64 24.24-46.43"/>
          <path style="fill:none;stroke-width:0.6817131;stroke-miterlimit:4;" d="M103.26 547.33c-0.58-1.53-0.69-3.33-0.27-5.57 5.18-28.12 7.59-35.16 12.91-50.56 5.67-16.54 13.13-32.64 24.24-46.43"/>
          <path style="fill:#000000;stroke-width:1.70428288;stroke-miterlimit:4;" d="M104.27 547.06c-1.63-8.2 2.78-20.29 4.69-28.51 1.38-5.89 3.07-11.71 4.93-17.46 6.39-19.65 14.26-38.48 27.08-54.91 0.8-1.02-0.57-4.29-1.69-2.81-13.36 17.13-21.27 36.83-27.9 57.22-2.15 6.64-3.89 13.36-5.4 20.16-1.91 8.45-5.39 18.34-3.7 26.87 0.44 2.2 2.42 1.61 1.99-0.56l0 0z"/>
          <path style="fill:#ffccaa;stroke-width:0.6817131;stroke-miterlimit:4;" d="M180.82 457.07c1.92 3.68 3.02 7.03 3.55 10.23 1.07 6.39-0.15 12.2-1.46 19.02-1.84 9.39-4.55 13.83-9.01 22.06-8.14 15.01-18.77 15.64-35.54 45.87-1.57 2.84-3.41 4.9-5.66 6.07"/>
          <path style="fill:none;stroke-width:0.6817131;stroke-miterlimit:4;" d="M180.82 457.07c1.92 3.68 3.02 7.03 3.55 10.23 1.07 6.39-0.15 12.2-1.46 19.02-1.84 9.39-4.55 13.83-9.01 22.06-8.14 15.01-18.77 15.64-35.54 45.87-1.57 2.84-3.41 4.9-5.66 6.07"/>
          <path style="fill:#000000;stroke-width:1.02256966;stroke-miterlimit:4;" d="M180.14 458.21c8.99 18.86-1.1 44.85-15.28 59.66-4 4.19-8.31 8.03-12.02 12.43-3.12 3.69-5.98 7.55-8.71 11.59-3.77 5.59-6.38 12.86-12.05 16.74-1.13 0.76-0.09 4.25 1.23 3.36 5.25-3.62 7.59-9.44 10.88-14.78 3.34-5.42 7.2-10.52 11.39-15.31 5.01-5.71 10.92-10.54 15.59-16.59 12.63-16.28 19.16-40.87 10.33-59.38-1.02-2.15-1.98 0.96-1.36 2.28l0 0z"/>
          <path style="fill:#ffccaa;stroke-width:0.6816951;stroke-miterlimit:4;" d="M139.31 436.78a7.5 13.66 23.3177 0 0 13.87 5.62 7.5 13.66 23.3177 0 0-13.87-5.62"/>
          <path style="fill:#ffccaa;stroke-width:0.6817131;stroke-miterlimit:4;" d="M136.68 447.95c-0.7-3.05-0.36-6.74 1.16-10.35 1.52-3.6 3.4-5.92 6.08-7.59 2.69-1.68 6.49-4.09 9.08-3.06"/>
          <path style="fill:none;stroke-width:0.6817131;stroke-miterlimit:4;" d="M136.68 447.95c-0.7-3.05-0.36-6.74 1.16-10.35 1.52-3.6 3.4-5.92 6.08-7.59 2.69-1.68 6.49-4.09 9.08-3.06"/>
          <path style="fill:#000000;stroke-width:0.6817131;stroke-miterlimit:4;" d="M137.67 447.74c-0.96-5.57 1.21-11.35 5.52-15.15 2.47-2.18 6.57-4.57 9.82-3.83 1.48 0.33 1.26-3.3-0.03-3.59-4.33-0.99-10.73 2.9-13.3 6.47-3.54 4.92-5.03 10.67-4.01 16.53 0.37 2.19 2.38 1.76 2-0.43l0 0z"/>
          <g id="f1head" transform="matrix(0.99826986,-0.05879865,0.05879865,0.99826986,615.13197,481.68299)">
            <use xlink:href="#head" />
          </g>
        </g>
      </g>
      
      <g id="f2" transform="translate(-30,90)">
        <g id="f2larm" transform="matrix(0.9012943,0.03249674,-0.08555763,0.99126437,372.087772,129.80161)">
           <use xlink:href="#leftarm" />
         </g>
         <g id="f2shirt"  transform="translate(310,-330)">
           <path style="fill:#c23c32;stroke:#000000;stroke-width:2.55;stroke-linecap:round;stroke-linejoin:round;stroke-miterlimit:4;" d="M702.49 704.01c-29.43 19.12-78.46 5.37-92.34-26.11-13.86-31.47 3.13-60.21 24.41-85.7 15.56-18.64 29.51-57.08 29.19-85.45-0.38-32.8 4.12-73.69 36.17-88.14 32.05-14.44 70.7-2.85 81.3 29.99 11.61 35.9-19.38 214.79-78.73 255.41z"/>
           <path style="fill:#ffccaa;stroke:#000000;stroke-width:2.55;stroke-linecap:round;stroke-linejoin:round;stroke-miterlimit:4;" d="M722.48 421.18l9.67-40.96c0.87-3.68 9.47-4.23 18.5-1.45 9.02 2.79 14.94 7.83 14.07 11.51l-9.67 40.97c-4.73 4.55-10.47 7.8-32.57-10.07z"/>
         </g>
        <path style="fill:#1c1008;stroke:#000000;stroke-width:4.89459181;stroke-linecap:round;stroke-linejoin:round;stroke-miterlimit:4;" d="M867.93 640.05c-26.17 7.17-60.64 3.44-66.82-19.42-5.65-20.92-9.23-59.05-17.5-80-18.16-46-8.42-57.21 14.89-63.44 11.16-2.98 50.41 16.63 45.81 87.27-2.45 37.61-0.01 25.48 10.13 30.72 24.35 8.81 26.39 36.49 13.49 44.87z"/>
        <path style="fill:#c87137;stroke:#000000;stroke-width:4.89459181;stroke-linecap:round;stroke-linejoin:round;stroke-miterlimit:4;" d="M864.21 635.35c-16.77 2.95-51.03 5.18-57.21-17.67-5.65-20.92-9.41-58.99-17.5-80-20.08-52.15 0.18-65.34 24.24-62.94 13.07 1.3 41.08 16.17 36.47 86.77-2.46 37.61 0.25 26.23 10.12 30.72 24.35 8.81 24.57 39.48 3.88 43.12z"/>
        <path style="fill:#4c2b15;stroke:#000000;stroke-width:5;stroke-linecap:round;stroke-linejoin:round;stroke-miterlimit:4;" d="M1145.94 575.54c3.83 39.57-67.7 45.79-111.14 62.34-41.63 15.86-64.51-21.69-51.81-42.91 12.71-21.21 26.44-32.43 90.12-22.61 45.07 6.95 70.36-22.41 72.83 3.18z"/>
        <path style="fill:#c87137;stroke:#000000;stroke-width:5;stroke-linecap:round;stroke-linejoin:round;stroke-miterlimit:4;" d="M1144.41 571.73c3.1 39.11-69.42 44.69-113.74 60.7-42.45 15.33-64.89-21.93-51.61-42.79 13.27-20.85 27.4-31.82 91.67-21.62 45.49 7.22 71.67-21.58 73.68 3.71z"/>
        <g style="fill:#aad400;fill-rule:evenodd;stroke:#000000;stroke-width:5;stroke-linecap:round;stroke-linejoin:round;stroke-miterlimit:4" id="g76928">
          <path d="M929.65 367.76c-32.34 97.33-41.61 152.27-97.22 105.57-28.54 31.39-10.81 68.23-3.62 83.27 82.87 31.23 97-56.01 143.26-109.28"/>
          <path d="M920 304.86c-17.36 71.68-23.86 100.68 23.96 151.42 19.54 33.04 88.78 50 38.05 133.45 12.76 10.12 21.18 22.59 72.64-7.88 5.66-16.87 21.59-55.9 10.62-84.46-17.35-45.13-54.02-60.13-54.11-79.36 4.76-8.98 20.33-26.52 13.93-55.24-63.21-11.44-79.2-31.37-105.09-57.93z"/>
        </g>
        <g id="f2head" transform="matrix(0.99950186,0.03156006,-0.03156006,0.99950186,1358.7548,213.04289)">
          <use xlink:href="#head" />
        </g>
        <g id="f2rarm" transform="matrix(0.98269476,0.18523232,-0.18523232,0.98269476,315.9503896,32.97968)">
          <use xlink:href="#rightarm234" transform="translate(-458,22)" />
        </g>
      </g>
      
      <g id="f3" transform="translate(35,60)">
        <g id="f3larm" transform="matrix(0.88714995,0.16233432,-0.22783364,0.96851277,782.44537,36.10762)">
          <use xlink:href="#leftarm" />
        </g>
        <g id="f3shirt" transform="translate(255,-300)">
          <path style="fill:#c23c32;stroke:#000000;stroke-width:2.55;stroke-linecap:round;stroke-linejoin:round;stroke-miterlimit:4;" d="M1158.74 667.52c-29.43 19.12-78.46 5.37-92.34-26.11-13.86-31.47 3.13-60.21 24.41-85.7 15.56-18.64 29.51-57.08 29.19-85.46-0.38-32.8 4.12-73.69 36.16-88.14 32.05-14.44 70.7-2.85 81.3 29.99 11.61 35.9-19.38 214.79-78.72 255.42z"/>
          <path style="fill:#ffccaa;stroke:#000000;stroke-width:2.55;stroke-linecap:round;stroke-linejoin:round;stroke-miterlimit:4;" d="M1178.73 384.69l9.67-40.97c0.87-3.68 9.47-4.23 18.5-1.44 9.02 2.79 14.94 7.83 14.07 11.51l-9.68 40.97c-4.73 4.55-10.47 7.8-32.56-10.07z"/>
        </g>
        <path style="fill:#4c2b15;stroke:#000000;stroke-width:5;stroke-linecap:round;stroke-linejoin:round;stroke-miterlimit:4;" d="M1485.86 650.36c-14.9 36.85-81.19 9.3-127.37 3.89-44.24-5.19-47.18-49.06-26.1-62 21.07-12.93 38.44-16.53 90.36 21.62 36.75 27 72.75 12.66 63.11 36.49z"/>
        <path style="fill:#c87137;stroke:#000000;stroke-width:5;stroke-linecap:round;stroke-linejoin:round;stroke-miterlimit:4;" d="M1486.26 646.28c-15.33 36.11-82.21 7.53-128.91 1.23-44.73-6.03-47.4-49.45-25.99-61.8 21.41-12.35 39.01-15.55 91.29 23.21 36.99 27.43 73.52 14 63.61 37.36z"/>
        <path style="fill:#502d16;stroke:#000000;stroke-width:4.89459181;stroke-linecap:round;stroke-linejoin:round;stroke-miterlimit:4;" d="M1174 595.68c-26.81-20.32 17.47-72.44 33.41-111.56 18.31-44.95 44.44-48.53 61.67-31.95 9.36 9.01 22.75 38.33-25.79 90.56-32.36 34.82-45.9 70.69-69.29 52.95z"/>
        <path style="fill:#c87137;stroke:#000000;stroke-width:4.89459181;stroke-linecap:round;stroke-linejoin:round;stroke-miterlimit:4;" d="M1177.49 599.39c-24.97-21.03 21.41-73.96 39.32-113.84 20.58-45.82 46.33-49.25 62.16-32.14 8.6 9.3 19.92 39.42-30.61 92.42-33.69 35.34-49.07 71.92-70.87 53.56z"/>
        <g style="fill:#aad400;fill-rule:evenodd;stroke:#000000;stroke-width:5;stroke-linecap:round;stroke-linejoin:round;stroke-miterlimit:4" id="g76943">
          <path d="M1317.07 390.01c-34.98 75.89-4.65 129.6-53.13 77.93-28.54 31.39-21.5 54-14.31 69.04 89.13 46.76 82.71-35.82 110.89-82.1"/>
          <path d="M1316.59 316.83c-10.67 61.03-18.79 107.65 27.64 132.15 19.54 33.04 44.51 85.09-10.17 157.63 12.76 10.12 48.92 23.98 69.09 8.37 9.21-16.2 31.79-58.23 24.28-115.63-6.46-49.46-20.78-74.63-20.86-93.86 4.76-8.98 16.16-16.02 9.75-44.75-63.21-11.44-76.11-15.18-99.73-43.91z"/>
        </g>
        <g id="f3head" transform="matrix(0.99814564,0.06087104,-0.06087104,0.99814564,1747.1703,206.36472)">
          <use xlink:href="#head" />
        </g>
        <g id="f3rarm" transform="matrix(0.98784292,-0.15545538,0.15545538,0.98784292,278.664327,368.19804)">
          <use xlink:href="#rightarm234" />
        </g>
      </g>
      
      <g id="f4" transform="translate(100,35)">
        <g id="f4larm" transform="matrix(0.85112485,0.29828502,-0.37563734,0.92131523,1167.03477,-84.45764)">
          <use xlink:href="#leftarm" />
        </g>
        <g id="f4shirt" transform="translate(190,-275)">
          <path style="fill:#c23c32;stroke:#000000;stroke-width:2.55;stroke-linecap:round;stroke-linejoin:round;stroke-miterlimit:4;" d="M1584.28 636.98c-30.96 18.57-78.78 2.21-90.06-31.01-11.26-33.22 8.06-62.28 31.4-87.79 17.07-18.65 34.15-57.9 36.15-87.34 2.31-34.02 10.15-76.21 43.34-89.82 33.19-13.6 70.83 0.07 78.72 34.56 8.65 37.71-36.96 221.82-99.55 261.4z"/>
          <path style="fill:#ffccaa;stroke:#000000;stroke-width:2.55;stroke-linecap:round;stroke-linejoin:round;stroke-miterlimit:4;" d="M1627.43 344.65l13.01-42.05c1.17-3.78 9.81-3.98 18.59-0.71 8.78 3.28 14.28 8.76 13.11 12.54l-13.02 42.05c-5.1 4.52-11.09 7.64-31.69-11.83z"/>
        </g>
        <path style="fill:#502d16;stroke:#000000;stroke-width:4.89459181;stroke-linecap:round;stroke-linejoin:round;stroke-miterlimit:4;" d="M1580.96 581.47c-21.54-25.85 33.36-66.64 57.7-101.15 27.97-39.66 54.24-37.25 67.29-17.22 7.08 10.89 13.52 42.47-45.54 82.41-39.38 26.63-60.66 58.52-79.45 35.96z"/>
        <path style="fill:#c87137;stroke:#000000;stroke-width:4.89459181;stroke-linecap:round;stroke-linejoin:round;stroke-miterlimit:4;" d="M1583.52 585.88c-19.59-26.12 37.54-67.23 63.99-102.05 30.38-40 56.24-37.54 67.8-17.29 6.28 11 10.52 42.9-50.67 83.14-40.8 26.83-64.03 59-81.12 36.2z"/>
        <path style="fill:#4c2b15;stroke:#000000;stroke-width:5;stroke-linecap:round;stroke-linejoin:round;stroke-miterlimit:4;" d="M1791.35 669.08c-10.27 38.4-79.44 19.19-125.94 19.49-44.55 0.28-52.84-42.9-33.51-58.34 19.33-15.42 36.12-21.12 92.33 10.37 39.78 22.29 73.75 3.64 67.12 28.48z"/>
        <path style="fill:#c87137;stroke:#000000;stroke-width:5;stroke-linecap:round;stroke-linejoin:round;stroke-miterlimit:4;" d="M1791.24 664.97c-10.78 37.72-80.67 17.56-127.78 17.04-45.13-0.5-53.11-43.26-33.38-58.14 19.73-14.89 36.81-20.21 93.44 11.84 40.08 22.69 74.69 4.87 67.72 29.26z"/>
        <g style="fill:#aad400;fill-rule:evenodd;stroke:#000000;stroke-width:5;stroke-linecap:round;stroke-linejoin:round;stroke-miterlimit:4" id="g76958">
          <path d="M1731.07 432.62c9.22 45.79-7.64 63.87-46.26 35.8-28.54 31.39-20.81 62.55-13.63 77.6 121.49-16.39 131.39-44.64 87.74-146.49"/>
          <path d="M1679.87 324.11c-14.25 65.38-23.02 83.94 7.15 110.2 11.51 44.26 14.79 112.25-49.1 195.02 12.14 10.84 56.81 20.26 77.85 3.54 10.15-17.36 28.34-61.81 38.74-131.33 7.81-52.26 15.36-71.12 16.41-91.71 5.28-9.62 14.31-29.9 9.61-60.67-40.32 5.11-77.85-3.53-100.66-25.05z"/>
        </g>
        <g id="f4head" transform="matrix(0.99965032,0.01030194,-0.03909212,0.99994693,2138.1296,173.18771)">
          <use xlink:href="#head" />
        </g>
        <g id="f4rarm" transform="matrix(0.93807864,-0.34642241,0.34642241,0.93807864,718.71635,559.01887)">
          <use xlink:href="#rightarm234" />
        </g>
      </g>
      
      <g id="f8" transform="translate(1610,20)">
        <g id="f8larm" transform="matrix(0.12748651,0.9918403,-0.9918403,0.12748651,1995.7547,-155.98183)">
          <use xlink:href="#leftarm" transform="translate(-450,-40)" />
        </g>
        <g id="f8shirt" transform="translate(-1190,-260)">
          <path style="fill:#c23c32;stroke:#000000;stroke-width:2.55;stroke-linecap:round;stroke-linejoin:round;stroke-miterlimit:4;" d="M3271.74 647.2c-24.65 17.94-66.54 2.14-78.91-29.97-12.34-32.1 1.57-60.17 19.18-84.82 12.88-18.02 24.03-55.95 23.24-84.39-0.92-32.87 2.16-73.64 29.12-86.79 26.96-13.14 60 0.07 69.6 33.39 10.51 36.44-12.56 214.33-62.23 252.58z"/>
          <path style="fill:#ffccaa;stroke:#000000;stroke-width:2.55;stroke-linecap:round;stroke-linejoin:round;stroke-miterlimit:4;" d="M3283.58 364.74l7.47-40.63c0.67-3.65 7.97-3.85 15.69-0.68 7.71 3.17 12.83 8.46 12.16 12.11l-7.47 40.63c-3.93 4.36-8.75 7.38-27.85-11.43z"/>
        </g>
        <path style="fill:#1c1008;stroke:#000000;stroke-width:4.89459181;stroke-linecap:round;stroke-linejoin:round;stroke-miterlimit:4;" d="M2121.39 677.78c-26.17 7.17-60.64 3.44-66.82-19.41-5.65-20.92-9.23-59.05-17.49-80-18.16-46-8.42-57.21 14.88-63.44 11.16-2.98 50.41 16.63 45.82 87.27-2.45 37.61-0.01 25.48 10.12 30.72 24.35 8.81 26.39 36.49 13.49 44.86z"/>
        <path style="fill:#c87137;stroke:#000000;stroke-width:4.89459181;stroke-linecap:round;stroke-linejoin:round;stroke-miterlimit:4;" d="M2117.67 673.09c-16.77 2.95-51.03 5.18-57.21-17.68-5.65-20.92-9.41-58.99-17.5-79.99-20.08-52.15 0.18-65.34 24.25-62.94 13.07 1.3 41.08 16.17 36.46 86.77-2.46 37.61 0.25 26.23 10.12 30.72 24.35 8.81 24.57 39.48 3.88 43.12z"/>
        <path style="fill:#4c2b15;stroke:#000000;stroke-width:5;stroke-linecap:round;stroke-linejoin:round;stroke-miterlimit:4;" d="M2006.58 705.91c-36.99 14.56-62.63-52.5-90.49-89.73-26.69-35.67 3.12-67.99 27.01-61.61 23.89 6.39 38.45 16.51 46.51 80.44 5.71 45.24 40.89 61.49 16.97 70.9z"/>
        <path style="fill:#c87137;stroke:#000000;stroke-width:5;stroke-linecap:round;stroke-linejoin:round;stroke-miterlimit:4;" d="M2009.82 703.38c-36.75 13.74-62.05-54.46-89.62-92.66-26.41-36.6 3.25-68.42 26.94-61.39 23.7 7.03 38.13 17.6 45.99 82.2 5.56 45.72 40.45 62.97 16.69 71.85z"/>
        <g style="fill:#aad400;fill-rule:evenodd;stroke:#000000;stroke-width:5;stroke-linecap:round;stroke-linejoin:round;stroke-miterlimit:4" id="g76973">
          <path d="M2072.57 449.65c15.83 44.16 16.76 45.36-12.59 84.73 0.08 47.68 27.97 42.41 41.71 43.33 52.34-59.5 58.88-104.68-4.45-211.8"/>
          <path d="M2000.89 305.39c-14.65 66.53-8.58 82.89-0.69 101.04 2.22 82.86 19.66 104.26-44.29 149.94-9.72 36.31 8.41 65 30.08 72.6 12.7-17.36 56.61-55.12 63.68-116.49 7.81-67.76 23.18-65.01 31.51-79.37 30.64-40.88 24.23-81.16 24.05-111.93-41.07 5.11-84.7 5.73-104.34-15.79z"/>
        </g>
        <g id="f8head" transform="matrix(1.0004162,0.00994213,0.0198962,0.96502283,2428.0743,213.74867)">
          <use xlink:href="#head" />
        </g>
        <g id="f8rarm" transform="matrix(0.94981981,0.288416,-0.23594352,0.98118622,-697.41303,-640.84001)">
          <use xlink:href="#rightarm78" />
        </g>
      </g>
      
      <g id="f5" transform="translate(-100,30)">
        <g id="f5larm" transform="matrix(0.57017596,0.69455707,-0.78912988,0.55586636,2037.9001,-367.709187)">
          <use xlink:href="#leftarm" />
        </g>
        <g id="f5shirt" transform="translate(480,-270)">
          <path style="fill:#c23c32;stroke:#000000;stroke-width:2.55;stroke-linecap:round;stroke-linejoin:round;stroke-miterlimit:4;" d="M1955.49 652.01c-28.51 17.93-74.29 2.14-86.21-29.94-11.91-32.07 5.22-60.13 26.26-84.77 15.39-18.01 30.01-55.9 30.76-84.32 0.87-32.85 6.65-73.58 37.46-86.72 30.81-13.13 66.87 0.07 75.64 33.37 9.61 36.41-26.35 214.17-83.91 252.38z"/>
          <path style="fill:#ffccaa;stroke:#000000;stroke-width:2.55;stroke-linecap:round;stroke-linejoin:round;stroke-miterlimit:4;" d="M1984.97 369.77l10.67-40.6c0.96-3.65 9.1-3.85 17.52-0.69 8.41 3.16 13.81 8.45 12.85 12.1l-10.67 40.61c-4.64 4.36-10.18 7.37-30.37-11.42z"/>
        </g>
        <path style="fill:#1c1008;stroke:#000000;stroke-width:4.89459181;stroke-linecap:round;stroke-linejoin:round;stroke-miterlimit:4;" d="M2307.82 693.96c-26.17 7.17-60.64 3.44-66.82-19.42-5.65-20.92-9.23-59.05-17.49-80-18.16-46-8.42-57.21 14.88-63.43 11.16-2.98 50.41 16.63 45.82 87.26-2.45 37.61-0.01 25.48 10.12 30.72 24.35 8.81 26.39 36.49 13.49 44.87z"/>
        <path style="fill:#c87137;stroke:#000000;stroke-width:4.89459181;stroke-linecap:round;stroke-linejoin:round;stroke-miterlimit:4;" d="M2304.1 689.26c-16.77 2.95-51.03 5.18-57.21-17.67-5.65-20.92-9.41-58.99-17.5-80-20.08-52.15 0.18-65.34 24.25-62.94 13.07 1.3 41.08 16.17 36.46 86.77-2.46 37.61 0.25 26.23 10.12 30.72 24.35 8.81 24.57 39.48 3.88 43.12z"/>
        <path style="fill:#4c2b15;stroke:#000000;stroke-width:5;stroke-linecap:round;stroke-linejoin:round;stroke-miterlimit:4;" d="M2604.29 478.47c30.66 25.3-15.57 80.23-34.64 122.64-18.26 40.63-60.99 30.22-66.99 6.23-5.99-23.99-4.19-41.63 47.82-79.66 36.81-26.92 33.97-65.57 53.81-49.21z"/>
        <path style="fill:#c87137;stroke:#000000;stroke-width:5;stroke-linecap:round;stroke-linejoin:round;stroke-miterlimit:4;" d="M2600.51 476.87c29.82 25.49-17.57 80.67-37.63 123.3-19.22 40.84-61.42 30.31-66.76 6.17-5.33-24.14-3.08-41.88 49.62-80.06 37.3-27.02 35.48-65.9 54.77-49.41z"/>
        <g style="fill:#aad400;fill-rule:evenodd;stroke:#000000;stroke-width:5;stroke-linecap:round;stroke-linejoin:round;stroke-miterlimit:4" id="g76988">
          <path d="M2387.5 459.8c32.6 49.51 53.54 95.09 122.9 144.8 24.82-22.17 28.14-42.8 25.71-64.99-56.16-41.83-92.24-100.76-108.99-140.53"/>
          <path d="M2346.85 323.54c-25.55 35.72-27.61 60.96-11.01 89.37 3.86 39.7 6.23 64.39-3.78 94.92-25.01 14.55-43.68 24.24-77.03 25.96-17.36 31.49-15.66 57.65 3.48 72.51 65.25-25.02 101.24-39.15 118.46-62.82 37.24-51.2 32.59-80.35 41.05-87.08 29.59-29.68 32.94-66.53 34.53-93.36-27.29 1.3-68.15-8.11-105.7-39.5z"/>
        </g>
        <g id="f5head" transform="matrix(0.99980842,0.00994213,-0.0390983,0.96502283,2785.6729,199.10371)">
          <use xlink:href="#head" />
        </g>
        <g id="f5rarm" transform="translate(480,220)">
          <use xlink:href="#rightarm56" />
        </g>
      </g>
      
      <g id="f6" transform="translate(-60,40)">
        <g id="f6larm" transform="matrix(0.52339008,0.751461,-0.82487421,0.46843948,2492.1089,-362.964657)">
          <use xlink:href="#leftarm" />
        </g>
        <g id="f6shirt" transform="translate(440,-280)">
          <path style="fill:#c23c32;stroke:#000000;stroke-width:2.55;stroke-linecap:round;stroke-linejoin:round;stroke-miterlimit:4;" d="M2429.85 711.73c-29.47 17.92-78.62 2.14-92.56-29.92-13.92-32.06 3.08-60.1 24.37-84.73 15.57-18 29.51-55.88 29.16-84.29-0.42-32.83 4.05-73.55 36.15-86.68 32.1-13.13 70.85 0.07 81.5 33.35 11.67 36.4-19.2 214.07-78.62 252.27z"/>
          <path style="fill:#ffccaa;stroke:#000000;stroke-width:2.55;stroke-linecap:round;stroke-linejoin:round;stroke-miterlimit:4;" d="M2449.58 429.62l9.65-40.59c0.87-3.65 9.49-3.84 18.54-0.68 9.04 3.16 14.98 8.45 14.11 12.09l-9.65 40.59c-4.73 4.36-10.48 7.37-32.65-11.41z"/>
        </g>
        <path style="fill:#502d16;stroke:#000000;stroke-width:4.89459181;stroke-linecap:round;stroke-linejoin:round;stroke-miterlimit:4;" d="M2657 674.62c-32.71-7.87-13.03-73.37-14.1-115.6-1.24-48.52 21.27-62.27 43.69-53.99 12.18 4.5 36.2 26 12.67 93.29-15.69 44.87-13.72 83.16-42.26 76.3z"/>
        <path style="fill:#c87137;stroke:#000000;stroke-width:4.89459181;stroke-linecap:round;stroke-linejoin:round;stroke-miterlimit:4;" d="M2661.69 676.62c-31.31-9.26-10.03-76.34-9.61-120.06 0.48-50.23 22.7-63.69 44.07-54.36 11.61 5.07 34.05 28.13 9 96.94-16.7 45.88-16.13 85.56-43.46 77.48z"/>
        <path style="fill:#4f2c16;stroke:#000000;stroke-width:5;stroke-linecap:round;stroke-linejoin:round;stroke-miterlimit:4;" d="M2983.72 652.9c-7.2 38.14-79.61 25.35-127.14 29.56-45.54 4.05-57.73-37.16-39.3-53.77 18.45-16.61 35.14-23.56 95.35 2.26 42.6 18.26 75.75-2.71 71.09 21.95z"/>
        <path style="fill:#c87137;stroke:#000000;stroke-width:5;stroke-linecap:round;stroke-linejoin:round;stroke-miterlimit:4;" d="M2983.2 646.14c-7.21 38.14-79.61 25.35-127.15 29.58-45.54 4.04-57.73-37.17-39.29-53.78 18.44-16.61 35.14-23.56 95.34 2.25 42.6 18.26 75.76-2.71 71.1 21.95z"/>
        <g style="fill:#aad400;fill-rule:evenodd;stroke:#000000;stroke-width:5;stroke-linecap:round;stroke-linejoin:round;stroke-miterlimit:4" id="g77003">
          <path d="M2814.48 493.23c-13.1 59.22 106.36 37.37 7.1 127.64 16.88 17.18 49.65 22.23 76.68 4.84 53.33-82.7 8.44-109.83-33.29-169.55"/>
          <path d="M2763.12 441.15c-14.71 77.25 4.09 119.72-75.22 88.66-14.93 20.83-21.2 36.42-17.81 58.89 95.82 24.77 112.16-0.61 127.74-34.07 19.01-40.81 21.3-60.74 41.73-73.61 24.04-12.37 34.73-37.94 36.57-61.01-37.34-2.23-86.04-28.04-104.72-51.2-14.17 30.42-22.57 51.01-8.29 72.34z"/>
        </g>
        <g id="f6head" transform="matrix(1.0002136,0.00994213,2.3136974e-4,0.96502283,3219.6478,252.42906)">
          <use xlink:href="#head" />
        </g>
        <g id="f6rarm" transform="matrix(0.98728212,-0.12367655,0.16411883,0.99232258,937.98669,518.40261)">
          <use xlink:href="#rightarm56" />
        </g>
      </g>
      
      <g id="f7" transform="translate(70,40)">
        <g id="f7larm" transform="matrix(0.29819408,0.864474,-0.93357482,0.19445798,2979.0432,-480.4944)">
          <use xlink:href="#leftarm" />
        </g>
        <g id="f7shirt" transform="translate(310,-280)">
          <path style="fill:#c23c32;stroke:#000000;stroke-width:2.55;stroke-linecap:round;stroke-linejoin:round;stroke-miterlimit:4;" d="M2875.91 685.85c-27.13 17.93-73.23 2.14-86.83-29.95-13.58-32.08 1.73-60.13 21.11-84.77 14.17-18.01 26.45-55.91 25.57-84.33-1.01-32.85 2.38-73.59 32.05-86.73 29.67-13.14 66.03 0.07 76.59 33.37 11.57 36.42-13.83 214.19-68.49 252.41z"/>
          <path style="fill:#ffccaa;stroke:#000000;stroke-width:2.55;stroke-linecap:round;stroke-linejoin:round;stroke-miterlimit:4;" d="M2888.95 403.58l8.22-40.6c0.74-3.65 8.77-3.85 17.26-0.69 8.49 3.16 14.12 8.45 13.38 12.11l-8.22 40.6c-4.33 4.36-9.63 7.38-30.64-11.42z"/>
        </g>
        <path style="fill:#502d16;stroke:#000000;stroke-width:4.89459181;stroke-linecap:round;stroke-linejoin:round;stroke-miterlimit:4;" d="M3002.04 607.23c-32.71-7.87-13.03-73.37-14.11-115.6-1.24-48.52 21.27-62.27 43.7-53.99 12.18 4.5 36.2 26 12.67 93.29-15.69 44.87-13.72 83.16-42.26 76.3z"/>
        <path style="fill:#c87137;stroke:#000000;stroke-width:4.89459181;stroke-linecap:round;stroke-linejoin:round;stroke-miterlimit:4;" d="M3006.73 609.22c-31.31-9.26-10.03-76.34-9.61-120.05 0.48-50.23 22.7-63.69 44.07-54.36 11.61 5.07 34.05 28.13 9 96.94-16.7 45.88-16.13 85.56-43.46 77.47z"/>
        <path style="fill:#4f2c16;stroke:#000000;stroke-width:5;stroke-linecap:round;stroke-linejoin:round;stroke-miterlimit:4;" d="M3261.37 650.2c-7.2 38.14-79.61 25.35-127.14 29.57-45.54 4.05-57.73-37.16-39.3-53.78 18.45-16.61 35.14-23.56 95.34 2.26 42.6 18.26 75.75-2.71 71.1 21.95z"/>
        <path style="fill:#c87137;stroke:#000000;stroke-width:5;stroke-linecap:round;stroke-linejoin:round;stroke-miterlimit:4;" d="M3260.85 643.45c-7.21 38.14-79.61 25.35-127.15 29.57-45.54 4.04-57.73-37.17-39.29-53.77 18.44-16.61 35.14-23.56 95.34 2.25 42.6 18.26 75.76-2.71 71.1 21.95z"/>
        <g style="fill:#aad400;fill-rule:evenodd;stroke:#000000;stroke-width:5;stroke-linecap:round;stroke-linejoin:round;stroke-miterlimit:4" id="g77018">
          <path d="M3175.76 419.77c34.14 105.86 30.01 138.51-1.06 205.88-25.36 15.66-54.41 20.74-71.75-7.32 64.65-69.64 19.84-139.34 24.57-182"/>
          <path d="M3096.18 330.43c-26.13 55.02-11.08 72.54-0.41 94.26-7.62 87.02-19.28 93.96-57.58 28.86-17.5 18.88-23.25 41.62-20.91 72.84 59.45 51.73 86.53 60.74 101.91 28.83 31.91-66.23 27.2-88.82 41.81-98.33 19.62-3.17 41.72-30.96 38-63.63-49.74-21.62-73.08-24.59-102.82-62.83z"/>
        </g>
        <g id="f7head" transform="matrix(1.0004162,0.00994213,0.0198962,0.96502283,3538.8626,235.52766)">
          <use xlink:href="#head" />
        </g>
        <g id="f7rarm" transform="matrix(0.98521248,-0.12123459,0.18191642,0.99262388,324.607869,565.50158)">
          <use xlink:href="#rightarm78" />
        </g>
      </g>
      
    </g>
  </g>
  </g>

</svg>

